<?xml version="1.0" encoding="UTF-8" standalone="no"?>
<!-- Created with Inkscape (http://www.inkscape.org/) -->
<svg
   xmlns:dc="http://purl.org/dc/elements/1.1/"
   xmlns:cc="http://creativecommons.org/ns#"
   xmlns:rdf="http://www.w3.org/1999/02/22-rdf-syntax-ns#"
   xmlns:svg="http://www.w3.org/2000/svg"
   xmlns="http://www.w3.org/2000/svg"
   xmlns:xlink="http://www.w3.org/1999/xlink"
   xmlns:sodipodi="http://sodipodi.sourceforge.net/DTD/sodipodi-0.dtd"
   xmlns:inkscape="http://www.inkscape.org/namespaces/inkscape"
   width="48"
   height="48"
   id="svg2"
   sodipodi:version="0.32"
   inkscape:version="0.46"
   version="1.0"
   sodipodi:docname="crear_3d.svg"
   inkscape:output_extension="org.inkscape.output.svg.inkscape">
  <defs
     id="defs4">
    <linearGradient
       id="linearGradient3358">
      <stop
         style="stop-color:#4e1818;stop-opacity:1;"
         offset="0"
         id="stop3360" />
      <stop
         id="stop3362"
         offset="0.37978989"
         style="stop-color:#940000;stop-opacity:1;" />
      <stop
         id="stop3364"
         offset="1"
         style="stop-color:#dc0808;stop-opacity:1;" />
    </linearGradient>
    <linearGradient
       id="linearGradient3336">
      <stop
         style="stop-color:#4e1818;stop-opacity:1;"
         offset="0"
         id="stop3338" />
      <stop
         id="stop3340"
         offset="0.4582659"
         style="stop-color:#940000;stop-opacity:1;" />
      <stop
         id="stop3342"
         offset="1"
         style="stop-color:#dc0808;stop-opacity:1;" />
    </linearGradient>
    <linearGradient
       id="linearGradient3300">
      <stop
         id="stop3308"
         offset="0"
         style="stop-color:#4e1818;stop-opacity:1;" />
      <stop
         style="stop-color:#940000;stop-opacity:1;"
         offset="0.69562352"
         id="stop3322" />
      <stop
         style="stop-color:#dc0808;stop-opacity:1;"
         offset="1"
         id="stop3304" />
    </linearGradient>
    <inkscape:perspective
       sodipodi:type="inkscape:persp3d"
       inkscape:vp_x="22.834507 : -67.351805 : 1"
       inkscape:vp_y="163.04886 : 71.233252 : 1"
       inkscape:vp_z="-116.10672 : 125.71655 : 1"
       inkscape:persp3d-origin="188.14303 : 248.03225 : 1"
       id="perspective10" />
    <linearGradient
       id="linearGradient3256"
       inkscape:collect="always">
      <stop
         id="stop3258"
         offset="0"
         style="stop-color:#000000;stop-opacity:1;" />
      <stop
         id="stop3260"
         offset="1"
         style="stop-color:#000000;stop-opacity:0;" />
    </linearGradient>
    <linearGradient
       id="linearGradient3264">
      <stop
         id="stop3266"
         offset="0"
         style="stop-color:#c9c9c9;stop-opacity:1;" />
      <stop
         style="stop-color:#f8f8f8;stop-opacity:1;"
         offset="0.25"
         id="stop3276" />
      <stop
         style="stop-color:#e2e2e2;stop-opacity:1;"
         offset="0.5"
         id="stop3272" />
      <stop
         id="stop3274"
         offset="0.75"
         style="stop-color:#b0b0b0;stop-opacity:1;" />
      <stop
         id="stop3268"
         offset="1"
         style="stop-color:#c9c9c9;stop-opacity:1;" />
    </linearGradient>
    <inkscape:perspective
       id="perspective22"
       inkscape:persp3d-origin="24 : 16 : 1"
       inkscape:vp_z="48 : 24 : 1"
       inkscape:vp_y="0 : 1000 : 0"
       inkscape:vp_x="0 : 24 : 1"
       sodipodi:type="inkscape:persp3d" />
    <radialGradient
       inkscape:collect="always"
       xlink:href="#linearGradient3300"
       id="radialGradient3312"
       cx="-34.558239"
       cy="72.334976"
       fx="-34.558243"
       fy="72.334976"
       r="19.700615"
       gradientTransform="matrix(0.8934483,5.9856281e-2,-3.6923127e-2,0.8453347,56.086036,-36.443912)"
       gradientUnits="userSpaceOnUse" />
    <radialGradient
       inkscape:collect="always"
       xlink:href="#linearGradient3358"
       id="radialGradient3356"
       cx="19.624994"
       cy="22.15597"
       fx="19.624994"
       fy="22.15597"
       r="19.281645"
       gradientTransform="matrix(0.9764689,0.189603,-5.9049306e-2,0.4664422,4.6843018,8.5793799)"
       gradientUnits="userSpaceOnUse" />
    <radialGradient
       inkscape:collect="always"
       xlink:href="#linearGradient3256"
       id="radialGradient3385"
       gradientUnits="userSpaceOnUse"
       gradientTransform="matrix(1,0,0,0.315315,0,26.81305)"
       cx="25.455845"
       cy="39.161163"
       fx="25.455845"
       fy="39.161163"
       r="19.622213" />
    <linearGradient
       inkscape:collect="always"
       xlink:href="#linearGradient3264"
       id="linearGradient3402"
       gradientUnits="userSpaceOnUse"
       gradientTransform="matrix(0.7373157,0,0,0.7373157,16.568211,14.887281)"
       x1="14.462892"
       y1="12.284524"
       x2="34.534348"
       y2="39.684914" />
  </defs>
  <sodipodi:namedview
     id="base"
     pagecolor="#ffffff"
     bordercolor="#666666"
     borderopacity="1.0"
     inkscape:pageopacity="0.0"
     inkscape:pageshadow="2"
     inkscape:zoom="5.6568542"
     inkscape:cx="41.424913"
     inkscape:cy="9.8097812"
     inkscape:document-units="px"
     inkscape:current-layer="layer1"
     showgrid="false"
     inkscape:window-width="1280"
     inkscape:window-height="969"
     inkscape:window-x="390"
     inkscape:window-y="32" />
  <metadata
     id="metadata7">
    <rdf:RDF>
      <cc:Work
         rdf:about="">
        <dc:format>image/svg+xml</dc:format>
        <dc:type
           rdf:resource="http://purl.org/dc/dcmitype/StillImage" />
      </cc:Work>
    </rdf:RDF>
  </metadata>
  <g
     inkscape:groupmode="layer"
     id="layer2"
     inkscape:label="icono"
     style="display:inline">
    <path
       id="path3490"
       style="fill:none;fill-opacity:1;fill-rule:evenodd;stroke:#000000;stroke-width:0.99480253;stroke-linecap:round;stroke-linejoin:round;stroke-miterlimit:4;stroke-dasharray:none;stroke-dashoffset:0;stroke-opacity:1"
       d="M 47.07619,9.8124072 L 40.69129,37.36927 L 28.198372,28.238981 L 29.885983,0.64592274 L 47.07619,9.8124072 z" />
    <path
       sodipodi:type="arc"
       style="opacity:0.40909088999999998;fill:url(#radialGradient3385);fill-opacity:1;fill-rule:nonzero;stroke:none;stroke-width:1.01758971;stroke-linecap:butt;stroke-linejoin:miter;marker:none;marker-start:none;marker-mid:none;marker-end:none;stroke-miterlimit:4;stroke-dasharray:none;stroke-dashoffset:0;stroke-opacity:1;visibility:visible;display:inline;overflow:visible"
       id="path3374"
       sodipodi:cx="25.455845"
       sodipodi:cy="39.161163"
       sodipodi:rx="19.622213"
       sodipodi:ry="6.1871843"
       d="M 45.078058,39.161163 A 19.622213,6.1871843 0 1 1 5.8336315,39.161163 A 19.622213,6.1871843 0 1 1 45.078058,39.161163 z"
       transform="matrix(0.9325851,0,0,1.0248018,0.1236022,1.5126258)" />
    <path
       id="path3484"
       style="fill:none;fill-opacity:1;fill-rule:evenodd;stroke:#000000;stroke-width:0.99480253;stroke-linecap:round;stroke-linejoin:round;stroke-miterlimit:4;stroke-dasharray:none;stroke-dashoffset:0;stroke-opacity:1"
       d="M 19.415699,17.684425 L 20.508438,47.354073 L 40.69129,37.36927 L 47.07619,9.8124072 L 19.415699,17.684425 z" />
    <path
       id="path3492"
       style="fill:none;fill-opacity:1;fill-rule:evenodd;stroke:#000000;stroke-width:0.99480253;stroke-linecap:round;stroke-linejoin:round;stroke-miterlimit:4;stroke-dasharray:1.98960509, 3.97921017;stroke-dashoffset:0;stroke-opacity:1"
       d="M 20.508438,47.354073 L 40.69129,37.36927 L 28.198372,28.238981 L 7.9958764,35.942133 L 20.508438,47.354073 z" />
    <path
       id="path3494"
       style="fill:none;fill-opacity:1;fill-rule:evenodd;stroke:#000000;stroke-width:0.99480253;stroke-linecap:round;stroke-linejoin:round;stroke-miterlimit:4;stroke-dasharray:none;stroke-dashoffset:0;stroke-opacity:1"
       d="M 2.1738104,5.6100214 L 7.9958764,35.942133 L 28.198372,28.238981 L 29.885983,0.64592274 L 2.1738104,5.6100214 z" />
    <path
       style="fill:url(#radialGradient3312);fill-opacity:1;fill-rule:evenodd;stroke:url(#radialGradient3356);stroke-width:0.97138751;stroke-linecap:butt;stroke-linejoin:miter;stroke-miterlimit:4;stroke-dasharray:none;stroke-opacity:1"
       d="M 18.199653,4.454162 C 17.340968,4.6602548 16.56743,5.1761997 15.814239,5.7037125 C 14.805085,6.3566015 13.795835,7.0180765 12.824683,7.7527457 C 11.839642,8.6489257 10.808549,9.4782563 9.889119,10.477687 C 9.328087,11.155138 8.958992,12.170456 9.233356,13.135369 C 9.439205,14.042894 10.028752,14.713298 10.477159,15.446035 C 11.53239,17.013421 12.695543,18.46196 13.810502,19.963164 C 15.105758,21.533433 16.670532,22.69446 18.174856,23.92487 C 19.295614,24.736372 20.431756,25.521109 21.621704,26.166764 C 22.08845,26.479951 23.053745,26.821666 22.712792,27.70231 C 22.259601,28.689702 21.234499,28.376629 20.486889,28.654417 C 19.156924,28.913329 17.821952,29.141747 16.495464,29.428419 C 15.638227,29.594864 14.812613,29.978416 14.083505,30.562254 C 13.472807,31.02288 12.832516,31.538399 12.521034,32.370365 C 12.207278,33.12368 12.14765,33.989571 12.149072,34.822625 C 12.162917,35.656642 12.35677,36.512463 12.826259,37.134727 C 13.561684,38.076104 14.63338,38.373671 15.618757,38.69733 C 17.199221,39.227516 18.792205,39.702329 20.404214,40.061067 C 21.664709,40.380224 22.946255,40.537975 24.22108,40.740497 C 24.992897,40.827452 25.776056,40.946523 26.545003,40.787503 C 27.305159,40.657998 28.009919,40.262979 28.738575,39.986667 C 29.500122,39.60283 30.263458,39.220656 30.974466,38.704656 C 32.022918,38.057485 32.977479,37.206531 34.020435,36.547046 C 34.803879,35.956746 35.588793,35.308334 36.153017,34.397285 C 36.485914,33.694902 36.774528,32.900198 36.723359,32.067868 C 36.62524,31.104935 36.268676,30.201681 36.064595,29.264173 C 35.831095,28.316344 35.530945,27.388472 35.362238,26.419152 C 35.248091,25.489835 35.286549,24.512627 35.613436,23.651415 C 35.94207,22.797581 36.298133,21.94842 36.740948,21.173642 C 37.175061,20.31936 37.711012,19.559417 38.169524,18.727396 C 38.657456,17.981063 38.931961,17.067253 38.85594,16.098203 C 38.890079,15.033963 38.714759,13.972828 38.378258,12.995009 C 38.121316,12.057077 37.576266,11.299906 37.004635,10.631043 C 36.415453,9.9392561 35.704192,9.4500398 34.953131,9.0829285 C 32.865054,8.0166344 30.72385,7.118447 28.583874,6.2268531 C 27.39433,5.7076183 26.152035,5.4155019 24.919766,5.0990898 C 22.842176,4.824844 20.764757,4.4972487 18.674529,4.4234509 C 18.515576,4.4124248 18.357944,4.4434896 18.199653,4.454162 z"
       id="path3298" />
    <path
       id="path3488"
       style="fill:none;fill-opacity:1;fill-rule:evenodd;stroke:#000000;stroke-width:0.99480253;stroke-linecap:round;stroke-linejoin:round;stroke-miterlimit:4;stroke-dasharray:none;stroke-dashoffset:0;stroke-opacity:1"
       d="M 19.415699,17.684425 L 20.508438,47.354073 L 7.9958764,35.942133 L 2.1738104,5.6100214 L 19.415699,17.684425 z" />
    <path
       id="path3486"
       style="fill:none;fill-opacity:1;fill-rule:evenodd;stroke:#000000;stroke-width:0.99480253;stroke-linecap:round;stroke-linejoin:round;stroke-miterlimit:4;stroke-dasharray:none;stroke-dashoffset:0;stroke-opacity:1"
       d="M 19.415699,17.684425 L 47.07619,9.8124072 L 29.885983,0.64592274 L 2.1738104,5.6100214 L 19.415699,17.684425 z" />
  </g>
  <g
     inkscape:label="rueda"
     inkscape:groupmode="layer"
     id="layer1"
     style="display:inline">
    <g
       id="g3397"
       transform="translate(0,1.25)"
       style="stroke:#000000;stroke-opacity:1">
      <path
         id="path3243"
         d="M 33.356087,19.445424 C 33.079764,19.464331 32.811184,19.507128 32.539773,19.538187 L 32.52122,19.538187 L 31.871879,23.081732 C 30.813506,23.322762 29.81779,23.73181 28.922017,24.287651 L 26.00926,22.191208 C 25.221865,22.802518 24.505343,23.515474 23.875711,24.287651 L 25.897944,27.237513 C 25.283938,28.175838 24.822209,29.247263 24.562157,30.372902 C 24.562113,30.378223 24.562121,30.390527 24.562157,30.391454 L 21.037164,30.948032 C 20.972718,31.474411 20.944402,32.018406 20.944402,32.562108 C 20.944402,33.006954 20.956684,33.445858 21.000059,33.879342 L 24.525052,34.51013 C 24.775752,35.73424 25.251992,36.877448 25.916497,37.886702 L 23.820054,40.762354 C 24.420461,41.507734 25.113625,42.186372 25.860839,42.784587 L 28.829254,40.743802 C 29.866675,41.40559 31.024743,41.869647 32.280036,42.098141 L 32.836614,45.604581 C 33.232116,45.640581 33.6377,45.641686 34.042533,45.641686 C 34.614062,45.641686 35.159985,45.620027 35.712266,45.548923 L 36.38016,41.968273 C 37.572014,41.671668 38.691646,41.15713 39.663969,40.465513 L 42.521068,42.543403 C 43.262001,41.913032 43.939541,41.188467 44.524748,40.409855 L 42.446858,37.404335 C 43.009582,36.432482 43.399499,35.3602 43.597118,34.213289 L 47.103559,33.656711 C 47.134308,33.290797 47.140664,32.935928 47.140664,32.562108 C 47.140664,31.912491 47.065158,31.275547 46.973691,30.651191 L 43.411593,30.00185 C 43.132446,28.971083 42.674431,28.009389 42.094358,27.14475 L 44.190801,24.269098 C 43.540972,23.47439 42.799697,22.740257 41.983043,22.116997 L 38.95897,24.194888 C 38.089821,23.680855 37.154493,23.286445 36.138976,23.06318 L 35.582398,19.538187 C 35.075809,19.478596 34.56505,19.445424 34.042533,19.445424 C 33.901312,19.445424 33.755971,19.44098 33.615823,19.445424 C 33.5475,19.44759 33.47989,19.441449 33.411745,19.445424 C 33.393288,19.4465 33.374508,19.444163 33.356087,19.445424 z M 33.838454,28.461984 C 33.906233,28.458545 33.973904,28.461984 34.042533,28.461984 C 36.238642,28.461984 38.03134,30.254684 38.03134,32.450792 C 38.031341,34.6469 36.238641,36.421047 34.042533,36.421047 C 31.846425,36.421048 30.072278,34.6469 30.072278,32.450792 C 30.072278,30.323313 31.737321,28.568605 33.838454,28.461984 z"
         style="fill:url(#linearGradient3402);fill-opacity:1;fill-rule:nonzero;stroke:#000000;stroke-width:0.59368299999999996;stroke-linecap:butt;stroke-linejoin:miter;marker:none;marker-start:none;marker-mid:none;marker-end:none;stroke-miterlimit:4;stroke-dasharray:none;stroke-dashoffset:0;stroke-opacity:1;visibility:visible;display:inline;overflow:visible" />
      <path
         transform="matrix(0.3600794,0,0,0.3600794,25.578964,23.879099)"
         d="M 36.239223,23.781593 A 12.727922,12.727922 0 1 1 10.783379,23.781593 A 12.727922,12.727922 0 1 1 36.239223,23.781593 z"
         sodipodi:ry="12.727922"
         sodipodi:rx="12.727922"
         sodipodi:cy="23.781593"
         sodipodi:cx="23.511301"
         id="path3283"
         style="opacity:0.64772728000000002;fill:none;fill-opacity:1;fill-rule:nonzero;stroke:#000000;stroke-width:1.64875566999999990;stroke-linecap:butt;stroke-linejoin:miter;marker:none;marker-start:none;marker-mid:none;marker-end:none;stroke-miterlimit:4;stroke-dasharray:none;stroke-dashoffset:0;stroke-opacity:1;visibility:visible;display:inline;overflow:visible"
         sodipodi:type="arc" />
      <path
         sodipodi:nodetypes="ccccccccccccccccccccccccccccccccc"
         style="opacity:0.34659088999999998;fill:none;fill-opacity:1;fill-rule:nonzero;stroke:#000000;stroke-width:0.59368282999999999;stroke-linecap:butt;stroke-linejoin:miter;marker:none;marker-start:none;marker-mid:none;marker-end:none;stroke-miterlimit:4;stroke-dasharray:none;stroke-dashoffset:0;stroke-opacity:1;visibility:visible;display:inline;overflow:visible"
         d="M 32.945132,20.146779 L 32.423766,23.577679 C 31.431723,23.803603 29.606904,24.49457 28.76727,25.015575 L 25.993564,22.945292 C 25.255516,23.51829 25.204902,23.557147 24.614731,24.280931 L 26.620223,27.255255 C 26.044698,28.134773 25.35342,29.702116 25.105219,30.822155 C 25.105219,30.822155 21.590967,31.414556 21.590967,31.414556 C 21.53056,31.907946 21.559591,32.963949 21.600247,33.370265 L 24.957076,33.974984 C 25.192064,35.122376 26.071437,36.969276 26.694295,37.915278 L 24.571536,40.719862 C 25.134315,41.418528 25.246948,41.482461 25.947333,42.043185 L 28.785831,39.96362 C 29.758235,40.583933 31.688367,41.338522 32.864989,41.552696 L 33.330844,44.940402 C 33.701559,44.974147 34.725691,45.068805 35.24336,45.002157 L 35.764725,41.475589 C 36.881884,41.197574 38.812195,40.405202 39.72358,39.75693 L 42.559043,41.805616 C 43.25354,41.214752 43.259762,41.125721 43.808293,40.395906 L 41.707132,37.409265 C 42.234589,36.498319 42.916599,34.71678 43.101834,33.641747 L 46.542014,33.070943 C 46.570836,32.727961 46.572239,31.771496 46.486504,31.186269 L 42.981532,30.581551 C 42.719879,29.615385 41.821943,27.874367 41.278226,27.063917 L 43.505934,24.259333 C 42.896831,23.514431 42.670358,23.412224 41.904886,22.828026 L 38.970718,24.929187 C 38.156039,24.44737 36.531504,23.71288 35.579632,23.503607 L 35.061302,20.146779 C 34.586462,20.090923 33.216495,20.115726 32.945132,20.146779 z"
         id="path3285" />
    </g>
  </g>
</svg>
