<?xml version="1.0" encoding="UTF-8" standalone="no"?>
<!-- Created with Inkscape (http://www.inkscape.org/) -->

<svg
   xmlns:dc="http://purl.org/dc/elements/1.1/"
   xmlns:cc="http://creativecommons.org/ns#"
   xmlns:rdf="http://www.w3.org/1999/02/22-rdf-syntax-ns#"
   xmlns:svg="http://www.w3.org/2000/svg"
   xmlns="http://www.w3.org/2000/svg"
   xmlns:xlink="http://www.w3.org/1999/xlink"
   xmlns:sodipodi="http://sodipodi.sourceforge.net/DTD/sodipodi-0.dtd"
   xmlns:inkscape="http://www.inkscape.org/namespaces/inkscape"
   width="48"
   height="48"
   id="svg2"
   sodipodi:version="0.32"
   inkscape:version="0.91 r13725"
   version="1.0"
   sodipodi:docname="color_by_cf.svg"
   inkscape:output_extension="org.inkscape.output.svg.inkscape">
  <defs
     id="defs4">
    <linearGradient
       id="linearGradient3367">
      <stop
         id="stop3369"
         offset="0"
         style="stop-color:#000000;stop-opacity:1" />
      <stop
         style="stop-color:#940000;stop-opacity:1;"
         offset="0.44431007"
         id="stop3371" />
      <stop
         style="stop-color:#dc0808;stop-opacity:1;"
         offset="1"
         id="stop3373" />
    </linearGradient>
    <linearGradient
       id="linearGradient3124">
      <stop
         style="stop-color:#4e1818;stop-opacity:1;"
         offset="0"
         id="stop3126" />
      <stop
         id="stop3128"
         offset="0.62318391"
         style="stop-color:#940000;stop-opacity:1;" />
      <stop
         id="stop3130"
         offset="1"
         style="stop-color:#dc0808;stop-opacity:1;" />
    </linearGradient>
    <linearGradient
       id="linearGradient3358">
      <stop
         style="stop-color:#000000;stop-opacity:1"
         offset="0"
         id="stop3360" />
      <stop
         id="stop3362"
         offset="0.11136102"
         style="stop-color:#940000;stop-opacity:1;" />
      <stop
         id="stop3364"
         offset="1"
         style="stop-color:#dc0808;stop-opacity:1;" />
    </linearGradient>
    <linearGradient
       id="linearGradient3336">
      <stop
         style="stop-color:#4e1818;stop-opacity:1;"
         offset="0"
         id="stop3338" />
      <stop
         id="stop3340"
         offset="0.4582659"
         style="stop-color:#940000;stop-opacity:1;" />
      <stop
         id="stop3342"
         offset="1"
         style="stop-color:#dc0808;stop-opacity:1;" />
    </linearGradient>
    <linearGradient
       id="linearGradient3300">
      <stop
         id="stop3308"
         offset="0"
         style="stop-color:#4e1818;stop-opacity:1;" />
      <stop
         style="stop-color:#940000;stop-opacity:1;"
         offset="0.23567311"
         id="stop3322" />
      <stop
         style="stop-color:#dc0808;stop-opacity:1;"
         offset="1"
         id="stop3304" />
    </linearGradient>
    <inkscape:perspective
       sodipodi:type="inkscape:persp3d"
       inkscape:vp_x="22.834507 : -67.351805 : 1"
       inkscape:vp_y="163.04886 : 71.233252 : 1"
       inkscape:vp_z="-116.10672 : 125.71655 : 1"
       inkscape:persp3d-origin="188.14303 : 248.03225 : 1"
       id="perspective10" />
    <linearGradient
       id="linearGradient3264">
      <stop
         id="stop3266"
         offset="0"
         style="stop-color:#c9c9c9;stop-opacity:1;" />
      <stop
         style="stop-color:#f8f8f8;stop-opacity:1;"
         offset="0.25"
         id="stop3276" />
      <stop
         style="stop-color:#e2e2e2;stop-opacity:1;"
         offset="0.5"
         id="stop3272" />
      <stop
         id="stop3274"
         offset="0.75"
         style="stop-color:#b0b0b0;stop-opacity:1;" />
      <stop
         id="stop3268"
         offset="1"
         style="stop-color:#c9c9c9;stop-opacity:1;" />
    </linearGradient>
    <inkscape:perspective
       id="perspective22"
       inkscape:persp3d-origin="24 : 16 : 1"
       inkscape:vp_z="48 : 24 : 1"
       inkscape:vp_y="0 : 1000 : 0"
       inkscape:vp_x="0 : 24 : 1"
       sodipodi:type="inkscape:persp3d" />
    <inkscape:perspective
       id="perspective2478"
       inkscape:persp3d-origin="372.04724 : 350.78739 : 1"
       inkscape:vp_z="744.09448 : 526.18109 : 1"
       inkscape:vp_y="6.1230318e-14 : 1000 : 0"
       inkscape:vp_x="0 : 526.18109 : 1"
       sodipodi:type="inkscape:persp3d" />
    <inkscape:path-effect
       teeth="10"
       id="path-effect3585"
       effect="gears" />
    <inkscape:path-effect
       teeth="10"
       id="path-effect3587"
       effect="gears" />
    <inkscape:path-effect
       prop_scale="1"
       id="path-effect3589"
       effect="skeletal" />
    <inkscape:path-effect
       prop_scale="1.04"
       id="path-effect3591"
       effect="bend_path" />
    <marker
       style="overflow:visible"
       id="Arrow2Sstart"
       refX="0"
       refY="0"
       orient="auto"
       inkscape:stockid="Arrow2Sstart">
      <path
         transform="matrix(0.3,0,0,0.3,-0.69,0)"
         d="M 8.7185878,4.0337352 L -2.2072895,0.016013256 L 8.7185884,-4.0017078 C 6.97309,-1.6296469 6.9831476,1.6157441 8.7185878,4.0337352 z"
         style="font-size:12px;fill-rule:evenodd;stroke-width:0.625;stroke-linejoin:round"
         id="path3703" />
    </marker>
    <marker
       orient="auto"
       refY="0"
       refX="0"
       id="RazorWire"
       inkscape:stockid="RazorWire">
       style=&quot;overflow:visible&quot;&gt;
      <path
   d="M 0.022727273,-0.74009011 L 0.022727273,0.69740989 L -7.7585227,3.0099099 L 10.678977,3.0099099 L 3.4914773,0.69740989 L 3.4914773,-0.74009011 L 10.741477,-2.8963401 L -7.7272727,-2.8963401 L 0.022727273,-0.74009011 z"
   style="fill:#808080;fill-opacity:1;fill-rule:evenodd;stroke:#000000;stroke-width:0.1pt"
   transform="scale(0.8,0.8)"
   id="path3906" />
</marker>
    <marker
       style="overflow:visible"
       id="Arrow1Send"
       refX="0"
       refY="0"
       orient="auto"
       inkscape:stockid="Arrow1Send">
      <path
         transform="matrix(-0.2,0,0,-0.2,-1.2,0)"
         style="fill-rule:evenodd;stroke:#000000;stroke-width:1pt;marker-start:none"
         d="M 0,0 L 5,-5 L -12.5,0 L 5,5 L 0,0 z"
         id="path3688" />
    </marker>
    <linearGradient
       id="linearGradient3199">
      <stop
         id="stop3201"
         offset="0"
         style="stop-color:#868686;stop-opacity:1;" />
      <stop
         id="stop3203"
         offset="1"
         style="stop-color:#ffffff;stop-opacity:1;" />
    </linearGradient>
    <inkscape:perspective
       id="perspective2712"
       inkscape:persp3d-origin="372.04724 : 350.78739 : 1"
       inkscape:vp_z="744.09448 : 526.18109 : 1"
       inkscape:vp_y="6.1230318e-14 : 1000 : 0"
       inkscape:vp_x="0 : 526.18109 : 1"
       sodipodi:type="inkscape:persp3d" />
    <inkscape:path-effect
       teeth="10"
       id="path-effect2710"
       effect="gears" />
    <inkscape:path-effect
       teeth="10"
       id="path-effect2708"
       effect="gears" />
    <inkscape:path-effect
       prop_scale="1"
       id="path-effect2706"
       effect="skeletal" />
    <inkscape:path-effect
       prop_scale="1.04"
       id="path-effect2704"
       effect="bend_path" />
    <marker
       style="overflow:visible"
       id="marker2700"
       refX="0"
       refY="0"
       orient="auto"
       inkscape:stockid="Arrow2Sstart">
      <path
         transform="matrix(0.3,0,0,0.3,-0.69,0)"
         d="M 8.7185878,4.0337352 L -2.2072895,0.016013256 L 8.7185884,-4.0017078 C 6.97309,-1.6296469 6.9831476,1.6157441 8.7185878,4.0337352 z"
         style="font-size:12px;fill-rule:evenodd;stroke-width:0.625;stroke-linejoin:round"
         id="path2702" />
    </marker>
    <marker
       orient="auto"
       refY="0"
       refX="0"
       id="marker2696"
       inkscape:stockid="RazorWire">
       style=&quot;overflow:visible&quot;&gt;
      <path
   d="M 0.022727273,-0.74009011 L 0.022727273,0.69740989 L -7.7585227,3.0099099 L 10.678977,3.0099099 L 3.4914773,0.69740989 L 3.4914773,-0.74009011 L 10.741477,-2.8963401 L -7.7272727,-2.8963401 L 0.022727273,-0.74009011 z"
   style="fill:#808080;fill-opacity:1;fill-rule:evenodd;stroke:#000000;stroke-width:0.1pt"
   transform="scale(0.8,0.8)"
   id="path2698" />
</marker>
    <marker
       style="overflow:visible"
       id="marker2692"
       refX="0"
       refY="0"
       orient="auto"
       inkscape:stockid="Arrow1Send">
      <path
         transform="matrix(-0.2,0,0,-0.2,-1.2,0)"
         style="fill-rule:evenodd;stroke:#000000;stroke-width:1pt;marker-start:none"
         d="M 0,0 L 5,-5 L -12.5,0 L 5,5 L 0,0 z"
         id="path2694" />
    </marker>
    <linearGradient
       id="linearGradient3198">
      <stop
         id="stop3200"
         offset="0"
         style="stop-color:#868686;stop-opacity:1;" />
      <stop
         id="stop3202"
         offset="1"
         style="stop-color:#ffffff;stop-opacity:1;" />
    </linearGradient>
    <inkscape:perspective
       id="perspective2672"
       inkscape:persp3d-origin="372.04724 : 350.78739 : 1"
       inkscape:vp_z="744.09448 : 526.18109 : 1"
       inkscape:vp_y="6.1230318e-14 : 1000 : 0"
       inkscape:vp_x="0 : 526.18109 : 1"
       sodipodi:type="inkscape:persp3d" />
    <inkscape:path-effect
       teeth="10"
       id="path-effect2670"
       effect="gears" />
    <inkscape:path-effect
       teeth="10"
       id="path-effect2668"
       effect="gears" />
    <inkscape:path-effect
       prop_scale="1"
       id="path-effect2666"
       effect="skeletal" />
    <inkscape:path-effect
       prop_scale="1.04"
       id="path-effect2664"
       effect="bend_path" />
    <marker
       style="overflow:visible"
       id="marker2660"
       refX="0"
       refY="0"
       orient="auto"
       inkscape:stockid="Arrow2Sstart">
      <path
         transform="matrix(0.3,0,0,0.3,-0.69,0)"
         d="M 8.7185878,4.0337352 L -2.2072895,0.016013256 L 8.7185884,-4.0017078 C 6.97309,-1.6296469 6.9831476,1.6157441 8.7185878,4.0337352 z"
         style="font-size:12px;fill-rule:evenodd;stroke-width:0.625;stroke-linejoin:round"
         id="path2662" />
    </marker>
    <marker
       orient="auto"
       refY="0"
       refX="0"
       id="marker2656"
       inkscape:stockid="RazorWire">
       style=&quot;overflow:visible&quot;&gt;
      <path
   d="M 0.022727273,-0.74009011 L 0.022727273,0.69740989 L -7.7585227,3.0099099 L 10.678977,3.0099099 L 3.4914773,0.69740989 L 3.4914773,-0.74009011 L 10.741477,-2.8963401 L -7.7272727,-2.8963401 L 0.022727273,-0.74009011 z"
   style="fill:#808080;fill-opacity:1;fill-rule:evenodd;stroke:#000000;stroke-width:0.1pt"
   transform="scale(0.8,0.8)"
   id="path2658" />
</marker>
    <marker
       style="overflow:visible"
       id="marker2652"
       refX="0"
       refY="0"
       orient="auto"
       inkscape:stockid="Arrow1Send">
      <path
         transform="matrix(-0.2,0,0,-0.2,-1.2,0)"
         style="fill-rule:evenodd;stroke:#000000;stroke-width:1pt;marker-start:none"
         d="M 0,0 L 5,-5 L -12.5,0 L 5,5 L 0,0 z"
         id="path2654" />
    </marker>
    <linearGradient
       id="linearGradient2646">
      <stop
         id="stop2648"
         offset="0"
         style="stop-color:#868686;stop-opacity:1;" />
      <stop
         id="stop2650"
         offset="1"
         style="stop-color:#ffffff;stop-opacity:1;" />
    </linearGradient>
    <linearGradient
       inkscape:collect="always"
       xlink:href="#linearGradient3199"
       id="linearGradient2707"
       gradientUnits="userSpaceOnUse"
       x1="-482.45612"
       y1="473.16379"
       x2="-361.58667"
       y2="473.16379" />
    <linearGradient
       inkscape:collect="always"
       xlink:href="#linearGradient3199"
       id="linearGradient2709"
       gradientUnits="userSpaceOnUse"
       x1="313.02472"
       y1="84.767693"
       x2="446.75058"
       y2="84.767693" />
    <linearGradient
       inkscape:collect="always"
       xlink:href="#linearGradient3199"
       id="linearGradient2711"
       gradientUnits="userSpaceOnUse"
       x1="-364.76328"
       y1="471.94717"
       x2="-243.89383"
       y2="471.94717" />
    <linearGradient
       inkscape:collect="always"
       xlink:href="#linearGradient3199"
       id="linearGradient2713"
       gradientUnits="userSpaceOnUse"
       x1="-196.22874"
       y1="441.06339"
       x2="46.90115"
       y2="441.06339" />
    <linearGradient
       inkscape:collect="always"
       xlink:href="#linearGradient3199"
       id="linearGradient2715"
       gradientUnits="userSpaceOnUse"
       x1="-482.46341"
       y1="403.97192"
       x2="-361.59396"
       y2="403.97192" />
    <linearGradient
       inkscape:collect="always"
       xlink:href="#linearGradient3199"
       id="linearGradient2717"
       gradientUnits="userSpaceOnUse"
       x1="312.86624"
       y1="11.616987"
       x2="446.5921"
       y2="11.616987" />
    <linearGradient
       inkscape:collect="always"
       xlink:href="#linearGradient3199"
       id="linearGradient2719"
       gradientUnits="userSpaceOnUse"
       x1="-367.11237"
       y1="404.1579"
       x2="-246.24292"
       y2="404.1579" />
    <linearGradient
       id="linearGradient3170">
      <stop
         id="stop3172"
         offset="0"
         style="stop-color:#73d216;stop-opacity:1;" />
      <stop
         id="stop3174"
         offset="1"
         style="stop-color:#37640a;stop-opacity:1;" />
    </linearGradient>
    <linearGradient
       id="linearGradient3157">
      <stop
         id="stop3159"
         offset="0"
         style="stop-color:#ef2929;stop-opacity:1;" />
      <stop
         id="stop3161"
         offset="1"
         style="stop-color:#930b0b;stop-opacity:1;" />
    </linearGradient>
    <inkscape:perspective
       id="perspective10-3"
       inkscape:persp3d-origin="372.04724 : 350.78739 : 1"
       inkscape:vp_z="744.09448 : 526.18109 : 1"
       inkscape:vp_y="0 : 1000 : 0"
       inkscape:vp_x="0 : 526.18109 : 1"
       sodipodi:type="inkscape:persp3d" />
    <radialGradient
       gradientUnits="userSpaceOnUse"
       gradientTransform="matrix(1.1925019,0,0,1.0610603,-8.2181611,0.8304362)"
       r="10.607718"
       fy="14.725016"
       fx="32.583611"
       cy="14.725016"
       cx="32.583611"
       id="radialGradient3178"
       xlink:href="#linearGradient3170"
       inkscape:collect="always" />
    <filter
       id="filter3561"
       inkscape:collect="always">
      <feGaussianBlur
         id="feGaussianBlur3563"
         stdDeviation="0.93742522"
         inkscape:collect="always" />
    </filter>
  </defs>
  <sodipodi:namedview
     id="base"
     pagecolor="#ffffff"
     bordercolor="#666666"
     borderopacity="1.0"
     inkscape:pageopacity="0.0"
     inkscape:pageshadow="2"
     inkscape:zoom="7.9999996"
     inkscape:cx="23.009189"
     inkscape:cy="27.738911"
     inkscape:document-units="px"
     inkscape:current-layer="layer2"
     showgrid="false"
     inkscape:window-width="1920"
     inkscape:window-height="1145"
     inkscape:window-x="1918"
     inkscape:window-y="32"
     inkscape:window-maximized="1" />
  <metadata
     id="metadata7">
    <rdf:RDF>
      <cc:Work
         rdf:about="">
        <dc:format>image/svg+xml</dc:format>
        <dc:type
           rdf:resource="http://purl.org/dc/dcmitype/StillImage" />
        <dc:title />
      </cc:Work>
    </rdf:RDF>
  </metadata>
  <g
     inkscape:groupmode="layer"
     id="layer2"
     inkscape:label="icono"
     style="display:inline">
    <path
       style="display:inline;fill:#acea6f;fill-opacity:1;fill-rule:evenodd;stroke:#4e9a06;stroke-width:0.42754683;stroke-linecap:butt;stroke-linejoin:miter;stroke-miterlimit:4;stroke-dasharray:none;stroke-opacity:1"
       d="m 22.758693,29.529787 c -0.212843,1.546314 4.051705,3.577989 1.679331,7.551274 -0.754613,2.931906 3.480886,0.799187 4.619712,2.671542 -0.01557,2.062305 1.864029,4.414427 4.213113,2.418045 3.584699,-4.523318 3.253809,-5.676331 9.366185,-7.819177 2.410183,-1.300299 1.03027,-3.928346 -1.002575,-4.295157 -2.928838,-0.517546 -3.290312,-3.41294 -3.227539,-5.831873 0.439723,-2.267254 -2.38418,-3.673146 -3.535094,-1.071054 -0.348944,1.740639 -1.227967,3.740083 -3.466571,4.934886 -1.99374,1.382671 -7.2044,-1.280774 -8.646562,1.441514 z"
       id="path3298-6"
       inkscape:connector-curvature="0"
       sodipodi:nodetypes="cccccccccc" />
    <path
       style="fill:#f68787;fill-opacity:1;fill-rule:evenodd;stroke:#cc0000;stroke-width:0.41324896;stroke-linecap:butt;stroke-linejoin:miter;stroke-miterlimit:4;stroke-dasharray:none;stroke-opacity:1"
       d="m 4.9323574,15.164518 c 0.1929413,1.505343 5.5165986,0.109741 4.3157639,4.408664 0.6838138,7.232949 3.4371147,-0.06963 4.9686977,1.423453 0.506685,1.944331 2.001235,6.014794 3.679997,3.581659 2.188583,-5.102681 1.589681,-6.109573 6.729055,-9.568869 1.911446,-1.792534 -0.03517,-3.939823 -2.017202,-3.805136 -2.852867,0.204346 -2.652839,-3.1001751 -3.20577,-5.391239 -0.164263,-2.2373133 -4.411752,-2.2284397 -4.82386,0.49184 0.115556,1.7203339 -0.196146,3.809333 -1.974788,5.462088 -1.503587,1.771741 -7.0194714,0.495403 -7.6718924,3.397539 z"
       id="path3298"
       inkscape:connector-curvature="0"
       sodipodi:nodetypes="cccccccccc" />
    <g
       inkscape:label="Capa 1"
       id="layer1-9"
       style="display:none"
       transform="matrix(-0.585828,0.81043541,-0.81043541,-0.585828,67.656314,27.550073)">
      <path
         inkscape:connector-curvature="0"
         style="fill:none;fill-rule:evenodd;stroke:#cc0000;stroke-width:1.00000012;stroke-linecap:butt;stroke-linejoin:miter;stroke-miterlimit:4;stroke-dasharray:2.00000002, 1.00000002;stroke-dashoffset:0;stroke-opacity:1"
         d="m 25.942359,32.903407 c -0.732392,0.126342 -2.390664,0.189952 -3.625991,-0.219958 -1.812192,-0.601327 -3.624381,-1.202653 -5.436572,-1.80398 -1.057945,-0.351051 -1.716144,-1.0604 -2.043769,-2.05469 -0.08231,-0.249791 -0.233186,-0.470669 -0.349781,-0.706003 -0.474844,-0.95843 -1.860854,-1.657177 -2.335737,-2.348217 -0.369773,-0.538086 -2.074777,-0.832224 -2.6305999,-0.872894 -0.833007,-0.06095 -1.6105394,0.01824 -2.514971,-0.04794 -0.9275164,-0.06787 -1.2697349,1.479713 -1.5244075,2.247208 -0.337417,1.016858 -0.4568512,1.822569 -0.5309472,2.773505 -0.091945,1.180012 0.014939,2.11718 -0.063607,3.125226 -0.064531,0.828185 0.8775717,1.833728 1.1071574,2.530485 0.1214784,0.368668 2.6505451,1.272803 3.0391601,1.401755 1.3014521,0.431852 2.7981851,0.687022 3.7406541,1.634527 1.407475,1.414995 1.699872,1.952127 2.509178,3.585643 0.609586,1.230394 1.469383,1.604417 2.74623,1.697846 0.749978,0.05488 2.15246,-1.240722 2.868613,-1.604524 1.36615,-0.693996 2.108947,-1.434061 3.279105,-2.254895 1.230285,-0.863006 1.799324,-1.465531 2.752987,-2.429473 0.832216,-0.841184 1.140651,-1.362716 1.232441,-2.540734 0.04543,-0.583069 -0.7082,-1.725224 -0.87397,-2.059816 -0.200068,-0.40382 -0.897057,-0.0816 -1.345173,-0.05307 z"
         id="path2383" />
      <path
         inkscape:connector-curvature="0"
         style="fill:url(#radialGradient3178);fill-opacity:1;fill-rule:evenodd;stroke:#52960f;stroke-width:1px;stroke-linecap:butt;stroke-linejoin:miter;stroke-opacity:1"
         d="m 33.190267,5.9826974 c -0.841373,-0.842217 -1.995326,1.4244119 -3.162099,1.6580009 -1.140959,0.228421 -2.061159,0.124784 -3.162098,-0.1507274 -1.724727,-0.4316148 -3.854464,0.7310986 -5.571315,0.3014547 -0.835696,-0.2091337 -1.947917,1.3373808 -2.258643,1.959456 -0.441769,0.8844284 -0.451728,2.1890544 -0.451728,3.0145474 0,2.000914 1.657723,2.721413 1.957489,4.521821 0.148888,0.894219 2.721965,2.376868 3.312675,3.165273 0.91631,1.222976 0.14828,2.898629 1.204609,4.220366 0.955104,1.19508 2.918934,1.590783 4.216131,2.110183 1.161675,0.465137 2.510493,0.501532 3.312674,-0.301454 0.496385,-0.496885 1.943629,-1.383823 2.71037,-1.959456 0.200768,-0.150727 0.401536,-0.301455 0.602304,-0.452182 1.01179,-0.759605 2.143057,-0.695786 3.162099,-1.205819 1.513835,-0.757677 2.336052,-3.067622 3.312674,-4.371093 0.63354,-0.845569 0.171447,-2.962317 -0.150576,-3.768184 -0.490148,-1.226601 -1.019046,-2.828798 -1.95749,-3.768183 C 39.280538,9.9689049 38.50064,9.4695517 37.255822,8.846517 36.443789,8.4400929 36.015641,7.9065457 35.599484,7.4899709 34.968325,6.8581785 34.582781,6.9617955 34.244299,6.2841521 33.984978,5.76499 33.89626,5.841357 33.190267,5.9826974 Z"
         id="path2385" />
    </g>
    <g
       id="g4396"
       transform="matrix(0.97465795,0.22370044,-0.22370044,0.97465795,8.7592358,-4.4151857)">
      <path
         sodipodi:nodetypes="cccccc"
         transform="matrix(-0.585828,0.81043541,-0.81043541,-0.585828,67.656314,27.550073)"
         inkscape:connector-curvature="0"
         id="path3536"
         style="fill:#2e3436;fill-rule:evenodd;stroke:#2e3436;stroke-width:4;stroke-linecap:butt;stroke-linejoin:miter;stroke-miterlimit:4;stroke-dasharray:none;stroke-opacity:1;filter:url(#filter3561)"
         d="M 8.0293778,18.198254 7.9332948,46.322005 M 41.911706,22.415668 42.297837,45.872181 m 3.892929,-4.430287 -42.5526768,0" />
      <path
         sodipodi:nodetypes="cc"
         style="fill:none;fill-rule:evenodd;stroke:#cc0000;stroke-width:4;stroke-linecap:butt;stroke-linejoin:miter;stroke-miterlimit:4;stroke-dasharray:none;stroke-opacity:1"
         d="M 48.22496,22.836971 26.613765,6.6584216"
         id="path3166"
         inkscape:connector-curvature="0" />
      <path
         sodipodi:nodetypes="cc"
         id="path3180"
         d="M 24.582802,48.20073 6.8466079,34.772182"
         style="fill:none;fill-rule:evenodd;stroke:#73d216;stroke-width:4;stroke-linecap:butt;stroke-linejoin:miter;stroke-miterlimit:4;stroke-dasharray:none;stroke-opacity:1"
         inkscape:connector-curvature="0" />
      <path
         id="path3182"
         d="M 8.1564825,40.522536 33.085031,6.0363407"
         style="fill:none;fill-rule:evenodd;stroke:#cc0000;stroke-width:4;stroke-linecap:butt;stroke-linejoin:miter;stroke-miterlimit:4;stroke-dasharray:none;stroke-opacity:1"
         inkscape:connector-curvature="0" />
    </g>
  </g>
  <g
     inkscape:label="rueda"
     inkscape:groupmode="layer"
     id="layer1"
     style="display:inline" />
</svg>
