<?xml version="1.0" encoding="UTF-8" standalone="no"?>
<!-- Created with Inkscape (http://www.inkscape.org/) -->

<svg
   xmlns:dc="http://purl.org/dc/elements/1.1/"
   xmlns:cc="http://creativecommons.org/ns#"
   xmlns:rdf="http://www.w3.org/1999/02/22-rdf-syntax-ns#"
   xmlns:svg="http://www.w3.org/2000/svg"
   xmlns="http://www.w3.org/2000/svg"
   xmlns:xlink="http://www.w3.org/1999/xlink"
   xmlns:sodipodi="http://sodipodi.sourceforge.net/DTD/sodipodi-0.dtd"
   xmlns:inkscape="http://www.inkscape.org/namespaces/inkscape"
   width="48"
   height="48"
   id="svg2"
   sodipodi:version="0.32"
   inkscape:version="0.91 r13725"
   version="1.0"
   sodipodi:docname="update-cr.svg"
   inkscape:output_extension="org.inkscape.output.svg.inkscape">
  <defs
     id="defs4">
    <linearGradient
       id="linearGradient3170">
      <stop
         style="stop-color:#73d216;stop-opacity:1;"
         offset="0"
         id="stop3172" />
      <stop
         style="stop-color:#37640a;stop-opacity:1;"
         offset="1"
         id="stop3174" />
    </linearGradient>
    <linearGradient
       id="linearGradient3157">
      <stop
         style="stop-color:#ef2929;stop-opacity:1;"
         offset="0"
         id="stop3159" />
      <stop
         style="stop-color:#930b0b;stop-opacity:1;"
         offset="1"
         id="stop3161" />
    </linearGradient>
    <inkscape:perspective
       sodipodi:type="inkscape:persp3d"
       inkscape:vp_x="0 : 526.18109 : 1"
       inkscape:vp_y="0 : 1000 : 0"
       inkscape:vp_z="744.09448 : 526.18109 : 1"
       inkscape:persp3d-origin="372.04724 : 350.78739 : 1"
       id="perspective10" />
    <radialGradient
       inkscape:collect="always"
       xlink:href="#linearGradient3170"
       id="radialGradient3178"
       cx="32.583611"
       cy="14.725016"
       fx="32.583611"
       fy="14.725016"
       r="10.607718"
       gradientTransform="matrix(1.1925019,0,0,1.0610603,-8.2181611,0.8304362)"
       gradientUnits="userSpaceOnUse" />
    <filter
       inkscape:collect="always"
       id="filter3561">
      <feGaussianBlur
         inkscape:collect="always"
         stdDeviation="0.93742522"
         id="feGaussianBlur3563" />
    </filter>
    <inkscape:perspective
       id="perspective58"
       inkscape:persp3d-origin="24 : 16 : 1"
       inkscape:vp_z="48 : 24 : 1"
       inkscape:vp_y="0 : 1000 : 0"
       inkscape:vp_x="0 : 24 : 1"
       sodipodi:type="inkscape:persp3d" />
    <linearGradient
       id="linearGradient2690"
       inkscape:collect="always">
      <stop
         id="stop2692"
         offset="0"
         style="stop-color:#c4d7eb;stop-opacity:1;" />
      <stop
         id="stop2694"
         offset="1"
         style="stop-color:#c4d7eb;stop-opacity:0;" />
    </linearGradient>
    <linearGradient
       id="linearGradient2682">
      <stop
         id="stop2684"
         offset="0"
         style="stop-color:#3977c3;stop-opacity:1;" />
      <stop
         id="stop2686"
         offset="1"
         style="stop-color:#89aedc;stop-opacity:0;" />
    </linearGradient>
    <linearGradient
       id="linearGradient2402">
      <stop
         id="stop2404"
         offset="0"
         style="stop-color:#729fcf;stop-opacity:1;" />
      <stop
         id="stop2406"
         offset="1"
         style="stop-color:#528ac5;stop-opacity:1;" />
    </linearGradient>
    <linearGradient
       id="linearGradient2380">
      <stop
         id="stop2382"
         offset="0"
         style="stop-color:#b9cfe7;stop-opacity:1" />
      <stop
         id="stop2384"
         offset="1"
         style="stop-color:#729fcf;stop-opacity:1" />
    </linearGradient>
    <linearGradient
       id="linearGradient2871"
       inkscape:collect="always">
      <stop
         id="stop2873"
         offset="0"
         style="stop-color:#3465a4;stop-opacity:1;" />
      <stop
         id="stop2875"
         offset="1"
         style="stop-color:#3465a4;stop-opacity:1" />
    </linearGradient>
    <linearGradient
       id="linearGradient2831">
      <stop
         id="stop2833"
         offset="0"
         style="stop-color:#3465a4;stop-opacity:1;" />
      <stop
         style="stop-color:#5b86be;stop-opacity:1;"
         offset="0.33333334"
         id="stop2855" />
      <stop
         id="stop2835"
         offset="1"
         style="stop-color:#83a8d8;stop-opacity:0;" />
    </linearGradient>
    <linearGradient
       id="linearGradient2797"
       inkscape:collect="always">
      <stop
         id="stop2799"
         offset="0"
         style="stop-color:#ffffff;stop-opacity:1;" />
      <stop
         id="stop2801"
         offset="1"
         style="stop-color:#ffffff;stop-opacity:0;" />
    </linearGradient>
    <linearGradient
       y2="19.115122"
       x2="15.419417"
       y1="10.612206"
       x1="13.478554"
       gradientTransform="translate(-145.20474,-18.142267)"
       gradientUnits="userSpaceOnUse"
       id="linearGradient1486"
       xlink:href="#linearGradient2831"
       inkscape:collect="always" />
    <linearGradient
       y2="26.194071"
       x2="37.065414"
       y1="29.729605"
       x1="37.128052"
       gradientTransform="matrix(-1,0,0,-1,-98.14224,27.982736)"
       gradientUnits="userSpaceOnUse"
       id="linearGradient1488"
       xlink:href="#linearGradient2871"
       inkscape:collect="always" />
    <linearGradient
       y2="26.048164"
       x2="52.854097"
       y1="26.048164"
       x1="5.9649176"
       gradientUnits="userSpaceOnUse"
       id="linearGradient1491"
       xlink:href="#linearGradient2797"
       inkscape:collect="always" />
    <linearGradient
       y2="50.939667"
       x2="45.380436"
       y1="45.264122"
       x1="46.834816"
       gradientUnits="userSpaceOnUse"
       id="linearGradient1501"
       xlink:href="#linearGradient2871"
       inkscape:collect="always" />
    <linearGradient
       gradientUnits="userSpaceOnUse"
       y2="20.60858"
       x2="15.984863"
       y1="36.061237"
       x1="62.513836"
       id="linearGradient2386"
       xlink:href="#linearGradient2380"
       inkscape:collect="always" />
    <linearGradient
       gradientUnits="userSpaceOnUse"
       y2="26.649362"
       x2="53.588622"
       y1="23.667896"
       x1="18.935766"
       id="linearGradient2408"
       xlink:href="#linearGradient2402"
       inkscape:collect="always" />
    <linearGradient
       gradientUnits="userSpaceOnUse"
       y2="24.842253"
       x2="37.124462"
       y1="31.455952"
       x1="36.713837"
       id="linearGradient2688"
       xlink:href="#linearGradient2682"
       inkscape:collect="always"
       gradientTransform="translate(-145.67015,-17.864674)" />
    <linearGradient
       gradientUnits="userSpaceOnUse"
       y2="24.842253"
       x2="37.124462"
       y1="30.748846"
       x1="32.647972"
       id="linearGradient2696"
       xlink:href="#linearGradient2690"
       inkscape:collect="always"
       gradientTransform="translate(-145.67015,-17.864674)" />
    <linearGradient
       inkscape:collect="always"
       xlink:href="#linearGradient2380"
       id="linearGradient4260"
       gradientUnits="userSpaceOnUse"
       x1="62.513836"
       y1="36.061237"
       x2="15.984863"
       y2="20.60858" />
    <linearGradient
       inkscape:collect="always"
       xlink:href="#linearGradient2871"
       id="linearGradient4262"
       gradientUnits="userSpaceOnUse"
       x1="46.834816"
       y1="45.264122"
       x2="45.380436"
       y2="50.939667" />
    <linearGradient
       inkscape:collect="always"
       xlink:href="#linearGradient2402"
       id="linearGradient4264"
       gradientUnits="userSpaceOnUse"
       x1="18.935766"
       y1="23.667896"
       x2="53.588622"
       y2="26.649362" />
    <linearGradient
       inkscape:collect="always"
       xlink:href="#linearGradient2871"
       id="linearGradient4266"
       gradientUnits="userSpaceOnUse"
       x1="46.834816"
       y1="45.264122"
       x2="45.380436"
       y2="50.939667" />
    <linearGradient
       inkscape:collect="always"
       xlink:href="#linearGradient2797"
       id="linearGradient4268"
       gradientUnits="userSpaceOnUse"
       x1="5.9649176"
       y1="26.048164"
       x2="52.854097"
       y2="26.048164" />
  </defs>
  <sodipodi:namedview
     id="base"
     pagecolor="#ffffff"
     bordercolor="#666666"
     borderopacity="1.0"
     inkscape:pageopacity="0.0"
     inkscape:pageshadow="2"
     inkscape:zoom="4.24"
     inkscape:cx="-38.410821"
     inkscape:cy="16.532059"
     inkscape:document-units="px"
     inkscape:current-layer="layer2"
     showgrid="false"
     inkscape:window-width="1920"
     inkscape:window-height="1145"
     inkscape:window-x="1918"
     inkscape:window-y="32"
     inkscape:window-maximized="1" />
  <metadata
     id="metadata7">
    <rdf:RDF>
      <cc:Work
         rdf:about="">
        <dc:format>image/svg+xml</dc:format>
        <dc:type
           rdf:resource="http://purl.org/dc/dcmitype/StillImage" />
        <dc:title />
      </cc:Work>
    </rdf:RDF>
  </metadata>
  <g
     inkscape:label="Capa 1"
     inkscape:groupmode="layer"
     id="layer1"
     style="display:none">
    <path
       style="fill:none;stroke:#cc0000;stroke-width:1.00000012;stroke-linecap:butt;stroke-linejoin:miter;stroke-miterlimit:4;stroke-opacity:1;stroke-dasharray:2.00000002, 1.00000002;stroke-dashoffset:0"
       d="m 25.942359,32.903407 c -0.732392,0.126342 -2.390664,0.189952 -3.625991,-0.219958 -1.812192,-0.601327 -3.624381,-1.202653 -5.436572,-1.80398 -1.057945,-0.351051 -1.716144,-1.0604 -2.043769,-2.05469 -0.08231,-0.249791 -0.233186,-0.470669 -0.349781,-0.706003 -0.474844,-0.95843 -1.860854,-1.657177 -2.335737,-2.348217 -0.369773,-0.538086 -2.074777,-0.832224 -2.6305999,-0.872894 -0.833007,-0.06095 -1.6105394,0.01824 -2.514971,-0.04794 -0.9275164,-0.06787 -1.2697349,1.479713 -1.5244075,2.247208 -0.337417,1.016858 -0.4568512,1.822569 -0.5309472,2.773505 -0.091945,1.180012 0.014939,2.11718 -0.063607,3.125226 -0.064531,0.828185 0.8775717,1.833728 1.1071574,2.530485 0.1214784,0.368668 2.6505451,1.272803 3.0391601,1.401755 1.3014521,0.431852 2.7981851,0.687022 3.7406541,1.634527 1.407475,1.414995 1.699872,1.952127 2.509178,3.585643 0.609586,1.230394 1.469383,1.604417 2.74623,1.697846 0.749978,0.05488 2.15246,-1.240722 2.868613,-1.604524 1.36615,-0.693996 2.108947,-1.434061 3.279105,-2.254895 1.230285,-0.863006 1.799324,-1.465531 2.752987,-2.429473 0.832216,-0.841184 1.140651,-1.362716 1.232441,-2.540734 0.04543,-0.583069 -0.7082,-1.725224 -0.87397,-2.059816 -0.200068,-0.40382 -0.897057,-0.0816 -1.345173,-0.05307 z"
       id="path2383"
       inkscape:connector-curvature="0" />
    <path
       style="fill:url(#radialGradient3178);fill-opacity:1;fill-rule:evenodd;stroke:#52960f;stroke-width:1px;stroke-linecap:butt;stroke-linejoin:miter;stroke-opacity:1"
       d="m 33.190267,5.9826974 c -0.841373,-0.842217 -1.995326,1.4244119 -3.162099,1.6580009 -1.140959,0.228421 -2.061159,0.124784 -3.162098,-0.1507274 -1.724727,-0.4316148 -3.854464,0.7310986 -5.571315,0.3014547 -0.835696,-0.2091337 -1.947917,1.3373808 -2.258643,1.959456 -0.441769,0.8844284 -0.451728,2.1890544 -0.451728,3.0145474 0,2.000914 1.657723,2.721413 1.957489,4.521821 0.148888,0.894219 2.721965,2.376868 3.312675,3.165273 0.91631,1.222976 0.14828,2.898629 1.204609,4.220366 0.955104,1.19508 2.918934,1.590783 4.216131,2.110183 1.161675,0.465137 2.510493,0.501532 3.312674,-0.301454 0.496385,-0.496885 1.943629,-1.383823 2.71037,-1.959456 0.200768,-0.150727 0.401536,-0.301455 0.602304,-0.452182 1.01179,-0.759605 2.143057,-0.695786 3.162099,-1.205819 1.513835,-0.757677 2.336052,-3.067622 3.312674,-4.371093 0.63354,-0.845569 0.171447,-2.962317 -0.150576,-3.768184 -0.490148,-1.226601 -1.019046,-2.828798 -1.95749,-3.768183 C 39.280538,9.9689049 38.50064,9.4695517 37.255822,8.846517 36.443789,8.4400929 36.015641,7.9065457 35.599484,7.4899709 34.968325,6.8581785 34.582781,6.9617955 34.244299,6.2841521 33.984978,5.76499 33.89626,5.841357 33.190267,5.9826974 z"
       id="path2385"
       inkscape:connector-curvature="0" />
  </g>
  <g
     inkscape:groupmode="layer"
     id="layer3"
     inkscape:label="sombra"
     style="opacity:0.87999998;display:inline"
     sodipodi:insensitive="true">
    <path
       id="path3536"
       style="fill:#2e3436;fill-rule:evenodd;stroke:#2e3436;stroke-width:4;stroke-linecap:butt;stroke-linejoin:miter;stroke-miterlimit:4;stroke-opacity:1;stroke-dasharray:none;filter:url(#filter3561)"
       d="m 7.9332953,3.7693277 0,42.5526773 m -4.4825517,-36.112954 42.5526764,0 m -3.705583,-6.8895462 0,42.5526762 m 3.892929,-4.430287 -42.5526763,0"
       inkscape:connector-curvature="0" />
  </g>
  <g
     inkscape:groupmode="layer"
     id="layer2"
     inkscape:label="frame"
     style="display:inline">
    <g
       id="g3528"
       transform="translate(0.04147295,0.02663065)">
      <path
         id="path3166"
         d="m 7.0710678,2.9219426 0,42.5526764"
         style="fill:none;stroke:#cc0000;stroke-width:4;stroke-linecap:butt;stroke-linejoin:miter;stroke-miterlimit:4;stroke-opacity:1;stroke-dasharray:none"
         inkscape:connector-curvature="0" />
      <path
         id="path3168"
         d="m 2.5885161,9.3616653 42.5526759,0"
         style="fill:none;stroke:#73d216;stroke-width:4;stroke-linecap:butt;stroke-linejoin:miter;stroke-miterlimit:4;stroke-opacity:1;stroke-dasharray:none"
         inkscape:connector-curvature="0" />
      <path
         style="fill:none;stroke:#73d216;stroke-width:4;stroke-linecap:butt;stroke-linejoin:miter;stroke-miterlimit:4;stroke-opacity:1;stroke-dasharray:none"
         d="m 41.435609,2.4721197 0,42.5526753"
         id="path3180"
         inkscape:connector-curvature="0" />
      <path
         style="fill:none;stroke:#cc0000;stroke-width:4;stroke-linecap:butt;stroke-linejoin:miter;stroke-miterlimit:4;stroke-opacity:1;stroke-dasharray:none"
         d="m 45.328538,40.594508 -42.5526757,0"
         id="path3182"
         inkscape:connector-curvature="0" />
    </g>
    <g
       id="g4283"
       transform="matrix(0.64965227,0,0,0.64965227,102.85714,22.65899)">
      <path
         sodipodi:nodetypes="cccc"
         inkscape:r_cy="true"
         inkscape:r_cx="true"
         id="path2865"
         d="m -125.51724,-7.45477 c 0,0 -8.9375,-0.625 -6.1875,9.875 l -7.6875,0 c 0,0 0.5,-11.875 13.875,-9.875 z"
         style="color:#000000;display:block;overflow:visible;visibility:visible;fill:url(#linearGradient1486);fill-opacity:1;fill-rule:nonzero;stroke:url(#linearGradient1488);stroke-width:0.99999958;stroke-linecap:butt;stroke-linejoin:miter;stroke-miterlimit:4;stroke-dasharray:none;stroke-dashoffset:0;stroke-opacity:1;marker:none;marker-start:none;marker-mid:none;marker-end:none"
         inkscape:connector-curvature="0" />
      <g
         style="fill:url(#linearGradient2386);fill-opacity:1;stroke:#3465a4;stroke-opacity:1"
         inkscape:r_cy="true"
         inkscape:r_cx="true"
         transform="matrix(-0.579051,-0.489228,-0.489228,0.579051,-88.7543,-4.493304)"
         id="g1878">
        <path
           inkscape:r_cy="true"
           inkscape:r_cx="true"
           style="color:#000000;display:block;overflow:visible;visibility:visible;opacity:1;fill:url(#linearGradient4260);fill-opacity:1;fill-rule:nonzero;stroke:url(#linearGradient4262);stroke-width:1.31916928;stroke-linecap:butt;stroke-linejoin:miter;stroke-miterlimit:4;stroke-dasharray:none;stroke-dashoffset:0;stroke-opacity:1;marker:none;marker-start:none;marker-mid:none;marker-end:none"
           d="M 44.306783,50.229694 C 62.821497,35.818859 49.664587,13.411704 22.462411,12.49765 L 22.113843,3.1515478 7.6245439,20.496754 22.714328,33.219189 c 0,0 -0.251917,-9.88122 -0.251917,-9.88122 18.82976,0.998977 32.981627,14.071729 21.844372,26.891725 z"
           id="path1880"
           sodipodi:nodetypes="ccccccc"
           inkscape:connector-curvature="0" />
      </g>
      <path
         style="color:#000000;display:block;overflow:visible;visibility:visible;fill:url(#linearGradient2696);fill-opacity:1;fill-rule:nonzero;stroke:url(#linearGradient2688);stroke-width:0.99999958;stroke-linecap:butt;stroke-linejoin:miter;stroke-miterlimit:4;stroke-dasharray:none;stroke-dashoffset:0;stroke-opacity:1;marker:none;marker-start:none;marker-mid:none;marker-end:none"
         d="m -117.29515,15.572826 c 0,0 8.9375,0.625 6.1875,-9.875 l 7.77589,0 c 0,1.502602 -0.58839,11.875 -13.96339,9.875 z"
         id="path2839"
         inkscape:r_cx="true"
         inkscape:r_cy="true"
         sodipodi:nodetypes="cccc"
         inkscape:connector-curvature="0" />
      <g
         id="g2779"
         transform="matrix(0.579051,0.489228,0.489228,-0.579051,-153.59117,12.671316)"
         inkscape:r_cx="true"
         inkscape:r_cy="true"
         style="color:#000000;display:block;overflow:visible;visibility:visible;opacity:1;fill:url(#linearGradient2408);fill-opacity:1;fill-rule:nonzero;stroke:url(#linearGradient1501);stroke-width:1.31916928;stroke-linecap:butt;stroke-linejoin:miter;stroke-miterlimit:4;stroke-dasharray:none;stroke-dashoffset:0;stroke-opacity:1;marker:none;marker-start:none;marker-mid:none;marker-end:none">
        <path
           sodipodi:nodetypes="ccccccc"
           id="path2781"
           d="M 44.306783,50.229694 C 62.821497,35.818859 49.664587,13.411704 22.462411,12.49765 L 22.399432,3.0690297 7.793943,20.424005 22.462411,33.006349 c 0,0 0,-9.66838 0,-9.66838 18.82976,0.998977 32.981627,14.071729 21.844372,26.891725 z"
           style="color:#000000;display:block;overflow:visible;visibility:visible;opacity:1;fill:url(#linearGradient4264);fill-opacity:1;fill-rule:nonzero;stroke:url(#linearGradient4266);stroke-width:1.31916928;stroke-linecap:butt;stroke-linejoin:miter;stroke-miterlimit:4;stroke-dasharray:none;stroke-dashoffset:0;stroke-opacity:1;marker:none;marker-start:none;marker-mid:none;marker-end:none"
           inkscape:r_cx="true"
           inkscape:r_cy="true"
           inkscape:connector-curvature="0" />
      </g>
      <path
         sodipodi:nodetypes="cccccccc"
         inkscape:r_cy="true"
         inkscape:r_cx="true"
         id="path2791"
         d="m -138.60765,20.322826 0.0625,-14.875 12.9375,-0.375 -4.38887,5.178817 3.86722,2.373199 c -3,2.25 -4.54955,2.422128 -5.54955,4.984628 l -2.81685,-2.110272 -4.11195,4.823628 z"
         style="color:#000000;display:inline;overflow:visible;visibility:visible;opacity:0.27222224;fill:#ffffff;fill-opacity:1;fill-rule:nonzero;stroke:none;stroke-width:0.99999982;stroke-linecap:round;stroke-linejoin:miter;stroke-miterlimit:4;stroke-dasharray:none;stroke-dashoffset:0;stroke-opacity:1;marker:none;marker-start:none;marker-mid:none;marker-end:none"
         inkscape:connector-curvature="0" />
      <g
         style="opacity:0.5;fill:none;fill-opacity:1;stroke:#ffffff;stroke-opacity:1"
         inkscape:r_cy="true"
         inkscape:r_cx="true"
         transform="matrix(0.508536,0.429651,0.429651,-0.508536,-149.64334,12.676516)"
         id="g2793">
        <path
           inkscape:r_cy="true"
           inkscape:r_cx="true"
           style="color:#000000;display:block;overflow:visible;visibility:visible;opacity:1;fill:none;fill-opacity:1;fill-rule:nonzero;stroke:url(#linearGradient4268);stroke-width:1.50208926;stroke-linecap:butt;stroke-linejoin:miter;stroke-miterlimit:4;stroke-dasharray:none;stroke-dashoffset:0;stroke-opacity:1;marker:none;marker-start:none;marker-mid:none;marker-end:none"
           d="M 51.090265,45.943705 C 60.210465,30.723955 46.631614,12.20113 19.485058,11.948579 L 19.513464,3.7032834 6.5341979,19.296639 19.367661,30.26876 c 0,0 0.05562,-9.006878 0.05562,-9.006878 17.527815,-0.223909 35.195185,10.103372 31.666984,24.681823 z"
           id="path2795"
           sodipodi:nodetypes="ccccccc"
           inkscape:connector-curvature="0" />
      </g>
      <g
         id="g2805"
         transform="matrix(-0.508536,-0.429651,-0.429651,0.508536,-92.62115,-4.499194)"
         inkscape:r_cx="true"
         inkscape:r_cy="true"
         style="opacity:0.5;fill:none;fill-opacity:1;stroke:#ffffff;stroke-opacity:1">
        <path
           sodipodi:nodetypes="ccccccc"
           id="path2807"
           d="M 51.389927,46.505946 C 60.510127,31.286196 47.050763,12.432359 19.628482,12.069755 L 19.342824,4.0507204 6.3413093,19.379475 19.809059,30.764589 c 0,0 -0.181765,-9.453243 -0.181765,-9.453243 18.244937,0.381972 34.783881,10.925246 31.762633,25.1946 z"
           style="color:#000000;display:block;overflow:visible;visibility:visible;opacity:1;fill:none;fill-opacity:1;fill-rule:nonzero;stroke:url(#linearGradient1491);stroke-width:1.50208926;stroke-linecap:butt;stroke-linejoin:miter;stroke-miterlimit:4;stroke-dasharray:none;stroke-dashoffset:0;stroke-opacity:1;marker:none;marker-start:none;marker-mid:none;marker-end:none"
           inkscape:r_cx="true"
           inkscape:r_cy="true"
           inkscape:connector-curvature="0" />
      </g>
      <path
         sodipodi:nodetypes="cccc"
         inkscape:r_cy="true"
         inkscape:r_cx="true"
         id="path2811"
         d="m -138.85765,-1.364674 c 3.59344,-10.441273 16.44378,-6.144607 20.1875,-4.5 4.17531,0.211475 5.67474,-2.835004 9,-3 -14.04974,-9.789996 -28.8125,-6.5 -29.1875,7.5 z"
         style="color:#000000;display:inline;overflow:visible;visibility:visible;opacity:0.27222224;fill:#ffffff;fill-opacity:1;fill-rule:nonzero;stroke:none;stroke-width:0.99999982;stroke-linecap:round;stroke-linejoin:miter;stroke-miterlimit:4;stroke-dasharray:none;stroke-dashoffset:0;stroke-opacity:1;marker:none;marker-start:none;marker-mid:none;marker-end:none"
         inkscape:connector-curvature="0" />
    </g>
  </g>
</svg>
