<?xml version="1.0" encoding="UTF-8" standalone="no"?>
<!-- Created with Inkscape (http://www.inkscape.org/) -->
<svg
   xmlns:dc="http://purl.org/dc/elements/1.1/"
   xmlns:cc="http://creativecommons.org/ns#"
   xmlns:rdf="http://www.w3.org/1999/02/22-rdf-syntax-ns#"
   xmlns:svg="http://www.w3.org/2000/svg"
   xmlns="http://www.w3.org/2000/svg"
   xmlns:xlink="http://www.w3.org/1999/xlink"
   xmlns:sodipodi="http://sodipodi.sourceforge.net/DTD/sodipodi-0.dtd"
   xmlns:inkscape="http://www.inkscape.org/namespaces/inkscape"
   width="322.36838"
   height="257.2356"
   id="svg2"
   sodipodi:version="0.32"
   inkscape:version="0.46"
   sodipodi:docname="planes_see.svg"
   version="1.0"
   inkscape:output_extension="org.inkscape.output.svg.inkscape">
  <sodipodi:namedview
     id="base"
     pagecolor="#ffffff"
     bordercolor="#666666"
     borderopacity="1.0"
     inkscape:pageopacity="0.0"
     inkscape:pageshadow="2"
     inkscape:zoom="1.4"
     inkscape:cx="-88.699967"
     inkscape:cy="63.486081"
     inkscape:document-units="px"
     inkscape:current-layer="layer2"
     showgrid="false"
     inkscape:window-width="1680"
     inkscape:window-height="993"
     inkscape:window-x="0"
     inkscape:window-y="32" />
  <defs
     id="defs4">
    <linearGradient
       id="linearGradient3199">
      <stop
         style="stop-color:#868686;stop-opacity:1;"
         offset="0"
         id="stop3201" />
      <stop
         style="stop-color:#ffffff;stop-opacity:1;"
         offset="1"
         id="stop3203" />
    </linearGradient>
    <marker
       inkscape:stockid="Arrow1Send"
       orient="auto"
       refY="0"
       refX="0"
       id="Arrow1Send"
       style="overflow:visible">
      <path
         id="path3688"
         d="M 0,0 L 5,-5 L -12.5,0 L 5,5 L 0,0 z"
         style="fill-rule:evenodd;stroke:#000000;stroke-width:1pt;marker-start:none"
         transform="matrix(-0.2,0,0,-0.2,-1.2,0)" />
    </marker>
    <marker
       inkscape:stockid="RazorWire"
       id="RazorWire"
       refX="0"
       refY="0"
       orient="auto">
       style=&quot;overflow:visible&quot;&gt;
      <path
   id="path3906"
   transform="scale(0.8,0.8)"
   style="fill:#808080;fill-opacity:1;fill-rule:evenodd;stroke:#000000;stroke-width:0.1pt"
   d="M 0.022727273,-0.74009011 L 0.022727273,0.69740989 L -7.7585227,3.0099099 L 10.678977,3.0099099 L 3.4914773,0.69740989 L 3.4914773,-0.74009011 L 10.741477,-2.8963401 L -7.7272727,-2.8963401 L 0.022727273,-0.74009011 z" />
</marker>
    <marker
       inkscape:stockid="Arrow2Sstart"
       orient="auto"
       refY="0"
       refX="0"
       id="Arrow2Sstart"
       style="overflow:visible">
      <path
         id="path3703"
         style="font-size:12px;fill-rule:evenodd;stroke-width:0.625;stroke-linejoin:round"
         d="M 8.7185878,4.0337352 L -2.2072895,0.016013256 L 8.7185884,-4.0017078 C 6.97309,-1.6296469 6.9831476,1.6157441 8.7185878,4.0337352 z"
         transform="matrix(0.3,0,0,0.3,-0.69,0)" />
    </marker>
    <inkscape:path-effect
       effect="bend_path"
       id="path-effect3591"
       prop_scale="1.04" />
    <inkscape:path-effect
       effect="skeletal"
       id="path-effect3589"
       prop_scale="1" />
    <inkscape:path-effect
       effect="gears"
       id="path-effect3587"
       teeth="10" />
    <inkscape:path-effect
       effect="gears"
       id="path-effect3585"
       teeth="10" />
    <inkscape:perspective
       sodipodi:type="inkscape:persp3d"
       inkscape:vp_x="0 : 526.18109 : 1"
       inkscape:vp_y="6.1230318e-14 : 1000 : 0"
       inkscape:vp_z="744.09448 : 526.18109 : 1"
       inkscape:persp3d-origin="372.04724 : 350.78739 : 1"
       id="perspective10" />
    <linearGradient
       inkscape:collect="always"
       xlink:href="#linearGradient3199"
       id="linearGradient3205"
       x1="-367.11237"
       y1="404.1579"
       x2="-246.24292"
       y2="404.1579"
       gradientUnits="userSpaceOnUse" />
    <linearGradient
       inkscape:collect="always"
       xlink:href="#linearGradient3199"
       id="linearGradient3207"
       x1="312.86624"
       y1="11.616987"
       x2="446.5921"
       y2="11.616987"
       gradientUnits="userSpaceOnUse" />
    <linearGradient
       inkscape:collect="always"
       xlink:href="#linearGradient3199"
       id="linearGradient3209"
       x1="-482.46341"
       y1="403.97192"
       x2="-361.59396"
       y2="403.97192"
       gradientUnits="userSpaceOnUse" />
    <linearGradient
       inkscape:collect="always"
       xlink:href="#linearGradient3199"
       id="linearGradient3211"
       x1="-196.22874"
       y1="441.06339"
       x2="46.90115"
       y2="441.06339"
       gradientUnits="userSpaceOnUse" />
    <linearGradient
       inkscape:collect="always"
       xlink:href="#linearGradient3199"
       id="linearGradient3213"
       x1="-364.76328"
       y1="471.94717"
       x2="-243.89383"
       y2="471.94717"
       gradientUnits="userSpaceOnUse" />
    <linearGradient
       inkscape:collect="always"
       xlink:href="#linearGradient3199"
       id="linearGradient3215"
       x1="313.02472"
       y1="84.767693"
       x2="446.75058"
       y2="84.767693"
       gradientUnits="userSpaceOnUse" />
    <linearGradient
       inkscape:collect="always"
       xlink:href="#linearGradient3199"
       id="linearGradient3217"
       x1="-482.45612"
       y1="473.16379"
       x2="-361.58667"
       y2="473.16379"
       gradientUnits="userSpaceOnUse" />
  </defs>
  <metadata
     id="metadata7">
    <rdf:RDF>
      <cc:Work
         rdf:about="">
        <dc:format>image/svg+xml</dc:format>
        <dc:type
           rdf:resource="http://purl.org/dc/dcmitype/StillImage" />
      </cc:Work>
    </rdf:RDF>
  </metadata>
  <g
     inkscape:label="Capa 1"
     inkscape:groupmode="layer"
     id="layer1"
     transform="translate(-154.48851,-131.0272)">
    <rect
       style="fill:url(#linearGradient3217);fill-opacity:1.0;stroke:#000000;stroke-width:5.35682568000000003;stroke-opacity:1;stroke-miterlimit:4;stroke-dasharray:none"
       id="rect3651"
       width="115.51263"
       height="74.232681"
       x="-479.77771"
       y="436.04745"
       transform="matrix(-0.8711691,0.4909831,9.2004324e-5,1,0,0)" />
    <rect
       style="fill:url(#linearGradient3215);fill-opacity:1.0;stroke:#000000;stroke-width:5.46723677000000041;stroke-opacity:1;stroke-miterlimit:4;stroke-dasharray:none"
       id="rect3641"
       width="128.25862"
       height="72.550873"
       x="315.75833"
       y="48.49226"
       transform="matrix(0.8315766,0.5554101,-8.7072261e-3,0.9999621,0,0)" />
    <rect
       style="fill:url(#linearGradient3213);fill-opacity:1.0;stroke:#000000;stroke-width:5.35682568000000003;stroke-opacity:1;stroke-miterlimit:4;stroke-dasharray:none"
       id="rect3649"
       width="115.51263"
       height="74.232681"
       x="-362.08487"
       y="434.83084"
       transform="matrix(-0.8711691,0.4909831,9.2004324e-5,1,0,0)" />
    <rect
       style="fill:url(#linearGradient3211);fill-opacity:1.0;stroke:#000000;stroke-width:5.37959701000000035;stroke-opacity:1;stroke-miterlimit:4;stroke-dasharray:none"
       id="rect3593"
       width="237.75029"
       height="132.40657"
       x="-193.53894"
       y="374.86011"
       transform="matrix(0.8710032,-0.4912774,0.8631528,0.5049429,0,0)" />
    <rect
       style="fill:url(#linearGradient3209);fill-opacity:1.0;stroke:#000000;stroke-width:5.35682568000000003;stroke-opacity:1;stroke-miterlimit:4;stroke-dasharray:none"
       id="rect3647"
       width="115.51263"
       height="74.232681"
       x="-479.785"
       y="366.85559"
       transform="matrix(-0.8711691,0.4909831,9.2004324e-5,1,0,0)" />
    <rect
       style="fill:url(#linearGradient3207);fill-opacity:1.0;stroke:#000000;stroke-width:5.46723677000000041;stroke-opacity:1;stroke-miterlimit:4;stroke-dasharray:none"
       id="rect3639"
       width="128.25862"
       height="72.550873"
       x="315.59985"
       y="-24.658449"
       transform="matrix(0.8315766,0.5554101,-8.7072264e-3,0.9999621,0,0)" />
    <rect
       style="fill:url(#linearGradient3205);fill-opacity:1.0;stroke:#000000;stroke-width:5.35682568000000003;stroke-opacity:1;stroke-miterlimit:4;stroke-dasharray:none"
       id="rect3643"
       width="115.51263"
       height="74.232681"
       x="-364.43396"
       y="367.04156"
       transform="matrix(-0.8711691,0.4909831,9.2004324e-5,1,0,0)" />
  </g>
  <g
     inkscape:groupmode="layer"
     id="layer2"
     inkscape:label="ojo"
     style="display:inline"
     transform="translate(-154.48851,-131.0272)">
    <path
       style="fill:#ffffff;fill-opacity:1;stroke:#000000;stroke-width:5;stroke-opacity:1;stroke-miterlimit:4;stroke-dasharray:none"
       d="M 426.07398,304.75554 C 433.39026,313.35341 437.84046,324.47536 437.84046,336.64086 C 437.84046,363.83685 415.77577,385.90154 388.57977,385.90154 C 361.38378,385.9016 339.31909,363.83685 339.31909,336.64086 C 339.31909,324.98978 343.34065,314.29055 350.1101,305.85293 C 306.79334,311.90511 298.16094,320.62636 301.52875,335.09928 C 305.77219,353.33506 328.99856,385.05182 392.48161,386.08444 C 430.9631,383.27488 439.48811,371.08484 460.15408,346.94416 C 478.61381,325.38068 460.74506,311.64388 426.07398,304.75554 z"
       id="path3656"
       sodipodi:nodetypes="cscscscsc" />
    <path
       style="fill:none;fill-rule:evenodd;stroke:#000000;stroke-width:11.51041794;stroke-linecap:round;stroke-linejoin:miter;marker-start:none;marker-end:none;stroke-miterlimit:4.69999981;stroke-dasharray:none;stroke-opacity:1"
       d="M 303.01759,328.32089 C 323.64514,296.34333 429.29698,280.98518 463.80074,317.9891"
       id="path3668"
       sodipodi:nodetypes="cc" />
    <path
       style="fill:#000000;fill-opacity:1;fill-rule:evenodd;stroke:#000000;stroke-width:2.02144313px;stroke-linecap:butt;stroke-linejoin:miter;stroke-opacity:1"
       d="M 308.38701,315.49312 C 305.5802,314.61089 303.1284,312.75897 301.06203,310.5794 C 287.89263,294.21077 299.52681,316.81551 304.90458,322.97645"
       id="path8123" />
    <path
       style="fill:#000000;fill-opacity:1;fill-rule:evenodd;stroke:#000000;stroke-width:2.02144313px;stroke-linecap:butt;stroke-linejoin:miter;stroke-opacity:1"
       d="M 324.40613,311.00306 C 323.1672,307.73771 321.43069,304.73468 319.70778,301.74872 C 311.06843,282.52873 314.78592,308.46261 316.04834,316.24139"
       id="path8125" />
    <path
       style="fill:#000000;fill-opacity:1;fill-rule:evenodd;stroke:#000000;stroke-width:2.02144313px;stroke-linecap:butt;stroke-linejoin:miter;stroke-opacity:1"
       d="M 344.60416,302.77138 C 342.06114,298.83577 340.32272,294.36027 339.11873,289.76437 C 334.88104,268.86867 337.43105,296.9028 335.54989,303.51969"
       id="path8127" />
    <path
       style="fill:#000000;fill-opacity:1;fill-rule:evenodd;stroke:#000000;stroke-width:2.02144313px;stroke-linecap:butt;stroke-linejoin:miter;stroke-opacity:1"
       d="M 373.16003,296.78473 C 370.98292,293.87174 370.72397,290.14761 370.41005,286.49379 C 366.69457,264.36675 368.11523,278.67098 362.71274,295.28804"
       id="path8129"
       sodipodi:nodetypes="ccc" />
    <path
       style="fill:#000000;fill-opacity:1;fill-rule:evenodd;stroke:#000000;stroke-width:2.02144313px;stroke-linecap:butt;stroke-linejoin:miter;stroke-opacity:1"
       d="M 396.84047,295.28804 C 395.1825,290.93672 394.30742,286.30083 393.66184,281.66806 C 390.86658,262.11828 390.52936,282.53109 389.17917,290.79804"
       id="path8131" />
    <path
       style="fill:#000000;fill-opacity:1;fill-rule:evenodd;stroke:#000000;stroke-width:2.02144313px;stroke-linecap:butt;stroke-linejoin:miter;stroke-opacity:1"
       d="M 417.73502,293.79138 C 417.07728,290.4412 417.02941,287.00694 416.95367,283.60052 C 414.70204,262.49795 416.05264,288.76765 409.37722,293.04301"
       id="path8133" />
    <path
       style="fill:#000000;fill-opacity:1;fill-rule:evenodd;stroke:#000000;stroke-width:2.02144313px;stroke-linecap:butt;stroke-linejoin:miter;stroke-opacity:1"
       d="M 438.62955,302.02304 C 438.46385,296.70468 438.5541,291.38119 438.37175,286.06326 C 437.31759,267.01155 434.94379,290.47568 430.96821,296.0364"
       id="path8135" />
    <path
       style="fill:#000000;fill-opacity:1;fill-rule:evenodd;stroke:#000000;stroke-width:2.02144313px;stroke-linecap:butt;stroke-linejoin:miter;stroke-opacity:1"
       d="M 455.34515,311.00306 C 456.59846,305.32737 456.82568,299.46461 456.80079,293.6545 C 458.04393,272.58109 453.11773,296.87492 445.59438,301.27473"
       id="path8137" />
    <path
       style="fill:#000000;fill-opacity:1;fill-rule:evenodd;stroke:#000000;stroke-width:2.02144313px;stroke-linecap:butt;stroke-linejoin:miter;stroke-opacity:1"
       d="M 459.52405,313.24802 C 464.16441,306.47438 467.67205,298.82248 472.95796,292.55951 C 481.47307,291.11614 464.42995,311.92407 467.18539,320.73147"
       id="path9193" />
    <path
       style="fill:#2a5d90;fill-opacity:1;stroke:#000000;stroke-width:2.90681934000000020;stroke-linecap:round;stroke-linejoin:miter;stroke-miterlimit:4.69999980999999956;stroke-dasharray:none;stroke-opacity:1"
       d="M 384.22115,384.54474 C 365.79149,382.9882 349.08057,369.9626 343.13071,352.51616 C 338.58785,339.19537 340.00745,324.10878 346.89464,312.51594 C 349.27599,308.50749 349.61479,308.32728 358.17992,306.51298 C 373.76702,303.21125 391.68495,301.77336 405.17969,302.74131 C 414.27662,303.39384 423.43931,304.59956 424.79184,305.32212 C 426.16718,306.05686 429.98887,311.77225 432.05969,316.19125 C 439.15926,331.34136 437.91313,349.31726 428.81455,363.00348 C 420.96989,374.80351 407.30781,383.27385 394.38904,384.34686 C 392.49222,384.50441 390.38601,384.69426 389.70857,384.76874 C 389.03114,384.84325 386.56178,384.74244 384.22113,384.54474 L 384.22115,384.54474 z"
       id="path9357" />
    <path
       sodipodi:type="arc"
       style="fill:#ffffff;fill-opacity:1;stroke:none;stroke-width:5.9000001;stroke-linecap:round;stroke-linejoin:miter;stroke-miterlimit:4.69999981;stroke-dasharray:none;stroke-opacity:1"
       id="path9361"
       sodipodi:cx="375.65048"
       sodipodi:cy="523.67358"
       sodipodi:rx="9.2176418"
       sodipodi:ry="9.2176418"
       d="M 384.86812,523.67358 A 9.2176418,9.2176418 0 1 1 366.43284,523.67358 A 9.2176418,9.2176418 0 1 1 384.86812,523.67358 z"
       transform="matrix(1.9509182,0,0,1.9509182,-366.71555,-696.08871)" />
  </g>
</svg>
