<?xml version="1.0" encoding="UTF-8" standalone="no"?>
<!-- Created with Inkscape (http://www.inkscape.org/) -->
<svg
   xmlns:dc="http://purl.org/dc/elements/1.1/"
   xmlns:cc="http://creativecommons.org/ns#"
   xmlns:rdf="http://www.w3.org/1999/02/22-rdf-syntax-ns#"
   xmlns:svg="http://www.w3.org/2000/svg"
   xmlns="http://www.w3.org/2000/svg"
   xmlns:xlink="http://www.w3.org/1999/xlink"
   xmlns:sodipodi="http://sodipodi.sourceforge.net/DTD/sodipodi-0.dtd"
   xmlns:inkscape="http://www.inkscape.org/namespaces/inkscape"
   width="322.36838"
   height="257.2356"
   id="svg2"
   sodipodi:version="0.32"
   inkscape:version="0.46"
   sodipodi:docname="planes_not_see.svg"
   version="1.0"
   inkscape:output_extension="org.inkscape.output.svg.inkscape">
  <sodipodi:namedview
     id="base"
     pagecolor="#ffffff"
     bordercolor="#666666"
     borderopacity="1.0"
     inkscape:pageopacity="0.0"
     inkscape:pageshadow="2"
     inkscape:zoom="1.4"
     inkscape:cx="81.200459"
     inkscape:cy="58.906613"
     inkscape:document-units="px"
     inkscape:current-layer="layer2"
     showgrid="false"
     inkscape:window-width="1123"
     inkscape:window-height="816"
     inkscape:window-x="538"
     inkscape:window-y="116" />
  <defs
     id="defs4">
    <linearGradient
       id="linearGradient3198">
      <stop
         style="stop-color:#868686;stop-opacity:1;"
         offset="0"
         id="stop3200" />
      <stop
         style="stop-color:#ffffff;stop-opacity:1;"
         offset="1"
         id="stop3202" />
    </linearGradient>
    <marker
       inkscape:stockid="Arrow1Send"
       orient="auto"
       refY="0"
       refX="0"
       id="Arrow1Send"
       style="overflow:visible">
      <path
         id="path3688"
         d="M 0,0 L 5,-5 L -12.5,0 L 5,5 L 0,0 z"
         style="fill-rule:evenodd;stroke:#000000;stroke-width:1pt;marker-start:none"
         transform="matrix(-0.2,0,0,-0.2,-1.2,0)" />
    </marker>
    <marker
       inkscape:stockid="RazorWire"
       id="RazorWire"
       refX="0"
       refY="0"
       orient="auto">
       style=&quot;overflow:visible&quot;&gt;
      <path
   id="path3906"
   transform="scale(0.8,0.8)"
   style="fill:#808080;fill-opacity:1;fill-rule:evenodd;stroke:#000000;stroke-width:0.1pt"
   d="M 0.022727273,-0.74009011 L 0.022727273,0.69740989 L -7.7585227,3.0099099 L 10.678977,3.0099099 L 3.4914773,0.69740989 L 3.4914773,-0.74009011 L 10.741477,-2.8963401 L -7.7272727,-2.8963401 L 0.022727273,-0.74009011 z" />
</marker>
    <marker
       inkscape:stockid="Arrow2Sstart"
       orient="auto"
       refY="0"
       refX="0"
       id="Arrow2Sstart"
       style="overflow:visible">
      <path
         id="path3703"
         style="font-size:12px;fill-rule:evenodd;stroke-width:0.625;stroke-linejoin:round"
         d="M 8.7185878,4.0337352 L -2.2072895,0.016013256 L 8.7185884,-4.0017078 C 6.97309,-1.6296469 6.9831476,1.6157441 8.7185878,4.0337352 z"
         transform="matrix(0.3,0,0,0.3,-0.69,0)" />
    </marker>
    <inkscape:path-effect
       effect="bend_path"
       id="path-effect3591"
       prop_scale="1.04" />
    <inkscape:path-effect
       effect="skeletal"
       id="path-effect3589"
       prop_scale="1" />
    <inkscape:path-effect
       effect="gears"
       id="path-effect3587"
       teeth="10" />
    <inkscape:path-effect
       effect="gears"
       id="path-effect3585"
       teeth="10" />
    <inkscape:perspective
       sodipodi:type="inkscape:persp3d"
       inkscape:vp_x="0 : 526.18109 : 1"
       inkscape:vp_y="6.1230318e-14 : 1000 : 0"
       inkscape:vp_z="744.09448 : 526.18109 : 1"
       inkscape:persp3d-origin="372.04724 : 350.78739 : 1"
       id="perspective10" />
    <linearGradient
       inkscape:collect="always"
       xlink:href="#linearGradient3198"
       id="linearGradient3204"
       x1="-367.11237"
       y1="404.15791"
       x2="-246.24292"
       y2="404.15791"
       gradientUnits="userSpaceOnUse" />
    <linearGradient
       inkscape:collect="always"
       xlink:href="#linearGradient3198"
       id="linearGradient3206"
       x1="312.86624"
       y1="11.616987"
       x2="446.59209"
       y2="11.616987"
       gradientUnits="userSpaceOnUse" />
    <linearGradient
       inkscape:collect="always"
       xlink:href="#linearGradient3198"
       id="linearGradient3208"
       x1="-482.46342"
       y1="403.97193"
       x2="-361.59396"
       y2="403.97193"
       gradientUnits="userSpaceOnUse" />
    <linearGradient
       inkscape:collect="always"
       xlink:href="#linearGradient3198"
       id="linearGradient3210"
       x1="-196.22874"
       y1="441.06339"
       x2="46.901148"
       y2="441.06339"
       gradientUnits="userSpaceOnUse" />
    <linearGradient
       inkscape:collect="always"
       xlink:href="#linearGradient3198"
       id="linearGradient3212"
       x1="-364.76328"
       y1="471.94718"
       x2="-243.89383"
       y2="471.94718"
       gradientUnits="userSpaceOnUse" />
    <linearGradient
       inkscape:collect="always"
       xlink:href="#linearGradient3198"
       id="linearGradient3214"
       x1="313.02471"
       y1="84.767696"
       x2="446.75057"
       y2="84.767696"
       gradientUnits="userSpaceOnUse" />
    <linearGradient
       inkscape:collect="always"
       xlink:href="#linearGradient3198"
       id="linearGradient3216"
       x1="-482.45612"
       y1="473.1638"
       x2="-361.58667"
       y2="473.1638"
       gradientUnits="userSpaceOnUse" />
  </defs>
  <metadata
     id="metadata7">
    <rdf:RDF>
      <cc:Work
         rdf:about="">
        <dc:format>image/svg+xml</dc:format>
        <dc:type
           rdf:resource="http://purl.org/dc/dcmitype/StillImage" />
      </cc:Work>
    </rdf:RDF>
  </metadata>
  <g
     inkscape:label="Capa 1"
     inkscape:groupmode="layer"
     id="layer1"
     transform="translate(-154.48851,-131.0272)">
    <rect
       style="fill:url(#linearGradient3216);fill-opacity:1;stroke:#000000;stroke-width:5.35682568000000003;stroke-opacity:1;stroke-miterlimit:4;stroke-dasharray:none"
       id="rect3651"
       width="115.51263"
       height="74.232681"
       x="-479.77771"
       y="436.04745"
       transform="matrix(-0.8711691,0.4909831,9.2004324e-5,1,0,0)" />
    <rect
       style="fill:url(#linearGradient3214);fill-opacity:1;stroke:#000000;stroke-width:5.46723677000000041;stroke-opacity:1;stroke-miterlimit:4;stroke-dasharray:none"
       id="rect3641"
       width="128.25862"
       height="72.550873"
       x="315.75833"
       y="48.49226"
       transform="matrix(0.8315766,0.5554101,-8.7072261e-3,0.9999621,0,0)" />
    <rect
       style="fill:url(#linearGradient3212);fill-opacity:1;stroke:#000000;stroke-width:5.35682568000000003;stroke-opacity:1;stroke-miterlimit:4;stroke-dasharray:none"
       id="rect3649"
       width="115.51263"
       height="74.232681"
       x="-362.08487"
       y="434.83084"
       transform="matrix(-0.8711691,0.4909831,9.2004324e-5,1,0,0)" />
    <rect
       style="fill:url(#linearGradient3210);fill-opacity:1;stroke:#000000;stroke-width:5.37959701000000035;stroke-opacity:1;stroke-miterlimit:4;stroke-dasharray:none"
       id="rect3593"
       width="237.75029"
       height="132.40657"
       x="-193.53894"
       y="374.86011"
       transform="matrix(0.8710032,-0.4912774,0.8631528,0.5049429,0,0)" />
    <rect
       style="fill:url(#linearGradient3208);fill-opacity:1;stroke:#000000;stroke-width:5.35682568000000003;stroke-opacity:1;stroke-miterlimit:4;stroke-dasharray:none"
       id="rect3647"
       width="115.51263"
       height="74.232681"
       x="-479.785"
       y="366.85559"
       transform="matrix(-0.8711691,0.4909831,9.2004324e-5,1,0,0)" />
    <rect
       style="fill:url(#linearGradient3206);fill-opacity:1;stroke:#000000;stroke-width:5.46723677000000041;stroke-opacity:1;stroke-miterlimit:4;stroke-dasharray:none"
       id="rect3639"
       width="128.25862"
       height="72.550873"
       x="315.59985"
       y="-24.658449"
       transform="matrix(0.8315766,0.5554101,-8.7072264e-3,0.9999621,0,0)" />
    <rect
       style="fill:url(#linearGradient3204);fill-opacity:1;stroke:#000000;stroke-width:5.35682568000000003;stroke-opacity:1;stroke-miterlimit:4;stroke-dasharray:none"
       id="rect3643"
       width="115.51263"
       height="74.232681"
       x="-364.43396"
       y="367.04156"
       transform="matrix(-0.8711691,0.4909831,9.2004324e-5,1,0,0)" />
  </g>
  <g
     inkscape:groupmode="layer"
     id="layer2"
     inkscape:label="ojo"
     style="display:inline"
     transform="translate(-154.48851,-131.0272)">
    <path
       style="fill:#ffffff;fill-opacity:1;stroke:#000000;stroke-width:5;stroke-opacity:1;stroke-miterlimit:4;stroke-dasharray:none"
       d="M 304.10018,325.28597 C 308.34362,343.52175 331.56998,375.23851 395.05304,376.27113 C 433.53453,373.46157 442.05953,361.27153 462.72551,337.13085 C 486.03255,265.9923 301.76459,278.37295 304.10018,325.28597 z"
       id="path3656"
       sodipodi:nodetypes="cccc" />
    <g
       id="g9431"
       transform="matrix(1,0,0,-1,-398.14286,610.99189)">
      <path
         sodipodi:nodetypes="cc"
         id="path3668"
         d="M 700.16045,279.74946 C 720.78799,247.7719 826.43983,232.41375 860.9436,269.41767"
         style="fill:none;fill-rule:evenodd;stroke:#000000;stroke-width:11.51041794;stroke-linecap:round;stroke-linejoin:miter;marker-start:none;marker-end:none;stroke-miterlimit:4.69999981;stroke-dasharray:none;stroke-opacity:1" />
      <path
         id="path8123"
         d="M 705.52986,266.92169 C 702.72306,266.03946 700.27126,264.18754 698.20489,262.00797 C 685.03549,245.63934 696.66967,268.24408 702.04744,274.40502"
         style="fill:#000000;fill-opacity:1;fill-rule:evenodd;stroke:#000000;stroke-width:2.02144313px;stroke-linecap:butt;stroke-linejoin:miter;stroke-opacity:1" />
      <path
         id="path8125"
         d="M 721.54899,262.43163 C 720.31006,259.16628 718.57355,256.16325 716.85063,253.17729 C 708.21128,233.9573 711.92878,259.89118 713.1912,267.66996"
         style="fill:#000000;fill-opacity:1;fill-rule:evenodd;stroke:#000000;stroke-width:2.02144313px;stroke-linecap:butt;stroke-linejoin:miter;stroke-opacity:1" />
      <path
         id="path8127"
         d="M 741.74702,254.19995 C 739.204,250.26434 737.46557,245.78884 736.26159,241.19294 C 732.0239,220.29724 734.5739,248.33137 732.69275,254.94826"
         style="fill:#000000;fill-opacity:1;fill-rule:evenodd;stroke:#000000;stroke-width:2.02144313px;stroke-linecap:butt;stroke-linejoin:miter;stroke-opacity:1" />
      <path
         sodipodi:nodetypes="ccc"
         id="path8129"
         d="M 770.30288,248.2133 C 768.12578,245.30031 767.86683,241.57618 767.55291,237.92236 C 763.83742,215.79532 765.25808,230.09955 759.8556,246.71661"
         style="fill:#000000;fill-opacity:1;fill-rule:evenodd;stroke:#000000;stroke-width:2.02144313px;stroke-linecap:butt;stroke-linejoin:miter;stroke-opacity:1" />
      <path
         id="path8131"
         d="M 793.98332,246.71661 C 792.32536,242.36529 791.45027,237.7294 790.80469,233.09663 C 788.00944,213.54685 787.67222,233.95966 786.32203,242.22661"
         style="fill:#000000;fill-opacity:1;fill-rule:evenodd;stroke:#000000;stroke-width:2.02144313px;stroke-linecap:butt;stroke-linejoin:miter;stroke-opacity:1" />
      <path
         id="path8133"
         d="M 814.87787,245.21995 C 814.22014,241.86977 814.17226,238.43551 814.09653,235.02909 C 811.8449,213.92652 813.1955,240.19622 806.52008,244.47158"
         style="fill:#000000;fill-opacity:1;fill-rule:evenodd;stroke:#000000;stroke-width:2.02144313px;stroke-linecap:butt;stroke-linejoin:miter;stroke-opacity:1" />
      <path
         id="path8135"
         d="M 835.7724,253.45161 C 835.60671,248.13325 835.69696,242.80976 835.51461,237.49183 C 834.46045,218.44012 832.08665,241.90425 828.11107,247.46497"
         style="fill:#000000;fill-opacity:1;fill-rule:evenodd;stroke:#000000;stroke-width:2.02144313px;stroke-linecap:butt;stroke-linejoin:miter;stroke-opacity:1" />
      <path
         id="path8137"
         d="M 852.48801,262.43163 C 853.74131,256.75594 853.96854,250.89318 853.94364,245.08307 C 855.18679,224.00966 850.26058,248.30349 842.73724,252.7033"
         style="fill:#000000;fill-opacity:1;fill-rule:evenodd;stroke:#000000;stroke-width:2.02144313px;stroke-linecap:butt;stroke-linejoin:miter;stroke-opacity:1" />
      <path
         id="path9193"
         d="M 856.66691,264.67659 C 861.30727,257.90295 864.8149,250.25105 870.10082,243.98808 C 878.61593,242.54471 861.57281,263.35264 864.32824,272.16004"
         style="fill:#000000;fill-opacity:1;fill-rule:evenodd;stroke:#000000;stroke-width:2.02144313px;stroke-linecap:butt;stroke-linejoin:miter;stroke-opacity:1" />
    </g>
  </g>
</svg>
