<?xml version="1.0" standalone="no"?>
<!DOCTYPE svg PUBLIC "-//W3C//DTD SVG 20010904//EN" "http://www.w3.org/TR/2001/REC-SVG-20010904/DTD/svg10.dtd">
<!-- Created using Karbon, part of Calligra: http://www.calligra.org/karbon -->
<svg xmlns="http://www.w3.org/2000/svg" xmlns:xlink="http://www.w3.org/1999/xlink" width="38.4pt" height="38.4pt">
<defs>
  <linearGradient id="gradient0" gradientTransform="matrix(0.735835 0 0 0.735835 -3.86316 -4.86316)" gradientUnits="objectBoundingBox" x1="0.64675620385" y1="0.66436145626" x2="1.64675620385" y2="0.66436145626" spreadMethod="pad">
   <stop stop-color="#8ae234" offset="0.00000000000" stop-opacity="1.00000000000"/>
   <stop stop-color="#8ae234" offset="1.00000000000" stop-opacity="0.00000000000"/>
  </linearGradient>
 </defs>
<g id="layer1">
  <g id="g2852" transform="translate(2.53204, 2.53203)" fill="none">
   <path id="path3884" transform="matrix(1.359 0 0 1.359 2.718 2.718)" fill="#73d216" fill-rule="evenodd" stroke="#4e9a06" stroke-width="2.00000000000" stroke-linecap="butt" stroke-linejoin="round" d="M0 18.4053L8.99908 18.4053L8.99908 27.5938L18.5322 27.5938L18.5322 18.4053L27.5625 18.4053L27.5938 9.18842L18.5634 9.18842L18.5634 0L9.03033 0L9.03033 9.18842L0 9.18842L0 18.4053Z"/>
   <path id="path3959" transform="matrix(1.359 0 0 1.359 2.718 4.077)" fill="url(#gradient0)" fill-rule="evenodd" opacity="0.69039151000" d="M0 18.4053L8.99908 18.4053L8.99908 27.5938L18.5322 27.5938L18.5322 18.4053L27.5625 18.4053L27.5938 9.18842L18.5634 9.18842L18.5634 0L9.03033 0L9.03033 9.18842L0 9.18842L0 18.4053Z"/>
   <path id="rect4113" transform="matrix(1.359 0 0 1.359 2.718 15.4727)" fill="#ffffff" fill-rule="evenodd" opacity="0.17437720000" d="M27.5938 0C25.7969 1.32198 23.6664 2.23106 21.5 2.6875C15.4664 4.18835 8.99018 3.51956 3.15625 5.875C1.79349 6.49936 0.692069 7.59265 0 8.90625L9 8.90625L9 18.0938L18.5312 18.0938L18.5312 8.90625L27.5625 8.90625L27.5938 0Z"/>
  </g>
 </g>
</svg>
