<?xml version="1.0" encoding="UTF-8" standalone="no"?>
<!-- Created with Inkscape (http://www.inkscape.org/) -->
<svg
   xmlns:svg="http://www.w3.org/2000/svg"
   xmlns="http://www.w3.org/2000/svg"
   version="1.0"
   width="312pt"
   height="99pt"
   viewBox="0 0 312 99"
   id="svg2">
  <defs
     id="defs77" />
  <g
     id="logo">
    <g
       id="logo-color">
      <g
         id="neuron">
        <path
           d="M 41.625,1.3 C 43.385,2.87 45.525002,3.84 47.875,4.15 C 46.855,5.03 45.815002,5.89 44.875,6.85 C 45.985,6.15 47.094998,5.4349999 48.175,4.675 C 53.475,4.435 57.460002,9.0199992 57.35,14.15 C 56.9,14.49 56.024998,15.185 55.575,15.525 C 53.075,22.795 50.260001,29.974998 46.75,36.825 C 39.81,39.305 32.899999,41.914998 25.9,44.225 C 22.55,45.455 20.039999,42.3 17.85,40.3 C 19.16,42.14 20.710001,43.810001 22.2,45.5 C 20.36,45.47 18.530001,45.415002 16.7,45.375 C 13.72,43.965 10.735,42.554998 7.775,41.125 C 10.115,43.765 14.015,44.08 16.375,46.55 C 11.935,47 7.56,46.095002 3.25,45.175 C 2.69,44.785 1.575,44.03 1.025,43.65 C 2.511875,44.82 3.0617993,46.046579 2.175,47.25 C 2.4866389,46.956872 2.8131444,46.672075 3.025,46.475 C 6.555,46.815 10.079999,47.114998 13.6,47.575 C 12.03,48.965 10.395,50.275002 8.875,51.725 C 13.175,48.305 18.495,46.729999 23.775,45.55 C 21.475,47.92 18.7,49.910002 17,52.8 C 15.36,55.6 13.84,58.480002 11.85,61.05 C 12.94,60.28 14.025,59.524998 15.125,58.775 C 15.085,61.675 14.59,64.525002 14.1,67.375 C 14.57,66.295 15.005,65.215002 15.425,64.125 C 16.445,68.955 20.610001,72.174998 22.15,76.775 C 21.97,77.415 21.59,78.709998 21.4,79.35 C 24.32,76.03 20.600001,72.019998 18.7,69.25 C 21.15,70.15 23.694998,70.814998 26.325,70.875 C 23.545,69.715 20.08,69.5 18.15,66.9 C 14.91,62.72 15.15,56.52 18.2,52.3 C 20.26,49.16 23.57,47.204998 26.9,45.675 C 33.1,49.405 39.329999,53.079998 45.6,56.7 C 44.87,64.29 44.61,71.89 44.2,79.5 C 44.26,81.56 42.220001,82.6 41,83.95 C 42.16,83.25 43.330001,82.545 44.5,81.875 C 44.21,85.725 41.289999,88.345 39.1,91.225 C 40.95,89.895 42.359999,88.105 43.45,86.125 C 43.78,86.645 44.470001,87.68 44.8,88.2 C 44.84,86.04 44.325002,83.725 45.175,81.675 C 45.565,81.935 46.344998,82.465 46.725,82.725 C 46.615,82.085 46.385002,80.815 46.275,80.175 C 50.385,76.275 54.505002,72.365002 58.675,68.525 C 64.745,71.355 70.9,74.039998 77,76.8 C 78.48,77.31 79.330002,78.63 80.25,79.8 C 80.24,81.63 80.225,83.455 80.375,85.275 C 80.775,83.275 81.05,81.26 81.35,79.25 C 82.22,80.8 83.155,82.295 84.225,83.725 C 85.325,87.475 86,91.315 86.65,95.175 C 86.99,90.995 85.85,86.96 84.7,83 C 88.32,86.1 90.03,90.56 92.2,94.65 C 92.25,95.56 92.39,97.39 92.45,98.3 C 92.68,96.93 92.855,95.57 92.975,94.2 C 93.515,94.6 94.585,95.375 95.125,95.775 C 91.905,92.645 90,88.55 87.55,84.85 C 89.66,85.75 91.86,86.54 94.15,86.8 C 90.13,85.64 86.57,83.46 83.25,80.95 C 83.9,80.45 84.525,79.940002 85.175,79.45 C 87.325,79.74 89.515,79.999998 91.675,79.65 C 94.775,79.15 97.96,78.85 101.05,79.55 C 99.52,78.87 97.99,78.140002 96.5,77.4 L 97.7,76.825 C 99.91,75.595 102.21,74.485002 104.5,73.425 C 103.65,73.625 101.925,74.049998 101.075,74.25 C 102.935,70.98 104.10501,67.404998 105.375,63.875 C 106.235,62.815 107.19501,61.85 108.175,60.9 C 108.515,60.57 109.18499,59.880002 109.525,59.55 C 107.455,60.84 105.42,62.249998 103.9,64.2 C 103.81,65.52 103.48,66.800002 102.8,67.95 C 101.93,66.86 101.085,65.085002 102.225,63.875 C 101.755,63.815 100.805,63.71 100.325,63.65 L 100.125,63.65 C 102.895,68.05 100.925,73.420002 97.225,76.55 C 95.575,77.48 93.815,78.269998 92.025,78.9 C 89.105,79.45 86.1,79.000002 83.3,78.1 C 81.35,71.96 79.635002,65.744998 77.325,59.725 C 76.615,62.815 76.15,65.949998 75.8,69.1 C 71.39,67.15 66.919998,64.829998 62,64.65 C 57.15,64.95 52.920001,67.59 48.65,69.65 C 48.92,64.02 50.259999,58.335002 49.4,52.725 C 44.87,49.505 39.364998,48.159999 34.425,45.7 C 38.775,42.72 44.23,42.730001 49,40.8 C 50.2,40.4 50.624998,39.049999 51.175,38.05 C 53.055,33.84 54.385002,29.445 55.825,25.075 C 59.225,29.655 61.909998,35.135002 67,38.125 C 71.77,40.815 77.480002,40.259999 82.75,40.3 C 81.1,45.02 78.98,49.55 76.95,54.1 C 81.48,49.3 85.54,44.080001 90.05,39.25 C 91.49,37.76 92.9,36.204998 94.5,34.875 C 95.99,34.525 97.49,34.21 99,33.95 C 97.53,33.92 96.035,33.88 94.575,33.85 C 95.275,33.03 96.675,31.394998 97.375,30.575 L 97.8,31.35 C 100.01,30.48 102.19,29.544998 104.2,28.275 C 102.37,28.525 100.545,28.829999 98.725,29.15 C 99.045,28.67 99.68,27.715002 100,27.225 C 101.07,26.395 102.12,25.54 103.15,24.65 C 103.66,24.6 104.69,24.5 105.2,24.45 C 104.35,24.15 103.47499,23.850001 102.625,23.55 C 101.915,24.52 101.18,25.459999 100.5,26.45 C 99.93,26.57 98.81,26.819999 98.25,26.95 C 97.69,25.56 97.135,24.18 96.575,22.8 C 96.385,24.52 96.39,26.244998 96.4,27.975 C 96.39,30.245 95.155,32.170001 93.975,34 C 93.405,29.7 92.18,25.475 92,21.125 C 91.81,21.845 91.44,23.305 91.25,24.025 C 89.65,22.625 88.33,20.96 87.4,19.05 C 87.59,19.62 87.96,20.769999 88.15,21.35 C 84.63,20.53 80.975,20.16 77.725,18.45 C 79.495,19.89 81.58,20.819999 83.85,21.15 C 82.85,22.04 81.805,22.915 80.875,23.875 C 81.985,23.175 83.065,22.445 84.125,21.675 C 86.865,21.975 90.105,22.579999 91.475,25.3 C 92.495,28.26 92.66,31.435002 93.4,34.475 C 89.46,36.135 85.085,35.75 80.925,36.35 C 75.895,36.98 70.214998,36.285002 66.475,32.525 C 62.535,28.325 60.439998,22.83 58,17.7 C 59.7,17.43 61.404998,17.255 63.125,17.225 C 61.735,17.085 60.354998,16.915 58.975,16.725 C 60.795,13.445 64.74,12.78 67.9,11.4 C 65.72,11.86 63.525002,12.3 61.325,12.65 C 63.085,10.79 65.175002,9.29 67.175,7.7 C 67.675,7.67 68.684998,7.5900002 69.175,7.55 C 68.365,7.22 67.56,6.9050003 66.75,6.575 C 65.46,8.285 63.849998,9.7 62.2,11.05 C 61.92,9.68 61.61,8.31 61.3,6.95 C 61.44,8.54 61.595002,10.135 61.775,11.725 L 60.7,11.6 C 60.08,13.54 59.144998,15.355 57.775,16.875 C 58.255,12.335 56.279998,8.255 55.45,3.925 C 55.36,4.665 55.18,6.1350003 55.1,6.875 C 53.63,5.545 52.469998,3.95 51.4,2.3 C 51.41,2.77 51.439998,3.6950001 51.45,4.175 C 48.1,3.485 44.634998,3.05 41.625,1.3 z M 60.975,43.675 C 60.036406,43.719218 59.085001,43.96 58.25,44.4 C 53.61,46.09 51.009998,53.184998 55.4,56.525 C 60.77,60.325 68.860002,54.26 67.35,48.05 C 66.6675,45.1325 63.790782,43.542344 60.975,43.675 z M 2.075,47.35 C 1.7936937,47.614853 1.5126514,47.896285 1.325,48.075 C 1.6407302,47.835761 1.8797486,47.590884 2.075,47.35 z M 63.15,83.875 C 61.5,86.435 59.495002,89.42 56.025,89.2 C 52.285,89.52 49.66,86.585 47.25,84.225 C 48.63,87.285 52.025002,89.025 53.675,92.025 C 53.505,91.325 53.17,89.925 53,89.225 C 54.34,89.665 55.67,90.1 57,90.55 C 60.45,89 64.064998,87.77 67.875,87.55 L 67.825,87.1 C 65.615,87.34 63.399998,87.62 61.2,87.95 C 61.9,86.61 62.540002,85.255 63.15,83.875 z M 42.9,91.25 C 42.28,92.43 41.720001,93.6 41.15,94.8 C 40.52,95.4 39.9,96.02 39.3,96.65 C 40.38,96.15 41.419999,95.6 42.5,95.1 C 42.64,93.82 42.78,92.53 42.9,91.25 z"
           id="neuron-body"
           style="fill:#003d7a;fill-opacity:1" />
        <path
           d="M 229.77,17.68 C 234.22,14.35 239.1,11.04 244.93,11.28 C 242.57,12.82 239.99,13.95 237.44,15.12 C 241.27,17.27 245.94,17.32 249.63,19.69 C 244.93,19.41 240.67,17.18 236.11,16.3 C 232.32,18.74 229.78,22.69 229.05,27.13 C 236.5,26.82 243.92,27.75 251.16,29.44 C 257.86,30.87 264.73,31.06 271.55,30.77 C 275.05,27.11 278.54,23.08 283.44,21.29 C 281.33,23.87 278.46,25.72 276.49,28.42 C 275.45,29.53 276.46,31.68 278.04,31.32 C 287.86,31.65 297.6,34.31 306.36,38.71 C 300.64,37.24 295.13,34.91 289.21,34.29 C 278.17,32.62 266.96,35.28 255.97,33.07 C 258.74,34.92 261.07,37.47 264.07,38.95 C 269.5,39.56 275.13,39.42 280.24,41.69 C 275.15,40.8 270.05,39.82 264.85,40.06 C 269.01,43.87 273.27,47.57 277.55,51.25 C 279.23,52.66 280.94,54.05 282.7,55.36 C 284.59,56.76 286.57,58.03 288.54,59.32 C 289.75,60.12 290.97,60.94 292.18,61.76 C 291.29,61.61 289.5,61.31 288.61,61.16 C 286.71,59.69 284.74,58.3 282.76,56.92 C 281.02,55.69 279.29,54.44 277.57,53.17 C 275.95,51.95 274.36,50.68 272.77,49.43 C 274.29,53.05 274.93,56.97 274.48,60.89 C 273.18,57.32 273.03,53.32 270.91,50.07 C 267.76,45.02 263.08,41.16 258.31,37.71 C 254.13,34.7 249.33,32.48 244.18,31.86 C 237.74,31.07 231.22,29.37 224.72,30.63 C 220.63,31.38 216.57,30.24 212.53,29.71 C 203.61,28.65 194.37,27.96 185.69,30.8 C 180.43,31.79 174.52,33.75 169.42,31.37 C 168.97,28.71 171.4,26.9 172.84,25.02 C 173.56,25.4 174.99,26.15 175.7,26.52 C 189.71,21.16 204.65,25.46 219.02,26.2 C 222.88,26.6 225.94,23.34 226.72,19.82 C 226.58,17.69 225.48,15.8 224.8,13.82 C 226.44,15.12 228,16.54 229.77,17.68 z"
           id="neuron-axion"
           style="fill:#e47200" />
      </g>
      <g
         id="letters">
        <path
           d="M 136.4,11.925 C 136.04527,11.944629 135.65875,12.07875 135.25,12.325 C 132.65,13.685 134.07,18.509999 137.15,17.65 C 139.87125,16.5825 138.88309,11.787598 136.4,11.925 z M 166.475,12.125 C 164.975,13.055 163.47499,13.995 161.975,14.925 C 161.985,22.765 161.97,30.610001 162,38.45 C 163.49,38.45 164.97501,38.450001 166.475,38.45 C 166.495,29.67 166.47501,20.895 166.475,12.125 z M 102.325,12.925 C 102.09734,12.923694 101.88028,12.932637 101.65,12.95 C 101.40437,12.968521 101.17313,13.009375 100.925,13.05 C 96.445,13.29 93.35,17.175 92,21.125 C 92.18,25.475 93.405,29.700001 93.975,34 C 95.155,32.17 96.39,30.244998 96.4,27.975 C 96.39,26.245 96.385,24.52 96.575,22.8 C 97.135,20.64 98.53,18.295 100.95,17.975 C 103.28,17.405 105.17501,19.059999 106.875,20.35 C 108.175,19.51 109.46,18.675 110.75,17.825 C 108.84277,15.021289 105.73986,12.94459 102.325,12.925 z M 150,18.625 C 147.87482,18.643081 145.675,19.413125 144.1,20.8 C 144.76,21.95 145.43,23.099999 146.1,24.25 C 148.43,22.96 151.53499,22.535 152.925,25.325 C 150.505,24.765 147.80499,24.220001 145.525,25.55 C 140.535,28.18 141.46,37.08 147.05,38.4 C 150.39,38.52 153.76,38.190001 157.1,38.5 C 156.87,33.2 157.72499,27.775 156.525,22.575 C 155.36062,19.835625 152.73237,18.601753 150,18.625 z M 121.975,18.65 C 119.8441,18.673447 117.64688,19.4275 116.05,20.775 C 116.73,21.945 117.41,23.105 118.1,24.275 C 120.3,23.095 123.2,22.51 124.9,24.85 C 122.48,24.9 119.84,24.3 117.6,25.5 C 112.54,28.07 113.44,37.15 119.1,38.4 C 122.43,38.52 125.76,38.179999 129.1,38.45 C 128.84,33.18 129.77,27.770001 128.5,22.6 C 127.35813,19.82125 124.71473,18.619854 121.975,18.65 z M 138.475,18.675 C 137.385,18.695 135.21501,18.770001 134.125,18.8 C 133.965,25.21 134.37,31.624998 133.95,38.025 C 133.94,40.025 132.74,41.64 131.15,42.75 C 131.63,44.18 132.13,45.579999 132.65,47 C 135.83,45.48 138.42,42.580001 138.5,38.9 C 138.65,32.17 138.62501,25.405 138.475,18.675 z M 122.125,28.95 C 123.02717,29.003965 123.965,29.2525 124.7,29.5 C 124.36,31.019999 125.16,33.54 123,33.85 C 121.08,34.639999 118.455,33.325 118.825,31.025 C 119.11,29.649999 120.10125,29.09125 121.25,28.975 C 121.53718,28.945938 121.82428,28.932012 122.125,28.95 z M 149.55,28.975 C 149.73489,28.9697 149.9356,28.96333 150.125,28.975 C 151.03414,29.031015 151.96625,29.27875 152.675,29.5 C 152.33499,31.010001 153.21,33.54 151.05,33.85 C 149.2,34.7 146.255,33.265 146.925,30.975 C 147.13828,29.492969 148.25576,29.012101 149.55,28.975 z M 97.375,30.575 C 96.675,31.395 95.275,33.03 94.575,33.85 C 96.035,33.88 97.53,33.92 99,33.95 C 97.49,34.21 95.99,34.524998 94.5,34.875 C 97.96,40.315 107.5,39.970001 110.1,34 C 109.1,33.12 107.99499,32.339999 106.925,31.55 C 104.355,33.88 99.9,34.829999 97.8,31.35 L 97.375,30.575 z"
           id="letters-cajal"
           style="fill:#003d7a;fill-opacity:1" />
        <path
           d="M 179.5,55.5625 C 177.3625,55.6125 175.23126,55.662501 173.09375,55.6875 C 173.03125,65.8375 172.96874,75.975003 173.09375,86.125 C 173.33125,92.2625 176.23126,99.175003 182.34375,101.5 C 187.78125,103.275 194.6875,101.80625 198,96.84375 C 200.7,93.05625 201.1625,88.262497 201.1875,83.75 C 201.2,74.4 201.175,65.050001 201.1875,55.6875 C 198.975,55.675 196.775,55.65 194.5625,55.625 C 194.45,65.7125 194.7125,75.8 194.5,85.875 C 194.5,89.9375 192.15,94.831252 187.5625,94.96875 C 183.275,95.50625 180.025,91.443752 179.875,87.46875 C 179.2875,76.84375 179.9625,66.2 179.5,55.5625 z M 123.09375,55.625 C 120.39531,55.648438 117.69375,55.73125 115,55.6875 C 115.025,70 114.94375,84.312498 115.03125,98.625 C 117.26875,97.8375 119.46875,96.850003 121.53125,95.6875 C 121.49375,90.475 121.5,85.275 121.4375,80.0625 C 122.3625,79.9375 124.23125,79.6875 125.15625,79.5625 L 125.40625,79.5625 C 126.00625,79.6375 127.19375,79.768753 127.78125,79.84375 C 128.30625,79.94375 129.35,80.149997 129.875,80.25 C 131.775,77.8125 134.31874,76.050003 136.90625,74.4375 C 143.18125,68.775 139.1875,57.343752 131.1875,55.90625 C 128.5,55.61875 125.79219,55.601562 123.09375,55.625 z M 144.6875,55.625 C 144.625,71.075 144.7375,86.518748 144.625,101.96875 C 152.5,102.13125 160.375,101.99375 168.25,102.03125 C 168.25,99.81875 168.26876,97.637497 168.28125,95.4375 C 162.55625,95.4125 156.8375,95.418748 151.125,95.40625 C 151.1375,82.18125 151.09376,68.943748 151.15625,55.71875 C 148.99375,55.68125 146.825,55.662501 144.6875,55.625 z M 216.5,55.65625 C 212.72188,55.657812 208.9625,55.6875 205.1875,55.75 C 205.3125,71.1875 205.1875,86.606252 205.25,102.03125 C 212.75,102.00625 220.21874,102.0625 227.71875,102 C 227.73125,100.1875 227.775,98.375003 227.8125,96.5625 C 222.425,96.4125 217.03126,96.487497 211.65625,96.5 C 211.64375,90.9125 211.65626,85.337497 211.65625,79.75 C 214.91875,79.7625 218.175,79.743752 221.4375,79.78125 C 221.475,77.91875 221.50626,76.050003 221.53125,74.1875 C 218.24375,74.2 214.94374,74.224997 211.65625,74.25 C 211.64375,69.9125 211.6375,65.575 211.625,61.25 C 216.925,60.975 222.25,61.287499 227.5625,61 C 227.75,59.25 227.76876,57.481252 227.84375,55.71875 C 224.06875,55.6625 220.27812,55.654688 216.5,55.65625 z M 125.84375,61.71875 C 127.29375,61.726562 128.74375,61.825 130.15625,62.15625 C 134.19374,64.581248 134.6375,71.84375 130.0625,73.90625 C 127.2625,74.456253 124.3875,74.18125 121.5625,74.28125 C 121.475,70.093753 121.45,65.9375 121.5,61.75 C 122.9375,61.8 124.39375,61.710938 125.84375,61.71875 z M 135.21875,76.125 C 133.99375,77.3125 132.79376,78.518747 131.71875,79.84375 C 134.99375,83.45625 136.275,89.012502 133.4375,93.25 C 131.1875,97.275 125.7875,95.356248 122.125,96.03125 L 120.625,96.75 C 122.4875,97.675 124.4,98.5875 126.3125,99.4375 C 122.45,98.5625 118.46875,98.937498 114.59375,99.5625 C 114.80625,100.1625 115.225,101.35625 115.4375,101.96875 C 121.175,102.05625 126.975,102.38125 132.6875,101.59375 C 143.9,99.08125 145.11876,81.225 135.21875,76.125 z"
           transform="scale(0.8,0.8)"
           id="letters-blue"
           style="fill:#003d7a;fill-opacity:1" />
        <path
           d="M 329.34375,55.5625 C 327.05625,55.6125 324.775,55.681247 322.5,55.71875 C 318.55,71.15625 314.62499,86.593748 310.6875,102.03125 C 313.05,102.04375 315.41874,102.03125 317.78125,102.03125 C 318.59375,98.50625 319.42501,94.993748 320.25,91.46875 C 324.2125,91.43125 328.1625,91.425 332.125,91.4375 C 332.9,94.9625 333.66249,98.4875 334.4375,102 C 336.7125,102.025 339.00626,102.06875 341.28125,102.09375 C 337.44375,86.55625 333.46874,71.024999 329.34375,55.5625 z M 360.65625,55.59375 C 360.63125,61.78125 360.67501,67.968748 360.6875,74.15625 C 362.2,75.15625 363.70624,76.162503 365.21875,77.1875 C 364.10625,77 361.86249,76.625003 360.75,76.4375 C 360.5375,84.9625 360.68124,93.506248 360.65625,102.03125 C 362.79375,102.03125 364.94376,102.01875 367.09375,102.03125 C 367.15625,90.40625 367.01251,78.781252 367.1875,67.15625 C 372.7,78.66875 377.56251,90.481248 382.875,102.09375 C 385.25,102.04375 387.6125,102 390,101.9375 L 390,55.8125 C 387.7125,55.725 385.43126,55.656252 383.15625,55.59375 C 383.11875,65.46875 383.14999,75.343752 383.125,85.21875 C 378.55,75.46875 373.92501,65.737499 369.75,55.8125 C 366.725,55.7 363.68124,55.656252 360.65625,55.59375 z M 245,55.625 C 245.025,71.1125 244.95,86.618748 245.0625,102.09375 C 250.95,101.83125 256.88124,102.50625 262.71875,101.59375 C 273.74375,99.15625 275.20626,81.481247 265.46875,76.40625 C 267.44375,73.75625 269.92501,71.0875 270.1875,67.625 C 270.1375,61.9625 265.81876,55.949999 259.84375,55.75 C 254.89375,55.475 249.9375,55.724999 245,55.625 z M 288.15625,55.625 C 285.06406,55.65625 281.9625,55.74375 278.875,55.6875 C 278.9125,71.1625 278.81874,86.631248 278.90625,102.09375 C 281.06875,102.05625 283.23124,101.9875 285.40625,101.9375 C 285.33125,95.9375 285.3875,89.956248 285.375,83.96875 C 287.7,83.95625 290.03751,83.95 292.375,83.9375 C 294.3375,89.975 296.275,96.024997 298.25,102.0625 C 300.675,102.0375 303.12501,101.9875 305.5625,101.9375 C 303.4875,95.9875 301.40624,90.062498 299.46875,84.0625 C 306.01875,78.975 307.52499,69.368747 304.375,61.96875 C 303.0625,59.10625 300.75624,56.193752 297.40625,55.84375 C 294.325,55.6 291.24844,55.59375 288.15625,55.625 z M 353.3125,55.625 C 351.1625,55.6375 349.02499,55.662499 346.875,55.6875 C 346.8875,58.475 346.9125,61.275 346.9375,64.0625 C 349.0375,65.825 351.175,67.550003 353.375,69.1875 C 353.35,64.6625 353.33749,60.149999 353.3125,55.625 z M 255.90625,61.71875 C 257.375,61.726562 258.825,61.8125 260.25,62.1875 C 264.17499,64.674999 264.6125,71.84375 260.0625,73.90625 C 257.26251,74.456253 254.35625,74.175 251.53125,74.25 C 251.46874,70.075003 251.4625,65.925 251.5,61.75 C 252.95,61.80625 254.4375,61.710938 255.90625,61.71875 z M 290.3125,61.84375 C 291.95469,61.839062 293.59375,61.8875 295.21875,62.15625 C 299.15624,64.618753 299.375,70.45 297.9375,74.4375 C 295.975,79.512498 289.46875,77.0875 285.34375,77.5 C 285.39376,72.2875 285.36875,67.0875 285.40625,61.875 C 287.0375,61.9125 288.67031,61.848438 290.3125,61.84375 z M 346.96875,66.46875 C 346.83125,78.30625 346.94999,90.131253 346.875,101.96875 C 349.025,102.00625 351.19376,102.0375 353.34375,102.0625 C 353.40625,91.7625 353.21249,81.456247 353.4375,71.15625 C 351.2625,69.61875 349.11876,68.056247 346.96875,66.46875 z M 325.96875,67.3125 C 327.93124,73.537503 329.075,79.99375 330.625,86.34375 C 327.63751,86.343752 324.6625,86.3625 321.6875,86.375 C 323.07501,80.012497 324.46875,73.6375 325.96875,67.3125 z M 256.3125,79.84375 C 257.93125,79.842187 259.5625,79.93125 261.15625,80.25 C 266.49376,83.174997 266.11875,91.925 261.46875,95.3125 C 258.29376,96.399997 254.8,95.73125 251.5,95.90625 C 251.4875,90.581248 251.50625,85.24375 251.46875,79.90625 C 253.075,79.918751 254.69375,79.845313 256.3125,79.84375 z"
           transform="scale(0.8,0.8)"
           id="letters-brain"
           style="fill:#003d7a;fill-opacity:1" />
      </g>
    </g>
  </g>
</svg>
