<?xml version="1.0" encoding="UTF-8" standalone="no"?>
<!-- Generator: Adobe Illustrator 19.0.1, SVG Export Plug-In . SVG Version: 6.00 Build 0)  -->

<svg
   xmlns:dc="http://purl.org/dc/elements/1.1/"
   xmlns:cc="http://creativecommons.org/ns#"
   xmlns:rdf="http://www.w3.org/1999/02/22-rdf-syntax-ns#"
   xmlns:svg="http://www.w3.org/2000/svg"
   xmlns="http://www.w3.org/2000/svg"
   xmlns:sodipodi="http://sodipodi.sourceforge.net/DTD/sodipodi-0.dtd"
   xmlns:inkscape="http://www.inkscape.org/namespaces/inkscape"
   version="1.1"
   id="Layer_1"
   x="0px"
   y="0px"
   viewBox="-793 545.5 96 100"
   style="enable-background:new -793 545.5 96 100;"
   xml:space="preserve"
   inkscape:version="0.48.4 r9939"
   width="100%"
   height="100%"
   sodipodi:docname="checklist.svg"><metadata
     id="metadata37"><rdf:RDF><cc:Work
         rdf:about=""><dc:format>image/svg+xml</dc:format><dc:type
           rdf:resource="http://purl.org/dc/dcmitype/StillImage" /><dc:title /></cc:Work></rdf:RDF></metadata><defs
     id="defs35" /><sodipodi:namedview
     pagecolor="#ffffff"
     bordercolor="#666666"
     borderopacity="1"
     objecttolerance="10"
     gridtolerance="10"
     guidetolerance="10"
     inkscape:pageopacity="0"
     inkscape:pageshadow="2"
     inkscape:window-width="1920"
     inkscape:window-height="1056"
     id="namedview33"
     showgrid="false"
     inkscape:zoom="1.668772"
     inkscape:cx="69.938391"
     inkscape:cy="45.974577"
     inkscape:window-x="1920"
     inkscape:window-y="24"
     inkscape:window-maximized="1"
     inkscape:current-layer="Layer_1" /><style
     type="text/css"
     id="style3">
	.st0{fill:#FFB50A;}
</style><path
     style="fill:#505050;fill-opacity:1"
     inkscape:connector-curvature="0"
     id="path7"
     d="m -711.1,556.6 h -63.8 c -3.5,0 -6.3,2.9 -6.3,6.6 v 75.5 c 0,3.6 2.8,6.6 6.3,6.6 h 63.8 c 3.5,0 6.3,-2.9 6.3,-6.6 v -75.5 c 0,-3.6 -2.8,-6.6 -6.3,-6.6 z m 0.8,79 c 0,0 0.2,1.5 -0.5,2.3 -0.7,0.8 -2.1,0.7 -2.1,0.7 l -60.7,0 c 0,0 -0.9,0 -1.5,-0.8 -0.6,-0.6 -0.6,-2 -0.6,-2 l 0,-70.4 c 0,0 0,-1 0.6,-1.6 0.7,-0.6 1.6,-0.7 1.6,-0.7 h 60.7 c 0,0 1.2,0 1.7,0.5 0.7,0.7 0.7,1.5 0.7,1.5 l 0.1,70.5 0,0 z"
     class="st0" /><g
     id="g9"
     style="fill:#505050;fill-opacity:1"><path
       style="fill:#505050;fill-opacity:1"
       inkscape:connector-curvature="0"
       id="path11"
       d="m -737.3,547.8 c 0,1.4 -1.3,2.5 -2.8,2.5 h -5.6 c -1.5,0 -2.8,-1.1 -2.8,-2.5 l 0,0 c 0,-1.4 1.3,-2.5 2.8,-2.5 h 5.6 c 1.6,0 2.8,1.2 2.8,2.5 l 0,0 z"
       class="st0" /><path
       style="fill:#505050;fill-opacity:1"
       inkscape:connector-curvature="0"
       id="path13"
       d="m -730.9,553.3 c 0,-1.5 -0.1,-3.9 -1.3,-3.9 h -21.5 c -1.1,0 -1.4,2.4 -1.4,3.9 l 24.2,0 z"
       class="st0" /><path
       style="fill:#505050;fill-opacity:1"
       inkscape:connector-curvature="0"
       id="path15"
       d="m -725.7,558.3 c 0,-2.1 -0.2,-5.6 -1.9,-5.6 h -30.8 c -1.6,0 -2,3.5 -1.9,5.5 l 34.6,0.1 z"
       class="st0" /></g><g
     id="g3041"
     transform="translate(-1.0863631,1.5889831)"><rect
       x="-746.69366"
       y="575.15051"
       class="st0"
       width="32.649292"
       height="5.628397"
       id="rect23"
       style="fill:#00ff00;fill-opacity:1" /><path
       class="st0"
       d="m -769.72589,568.64262 v 13.8951 h 16.24587 v -13.8951 h -16.24587 z m 2.46773,11.78445 v -9.67381 h 11.31041 v 9.67381 h -11.31041 z"
       id="path29"
       inkscape:connector-curvature="0"
       style="fill:#505050;fill-opacity:1" /><path
       inkscape:connector-curvature="0"
       d="m -763.49715,573.57547 c 0.27105,0.4271 0.53208,0.86057 0.77715,1.30285 0.31831,0.61636 0.63773,1.23274 0.93808,1.85781 0.23043,0.51265 0.49007,1.01149 0.74419,1.51292 0.13819,0.28657 0.30337,0.56019 0.43347,0.85049 0.51236,0.96411 -3.62213,1.15425 -3.30013,-0.0985 0.0658,-0.25621 0.18282,-0.49346 0.29463,-0.73222 0.54894,-1.05155 1.23049,-2.03 1.91033,-3.00259 0.89368,-1.29147 1.81824,-2.56181 2.73367,-3.83837 0.82532,-1.16649 1.63807,-2.34106 2.39056,-3.55441 0.55879,-0.89585 1.00366,-1.84881 1.36968,-2.83419 0.15607,-0.46826 0.29117,-0.94513 0.37723,-1.43099 0.0186,-0.10356 0.0275,-0.20775 0.0292,-0.31274 0,0 3.29904,0.0423 3.29904,0.0423 l 0,0 c -0.0278,0.11363 -0.0473,0.22859 -0.0782,0.34142 -0.14128,0.50395 -0.3279,0.99355 -0.53132,1.47633 -0.44259,0.99072 -0.92219,1.96517 -1.51636,2.87868 -0.77925,1.21675 -1.61367,2.39784 -2.46348,3.56793 -0.91724,1.26606 -1.836,2.53149 -2.70318,3.83158 -0.61738,0.94668 -1.24026,1.90305 -1.65911,2.95448 -0.0868,0.24732 -0.10339,0.26018 -0.14683,0.49743 -0.008,0.0459 -0.0145,0.0923 -0.0165,0.13878 -6.8e-4,0.0209 0.0311,0.0612 0.0102,0.0621 -3.28489,0.14598 -4.02623,-0.76242 -3.31421,0.10165 0.003,-0.0873 -0.0444,-0.17484 -0.0766,-0.25302 -0.0756,-0.18315 -0.15177,-0.36625 -0.2382,-0.54476 -0.23995,-0.50439 -0.47753,-1.00987 -0.70505,-1.51986 -0.28511,-0.61972 -0.57721,-1.23816 -0.91866,-1.83016 -0.26929,-0.42979 -0.53987,-0.88094 -0.93701,-1.2099 0,0 3.29793,-0.25509 3.29793,-0.25509 z"
       id="path3797-4"
       style="fill:#00ff00;fill-opacity:1;stroke:none" /></g><g
     id="g3046"
     transform="translate(-1.0342747,0.56949006)"><rect
       x="-746.69366"
       y="599.77478"
       class="st0"
       width="32.755569"
       height="5.4525089"
       id="rect25"
       style="fill:#ff0000;fill-opacity:1" /><path
       class="st0"
       d="m -769.72589,593.26685 v 13.89511 h 16.24587 v -13.89511 h -16.24587 z m 2.46773,11.78446 v -9.67381 h 11.31041 v 9.67381 h -11.31041 z"
       id="path31"
       inkscape:connector-curvature="0"
       style="fill:#505050;fill-opacity:1" /><g
       transform="matrix(1.3227446,0,0,1.4285962,299.04778,-265.82053)"
       id="g3876"><path
         style="fill:#ff0000;fill-opacity:1;stroke:none"
         id="path3868"
         d="m -16.597638,64.125344 c 0.441312,-0.322196 0.796899,-0.743421 1.192049,-1.117488 0.130617,-0.123648 0.265247,-0.242987 0.397871,-0.364481 1.060056,-0.945519 2.253996,-1.717951 3.45286,-2.472181 1.395406,-0.856018 2.8012885,-1.694656 4.1835451,-2.571909 0.7713691,-0.487021 1.5231423,-1.010284 2.1791891,-1.646683 0.039238,-0.04284 0.078476,-0.08569 0.1177147,-0.128534 0,0 3.6193146,0.28188 3.6193146,0.28188 l 0,0 c -0.052566,0.05047 -0.1051326,0.100935 -0.1576989,0.151403 -0.7755255,0.62738 -1.6197743,1.162991 -2.4727416,1.6779 -1.4097,0.842497 -2.8146533,1.693215 -4.2065631,2.564845 -1.1460495,0.735928 -2.2903919,1.485922 -3.2868609,2.421724 -0.2791,0.276501 -0.40126,0.387057 -0.653624,0.674801 -0.239086,0.272605 -0.456128,0.565005 -0.688949,0.842674 0,0 -3.676106,-0.313951 -3.676106,-0.313951 z"
         inkscape:connector-curvature="0"
         transform="translate(-793,545.5)" /><path
         style="fill:#ff0000;fill-opacity:1;stroke:none"
         id="path3874"
         d="m -11.804889,55.99172 c 0.364573,0.225948 0.72134,0.46303 1.077461,0.70237 0.665581,0.448774 1.2913448,0.953542 1.8863767,1.491467 0.8223865,0.746032 1.6089765,1.529972 2.3880977,2.320649 0.5098875,0.479305 0.9545733,1.019536 1.4235073,1.537107 0.3867825,0.419817 0.1992534,0.213945 0.5629188,0.617312 0.4093892,0.417437 0.778073,0.866846 1.0925229,1.359547 0.2173622,0.374515 0.4289096,0.752437 0.6452618,1.127508 0.1147336,0.156721 0.1996683,0.341533 0.37291,0.44246 0.056024,-0.01162 0.030167,-0.0097 0.077258,-0.009 0,0 -3.7063081,0.397365 -3.7063081,0.397365 l 0,0 c -0.037189,-0.04964 -0.015117,-0.0186 -0.063428,-0.09506 -0.1250967,-0.176378 -0.2328643,-0.361977 -0.3242111,-0.558653 -0.1799244,-0.375229 -0.3780015,-0.741251 -0.5944236,-1.096838 -0.3072362,-0.461058 -0.6547685,-0.891581 -1.0086057,-1.317524 -0.6011013,-0.733508 -1.2023881,-1.469291 -1.8753639,-2.13909 -0.7838978,-0.793661 -1.5860588,-1.569817 -2.4398188,-2.288848 -0.631514,-0.52066 -1.289827,-1.00726 -1.990786,-1.431454 -0.385576,-0.235841 -0.772744,-0.482671 -1.20352,-0.628266 0,0 3.680151,-0.431026 3.680151,-0.431026 z"
         inkscape:connector-curvature="0"
         transform="translate(-793,545.5)" /></g></g><g
     id="g3053"
     transform="translate(-1.2427041,1.5889831)"><rect
       x="-746.53729"
       y="624.42883"
       class="st0"
       width="32.649292"
       height="5.628397"
       id="rect23-9"
       style="fill:#00ff00;fill-opacity:1" /><path
       class="st0"
       d="m -769.56958,617.92091 v 13.8951 h 16.24587 v -13.8951 h -16.24587 z m 2.46773,11.78445 v -9.67381 h 11.31041 v 9.67381 h -11.31041 z"
       id="path29-0"
       inkscape:connector-curvature="0"
       style="fill:#505050;fill-opacity:1" /><path
       inkscape:connector-curvature="0"
       d="m -763.34084,622.85376 c 0.27105,0.4271 0.53208,0.86057 0.77715,1.30285 0.31831,0.61636 0.63773,1.23274 0.93808,1.85781 0.23043,0.51265 0.49007,1.01149 0.74419,1.51292 0.13819,0.28657 0.30337,0.56019 0.43347,0.85049 0.51236,0.96411 -3.62213,1.15425 -3.30013,-0.0985 0.0658,-0.25621 0.18282,-0.49346 0.29463,-0.73222 0.54894,-1.05155 1.23049,-2.03 1.91033,-3.00259 0.89368,-1.29147 1.81824,-2.56181 2.73367,-3.83837 0.82532,-1.16649 1.63807,-2.34106 2.39056,-3.55441 0.55879,-0.89585 1.00366,-1.84881 1.36968,-2.83419 0.15607,-0.46826 0.29117,-0.94513 0.37723,-1.43099 0.0186,-0.10356 0.0275,-0.20775 0.0292,-0.31274 0,0 3.29904,0.0423 3.29904,0.0423 l 0,0 c -0.0278,0.11363 -0.0473,0.22859 -0.0782,0.34142 -0.14128,0.50395 -0.3279,0.99355 -0.53132,1.47633 -0.44259,0.99072 -0.92219,1.96517 -1.51636,2.87868 -0.77925,1.21675 -1.61367,2.39784 -2.46348,3.56793 -0.91724,1.26606 -1.836,2.53149 -2.70318,3.83158 -0.61738,0.94668 -1.24026,1.90305 -1.65911,2.95448 -0.0868,0.24732 -0.10339,0.26018 -0.14683,0.49743 -0.008,0.0459 -0.0145,0.0923 -0.0165,0.13878 -6.8e-4,0.0209 0.0311,0.0612 0.0102,0.0621 -3.28489,0.14598 -4.02623,-0.76242 -3.31421,0.10165 0.003,-0.0873 -0.0444,-0.17484 -0.0766,-0.25302 -0.0756,-0.18315 -0.15177,-0.36625 -0.2382,-0.54476 -0.23995,-0.50439 -0.47753,-1.00987 -0.70505,-1.51986 -0.28511,-0.61972 -0.57721,-1.23816 -0.91866,-1.83016 -0.26929,-0.42979 -0.53987,-0.88094 -0.93701,-1.2099 0,0 3.29793,-0.25509 3.29793,-0.25509 z"
       id="path3797-4-3"
       style="fill:#00ff00;fill-opacity:1;stroke:none" /></g></svg>