<?xml version="1.0" encoding="UTF-8" standalone="no"?>
<!-- Generator: Adobe Illustrator 19.0.1, SVG Export Plug-In . SVG Version: 6.00 Build 0)  -->

<svg
   xmlns:dc="http://purl.org/dc/elements/1.1/"
   xmlns:cc="http://creativecommons.org/ns#"
   xmlns:rdf="http://www.w3.org/1999/02/22-rdf-syntax-ns#"
   xmlns:svg="http://www.w3.org/2000/svg"
   xmlns="http://www.w3.org/2000/svg"
   xmlns:sodipodi="http://sodipodi.sourceforge.net/DTD/sodipodi-0.dtd"
   xmlns:inkscape="http://www.inkscape.org/namespaces/inkscape"
   version="1.1"
   id="Layer_1"
   x="0px"
   y="0px"
   viewBox="-793 545.5 96 100"
   style="enable-background:new -793 545.5 96 100;"
   xml:space="preserve"
   inkscape:version="0.48.4 r9939"
   width="100%"
   height="100%"
   sodipodi:docname="checklist.svg"><metadata
     id="metadata37"><rdf:RDF><cc:Work
         rdf:about=""><dc:format>image/svg+xml</dc:format><dc:type
           rdf:resource="http://purl.org/dc/dcmitype/StillImage" /><dc:title></dc:title></cc:Work></rdf:RDF></metadata><defs
     id="defs35" /><sodipodi:namedview
     pagecolor="#ffffff"
     bordercolor="#666666"
     borderopacity="1"
     objecttolerance="10"
     gridtolerance="10"
     guidetolerance="10"
     inkscape:pageopacity="0"
     inkscape:pageshadow="2"
     inkscape:window-width="1920"
     inkscape:window-height="1056"
     id="namedview33"
     showgrid="false"
     inkscape:zoom="6.675088"
     inkscape:cx="44.919994"
     inkscape:cy="45.974577"
     inkscape:window-x="1920"
     inkscape:window-y="24"
     inkscape:window-maximized="1"
     inkscape:current-layer="Layer_1" /><style
     type="text/css"
     id="style3">
	.st0{fill:#FFB50A;}
</style><g
     id="g3129"><rect
       y="556.83075"
       x="-762.73822"
       height="61.984203"
       width="52.733391"
       id="rect3022-2"
       style="fill:#ffffff;fill-opacity:1;fill-rule:nonzero;stroke:#0000ff;stroke-width:0;stroke-linecap:round;stroke-linejoin:miter;stroke-miterlimit:4;stroke-opacity:1;stroke-dasharray:none;stroke-dashoffset:0" /><path
       class="st0"
       d="m -712.14691,554.56036 h -47.85 c -2.625,0 -4.725,2.175 -4.725,4.95 v 56.625 c 0,2.7 2.1,4.95 4.725,4.95 h 47.85 c 2.625,0 4.725,-2.175 4.725,-4.95 v -56.625 c 0,-2.7 -2.1,-4.95 -4.725,-4.95 z m 0.6,59.25 c 0,0 0.15,1.125 -0.375,1.725 -0.525,0.6 -1.575,0.525 -1.575,0.525 l -45.525,0 c 0,0 -0.675,0 -1.125,-0.6 -0.45,-0.45 -0.45,-1.5 -0.45,-1.5 l 0,-52.8 c 0,0 0,-0.75 0.45,-1.2 0.525,-0.45 1.2,-0.525 1.2,-0.525 h 45.525 c 0,0 0.9,0 1.275,0.375 0.525,0.525 0.525,1.125 0.525,1.125 l 0.075,52.875 0,0 z"
       id="path7-3-9"
       inkscape:connector-curvature="0"
       style="fill:#008cec;fill-opacity:1" /><rect
       x="-752.39655"
       y="563.39691"
       class="st0"
       width="32.649292"
       height="5.628397"
       id="rect23-9-1"
       style="fill:#008cec;fill-opacity:1" /><rect
       x="-752.39655"
       y="574.0058"
       class="st0"
       width="32.649292"
       height="5.628397"
       id="rect23-9-6-2"
       style="fill:#008cec;fill-opacity:1" /><rect
       x="-752.39655"
       y="584.61469"
       class="st0"
       width="32.649292"
       height="5.628397"
       id="rect23-9-7-7"
       style="fill:#008cec;fill-opacity:1" /><rect
       x="-752.39655"
       y="595.22351"
       class="st0"
       width="32.649292"
       height="5.628397"
       id="rect23-9-5-0"
       style="fill:#008cec;fill-opacity:1" /><rect
       x="-752.39655"
       y="605.8324"
       class="st0"
       width="32.649292"
       height="5.628397"
       id="rect23-9-3-9"
       style="fill:#008cec;fill-opacity:1" /></g><g
     id="g3067"
     transform="translate(-8.8388348,1.3482968)"><g
       transform="translate(73.1682,24.868586)"
       id="g3024"><rect
         style="fill:#ffffff;fill-opacity:1;fill-rule:nonzero;stroke:#0000ff;stroke-width:0;stroke-linecap:round;stroke-linejoin:miter;stroke-miterlimit:4;stroke-opacity:1;stroke-dasharray:none;stroke-dashoffset:0"
         id="rect3022"
         width="52.733391"
         height="61.984203"
         x="-844.83453"
         y="546.04437" /><path
         style="fill:#808080;fill-opacity:1"
         inkscape:connector-curvature="0"
         id="path7-3"
         d="m -794.2432,543.77397 h -47.85 c -2.625,0 -4.725,2.175 -4.725,4.95 v 56.625 c 0,2.7 2.1,4.95 4.725,4.95 h 47.85 c 2.625,0 4.725,-2.175 4.725,-4.95 v -56.625 c 0,-2.7 -2.1,-4.95 -4.725,-4.95 z m 0.6,59.25 c 0,0 0.15,1.125 -0.375,1.725 -0.525,0.6 -1.575,0.525 -1.575,0.525 l -45.525,0 c 0,0 -0.675,0 -1.125,-0.6 -0.45,-0.45 -0.45,-1.5 -0.45,-1.5 l 0,-52.8 c 0,0 0,-0.75 0.45,-1.2 0.525,-0.45 1.2,-0.525 1.2,-0.525 h 45.525 c 0,0 0.9,0 1.275,0.375 0.525,0.525 0.525,1.125 0.525,1.125 l 0.075,52.875 0,0 z"
         class="st0" /></g><rect
       x="-761.32465"
       y="577.47913"
       class="st0"
       width="32.649292"
       height="5.628397"
       id="rect23-9"
       style="fill:#4d4d4d;fill-opacity:1" /><rect
       x="-761.32465"
       y="588.08801"
       class="st0"
       width="32.649292"
       height="5.628397"
       id="rect23-9-6"
       style="fill:#4d4d4d;fill-opacity:1" /><rect
       x="-761.32465"
       y="598.6969"
       class="st0"
       width="32.649292"
       height="5.628397"
       id="rect23-9-7"
       style="fill:#4d4d4d;fill-opacity:1" /><rect
       x="-761.32465"
       y="609.30573"
       class="st0"
       width="32.649292"
       height="5.628397"
       id="rect23-9-5"
       style="fill:#4d4d4d;fill-opacity:1" /><rect
       x="-761.32465"
       y="619.91461"
       class="st0"
       width="32.649292"
       height="5.628397"
       id="rect23-9-3"
       style="fill:#4d4d4d;fill-opacity:1" /></g></svg>