<?xml version="1.0" encoding="UTF-8" standalone="no"?>
<svg
   xmlns:dc="http://purl.org/dc/elements/1.1/"
   xmlns:cc="http://creativecommons.org/ns#"
   xmlns:rdf="http://www.w3.org/1999/02/22-rdf-syntax-ns#"
   xmlns:svg="http://www.w3.org/2000/svg"
   xmlns="http://www.w3.org/2000/svg"
   xmlns:sodipodi="http://sodipodi.sourceforge.net/DTD/sodipodi-0.dtd"
   xmlns:inkscape="http://www.inkscape.org/namespaces/inkscape"
   version="1.1"
   viewBox="0 0 512 512"
   enable-background="new 0 0 512 512"
   id="svg2"
   inkscape:version="0.48.4 r9939"
   sodipodi:docname="connectionTool.svg"
   width="100%"
   height="100%">
  <metadata
     id="metadata16">
    <rdf:RDF>
      <cc:Work
         rdf:about="">
        <dc:format>image/svg+xml</dc:format>
        <dc:type
           rdf:resource="http://purl.org/dc/dcmitype/StillImage" />
        <dc:title></dc:title>
      </cc:Work>
    </rdf:RDF>
  </metadata>
  <defs
     id="defs14" />
  <sodipodi:namedview
     pagecolor="#ffffff"
     bordercolor="#666666"
     borderopacity="1"
     objecttolerance="10"
     gridtolerance="10"
     guidetolerance="10"
     inkscape:pageopacity="0"
     inkscape:pageshadow="2"
     inkscape:window-width="1920"
     inkscape:window-height="1056"
     id="namedview12"
     showgrid="false"
     inkscape:zoom="0.4609375"
     inkscape:cx="-104.13559"
     inkscape:cy="256"
     inkscape:window-x="1920"
     inkscape:window-y="24"
     inkscape:window-maximized="1"
     inkscape:current-layer="svg2" />
  <g
     id="g2990"
     transform="matrix(1.4,0,0,1.4,36.85661,-237.29763)">
    <path
       style="fill:#000000;fill-opacity:1"
       inkscape:connector-curvature="0"
       id="path10"
       d="M 268.9,274.5 231.3,312 200,280.6 237.5,243.1 c 8,-8 8,-20.9 0,-28.9 -8,-8 -20.9,-8 -28.9,0 l -37.5,37.5 -13.9,-13.9 c -3.8,-3.8 -16.1,-11.2 -28.9,0 l -58.4,58.4 c -35.2,35.2 -39.6,89.9 -13,129.9 l -39.9,40 c -8,8 -8,20.9 0,28.9 8,8 20.9,8 28.9,0 l 39.9,-39.9 c 16.8,11.2 36.4,17.2 57,17.2 27.5,0 53.4,-10.7 72.9,-30.2 l 58.4,-58.4 c 8,-8 8,-20.9 0,-28.9 l -13.9,-13.9 37.5,-37.5 c 8,-8 8,-20.9 0,-28.9 -7.9,-8 -20.9,-8 -28.8,0 z m -82.1,138.7 c -11.8,11.8 -27.4,18.2 -44,18.2 -16.6,0 -32.3,-6.5 -44,-18.2 -24.3,-24.3 -24.3,-63.8 0,-88 l 44,-44 88,88 -44,44 z" />
    <path
       inkscape:connector-curvature="0"
       id="path4149"
       d="m 114.2645,440.33169 c -16.792292,-6.15382 -37.160155,-27.4385 -42.95673,-44.89035 -5.761963,-17.34765 -4.342857,-41.53097 3.301407,-56.26003 2.950647,-5.68534 18.929599,-23.79812 35.508783,-40.2506 l 30.14398,-29.9136 51.37442,51.37444 51.37444,51.37442 -29.9136,30.14398 c -16.45248,16.57919 -34.59971,32.58769 -40.32716,35.57447 -13.95142,7.27541 -42.6156,8.67041 -58.50554,2.84727 z"
       style="fill:#000000;fill-opacity:1;fill-rule:nonzero;stroke:#000000;stroke-width:2.60338974;stroke-linecap:butt;stroke-linejoin:round;stroke-miterlimit:5.19999981;stroke-opacity:1;stroke-dasharray:none;stroke-dashoffset:0" />
  </g>
</svg>
