<?xml version="1.0" encoding="UTF-8" standalone="no"?>
<svg
   xmlns:dc="http://purl.org/dc/elements/1.1/"
   xmlns:cc="http://creativecommons.org/ns#"
   xmlns:rdf="http://www.w3.org/1999/02/22-rdf-syntax-ns#"
   xmlns:svg="http://www.w3.org/2000/svg"
   xmlns="http://www.w3.org/2000/svg"
   xmlns:xlink="http://www.w3.org/1999/xlink"
   xmlns:sodipodi="http://sodipodi.sourceforge.net/DTD/sodipodi-0.dtd"
   xmlns:inkscape="http://www.inkscape.org/namespaces/inkscape"
   height="100%"
   width="100%"
   sodipodi:docname="connectionGradient.svg"
   inkscape:version="0.48.4 r9939"
   id="svg2"
   enable-background="new 0 0 512 512"
   viewBox="0 0 512 512"
   version="1.1">
  <metadata
     id="metadata16">
    <rdf:RDF>
      <cc:Work
         rdf:about="">
        <dc:format>image/svg+xml</dc:format>
        <dc:type
           rdf:resource="http://purl.org/dc/dcmitype/StillImage" />
        <dc:title />
      </cc:Work>
    </rdf:RDF>
  </metadata>
  <defs
     id="defs14">
    <linearGradient
       id="linearGradient4662">
      <stop
         id="stop4670"
         offset="0"
         style="stop-color:#ae409e;stop-opacity:1;" />
      <stop
         id="stop4672"
         offset="1"
         style="stop-color:#ff0078;stop-opacity:1" />
    </linearGradient>
    <linearGradient
       id="linearGradient4646">
      <stop
         style="stop-color:#dc0000;stop-opacity:1;"
         offset="0"
         id="stop4648" />
      <stop
         id="stop4654"
         offset="0.34785014"
         style="stop-color:#e8ff26;stop-opacity:1;" />
      <stop
         style="stop-color:#64b57d;stop-opacity:1;"
         offset="0.54863536"
         id="stop4658" />
      <stop
         style="stop-color:#0400ee;stop-opacity:1;"
         offset="0.7774092"
         id="stop4656" />
      <stop
         style="stop-color:#ff00d4;stop-opacity:1;"
         offset="1"
         id="stop4650" />
    </linearGradient>
    <linearGradient
       id="linearGradient3832">
      <stop
         style="stop-color:#ff1800;stop-opacity:1;"
         offset="0"
         id="stop3834" />
      <stop
         style="stop-color:#ff002f;stop-opacity:1;"
         offset="1"
         id="stop3836" />
    </linearGradient>
    <linearGradient
       inkscape:collect="always"
       xlink:href="#linearGradient4662"
       id="linearGradient4660"
       gradientUnits="userSpaceOnUse"
       x1="483.7966"
       y1="23.864412"
       x2="36.881363"
       y2="479.45764" />
    <linearGradient
       inkscape:collect="always"
       xlink:href="#linearGradient4646"
       id="linearGradient4674"
       gradientUnits="userSpaceOnUse"
       x1="477.80984"
       y1="31.058876"
       x2="34.739613"
       y2="475.80466" />
  </defs>
  <sodipodi:namedview
     pagecolor="#ffffff"
     bordercolor="#666666"
     borderopacity="1"
     objecttolerance="10"
     gridtolerance="10"
     guidetolerance="10"
     inkscape:pageopacity="0"
     inkscape:pageshadow="2"
     inkscape:window-width="1865"
     inkscape:window-height="1056"
     id="namedview12"
     showgrid="false"
     inkscape:zoom="0.65186406"
     inkscape:cx="-125.83051"
     inkscape:cy="256"
     inkscape:window-x="55"
     inkscape:window-y="24"
     inkscape:window-maximized="1"
     inkscape:current-layer="svg2" />
  <g
     id="g4153"
     style="fill-opacity:1;fill:#000000;fill-rule:nonzero;stroke:none">
    <path
       inkscape:connector-curvature="0"
       id="path8"
       d="m 495,17 c -8,-8 -20.9,-8 -28.9,0 l -39.9,39.9 c -16.8,-11.2 -36.4,-17.2 -57,-17.2 -27.5,0 -53.4,10.7 -72.9,30.2 l -58.4,58.4 c -8,8 -8,20.9 0,28.9 l 116.9,116.9 c 12.5,11.3 25,3.8 28.9,0 l 58.4,-58.4 c 35.2,-35.2 39.6,-89.9 13,-129.9 L 495,45.9 c 8,-8 8,-20.9 0,-28.9 z m -81.8,169.8 -44,44 -88,-88 44,-44 c 11.8,-11.8 27.4,-18.2 44,-18.2 16.6,0 32.3,6.5 44,18.2 24.3,24.2 24.3,63.7 0,88 z"
       style="fill-opacity:1;fill:#000000;fill-rule:nonzero;stroke:none" />
    <path
       style="fill:#000000;fill-opacity:1;fill-rule:nonzero;stroke:none"
       inkscape:connector-curvature="0"
       id="path10"
       d="M 268.9,274.5 231.3,312 200,280.6 237.5,243.1 c 8,-8 8,-20.9 0,-28.9 -8,-8 -20.9,-8 -28.9,0 l -37.5,37.5 -13.9,-13.9 c -3.8,-3.8 -16.1,-11.2 -28.9,0 l -58.4,58.4 c -35.2,35.2 -39.6,89.9 -13,129.9 l -39.9,40 c -8,8 -8,20.9 0,28.9 8,8 20.9,8 28.9,0 l 39.9,-39.9 c 16.8,11.2 36.4,17.2 57,17.2 27.5,0 53.4,-10.7 72.9,-30.2 l 58.4,-58.4 c 8,-8 8,-20.9 0,-28.9 l -13.9,-13.9 37.5,-37.5 c 8,-8 8,-20.9 0,-28.9 -7.9,-8 -20.9,-8 -28.8,0 z m -82.1,138.7 c -11.8,11.8 -27.4,18.2 -44,18.2 -16.6,0 -32.3,-6.5 -44,-18.2 -24.3,-24.3 -24.3,-63.8 0,-88 l 44,-44 88,88 -44,44 z" />
  </g>
  <path
     style="fill:#0000ff;fill-opacity:1;fill-rule:nonzero;stroke:none"
     d="m 127.02013,428.21572 c -30.939501,-8.67768 -50.410955,-40.09478 -43.921142,-70.86655 3.367285,-15.96614 8.683127,-23.61526 34.932152,-50.2649 l 24.17601,-24.54499 43.38477,43.32995 43.38477,43.32996 -24.53431,24.62442 c -20.53468,20.61011 -26.30263,25.50386 -35.38153,30.01903 -13.21913,6.57422 -28.5186,8.16567 -42.04072,4.37308 z"
     id="path3008"
     inkscape:connector-curvature="0" />
  <path
     style="fill:#ff0000;fill-opacity:1;fill-rule:nonzero;stroke:none"
     d="m 325.63372,185.0647 -42.94347,-43.01538 24.85407,-24.52912 c 27.13382,-26.779072 36.17037,-32.715775 53.34616,-35.04658 40.70585,-5.523905 76.43546,31.88053 68.25896,71.45861 -3.31809,16.06107 -7.92256,22.6869 -34.20384,49.21933 -13.5809,13.71068 -25.06962,24.92851 -25.53048,24.92851 -0.46087,0 -20.1625,-19.35692 -43.7814,-43.01537 z"
     id="path3012"
     inkscape:connector-curvature="0" />
</svg>
