<svg height="496pt" viewBox="0 0 496 496.09831" width="496pt" xmlns="http://www.w3.org/2000/svg"><path d="m248.148438 72c-71.183594.015625-135.355469 42.898438-162.597657 108.664062-27.246093 65.765626-12.203125 141.464844 38.117188 191.816407l248.960937-248.960938c-32.984375-33.054687-77.785156-51.597656-124.480468-51.519531zm0 0" fill="#ff9811"/><g fill="#231f20"><path d="m248.148438 424c66.066406.003906 126.570312-36.988281 156.675781-95.796875 30.109375-58.804687 24.746093-129.519531-13.882813-183.113281l-244.945312 246.246094c29.796875 21.296874 65.523437 32.722656 102.152344 32.664062zm0 0"/><path d="m248.148438 56c4.417968 0 8-3.582031 8-8v-40c0-4.417969-3.582032-8-8-8-4.417969 0-8 3.582031-8 8v40c0 4.417969 3.582031 8 8 8zm0 0"/><path d="m8.148438 256h40c4.417968 0 8-3.582031 8-8s-3.582032-8-8-8h-40c-4.417969 0-8 3.582031-8 8s3.582031 8 8 8zm0 0"/><path d="m101.066406 112.230469c3.140625 3.035156 8.128906 2.988281 11.214844-.097657 3.085938-3.085937 3.128906-8.074218.097656-11.210937l-28.28125-28.28125c-2.007812-2.082031-4.980468-2.914063-7.777344-2.183594-2.796874.734375-4.980468 2.917969-5.714843 5.714844-.730469 2.796875.101562 5.773437 2.183593 7.78125zm0 0"/><path d="m493.804688 2.34375c-3.125-3.121094-8.1875-3.121094-11.3125 0l-110.136719 110.136719c-72.523438-66.699219-184.738281-64.355469-254.410157 5.316406-69.671874 69.671875-72.015624 181.886719-5.316406 254.410156l-110.136718 110.136719c-2.082032 2.007812-2.914063 4.984375-2.183594 7.78125.734375 2.796875 2.917968 4.980469 5.714844 5.710938 2.796874.734374 5.769531-.101563 7.78125-2.179688l480-480c3.121093-3.125 3.121093-8.1875 0-11.3125zm-413.65625 245.65625c-.0625-66.5 39.144531-126.765625 99.960937-153.660156 60.820313-26.894532 131.785156-15.34375 180.933594 29.453125l-237.101563 237.101562c-28.234375-30.8125-43.863281-71.105469-43.792968-112.894531zm0 0"/><path d="m391.570312 137.113281c-2.34375-.207031-4.660156.648438-6.304687 2.335938l-244.941406 246.246093c-1.65625 1.664063-2.496094 3.972657-2.300781 6.3125.199218 2.339844 1.414062 4.476563 3.324218 5.839844 73.339844 52.316406 173.773438 43.839844 237.304688-20.03125 63.535156-63.871094 71.480468-164.347656 18.773437-237.410156-1.371093-1.902344-3.511719-3.109375-5.855469-3.292969zm0 0"/></g></svg>