<?xml version="1.0" encoding="UTF-8" standalone="no"?>
<!-- Created with Inkscape (http://www.inkscape.org/) -->

<svg
   xmlns:dc="http://purl.org/dc/elements/1.1/"
   xmlns:cc="http://creativecommons.org/ns#"
   xmlns:rdf="http://www.w3.org/1999/02/22-rdf-syntax-ns#"
   xmlns:svg="http://www.w3.org/2000/svg"
   xmlns="http://www.w3.org/2000/svg"
   xmlns:xlink="http://www.w3.org/1999/xlink"
   xmlns:sodipodi="http://sodipodi.sourceforge.net/DTD/sodipodi-0.dtd"
   xmlns:inkscape="http://www.inkscape.org/namespaces/inkscape"
   width="48"
   height="48"
   id="svg2"
   sodipodi:version="0.32"
   inkscape:version="0.91 r13725"
   version="1.0"
   sodipodi:docname="fullscreen.svg"
   inkscape:output_extension="org.inkscape.output.svg.inkscape">
  <defs
     id="defs4">
    <linearGradient
       id="linearGradient3367">
      <stop
         id="stop3369"
         offset="0"
         style="stop-color:#000000;stop-opacity:1" />
      <stop
         style="stop-color:#940000;stop-opacity:1;"
         offset="0.44431007"
         id="stop3371" />
      <stop
         style="stop-color:#dc0808;stop-opacity:1;"
         offset="1"
         id="stop3373" />
    </linearGradient>
    <linearGradient
       id="linearGradient3124">
      <stop
         style="stop-color:#4e1818;stop-opacity:1;"
         offset="0"
         id="stop3126" />
      <stop
         id="stop3128"
         offset="0.62318391"
         style="stop-color:#940000;stop-opacity:1;" />
      <stop
         id="stop3130"
         offset="1"
         style="stop-color:#dc0808;stop-opacity:1;" />
    </linearGradient>
    <linearGradient
       id="linearGradient3358">
      <stop
         style="stop-color:#000000;stop-opacity:1"
         offset="0"
         id="stop3360" />
      <stop
         id="stop3362"
         offset="0.11136102"
         style="stop-color:#940000;stop-opacity:1;" />
      <stop
         id="stop3364"
         offset="1"
         style="stop-color:#dc0808;stop-opacity:1;" />
    </linearGradient>
    <linearGradient
       id="linearGradient3336">
      <stop
         style="stop-color:#4e1818;stop-opacity:1;"
         offset="0"
         id="stop3338" />
      <stop
         id="stop3340"
         offset="0.4582659"
         style="stop-color:#940000;stop-opacity:1;" />
      <stop
         id="stop3342"
         offset="1"
         style="stop-color:#dc0808;stop-opacity:1;" />
    </linearGradient>
    <linearGradient
       id="linearGradient3300">
      <stop
         id="stop3308"
         offset="0"
         style="stop-color:#4e1818;stop-opacity:1;" />
      <stop
         style="stop-color:#940000;stop-opacity:1;"
         offset="0.23567311"
         id="stop3322" />
      <stop
         style="stop-color:#dc0808;stop-opacity:1;"
         offset="1"
         id="stop3304" />
    </linearGradient>
    <inkscape:perspective
       sodipodi:type="inkscape:persp3d"
       inkscape:vp_x="22.834507 : -67.351805 : 1"
       inkscape:vp_y="163.04886 : 71.233252 : 1"
       inkscape:vp_z="-116.10672 : 125.71655 : 1"
       inkscape:persp3d-origin="188.14303 : 248.03225 : 1"
       id="perspective10" />
    <linearGradient
       id="linearGradient3264">
      <stop
         id="stop3266"
         offset="0"
         style="stop-color:#c9c9c9;stop-opacity:1;" />
      <stop
         style="stop-color:#f8f8f8;stop-opacity:1;"
         offset="0.25"
         id="stop3276" />
      <stop
         style="stop-color:#e2e2e2;stop-opacity:1;"
         offset="0.5"
         id="stop3272" />
      <stop
         id="stop3274"
         offset="0.75"
         style="stop-color:#b0b0b0;stop-opacity:1;" />
      <stop
         id="stop3268"
         offset="1"
         style="stop-color:#c9c9c9;stop-opacity:1;" />
    </linearGradient>
    <inkscape:perspective
       id="perspective22"
       inkscape:persp3d-origin="24 : 16 : 1"
       inkscape:vp_z="48 : 24 : 1"
       inkscape:vp_y="0 : 1000 : 0"
       inkscape:vp_x="0 : 24 : 1"
       sodipodi:type="inkscape:persp3d" />
    <inkscape:perspective
       id="perspective2478"
       inkscape:persp3d-origin="372.04724 : 350.78739 : 1"
       inkscape:vp_z="744.09448 : 526.18109 : 1"
       inkscape:vp_y="6.1230318e-14 : 1000 : 0"
       inkscape:vp_x="0 : 526.18109 : 1"
       sodipodi:type="inkscape:persp3d" />
    <inkscape:path-effect
       teeth="10"
       id="path-effect3585"
       effect="gears" />
    <inkscape:path-effect
       teeth="10"
       id="path-effect3587"
       effect="gears" />
    <inkscape:path-effect
       prop_scale="1"
       id="path-effect3589"
       effect="skeletal" />
    <inkscape:path-effect
       prop_scale="1.04"
       id="path-effect3591"
       effect="bend_path" />
    <marker
       style="overflow:visible"
       id="Arrow2Sstart"
       refX="0"
       refY="0"
       orient="auto"
       inkscape:stockid="Arrow2Sstart">
      <path
         transform="matrix(0.3,0,0,0.3,-0.69,0)"
         d="M 8.7185878,4.0337352 L -2.2072895,0.016013256 L 8.7185884,-4.0017078 C 6.97309,-1.6296469 6.9831476,1.6157441 8.7185878,4.0337352 z"
         style="font-size:12px;fill-rule:evenodd;stroke-width:0.625;stroke-linejoin:round"
         id="path3703" />
    </marker>
    <marker
       orient="auto"
       refY="0"
       refX="0"
       id="RazorWire"
       inkscape:stockid="RazorWire">
       style=&quot;overflow:visible&quot;&gt;
      <path
   d="M 0.022727273,-0.74009011 L 0.022727273,0.69740989 L -7.7585227,3.0099099 L 10.678977,3.0099099 L 3.4914773,0.69740989 L 3.4914773,-0.74009011 L 10.741477,-2.8963401 L -7.7272727,-2.8963401 L 0.022727273,-0.74009011 z"
   style="fill:#808080;fill-opacity:1;fill-rule:evenodd;stroke:#000000;stroke-width:0.1pt"
   transform="scale(0.8,0.8)"
   id="path3906" />
</marker>
    <marker
       style="overflow:visible"
       id="Arrow1Send"
       refX="0"
       refY="0"
       orient="auto"
       inkscape:stockid="Arrow1Send">
      <path
         transform="matrix(-0.2,0,0,-0.2,-1.2,0)"
         style="fill-rule:evenodd;stroke:#000000;stroke-width:1pt;marker-start:none"
         d="M 0,0 L 5,-5 L -12.5,0 L 5,5 L 0,0 z"
         id="path3688" />
    </marker>
    <linearGradient
       id="linearGradient3199">
      <stop
         id="stop3201"
         offset="0"
         style="stop-color:#868686;stop-opacity:1;" />
      <stop
         id="stop3203"
         offset="1"
         style="stop-color:#ffffff;stop-opacity:1;" />
    </linearGradient>
    <inkscape:perspective
       id="perspective2712"
       inkscape:persp3d-origin="372.04724 : 350.78739 : 1"
       inkscape:vp_z="744.09448 : 526.18109 : 1"
       inkscape:vp_y="6.1230318e-14 : 1000 : 0"
       inkscape:vp_x="0 : 526.18109 : 1"
       sodipodi:type="inkscape:persp3d" />
    <inkscape:path-effect
       teeth="10"
       id="path-effect2710"
       effect="gears" />
    <inkscape:path-effect
       teeth="10"
       id="path-effect2708"
       effect="gears" />
    <inkscape:path-effect
       prop_scale="1"
       id="path-effect2706"
       effect="skeletal" />
    <inkscape:path-effect
       prop_scale="1.04"
       id="path-effect2704"
       effect="bend_path" />
    <marker
       style="overflow:visible"
       id="marker2700"
       refX="0"
       refY="0"
       orient="auto"
       inkscape:stockid="Arrow2Sstart">
      <path
         transform="matrix(0.3,0,0,0.3,-0.69,0)"
         d="M 8.7185878,4.0337352 L -2.2072895,0.016013256 L 8.7185884,-4.0017078 C 6.97309,-1.6296469 6.9831476,1.6157441 8.7185878,4.0337352 z"
         style="font-size:12px;fill-rule:evenodd;stroke-width:0.625;stroke-linejoin:round"
         id="path2702" />
    </marker>
    <marker
       orient="auto"
       refY="0"
       refX="0"
       id="marker2696"
       inkscape:stockid="RazorWire">
       style=&quot;overflow:visible&quot;&gt;
      <path
   d="M 0.022727273,-0.74009011 L 0.022727273,0.69740989 L -7.7585227,3.0099099 L 10.678977,3.0099099 L 3.4914773,0.69740989 L 3.4914773,-0.74009011 L 10.741477,-2.8963401 L -7.7272727,-2.8963401 L 0.022727273,-0.74009011 z"
   style="fill:#808080;fill-opacity:1;fill-rule:evenodd;stroke:#000000;stroke-width:0.1pt"
   transform="scale(0.8,0.8)"
   id="path2698" />
</marker>
    <marker
       style="overflow:visible"
       id="marker2692"
       refX="0"
       refY="0"
       orient="auto"
       inkscape:stockid="Arrow1Send">
      <path
         transform="matrix(-0.2,0,0,-0.2,-1.2,0)"
         style="fill-rule:evenodd;stroke:#000000;stroke-width:1pt;marker-start:none"
         d="M 0,0 L 5,-5 L -12.5,0 L 5,5 L 0,0 z"
         id="path2694" />
    </marker>
    <linearGradient
       id="linearGradient3198">
      <stop
         id="stop3200"
         offset="0"
         style="stop-color:#868686;stop-opacity:1;" />
      <stop
         id="stop3202"
         offset="1"
         style="stop-color:#ffffff;stop-opacity:1;" />
    </linearGradient>
    <inkscape:perspective
       id="perspective2672"
       inkscape:persp3d-origin="372.04724 : 350.78739 : 1"
       inkscape:vp_z="744.09448 : 526.18109 : 1"
       inkscape:vp_y="6.1230318e-14 : 1000 : 0"
       inkscape:vp_x="0 : 526.18109 : 1"
       sodipodi:type="inkscape:persp3d" />
    <inkscape:path-effect
       teeth="10"
       id="path-effect2670"
       effect="gears" />
    <inkscape:path-effect
       teeth="10"
       id="path-effect2668"
       effect="gears" />
    <inkscape:path-effect
       prop_scale="1"
       id="path-effect2666"
       effect="skeletal" />
    <inkscape:path-effect
       prop_scale="1.04"
       id="path-effect2664"
       effect="bend_path" />
    <marker
       style="overflow:visible"
       id="marker2660"
       refX="0"
       refY="0"
       orient="auto"
       inkscape:stockid="Arrow2Sstart">
      <path
         transform="matrix(0.3,0,0,0.3,-0.69,0)"
         d="M 8.7185878,4.0337352 L -2.2072895,0.016013256 L 8.7185884,-4.0017078 C 6.97309,-1.6296469 6.9831476,1.6157441 8.7185878,4.0337352 z"
         style="font-size:12px;fill-rule:evenodd;stroke-width:0.625;stroke-linejoin:round"
         id="path2662" />
    </marker>
    <marker
       orient="auto"
       refY="0"
       refX="0"
       id="marker2656"
       inkscape:stockid="RazorWire">
       style=&quot;overflow:visible&quot;&gt;
      <path
   d="M 0.022727273,-0.74009011 L 0.022727273,0.69740989 L -7.7585227,3.0099099 L 10.678977,3.0099099 L 3.4914773,0.69740989 L 3.4914773,-0.74009011 L 10.741477,-2.8963401 L -7.7272727,-2.8963401 L 0.022727273,-0.74009011 z"
   style="fill:#808080;fill-opacity:1;fill-rule:evenodd;stroke:#000000;stroke-width:0.1pt"
   transform="scale(0.8,0.8)"
   id="path2658" />
</marker>
    <marker
       style="overflow:visible"
       id="marker2652"
       refX="0"
       refY="0"
       orient="auto"
       inkscape:stockid="Arrow1Send">
      <path
         transform="matrix(-0.2,0,0,-0.2,-1.2,0)"
         style="fill-rule:evenodd;stroke:#000000;stroke-width:1pt;marker-start:none"
         d="M 0,0 L 5,-5 L -12.5,0 L 5,5 L 0,0 z"
         id="path2654" />
    </marker>
    <linearGradient
       id="linearGradient2646">
      <stop
         id="stop2648"
         offset="0"
         style="stop-color:#868686;stop-opacity:1;" />
      <stop
         id="stop2650"
         offset="1"
         style="stop-color:#ffffff;stop-opacity:1;" />
    </linearGradient>
    <linearGradient
       inkscape:collect="always"
       xlink:href="#linearGradient3199"
       id="linearGradient2707"
       gradientUnits="userSpaceOnUse"
       x1="-482.45612"
       y1="473.16379"
       x2="-361.58667"
       y2="473.16379" />
    <linearGradient
       inkscape:collect="always"
       xlink:href="#linearGradient3199"
       id="linearGradient2709"
       gradientUnits="userSpaceOnUse"
       x1="313.02472"
       y1="84.767693"
       x2="446.75058"
       y2="84.767693" />
    <linearGradient
       inkscape:collect="always"
       xlink:href="#linearGradient3199"
       id="linearGradient2711"
       gradientUnits="userSpaceOnUse"
       x1="-364.76328"
       y1="471.94717"
       x2="-243.89383"
       y2="471.94717" />
    <linearGradient
       inkscape:collect="always"
       xlink:href="#linearGradient3199"
       id="linearGradient2713"
       gradientUnits="userSpaceOnUse"
       x1="-196.22874"
       y1="441.06339"
       x2="46.90115"
       y2="441.06339" />
    <linearGradient
       inkscape:collect="always"
       xlink:href="#linearGradient3199"
       id="linearGradient2715"
       gradientUnits="userSpaceOnUse"
       x1="-482.46341"
       y1="403.97192"
       x2="-361.59396"
       y2="403.97192" />
    <linearGradient
       inkscape:collect="always"
       xlink:href="#linearGradient3199"
       id="linearGradient2717"
       gradientUnits="userSpaceOnUse"
       x1="312.86624"
       y1="11.616987"
       x2="446.5921"
       y2="11.616987" />
    <linearGradient
       inkscape:collect="always"
       xlink:href="#linearGradient3199"
       id="linearGradient2719"
       gradientUnits="userSpaceOnUse"
       x1="-367.11237"
       y1="404.1579"
       x2="-246.24292"
       y2="404.1579" />
    <radialGradient
       cx="400.16425"
       cy="372.58212"
       r="75.333374"
       fx="400.16425"
       fy="372.58212"
       id="radialGradient3832"
       xlink:href="#linearGradient3793"
       gradientUnits="userSpaceOnUse"
       gradientTransform="matrix(-1.6842177,0.23264005,-0.10373618,-0.75100688,868.39974,515.15113)" />
    <linearGradient
       id="linearGradient3793">
      <stop
         id="stop3795"
         style="stop-color:#007bbf;stop-opacity:1"
         offset="0" />
      <stop
         id="stop3797"
         style="stop-color:#003c5f;stop-opacity:1"
         offset="1" />
    </linearGradient>
    <radialGradient
       cx="400.16425"
       cy="372.58212"
       r="75.333374"
       fx="400.16425"
       fy="372.58212"
       id="radialGradient3832-4"
       xlink:href="#linearGradient3793"
       gradientUnits="userSpaceOnUse"
       gradientTransform="matrix(-1.6842177,0.23264005,-0.10373618,-0.75100688,868.39974,515.15113)" />
    <filter
       inkscape:collect="always"
       style="color-interpolation-filters:sRGB"
       id="filter4698"
       x="-0.090650753"
       width="1.1813015"
       y="-0.094218084"
       height="1.1884362">
      <feGaussianBlur
         inkscape:collect="always"
         stdDeviation="5.6530851"
         id="feGaussianBlur4700" />
    </filter>
  </defs>
  <sodipodi:namedview
     id="base"
     pagecolor="#ffffff"
     bordercolor="#666666"
     borderopacity="1.0"
     inkscape:pageopacity="0.0"
     inkscape:pageshadow="2"
     inkscape:zoom="10.302388"
     inkscape:cx="1.2530694"
     inkscape:cy="21.673447"
     inkscape:document-units="px"
     inkscape:current-layer="layer2"
     showgrid="true"
     inkscape:window-width="1920"
     inkscape:window-height="1018"
     inkscape:window-x="-8"
     inkscape:window-y="-8"
     inkscape:window-maximized="1">
    <inkscape:grid
       type="xygrid"
       id="grid4508" />
  </sodipodi:namedview>
  <metadata
     id="metadata7">
    <rdf:RDF>
      <cc:Work
         rdf:about="">
        <dc:format>image/svg+xml</dc:format>
        <dc:type
           rdf:resource="http://purl.org/dc/dcmitype/StillImage" />
        <dc:title></dc:title>
      </cc:Work>
    </rdf:RDF>
  </metadata>
  <g
     inkscape:groupmode="layer"
     id="layer2"
     inkscape:label="icono"
     style="display:inline">
    <g
       id="g4409"
       transform="translate(-0.17932467,0)"
       style="fill:#ffff97;fill-opacity:1">
      <path
         style="display:inline;opacity:1;fill:#ffff97;fill-opacity:1;stroke:#000000;stroke-width:0.80000001;stroke-linecap:round;stroke-miterlimit:4;stroke-dasharray:none;stroke-dashoffset:3.29370975;stroke-opacity:1"
         d="m 10.393377,13.590439 c -0.19931,-0.02392 -0.251584,-0.0488 -0.378828,-0.180306 -0.08119,-0.08391 -0.9937629,-1.070564 -2.0279469,-2.192572 -1.034183,-1.122008 -1.89437,-2.0400146 -1.911527,-2.0400146 -0.01716,0 -1.426967,1.6657986 -2.042706,2.5434326 l -1.119525,1.595699 -0.601164,8.35e-4 -0.601164,8.35e-4 0,-6.0753096 0,-6.07531 6.001784,0.0284 c 3.3009819,0.01562 6.0139049,0.03984 6.0287189,0.05382 0.01481,0.01398 0.01481,0.290833 0,0.61523 l -0.02693,0.589812 -1.576823,1.095956 c -0.867254,0.602776 -2.5832129,2.279751 -2.5867619,2.295716 -0.0035,0.01597 0.9765549,0.942599 2.1780109,2.059187 1.790382,1.663914 2.187645,2.051495 2.202093,2.1484216 0.0097,0.06504 0.027,0.189692 0.03845,0.276996 l 0.02083,0.158735 -1.626899,1.452599 -1.738397,1.675596 z"
         id="path4370-8"
         inkscape:connector-curvature="0"
         sodipodi:nodetypes="csssscccccscscscscccccc" />
      <path
         style="display:inline;opacity:1;fill:#ffff97;fill-opacity:1;stroke:#000000;stroke-width:0.80000001;stroke-linecap:round;stroke-miterlimit:4;stroke-dasharray:none;stroke-dashoffset:3.29370975;stroke-opacity:1"
         d="m 34.223526,9.9330274 c 0.02392,-0.19931 0.0488,-0.251584 0.180306,-0.378827 0.08391,-0.08119 1.070564,-0.993763 2.192572,-2.027948 1.122008,-1.034183 2.040015,-1.89437 2.040015,-1.911527 0,-0.01716 -1.665799,-1.426967 -2.543433,-2.042706 l -1.595699,-1.119525 -8.35e-4,-0.601164 -8.35e-4,-0.601164 6.07531,0 6.075309,0 -0.0284,6.001784 c -0.01562,3.3009816 -0.03984,6.0139056 -0.05382,6.0287196 -0.01398,0.01481 -0.290833,0.01481 -0.61523,0 l -0.589812,-0.02693 -1.095956,-1.576823 c -0.602776,-0.867255 -2.279751,-2.5832126 -2.295716,-2.5867616 -0.01597,-0.0035 -0.942599,0.9765536 -2.059186,2.1780106 -1.663914,1.790382 -2.051495,2.187645 -2.148422,2.202093 -0.06504,0.0097 -0.189692,0.027 -0.276996,0.03845 l -0.158735,0.02083 -1.452599,-1.626899 -1.675596,-1.738398 z"
         id="path4370-8-3"
         inkscape:connector-curvature="0"
         sodipodi:nodetypes="csssscccccscscscscccccc" />
    </g>
    <g
       id="g4413"
       transform="translate(-0.45429377,0)"
       style="fill:#ffff97;fill-opacity:1">
      <path
         style="display:inline;opacity:1;fill:#ffff97;fill-opacity:1;stroke:#000000;stroke-width:0.80000001;stroke-linecap:round;stroke-miterlimit:4;stroke-dasharray:none;stroke-dashoffset:3.29370975;stroke-opacity:1"
         d="m 10.668346,34.179385 c -0.19931,0.02392 -0.251584,0.0488 -0.378828,0.180306 -0.08119,0.08391 -0.9937627,1.070564 -2.0279467,2.192572 -1.034183,1.122008 -1.89437,2.040015 -1.911527,2.040015 -0.01716,0 -1.426967,-1.665799 -2.042706,-2.543433 l -1.119525,-1.595699 -0.601164,-8.35e-4 -0.601164,-8.35e-4 0,6.07531 0,6.07531 6.001784,-0.0284 c 3.3009817,-0.01562 6.0139047,-0.03984 6.0287187,-0.05382 0.01481,-0.01398 0.01481,-0.290833 0,-0.61523 l -0.02693,-0.589812 -1.576823,-1.095956 c -0.867254,-0.602776 -2.5832127,-2.279751 -2.5867617,-2.295716 -0.0035,-0.01597 0.9765547,-0.942599 2.1780107,-2.059187 1.790382,-1.663914 2.187645,-2.051495 2.202093,-2.148422 0.0097,-0.06504 0.027,-0.189692 0.03845,-0.276996 l 0.02083,-0.158735 -1.626899,-1.452599 -1.738397,-1.675596 z"
         id="path4370-8-0"
         inkscape:connector-curvature="0"
         sodipodi:nodetypes="csssscccccscscscscccccc" />
      <path
         style="display:inline;opacity:1;fill:#ffff97;fill-opacity:1;stroke:#000000;stroke-width:0.80000001;stroke-linecap:round;stroke-miterlimit:4;stroke-dasharray:none;stroke-dashoffset:3.29370975;stroke-opacity:1"
         d="m 34.498495,37.836797 c 0.02392,0.19931 0.0488,0.251584 0.180306,0.378827 0.08391,0.08119 1.070564,0.993763 2.192572,2.027948 1.122008,1.034183 2.040015,1.89437 2.040015,1.911527 0,0.01716 -1.665799,1.426967 -2.543433,2.042706 l -1.595699,1.119525 -8.35e-4,0.601164 -8.35e-4,0.601164 6.07531,0 6.075309,0 -0.0284,-6.001784 c -0.01562,-3.300982 -0.03984,-6.013906 -0.05382,-6.02872 -0.01398,-0.01481 -0.290833,-0.01481 -0.61523,0 l -0.589812,0.02693 -1.095956,1.576823 c -0.602776,0.867255 -2.279751,2.583213 -2.295716,2.586762 -0.01597,0.0035 -0.942599,-0.976554 -2.059186,-2.178011 -1.663914,-1.790382 -2.051495,-2.187645 -2.148422,-2.202093 -0.06504,-0.0097 -0.189692,-0.027 -0.276996,-0.03845 l -0.158735,-0.02083 -1.452599,1.626899 -1.675596,1.738398 z"
         id="path4370-8-3-5"
         inkscape:connector-curvature="0"
         sodipodi:nodetypes="csssscccccscscscscccccc" />
    </g>
    <g
       id="g4702"
       transform="matrix(0.8,0,0,0.8,5.3115665,5.232781)">
      <g
         id="layer1-3-7"
         transform="matrix(0.264,0,0,0.264,-24.733595,-69.122568)"
         style="display:inline;fill:#000000;fill-opacity:1;stroke:none;filter:url(#filter4698)">
        <path
           style="fill:#000000;fill-opacity:1;stroke:none;stroke-linecap:butt;stroke-linejoin:round"
           id="path3028-5"
           d="m 125.11908,288.93361 c -10.1297,63.19456 -4.46826,102.70239 0,144 -4.22413,-80.35431 128.86214,-105.7953 144.00001,-76.05706 -2.31836,-53.97203 -135.05204,-18.68489 -144.00001,-67.94294 z"
           inkscape:connector-curvature="0" />
      </g>
      <g
         id="layer1-3"
         transform="matrix(0.24,0,0,0.24,-21.359354,-62.381119)">
        <path
           style="fill:url(#radialGradient3832);fill-opacity:1;stroke:#00466e;stroke-linecap:butt;stroke-linejoin:round"
           id="path3028"
           d="m 125.11908,288.93361 c -10.1297,63.19456 -4.46826,102.70239 0,144 -4.22413,-80.35431 128.86214,-105.7953 144.00001,-76.05706 -2.31836,-53.97203 -135.05204,-18.68489 -144.00001,-67.94294 z"
           inkscape:connector-curvature="0" />
      </g>
    </g>
  </g>
  <g
     inkscape:label="rueda"
     inkscape:groupmode="layer"
     id="layer1"
     style="display:inline" />
</svg>
