<?xml version="1.0" encoding="UTF-8" standalone="no"?>
<!-- Created with Inkscape (http://www.inkscape.org/) -->

<svg
   xmlns:dc="http://purl.org/dc/elements/1.1/"
   xmlns:cc="http://creativecommons.org/ns#"
   xmlns:rdf="http://www.w3.org/1999/02/22-rdf-syntax-ns#"
   xmlns:svg="http://www.w3.org/2000/svg"
   xmlns="http://www.w3.org/2000/svg"
   xmlns:xlink="http://www.w3.org/1999/xlink"
   xmlns:sodipodi="http://sodipodi.sourceforge.net/DTD/sodipodi-0.dtd"
   xmlns:inkscape="http://www.inkscape.org/namespaces/inkscape"
   width="48"
   height="48"
   id="svg2"
   sodipodi:version="0.32"
   inkscape:version="0.91 r13725"
   version="1.0"
   sodipodi:docname="info.svg"
   inkscape:output_extension="org.inkscape.output.svg.inkscape">
  <defs
     id="defs4">
    <linearGradient
       id="linearGradient3124">
      <stop
         style="stop-color:#4e1818;stop-opacity:1;"
         offset="0"
         id="stop3126" />
      <stop
         id="stop3128"
         offset="0.62318391"
         style="stop-color:#940000;stop-opacity:1;" />
      <stop
         id="stop3130"
         offset="1"
         style="stop-color:#dc0808;stop-opacity:1;" />
    </linearGradient>
    <linearGradient
       id="linearGradient3358">
      <stop
         style="stop-color:#4e1818;stop-opacity:1;"
         offset="0"
         id="stop3360" />
      <stop
         id="stop3362"
         offset="0.11136102"
         style="stop-color:#940000;stop-opacity:1;" />
      <stop
         id="stop3364"
         offset="1"
         style="stop-color:#dc0808;stop-opacity:1;" />
    </linearGradient>
    <linearGradient
       id="linearGradient3336">
      <stop
         style="stop-color:#4e1818;stop-opacity:1;"
         offset="0"
         id="stop3338" />
      <stop
         id="stop3340"
         offset="0.4582659"
         style="stop-color:#940000;stop-opacity:1;" />
      <stop
         id="stop3342"
         offset="1"
         style="stop-color:#dc0808;stop-opacity:1;" />
    </linearGradient>
    <linearGradient
       id="linearGradient3300">
      <stop
         id="stop3308"
         offset="0"
         style="stop-color:#4e1818;stop-opacity:1;" />
      <stop
         style="stop-color:#940000;stop-opacity:1;"
         offset="0.23567311"
         id="stop3322" />
      <stop
         style="stop-color:#dc0808;stop-opacity:1;"
         offset="1"
         id="stop3304" />
    </linearGradient>
    <inkscape:perspective
       sodipodi:type="inkscape:persp3d"
       inkscape:vp_x="22.834507 : -67.351805 : 1"
       inkscape:vp_y="163.04886 : 71.233252 : 1"
       inkscape:vp_z="-116.10672 : 125.71655 : 1"
       inkscape:persp3d-origin="188.14303 : 248.03225 : 1"
       id="perspective10" />
    <linearGradient
       id="linearGradient3264">
      <stop
         id="stop3266"
         offset="0"
         style="stop-color:#c9c9c9;stop-opacity:1;" />
      <stop
         style="stop-color:#f8f8f8;stop-opacity:1;"
         offset="0.25"
         id="stop3276" />
      <stop
         style="stop-color:#e2e2e2;stop-opacity:1;"
         offset="0.5"
         id="stop3272" />
      <stop
         id="stop3274"
         offset="0.75"
         style="stop-color:#b0b0b0;stop-opacity:1;" />
      <stop
         id="stop3268"
         offset="1"
         style="stop-color:#c9c9c9;stop-opacity:1;" />
    </linearGradient>
    <inkscape:perspective
       id="perspective22"
       inkscape:persp3d-origin="24 : 16 : 1"
       inkscape:vp_z="48 : 24 : 1"
       inkscape:vp_y="0 : 1000 : 0"
       inkscape:vp_x="0 : 24 : 1"
       sodipodi:type="inkscape:persp3d" />
    <inkscape:perspective
       id="perspective2478"
       inkscape:persp3d-origin="372.04724 : 350.78739 : 1"
       inkscape:vp_z="744.09448 : 526.18109 : 1"
       inkscape:vp_y="6.1230318e-14 : 1000 : 0"
       inkscape:vp_x="0 : 526.18109 : 1"
       sodipodi:type="inkscape:persp3d" />
    <inkscape:path-effect
       teeth="10"
       id="path-effect3585"
       effect="gears" />
    <inkscape:path-effect
       teeth="10"
       id="path-effect3587"
       effect="gears" />
    <inkscape:path-effect
       prop_scale="1"
       id="path-effect3589"
       effect="skeletal" />
    <inkscape:path-effect
       prop_scale="1.04"
       id="path-effect3591"
       effect="bend_path" />
    <marker
       style="overflow:visible"
       id="Arrow2Sstart"
       refX="0"
       refY="0"
       orient="auto"
       inkscape:stockid="Arrow2Sstart">
      <path
         transform="matrix(0.3,0,0,0.3,-0.69,0)"
         d="M 8.7185878,4.0337352 L -2.2072895,0.016013256 L 8.7185884,-4.0017078 C 6.97309,-1.6296469 6.9831476,1.6157441 8.7185878,4.0337352 z"
         style="font-size:12px;fill-rule:evenodd;stroke-width:0.625;stroke-linejoin:round"
         id="path3703" />
    </marker>
    <marker
       orient="auto"
       refY="0"
       refX="0"
       id="RazorWire"
       inkscape:stockid="RazorWire">
       style=&quot;overflow:visible&quot;&gt;
      <path
   d="M 0.022727273,-0.74009011 L 0.022727273,0.69740989 L -7.7585227,3.0099099 L 10.678977,3.0099099 L 3.4914773,0.69740989 L 3.4914773,-0.74009011 L 10.741477,-2.8963401 L -7.7272727,-2.8963401 L 0.022727273,-0.74009011 z"
   style="fill:#808080;fill-opacity:1;fill-rule:evenodd;stroke:#000000;stroke-width:0.1pt"
   transform="scale(0.8,0.8)"
   id="path3906" />
</marker>
    <marker
       style="overflow:visible"
       id="Arrow1Send"
       refX="0"
       refY="0"
       orient="auto"
       inkscape:stockid="Arrow1Send">
      <path
         transform="matrix(-0.2,0,0,-0.2,-1.2,0)"
         style="fill-rule:evenodd;stroke:#000000;stroke-width:1pt;marker-start:none"
         d="M 0,0 L 5,-5 L -12.5,0 L 5,5 L 0,0 z"
         id="path3688" />
    </marker>
    <linearGradient
       id="linearGradient3199">
      <stop
         id="stop3201"
         offset="0"
         style="stop-color:#868686;stop-opacity:1;" />
      <stop
         id="stop3203"
         offset="1"
         style="stop-color:#ffffff;stop-opacity:1;" />
    </linearGradient>
    <inkscape:perspective
       id="perspective2712"
       inkscape:persp3d-origin="372.04724 : 350.78739 : 1"
       inkscape:vp_z="744.09448 : 526.18109 : 1"
       inkscape:vp_y="6.1230318e-14 : 1000 : 0"
       inkscape:vp_x="0 : 526.18109 : 1"
       sodipodi:type="inkscape:persp3d" />
    <inkscape:path-effect
       teeth="10"
       id="path-effect2710"
       effect="gears" />
    <inkscape:path-effect
       teeth="10"
       id="path-effect2708"
       effect="gears" />
    <inkscape:path-effect
       prop_scale="1"
       id="path-effect2706"
       effect="skeletal" />
    <inkscape:path-effect
       prop_scale="1.04"
       id="path-effect2704"
       effect="bend_path" />
    <marker
       style="overflow:visible"
       id="marker2700"
       refX="0"
       refY="0"
       orient="auto"
       inkscape:stockid="Arrow2Sstart">
      <path
         transform="matrix(0.3,0,0,0.3,-0.69,0)"
         d="M 8.7185878,4.0337352 L -2.2072895,0.016013256 L 8.7185884,-4.0017078 C 6.97309,-1.6296469 6.9831476,1.6157441 8.7185878,4.0337352 z"
         style="font-size:12px;fill-rule:evenodd;stroke-width:0.625;stroke-linejoin:round"
         id="path2702" />
    </marker>
    <marker
       orient="auto"
       refY="0"
       refX="0"
       id="marker2696"
       inkscape:stockid="RazorWire">
       style=&quot;overflow:visible&quot;&gt;
      <path
   d="M 0.022727273,-0.74009011 L 0.022727273,0.69740989 L -7.7585227,3.0099099 L 10.678977,3.0099099 L 3.4914773,0.69740989 L 3.4914773,-0.74009011 L 10.741477,-2.8963401 L -7.7272727,-2.8963401 L 0.022727273,-0.74009011 z"
   style="fill:#808080;fill-opacity:1;fill-rule:evenodd;stroke:#000000;stroke-width:0.1pt"
   transform="scale(0.8,0.8)"
   id="path2698" />
</marker>
    <marker
       style="overflow:visible"
       id="marker2692"
       refX="0"
       refY="0"
       orient="auto"
       inkscape:stockid="Arrow1Send">
      <path
         transform="matrix(-0.2,0,0,-0.2,-1.2,0)"
         style="fill-rule:evenodd;stroke:#000000;stroke-width:1pt;marker-start:none"
         d="M 0,0 L 5,-5 L -12.5,0 L 5,5 L 0,0 z"
         id="path2694" />
    </marker>
    <linearGradient
       id="linearGradient3198">
      <stop
         id="stop3200"
         offset="0"
         style="stop-color:#868686;stop-opacity:1;" />
      <stop
         id="stop3202"
         offset="1"
         style="stop-color:#ffffff;stop-opacity:1;" />
    </linearGradient>
    <inkscape:perspective
       id="perspective2672"
       inkscape:persp3d-origin="372.04724 : 350.78739 : 1"
       inkscape:vp_z="744.09448 : 526.18109 : 1"
       inkscape:vp_y="6.1230318e-14 : 1000 : 0"
       inkscape:vp_x="0 : 526.18109 : 1"
       sodipodi:type="inkscape:persp3d" />
    <inkscape:path-effect
       teeth="10"
       id="path-effect2670"
       effect="gears" />
    <inkscape:path-effect
       teeth="10"
       id="path-effect2668"
       effect="gears" />
    <inkscape:path-effect
       prop_scale="1"
       id="path-effect2666"
       effect="skeletal" />
    <inkscape:path-effect
       prop_scale="1.04"
       id="path-effect2664"
       effect="bend_path" />
    <marker
       style="overflow:visible"
       id="marker2660"
       refX="0"
       refY="0"
       orient="auto"
       inkscape:stockid="Arrow2Sstart">
      <path
         transform="matrix(0.3,0,0,0.3,-0.69,0)"
         d="M 8.7185878,4.0337352 L -2.2072895,0.016013256 L 8.7185884,-4.0017078 C 6.97309,-1.6296469 6.9831476,1.6157441 8.7185878,4.0337352 z"
         style="font-size:12px;fill-rule:evenodd;stroke-width:0.625;stroke-linejoin:round"
         id="path2662" />
    </marker>
    <marker
       orient="auto"
       refY="0"
       refX="0"
       id="marker2656"
       inkscape:stockid="RazorWire">
       style=&quot;overflow:visible&quot;&gt;
      <path
   d="M 0.022727273,-0.74009011 L 0.022727273,0.69740989 L -7.7585227,3.0099099 L 10.678977,3.0099099 L 3.4914773,0.69740989 L 3.4914773,-0.74009011 L 10.741477,-2.8963401 L -7.7272727,-2.8963401 L 0.022727273,-0.74009011 z"
   style="fill:#808080;fill-opacity:1;fill-rule:evenodd;stroke:#000000;stroke-width:0.1pt"
   transform="scale(0.8,0.8)"
   id="path2658" />
</marker>
    <marker
       style="overflow:visible"
       id="marker2652"
       refX="0"
       refY="0"
       orient="auto"
       inkscape:stockid="Arrow1Send">
      <path
         transform="matrix(-0.2,0,0,-0.2,-1.2,0)"
         style="fill-rule:evenodd;stroke:#000000;stroke-width:1pt;marker-start:none"
         d="M 0,0 L 5,-5 L -12.5,0 L 5,5 L 0,0 z"
         id="path2654" />
    </marker>
    <linearGradient
       id="linearGradient2646">
      <stop
         id="stop2648"
         offset="0"
         style="stop-color:#868686;stop-opacity:1;" />
      <stop
         id="stop2650"
         offset="1"
         style="stop-color:#ffffff;stop-opacity:1;" />
    </linearGradient>
    <linearGradient
       inkscape:collect="always"
       xlink:href="#linearGradient3199"
       id="linearGradient2707"
       gradientUnits="userSpaceOnUse"
       x1="-482.45612"
       y1="473.16379"
       x2="-361.58667"
       y2="473.16379" />
    <linearGradient
       inkscape:collect="always"
       xlink:href="#linearGradient3199"
       id="linearGradient2709"
       gradientUnits="userSpaceOnUse"
       x1="313.02472"
       y1="84.767693"
       x2="446.75058"
       y2="84.767693" />
    <linearGradient
       inkscape:collect="always"
       xlink:href="#linearGradient3199"
       id="linearGradient2711"
       gradientUnits="userSpaceOnUse"
       x1="-364.76328"
       y1="471.94717"
       x2="-243.89383"
       y2="471.94717" />
    <linearGradient
       inkscape:collect="always"
       xlink:href="#linearGradient3199"
       id="linearGradient2713"
       gradientUnits="userSpaceOnUse"
       x1="-196.22874"
       y1="441.06339"
       x2="46.90115"
       y2="441.06339" />
    <linearGradient
       inkscape:collect="always"
       xlink:href="#linearGradient3199"
       id="linearGradient2715"
       gradientUnits="userSpaceOnUse"
       x1="-482.46341"
       y1="403.97192"
       x2="-361.59396"
       y2="403.97192" />
    <linearGradient
       inkscape:collect="always"
       xlink:href="#linearGradient3199"
       id="linearGradient2717"
       gradientUnits="userSpaceOnUse"
       x1="312.86624"
       y1="11.616987"
       x2="446.5921"
       y2="11.616987" />
    <linearGradient
       inkscape:collect="always"
       xlink:href="#linearGradient3199"
       id="linearGradient2719"
       gradientUnits="userSpaceOnUse"
       x1="-367.11237"
       y1="404.1579"
       x2="-246.24292"
       y2="404.1579" />
  </defs>
  <sodipodi:namedview
     id="base"
     pagecolor="#ffffff"
     bordercolor="#666666"
     borderopacity="1.0"
     inkscape:pageopacity="0.0"
     inkscape:pageshadow="2"
     inkscape:zoom="8"
     inkscape:cx="4.781083"
     inkscape:cy="26.719339"
     inkscape:document-units="px"
     inkscape:current-layer="layer2"
     showgrid="false"
     inkscape:window-width="1276"
     inkscape:window-height="969"
     inkscape:window-x="271"
     inkscape:window-y="119"
     inkscape:window-maximized="0" />
  <metadata
     id="metadata7">
    <rdf:RDF>
      <cc:Work
         rdf:about="">
        <dc:format>image/svg+xml</dc:format>
        <dc:type
           rdf:resource="http://purl.org/dc/dcmitype/StillImage" />
        <dc:title />
      </cc:Work>
    </rdf:RDF>
  </metadata>
  <g
     inkscape:groupmode="layer"
     id="layer2"
     inkscape:label="icono"
     style="display:inline">
    <g
       id="g4322"
       style="fill:#4b4b4b"
       transform="matrix(2.3316293,0,0,2.3316293,-220.08166,-208.83705)">
      <g
         id="g4361"
         transform="translate(3.8890873,-0.35355339)">
        <g
           style="fill:#204a87;stroke:#204a87"
           transform="matrix(0.14331294,0,0,0.14331294,89.328751,88.212645)"
           id="g4340">
          <path
             style="fill:#204a87;stroke:#204a87"
             id="path4324"
             d="m 80,15 c -35.88,0 -65,29.12 -65,65 0,35.88 29.12,65 65,65 35.88,0 65,-29.12 65,-65 0,-35.88 -29.12,-65 -65,-65 z m 0,10 c 30.36,0 55,24.64 55,55 0,30.36 -24.64,55 -55,55 C 49.64,135 25,110.36 25,80 25,49.64 49.64,25 80,25 Z"
             inkscape:connector-curvature="0" />
          <path
             style="fill:#204a87;stroke:#204a87"
             id="path4326"
             transform="matrix(1.1989,0,0,1.2342,21.214,28.75)"
             d="m 57.373,18.231 a 9.3835,9.1153971 0 1 1 -18.767,0 9.3835,9.1153971 0 1 1 18.767,0 z"
             inkscape:connector-curvature="0" />
          <path
             style="fill:#204a87;stroke:#204a87"
             id="path4328"
             d="m 90.665,110.96 c -0.069,2.73 1.211,3.5 4.327,3.82 l 5.008,0.1 0,5.12 -39.073,0 0,-5.12 5.503,-0.1 c 3.291,-0.1 4.082,-1.38 4.327,-3.82 l 0,-30.813 C 70.792,75.268 64.461,76.034 60,76.179 L 60,71.105 90.665,70"
             inkscape:connector-curvature="0" />
        </g>
        <path
           inkscape:connector-curvature="0"
           id="path4347"
           d="m 99.457401,107.34688 c -3.18771,-0.53355 -5.90315,-3.32733 -6.34065,-6.52357 -0.8547,-6.244095 5.458,-10.841665 11.113619,-8.094095 2.99553,1.45527 4.78576,4.87411 4.24159,8.100285 -0.73454,4.35489 -4.71987,7.23621 -9.014559,6.51738 z m 4.242639,-2.36932 c 0,-0.38457 -0.0779,-0.44194 -0.59981,-0.44194 -0.38387,0 -0.63843,-0.10067 -0.70711,-0.27963 -0.059,-0.15379 -0.1073,-1.58568 -0.1073,-3.18198 l 0,-2.902355 -0.85721,0 c -0.47146,0 -1.465829,0.0514 -2.209709,0.11432 -1.26993,0.10735 -1.35249,0.13973 -1.35249,0.53033 0,0.35278 0.0887,0.41601 0.58336,0.41601 0.32085,0 0.67882,0.0955 0.79549,0.21213 0.22308,0.22308 0.31133,4.273435 0.10483,4.811545 -0.0687,0.17896 -0.32323,0.27963 -0.7071,0.27963 -0.52194,0 -0.59981,0.0574 -0.59981,0.44194 l 0,0.44194 2.828429,0 2.82843,0 0,-0.44194 z m -2.29456,-7.956785 c 0.99177,-0.51287 1.18005,-1.6478 0.42269,-2.54787 -0.65894,-0.7831 -1.78451,-0.7831 -2.443449,0 -0.7445,0.88479 -0.57184,2.01924 0.38648,2.5393 0.620039,0.33648 0.996339,0.33846 1.634279,0.009 z"
           style="fill:#ffffff;fill-opacity:1;stroke:#ffffff;stroke-width:0.17536248;stroke-linecap:round;stroke-miterlimit:4;stroke-dasharray:none;stroke-dashoffset:3.29370975;stroke-opacity:1" />
      </g>
    </g>
  </g>
  <g
     inkscape:label="rueda"
     inkscape:groupmode="layer"
     id="layer1"
     style="display:inline" />
</svg>
