<?xml version="1.0" encoding="UTF-8" standalone="no"?>
<!-- Generator: Adobe Illustrator 19.0.1, SVG Export Plug-In . SVG Version: 6.00 Build 0)  -->

<svg
   xmlns:dc="http://purl.org/dc/elements/1.1/"
   xmlns:cc="http://creativecommons.org/ns#"
   xmlns:rdf="http://www.w3.org/1999/02/22-rdf-syntax-ns#"
   xmlns:svg="http://www.w3.org/2000/svg"
   xmlns="http://www.w3.org/2000/svg"
   xmlns:sodipodi="http://sodipodi.sourceforge.net/DTD/sodipodi-0.dtd"
   xmlns:inkscape="http://www.inkscape.org/namespaces/inkscape"
   version="1.1"
   id="Layer_1"
   x="0px"
   y="0px"
   viewBox="-793 545.5 96 100"
   style="enable-background:new -793 545.5 96 100;"
   xml:space="preserve"
   inkscape:version="0.48.4 r9939"
   width="100%"
   height="100%"
   sodipodi:docname="checklist.svg"><metadata
     id="metadata37"><rdf:RDF><cc:Work
         rdf:about=""><dc:format>image/svg+xml</dc:format><dc:type
           rdf:resource="http://purl.org/dc/dcmitype/StillImage" /><dc:title></dc:title></cc:Work></rdf:RDF></metadata><defs
     id="defs35" /><sodipodi:namedview
     pagecolor="#ffffff"
     bordercolor="#666666"
     borderopacity="1"
     objecttolerance="10"
     gridtolerance="10"
     guidetolerance="10"
     inkscape:pageopacity="0"
     inkscape:pageshadow="2"
     inkscape:window-width="1920"
     inkscape:window-height="1056"
     id="namedview33"
     showgrid="false"
     inkscape:zoom="4.72"
     inkscape:cx="44.919994"
     inkscape:cy="45.974577"
     inkscape:window-x="1920"
     inkscape:window-y="24"
     inkscape:window-maximized="1"
     inkscape:current-layer="Layer_1" /><style
     type="text/css"
     id="style3">
	.st0{fill:#FFB50A;}
</style><path
     style="fill:#000000;fill-opacity:1"
     inkscape:connector-curvature="0"
     id="path7"
     d="m -711.1,556.6 h -63.8 c -3.5,0 -6.3,2.9 -6.3,6.6 v 75.5 c 0,3.6 2.8,6.6 6.3,6.6 h 63.8 c 3.5,0 6.3,-2.9 6.3,-6.6 v -75.5 c 0,-3.6 -2.8,-6.6 -6.3,-6.6 z m 0.8,79 c 0,0 0.2,1.5 -0.5,2.3 -0.7,0.8 -2.1,0.7 -2.1,0.7 l -60.7,0 c 0,0 -0.9,0 -1.5,-0.8 -0.6,-0.6 -0.6,-2 -0.6,-2 l 0,-70.4 c 0,0 0,-1 0.6,-1.6 0.7,-0.6 1.6,-0.7 1.6,-0.7 h 60.7 c 0,0 1.2,0 1.7,0.5 0.7,0.7 0.7,1.5 0.7,1.5 l 0.1,70.5 0,0 z"
     class="st0" /><g
     id="g9"
     style="fill:#000000;fill-opacity:1"><path
       style="fill:#000000;fill-opacity:1"
       inkscape:connector-curvature="0"
       id="path11"
       d="m -737.3,547.8 c 0,1.4 -1.3,2.5 -2.8,2.5 h -5.6 c -1.5,0 -2.8,-1.1 -2.8,-2.5 l 0,0 c 0,-1.4 1.3,-2.5 2.8,-2.5 h 5.6 c 1.6,0 2.8,1.2 2.8,2.5 l 0,0 z"
       class="st0" /><path
       style="fill:#000000;fill-opacity:1"
       inkscape:connector-curvature="0"
       id="path13"
       d="m -730.9,553.3 c 0,-1.5 -0.1,-3.9 -1.3,-3.9 h -21.5 c -1.1,0 -1.4,2.4 -1.4,3.9 l 24.2,0 z"
       class="st0" /><path
       style="fill:#000000;fill-opacity:1"
       inkscape:connector-curvature="0"
       id="path15"
       d="m -725.7,558.3 c 0,-2.1 -0.2,-5.6 -1.9,-5.6 h -30.8 c -1.6,0 -2,3.5 -1.9,5.5 l 34.6,0.1 z"
       class="st0" /></g><g
     style="font-size:40.46239471px;font-style:normal;font-variant:normal;font-weight:normal;font-stretch:normal;line-height:125%;letter-spacing:0px;word-spacing:0px;fill:#000000;fill-opacity:1;stroke:none;font-family:Ubuntu Mono;-inkscape-font-specification:Ubuntu Mono"
     id="text3001"><path
       d="m -754.84402,612.26382 0,2.83237 -14.93063,0 0,-25.04622 3.31792,0 0,22.21385 11.61271,0"
       style=""
       id="path3006" /><path
       d="m -752.05212,602.55285 c 0,-2.23891 0.2158,-4.1811 0.6474,-5.82659 0.4316,-1.64545 1.03853,-2.99419 1.82081,-4.04624 0.78227,-1.07897 1.7129,-1.87473 2.7919,-2.38728 1.10597,-0.53947 2.33332,-0.80922 3.68208,-0.80924 1.32176,2e-5 2.53563,0.26977 3.64162,0.80924 1.10595,0.51255 2.05007,1.30831 2.83236,2.38728 0.78226,1.05205 1.38919,2.40079 1.82081,4.04624 0.45856,1.64549 0.68784,3.58768 0.68786,5.82659 -2e-5,2.23893 -0.2293,4.18112 -0.68786,5.82658 -0.43162,1.64548 -1.03855,3.00771 -1.82081,4.08671 -0.78229,1.07899 -1.72641,1.87475 -2.83236,2.38728 -1.10599,0.51252 -2.31986,0.76878 -3.64162,0.76878 -1.34876,0 -2.57611,-0.25626 -3.68208,-0.76878 -1.079,-0.51253 -2.00963,-1.30829 -2.7919,-2.38728 -0.78228,-1.079 -1.38921,-2.44123 -1.82081,-4.08671 -0.4316,-1.64546 -0.6474,-3.58765 -0.6474,-5.82658 m 3.39884,0 c 0,3.29095 0.44508,5.8131 1.33526,7.56647 0.89017,1.75337 2.26589,2.63005 4.12717,2.63005 1.88823,0 3.30441,-0.87668 4.24855,-2.63005 0.9441,-1.75337 1.41616,-4.27552 1.41618,-7.56647 -2e-5,-3.29093 -0.47208,-5.81308 -1.41618,-7.56647 -0.94414,-1.75335 -2.36032,-2.63003 -4.24855,-2.63005 -1.86128,2e-5 -3.237,0.8767 -4.12717,2.63005 -0.89018,1.75339 -1.33526,4.27554 -1.33526,7.56647"
       style=""
       id="path3008" /><path
       d="m -717.90186,602.75516 3.31792,0 0,11.7341 c -0.51254,0.18882 -1.33528,0.41811 -2.46821,0.68786 -1.13296,0.29672 -2.46822,0.44508 -4.00577,0.44508 -1.51061,0 -2.88633,-0.28323 -4.12717,-0.84971 -1.24085,-0.59345 -2.30636,-1.44315 -3.19653,-2.54913 -0.8632,-1.10597 -1.53757,-2.4682 -2.02312,-4.0867 -0.48555,-1.64546 -0.72832,-3.50673 -0.72832,-5.58381 0,-2.10403 0.26975,-3.9653 0.80925,-5.58381 0.53949,-1.61848 1.26781,-2.98071 2.18497,-4.0867 0.94411,-1.10595 2.0366,-1.94217 3.27745,-2.50867 1.24084,-0.59342 2.5761,-0.89015 4.00578,-0.89017 0.91713,2e-5 1.72638,0.0675 2.42774,0.20231 0.70133,0.1349 1.29478,0.29675 1.78035,0.48555 0.5125,0.18885 0.93061,0.39116 1.25433,0.60693 0.32368,0.18885 0.56646,0.33721 0.72832,0.44509 l -1.09248,2.7919 c -0.62044,-0.48552 -1.36225,-0.87666 -2.22543,-1.17341 -0.83624,-0.32367 -1.72641,-0.48552 -2.67052,-0.48554 -1.02506,2e-5 -1.98267,0.24279 -2.87283,0.72832 -0.86321,0.48557 -1.60502,1.17343 -2.22543,2.06358 -0.62043,0.89019 -1.10598,1.96919 -1.45665,3.23699 -0.35068,1.24086 -0.52602,2.63007 -0.52601,4.16763 -10e-6,1.51061 0.14836,2.88633 0.44509,4.12716 0.32369,1.24086 0.78226,2.30637 1.37572,3.19653 0.59344,0.89018 1.32176,1.59153 2.18497,2.10405 0.89016,0.48555 1.90172,0.72832 3.03468,0.72832 0.78226,0 1.38919,-0.0539 1.8208,-0.16185 0.43159,-0.1079 0.75529,-0.2158 0.9711,-0.3237 l 0,-9.4682"
       style=""
       id="path3010" /></g></svg>