<?xml version="1.0" encoding="UTF-8" standalone="no"?>
<!-- Created with Inkscape (http://www.inkscape.org/) -->
<svg xmlns:dc="http://purl.org/dc/elements/1.1/" xmlns:cc="http://creativecommons.org/ns#" xmlns:rdf="http://www.w3.org/1999/02/22-rdf-syntax-ns#" xmlns:svg="http://www.w3.org/2000/svg" xmlns="http://www.w3.org/2000/svg" xmlns:sodipodi="http://sodipodi.sourceforge.net/DTD/sodipodi-0.dtd" xmlns:inkscape="http://www.inkscape.org/namespaces/inkscape" id="svg3015" version="1.1" inkscape:version="0.91 r13725" width="300" height="300" sodipodi:docname="Logo_URJC.svg">
  <metadata id="metadata3021">
    <rdf:RDF>
      <cc:Work rdf:about="">
        <dc:format>image/svg+xml</dc:format>
        <dc:type rdf:resource="http://purl.org/dc/dcmitype/StillImage"/>
        <dc:title/>
      </cc:Work>
    </rdf:RDF>
  </metadata>
  <defs id="defs3019"/>
  <sodipodi:namedview pagecolor="#ffffff" bordercolor="#666666" borderopacity="1" objecttolerance="10" gridtolerance="10" guidetolerance="10" inkscape:pageopacity="0" inkscape:pageshadow="2" inkscape:window-width="1920" inkscape:window-height="1018" id="namedview3017" showgrid="false" inkscape:zoom="0.78666667" inkscape:cx="110.76905" inkscape:cy="77.015417" inkscape:window-x="-8" inkscape:window-y="-8" inkscape:window-maximized="1" inkscape:current-layer="svg3015"/>
  <g inkscape:groupmode="layer" id="layer1" inkscape:label="Vectores" style="display:inline">
    <ellipse style="fill:#e90129;fill-opacity:1;fill-rule:evenodd;stroke:none;stroke-width:1px;stroke-linecap:butt;stroke-linejoin:miter;stroke-opacity:1" id="path3334" cx="102.24584" cy="68.092941" rx="18.65144" ry="18.876156"/>
    <ellipse style="display:inline;fill:#e90129;fill-opacity:1;fill-rule:evenodd;stroke:none;stroke-width:1px;stroke-linecap:butt;stroke-linejoin:miter;stroke-opacity:1" id="path3334-5" cx="145.16663" cy="68.043846" rx="18.65144" ry="18.876156"/>
    <ellipse style="display:inline;fill:#e90129;fill-opacity:1;fill-rule:evenodd;stroke:none;stroke-width:1px;stroke-linecap:butt;stroke-linejoin:miter;stroke-opacity:1" id="path3334-5-8" cx="188.06044" cy="68.043846" rx="18.65144" ry="18.876156"/>
    <ellipse style="fill:#e90129;fill-opacity:1;fill-rule:evenodd;stroke:none;stroke-width:1px;stroke-linecap:butt;stroke-linejoin:miter;stroke-opacity:1" id="path4181" cx="144.94191" cy="32.138363" rx="12.134672" ry="11.909955"/>
    <rect style="fill:#e90129;fill-opacity:1;fill-rule:evenodd;stroke:none;stroke-width:1px;stroke-linecap:butt;stroke-linejoin:miter;stroke-opacity:1" id="rect4183" width="90.111168" height="20.898602" x="102.02113" y="91.912857"/>
    <g transform="matrix(7.7791879,0,0,6.8480823,-107.85803,-1058.4922)" style="font-style:normal;font-weight:normal;font-size:40px;line-height:125%;font-family:'BLACK OPS 2';-inkscape-font-specification:Sans;letter-spacing:0px;word-spacing:0px;fill:#000000;fill-opacity:1;stroke:none;stroke-width:1px;stroke-linecap:butt;stroke-linejoin:miter;stroke-opacity:1" id="flowRoot4193">
      <path d="m 36.372908,193.97985 0.0817,-3.2789 c -1.787905,2.11405 -2.547134,3.22029 -5.23391,3.51562 -1.218268,0.13391 -2.543112,0.061 -3.610821,-0.40779 -1.054687,-0.46875 -1.669127,-1.35002 -2.18996,-2.05314 -0.507813,-0.71615 -0.865886,-1.58854 -1.074219,-2.61719 -0.143229,-0.69011 -0.214844,-1.78386 -0.214844,-3.28125 l 0,-12.85156 5.027155,0 0.04085,11.68953 c 0.0064,1.83592 0.03282,3.05603 0.176045,3.69405 0.221354,0.92448 0.340807,1.02084 1.056953,1.55469 0.889467,0.4224 0.774006,0.36922 1.828694,0.36922 1.054687,0 1.17471,-0.12969 2.088977,-0.72155 0.852988,-0.57008 1.138112,-1.37901 1.434012,-2.33829 0.188417,-1.00313 0.211704,-1.40996 0.218268,-3.18078 l 0.04085,-11.02046 4.904598,-0.0464 0,20.97421 z" style="font-style:normal;font-variant:normal;font-weight:normal;font-stretch:normal;font-family:Arial;-inkscape-font-specification:Arial" id="path4206" inkscape:connector-curvature="0" sodipodi:nodetypes="ccscccsccsccsccscccc"/>
    </g>
  </g>
</svg>