<?xml version="1.0" encoding="UTF-8" standalone="no"?>
<!-- Created with Inkscape (http://www.inkscape.org/) -->

<svg
   xmlns:dc="http://purl.org/dc/elements/1.1/"
   xmlns:cc="http://creativecommons.org/ns#"
   xmlns:rdf="http://www.w3.org/1999/02/22-rdf-syntax-ns#"
   xmlns:svg="http://www.w3.org/2000/svg"
   xmlns="http://www.w3.org/2000/svg"
   xmlns:xlink="http://www.w3.org/1999/xlink"
   xmlns:sodipodi="http://sodipodi.sourceforge.net/DTD/sodipodi-0.dtd"
   xmlns:inkscape="http://www.inkscape.org/namespaces/inkscape"
   width="48"
   height="48"
   id="svg2"
   sodipodi:version="0.32"
   inkscape:version="0.91 r13725"
   version="1.0"
   sodipodi:docname="morphological_dilate.svg"
   inkscape:output_extension="org.inkscape.output.svg.inkscape">
  <defs
     id="defs4">
    <linearGradient
       id="linearGradient3367">
      <stop
         id="stop3369"
         offset="0"
         style="stop-color:#000000;stop-opacity:1" />
      <stop
         style="stop-color:#940000;stop-opacity:1;"
         offset="0.44431007"
         id="stop3371" />
      <stop
         style="stop-color:#dc0808;stop-opacity:1;"
         offset="1"
         id="stop3373" />
    </linearGradient>
    <linearGradient
       id="linearGradient3124">
      <stop
         style="stop-color:#4e1818;stop-opacity:1;"
         offset="0"
         id="stop3126" />
      <stop
         id="stop3128"
         offset="0.62318391"
         style="stop-color:#940000;stop-opacity:1;" />
      <stop
         id="stop3130"
         offset="1"
         style="stop-color:#dc0808;stop-opacity:1;" />
    </linearGradient>
    <linearGradient
       id="linearGradient3358">
      <stop
         style="stop-color:#000000;stop-opacity:1"
         offset="0"
         id="stop3360" />
      <stop
         id="stop3362"
         offset="0.11136102"
         style="stop-color:#940000;stop-opacity:1;" />
      <stop
         id="stop3364"
         offset="1"
         style="stop-color:#dc0808;stop-opacity:1;" />
    </linearGradient>
    <linearGradient
       id="linearGradient3336">
      <stop
         style="stop-color:#4e1818;stop-opacity:1;"
         offset="0"
         id="stop3338" />
      <stop
         id="stop3340"
         offset="0.4582659"
         style="stop-color:#940000;stop-opacity:1;" />
      <stop
         id="stop3342"
         offset="1"
         style="stop-color:#dc0808;stop-opacity:1;" />
    </linearGradient>
    <linearGradient
       id="linearGradient3300">
      <stop
         id="stop3308"
         offset="0"
         style="stop-color:#4e1818;stop-opacity:1;" />
      <stop
         style="stop-color:#940000;stop-opacity:1;"
         offset="0.23567311"
         id="stop3322" />
      <stop
         style="stop-color:#dc0808;stop-opacity:1;"
         offset="1"
         id="stop3304" />
    </linearGradient>
    <inkscape:perspective
       sodipodi:type="inkscape:persp3d"
       inkscape:vp_x="22.834507 : -67.351805 : 1"
       inkscape:vp_y="163.04886 : 71.233252 : 1"
       inkscape:vp_z="-116.10672 : 125.71655 : 1"
       inkscape:persp3d-origin="188.14303 : 248.03225 : 1"
       id="perspective10" />
    <linearGradient
       id="linearGradient3264">
      <stop
         id="stop3266"
         offset="0"
         style="stop-color:#c9c9c9;stop-opacity:1;" />
      <stop
         style="stop-color:#f8f8f8;stop-opacity:1;"
         offset="0.25"
         id="stop3276" />
      <stop
         style="stop-color:#e2e2e2;stop-opacity:1;"
         offset="0.5"
         id="stop3272" />
      <stop
         id="stop3274"
         offset="0.75"
         style="stop-color:#b0b0b0;stop-opacity:1;" />
      <stop
         id="stop3268"
         offset="1"
         style="stop-color:#c9c9c9;stop-opacity:1;" />
    </linearGradient>
    <inkscape:perspective
       id="perspective22"
       inkscape:persp3d-origin="24 : 16 : 1"
       inkscape:vp_z="48 : 24 : 1"
       inkscape:vp_y="0 : 1000 : 0"
       inkscape:vp_x="0 : 24 : 1"
       sodipodi:type="inkscape:persp3d" />
    <inkscape:perspective
       id="perspective2478"
       inkscape:persp3d-origin="372.04724 : 350.78739 : 1"
       inkscape:vp_z="744.09448 : 526.18109 : 1"
       inkscape:vp_y="6.1230318e-14 : 1000 : 0"
       inkscape:vp_x="0 : 526.18109 : 1"
       sodipodi:type="inkscape:persp3d" />
    <inkscape:path-effect
       teeth="10"
       id="path-effect3585"
       effect="gears" />
    <inkscape:path-effect
       teeth="10"
       id="path-effect3587"
       effect="gears" />
    <inkscape:path-effect
       prop_scale="1"
       id="path-effect3589"
       effect="skeletal" />
    <inkscape:path-effect
       prop_scale="1.04"
       id="path-effect3591"
       effect="bend_path" />
    <marker
       style="overflow:visible"
       id="Arrow2Sstart"
       refX="0"
       refY="0"
       orient="auto"
       inkscape:stockid="Arrow2Sstart">
      <path
         transform="matrix(0.3,0,0,0.3,-0.69,0)"
         d="M 8.7185878,4.0337352 L -2.2072895,0.016013256 L 8.7185884,-4.0017078 C 6.97309,-1.6296469 6.9831476,1.6157441 8.7185878,4.0337352 z"
         style="font-size:12px;fill-rule:evenodd;stroke-width:0.625;stroke-linejoin:round"
         id="path3703" />
    </marker>
    <marker
       orient="auto"
       refY="0"
       refX="0"
       id="RazorWire"
       inkscape:stockid="RazorWire">
       style=&quot;overflow:visible&quot;&gt;
      <path
   d="M 0.022727273,-0.74009011 L 0.022727273,0.69740989 L -7.7585227,3.0099099 L 10.678977,3.0099099 L 3.4914773,0.69740989 L 3.4914773,-0.74009011 L 10.741477,-2.8963401 L -7.7272727,-2.8963401 L 0.022727273,-0.74009011 z"
   style="fill:#808080;fill-opacity:1;fill-rule:evenodd;stroke:#000000;stroke-width:0.1pt"
   transform="scale(0.8,0.8)"
   id="path3906" />
</marker>
    <marker
       style="overflow:visible"
       id="Arrow1Send"
       refX="0"
       refY="0"
       orient="auto"
       inkscape:stockid="Arrow1Send">
      <path
         transform="matrix(-0.2,0,0,-0.2,-1.2,0)"
         style="fill-rule:evenodd;stroke:#000000;stroke-width:1pt;marker-start:none"
         d="M 0,0 L 5,-5 L -12.5,0 L 5,5 L 0,0 z"
         id="path3688" />
    </marker>
    <linearGradient
       id="linearGradient3199">
      <stop
         id="stop3201"
         offset="0"
         style="stop-color:#868686;stop-opacity:1;" />
      <stop
         id="stop3203"
         offset="1"
         style="stop-color:#ffffff;stop-opacity:1;" />
    </linearGradient>
    <inkscape:perspective
       id="perspective2712"
       inkscape:persp3d-origin="372.04724 : 350.78739 : 1"
       inkscape:vp_z="744.09448 : 526.18109 : 1"
       inkscape:vp_y="6.1230318e-14 : 1000 : 0"
       inkscape:vp_x="0 : 526.18109 : 1"
       sodipodi:type="inkscape:persp3d" />
    <inkscape:path-effect
       teeth="10"
       id="path-effect2710"
       effect="gears" />
    <inkscape:path-effect
       teeth="10"
       id="path-effect2708"
       effect="gears" />
    <inkscape:path-effect
       prop_scale="1"
       id="path-effect2706"
       effect="skeletal" />
    <inkscape:path-effect
       prop_scale="1.04"
       id="path-effect2704"
       effect="bend_path" />
    <marker
       style="overflow:visible"
       id="marker2700"
       refX="0"
       refY="0"
       orient="auto"
       inkscape:stockid="Arrow2Sstart">
      <path
         transform="matrix(0.3,0,0,0.3,-0.69,0)"
         d="M 8.7185878,4.0337352 L -2.2072895,0.016013256 L 8.7185884,-4.0017078 C 6.97309,-1.6296469 6.9831476,1.6157441 8.7185878,4.0337352 z"
         style="font-size:12px;fill-rule:evenodd;stroke-width:0.625;stroke-linejoin:round"
         id="path2702" />
    </marker>
    <marker
       orient="auto"
       refY="0"
       refX="0"
       id="marker2696"
       inkscape:stockid="RazorWire">
       style=&quot;overflow:visible&quot;&gt;
      <path
   d="M 0.022727273,-0.74009011 L 0.022727273,0.69740989 L -7.7585227,3.0099099 L 10.678977,3.0099099 L 3.4914773,0.69740989 L 3.4914773,-0.74009011 L 10.741477,-2.8963401 L -7.7272727,-2.8963401 L 0.022727273,-0.74009011 z"
   style="fill:#808080;fill-opacity:1;fill-rule:evenodd;stroke:#000000;stroke-width:0.1pt"
   transform="scale(0.8,0.8)"
   id="path2698" />
</marker>
    <marker
       style="overflow:visible"
       id="marker2692"
       refX="0"
       refY="0"
       orient="auto"
       inkscape:stockid="Arrow1Send">
      <path
         transform="matrix(-0.2,0,0,-0.2,-1.2,0)"
         style="fill-rule:evenodd;stroke:#000000;stroke-width:1pt;marker-start:none"
         d="M 0,0 L 5,-5 L -12.5,0 L 5,5 L 0,0 z"
         id="path2694" />
    </marker>
    <linearGradient
       id="linearGradient3198">
      <stop
         id="stop3200"
         offset="0"
         style="stop-color:#868686;stop-opacity:1;" />
      <stop
         id="stop3202"
         offset="1"
         style="stop-color:#ffffff;stop-opacity:1;" />
    </linearGradient>
    <inkscape:perspective
       id="perspective2672"
       inkscape:persp3d-origin="372.04724 : 350.78739 : 1"
       inkscape:vp_z="744.09448 : 526.18109 : 1"
       inkscape:vp_y="6.1230318e-14 : 1000 : 0"
       inkscape:vp_x="0 : 526.18109 : 1"
       sodipodi:type="inkscape:persp3d" />
    <inkscape:path-effect
       teeth="10"
       id="path-effect2670"
       effect="gears" />
    <inkscape:path-effect
       teeth="10"
       id="path-effect2668"
       effect="gears" />
    <inkscape:path-effect
       prop_scale="1"
       id="path-effect2666"
       effect="skeletal" />
    <inkscape:path-effect
       prop_scale="1.04"
       id="path-effect2664"
       effect="bend_path" />
    <marker
       style="overflow:visible"
       id="marker2660"
       refX="0"
       refY="0"
       orient="auto"
       inkscape:stockid="Arrow2Sstart">
      <path
         transform="matrix(0.3,0,0,0.3,-0.69,0)"
         d="M 8.7185878,4.0337352 L -2.2072895,0.016013256 L 8.7185884,-4.0017078 C 6.97309,-1.6296469 6.9831476,1.6157441 8.7185878,4.0337352 z"
         style="font-size:12px;fill-rule:evenodd;stroke-width:0.625;stroke-linejoin:round"
         id="path2662" />
    </marker>
    <marker
       orient="auto"
       refY="0"
       refX="0"
       id="marker2656"
       inkscape:stockid="RazorWire">
       style=&quot;overflow:visible&quot;&gt;
      <path
   d="M 0.022727273,-0.74009011 L 0.022727273,0.69740989 L -7.7585227,3.0099099 L 10.678977,3.0099099 L 3.4914773,0.69740989 L 3.4914773,-0.74009011 L 10.741477,-2.8963401 L -7.7272727,-2.8963401 L 0.022727273,-0.74009011 z"
   style="fill:#808080;fill-opacity:1;fill-rule:evenodd;stroke:#000000;stroke-width:0.1pt"
   transform="scale(0.8,0.8)"
   id="path2658" />
</marker>
    <marker
       style="overflow:visible"
       id="marker2652"
       refX="0"
       refY="0"
       orient="auto"
       inkscape:stockid="Arrow1Send">
      <path
         transform="matrix(-0.2,0,0,-0.2,-1.2,0)"
         style="fill-rule:evenodd;stroke:#000000;stroke-width:1pt;marker-start:none"
         d="M 0,0 L 5,-5 L -12.5,0 L 5,5 L 0,0 z"
         id="path2654" />
    </marker>
    <linearGradient
       id="linearGradient2646">
      <stop
         id="stop2648"
         offset="0"
         style="stop-color:#868686;stop-opacity:1;" />
      <stop
         id="stop2650"
         offset="1"
         style="stop-color:#ffffff;stop-opacity:1;" />
    </linearGradient>
    <linearGradient
       inkscape:collect="always"
       xlink:href="#linearGradient3199"
       id="linearGradient2707"
       gradientUnits="userSpaceOnUse"
       x1="-482.45612"
       y1="473.16379"
       x2="-361.58667"
       y2="473.16379" />
    <linearGradient
       inkscape:collect="always"
       xlink:href="#linearGradient3199"
       id="linearGradient2709"
       gradientUnits="userSpaceOnUse"
       x1="313.02472"
       y1="84.767693"
       x2="446.75058"
       y2="84.767693" />
    <linearGradient
       inkscape:collect="always"
       xlink:href="#linearGradient3199"
       id="linearGradient2711"
       gradientUnits="userSpaceOnUse"
       x1="-364.76328"
       y1="471.94717"
       x2="-243.89383"
       y2="471.94717" />
    <linearGradient
       inkscape:collect="always"
       xlink:href="#linearGradient3199"
       id="linearGradient2713"
       gradientUnits="userSpaceOnUse"
       x1="-196.22874"
       y1="441.06339"
       x2="46.90115"
       y2="441.06339" />
    <linearGradient
       inkscape:collect="always"
       xlink:href="#linearGradient3199"
       id="linearGradient2715"
       gradientUnits="userSpaceOnUse"
       x1="-482.46341"
       y1="403.97192"
       x2="-361.59396"
       y2="403.97192" />
    <linearGradient
       inkscape:collect="always"
       xlink:href="#linearGradient3199"
       id="linearGradient2717"
       gradientUnits="userSpaceOnUse"
       x1="312.86624"
       y1="11.616987"
       x2="446.5921"
       y2="11.616987" />
    <linearGradient
       inkscape:collect="always"
       xlink:href="#linearGradient3199"
       id="linearGradient2719"
       gradientUnits="userSpaceOnUse"
       x1="-367.11237"
       y1="404.1579"
       x2="-246.24292"
       y2="404.1579" />
    <filter
       inkscape:collect="always"
       style="color-interpolation-filters:sRGB"
       id="filter4669"
       x="-0.098395785"
       width="1.1967916"
       y="-0.098404215"
       height="1.1968084">
      <feGaussianBlur
         inkscape:collect="always"
         stdDeviation="1.8157323"
         id="feGaussianBlur4671" />
    </filter>
  </defs>
  <sodipodi:namedview
     id="base"
     pagecolor="#ffffff"
     bordercolor="#666666"
     borderopacity="1.0"
     inkscape:pageopacity="0.0"
     inkscape:pageshadow="2"
     inkscape:zoom="10.302388"
     inkscape:cx="23.626523"
     inkscape:cy="25.556042"
     inkscape:document-units="px"
     inkscape:current-layer="layer2"
     showgrid="false"
     inkscape:window-width="1920"
     inkscape:window-height="1145"
     inkscape:window-x="1918"
     inkscape:window-y="32"
     inkscape:window-maximized="1">
    <inkscape:grid
       type="xygrid"
       id="grid4508" />
  </sodipodi:namedview>
  <metadata
     id="metadata7">
    <rdf:RDF>
      <cc:Work
         rdf:about="">
        <dc:format>image/svg+xml</dc:format>
        <dc:type
           rdf:resource="http://purl.org/dc/dcmitype/StillImage" />
        <dc:title />
      </cc:Work>
    </rdf:RDF>
  </metadata>
  <g
     inkscape:groupmode="layer"
     id="layer2"
     inkscape:label="icono"
     style="display:inline">
    <g
       id="g4589"
       style="stroke:#000000;fill:#000000;filter:url(#filter4669)">
      <path
         sodipodi:nodetypes="cccccccccc"
         inkscape:connector-curvature="0"
         id="path4591"
         d="m 17.25758,14.963927 c -0.942948,1.34092 1.578263,5.629225 -2.355161,8.05982 -2.078366,2.34729 2.483964,2.689504 2.497779,5.089615 -1.035594,1.937543 -0.646744,5.202263 2.287046,4.624323 5.209336,-2.275628 5.507327,-3.547697 11.627715,-2.171531 2.639155,0.112927 2.800604,-3.13437 1.300413,-4.610756 -2.166835,-2.11679 -1.030089,-5.050148 0.221421,-7.297996 1.488201,-1.895131 -0.151267,-4.791913 -2.393998,-2.976204 -1.151933,1.448636 -2.870828,2.846792 -5.315691,2.729702 -2.335412,0.196347 -5.326192,-5.214182 -7.869524,-3.446973 z"
         style="opacity:1;fill:#000000;fill-opacity:1;fill-rule:evenodd;stroke:#000000;stroke-width:0.44995108;stroke-linecap:butt;stroke-linejoin:miter;stroke-miterlimit:4;stroke-dasharray:none;stroke-opacity:1" />
      <g
         transform="matrix(1,0,0,-1,-13.07118,29.041903)"
         id="g4593"
         style="stroke:#000000;stroke-width:0.80000001;stroke-miterlimit:4;stroke-dasharray:none;fill:#000000">
        <path
           style="opacity:1;fill:#000000;fill-opacity:1;stroke:#000000;stroke-width:0.80000001;stroke-linecap:round;stroke-miterlimit:4;stroke-dasharray:none;stroke-dashoffset:3.29370975;stroke-opacity:1"
           d="m 23.901211,-4.7745789 c -0.19931,-0.023921 -0.251584,-0.048801 -0.378828,-0.180306 -0.08119,-0.083907 -0.993763,-1.070564 -2.027947,-2.192572 -1.034183,-1.1220085 -1.89437,-2.0400154 -1.911527,-2.0400154 -0.01716,0 -1.426967,1.6657997 -2.042706,2.5434336 l -1.119525,1.595699 -0.601164,8.35e-4 -0.601164,8.35e-4 0,-6.0753103 0,-6.07531 6.001784,0.0284 c 3.300982,0.01562 6.013905,0.03984 6.028719,0.05382 0.01481,0.01398 0.01481,0.290833 0,0.61523 l -0.02693,0.589812 -1.576823,1.095956 c -0.867254,0.602776 -2.583213,2.279751 -2.586762,2.295716 -0.0035,0.01597 0.976555,0.942599 2.178011,2.059187 1.790382,1.6639138 2.187645,2.0514951 2.202093,2.1484221 0.0097,0.065044 0.027,0.1896922 0.03845,0.2769962 l 0.02083,0.1587345 -1.626899,1.4525995 -1.738397,1.6755958 z"
           id="path4595"
           inkscape:connector-curvature="0"
           sodipodi:nodetypes="csssscccccscscscscccccc" />
      </g>
      <g
         style="stroke:#000000;stroke-width:0.80000001;stroke-miterlimit:4;stroke-dasharray:none;fill:#000000"
         id="g4597"
         transform="matrix(-1,0,0,1,61.65357,19.152227)">
        <path
           sodipodi:nodetypes="csssscccccscscscscccccc"
           inkscape:connector-curvature="0"
           id="path4599"
           d="m 23.901211,-4.7745789 c -0.19931,-0.023921 -0.251584,-0.048801 -0.378828,-0.180306 -0.08119,-0.083907 -0.993763,-1.070564 -2.027947,-2.192572 -1.034183,-1.1220085 -1.89437,-2.0400154 -1.911527,-2.0400154 -0.01716,0 -1.426967,1.6657997 -2.042706,2.5434336 l -1.119525,1.595699 -0.601164,8.35e-4 -0.601164,8.35e-4 0,-6.0753103 0,-6.07531 6.001784,0.0284 c 3.300982,0.01562 6.013905,0.03984 6.028719,0.05382 0.01481,0.01398 0.01481,0.290833 0,0.61523 l -0.02693,0.589812 -1.576823,1.095956 c -0.867254,0.602776 -2.583213,2.279751 -2.586762,2.295716 -0.0035,0.01597 0.976555,0.942599 2.178011,2.059187 1.790382,1.6639138 2.187645,2.0514951 2.202093,2.1484221 0.0097,0.065044 0.027,0.1896922 0.03845,0.2769962 l 0.02083,0.1587345 -1.626899,1.4525995 -1.738397,1.6755958 z"
           style="opacity:1;fill:#000000;fill-opacity:1;stroke:#000000;stroke-width:0.80000001;stroke-linecap:round;stroke-miterlimit:4;stroke-dasharray:none;stroke-dashoffset:3.29370975;stroke-opacity:1" />
      </g>
      <g
         transform="translate(-13.07118,19.152227)"
         id="g4601"
         style="stroke:#000000;stroke-width:0.80000001;stroke-miterlimit:4;stroke-dasharray:none;fill:#000000">
        <path
           style="opacity:1;fill:#000000;fill-opacity:1;stroke:#000000;stroke-width:0.80000001;stroke-linecap:round;stroke-miterlimit:4;stroke-dasharray:none;stroke-dashoffset:3.29370975;stroke-opacity:1"
           d="m 23.901211,-4.7745789 c -0.19931,-0.023921 -0.251584,-0.048801 -0.378828,-0.180306 -0.08119,-0.083907 -0.993763,-1.070564 -2.027947,-2.192572 -1.034183,-1.1220085 -1.89437,-2.0400154 -1.911527,-2.0400154 -0.01716,0 -1.426967,1.6657997 -2.042706,2.5434336 l -1.119525,1.595699 -0.601164,8.35e-4 -0.601164,8.35e-4 0,-6.0753103 0,-6.07531 6.001784,0.0284 c 3.300982,0.01562 6.013905,0.03984 6.028719,0.05382 0.01481,0.01398 0.01481,0.290833 0,0.61523 l -0.02693,0.589812 -1.576823,1.095956 c -0.867254,0.602776 -2.583213,2.279751 -2.586762,2.295716 -0.0035,0.01597 0.976555,0.942599 2.178011,2.059187 1.790382,1.6639138 2.187645,2.0514951 2.202093,2.1484221 0.0097,0.065044 0.027,0.1896922 0.03845,0.2769962 l 0.02083,0.1587345 -1.626899,1.4525995 -1.738397,1.6755958 z"
           id="path4603"
           inkscape:connector-curvature="0"
           sodipodi:nodetypes="csssscccccscscscscccccc" />
      </g>
      <g
         style="stroke:#000000;stroke-width:0.80000001;stroke-miterlimit:4;stroke-dasharray:none;fill:#000000"
         id="g4605"
         transform="matrix(-1,0,0,-1,61.65357,29.041903)">
        <path
           sodipodi:nodetypes="csssscccccscscscscccccc"
           inkscape:connector-curvature="0"
           id="path4607"
           d="m 23.901211,-4.7745789 c -0.19931,-0.023921 -0.251584,-0.048801 -0.378828,-0.180306 -0.08119,-0.083907 -0.993763,-1.070564 -2.027947,-2.192572 -1.034183,-1.1220085 -1.89437,-2.0400154 -1.911527,-2.0400154 -0.01716,0 -1.426967,1.6657997 -2.042706,2.5434336 l -1.119525,1.595699 -0.601164,8.35e-4 -0.601164,8.35e-4 0,-6.0753103 0,-6.07531 6.001784,0.0284 c 3.300982,0.01562 6.013905,0.03984 6.028719,0.05382 0.01481,0.01398 0.01481,0.290833 0,0.61523 l -0.02693,0.589812 -1.576823,1.095956 c -0.867254,0.602776 -2.583213,2.279751 -2.586762,2.295716 -0.0035,0.01597 0.976555,0.942599 2.178011,2.059187 1.790382,1.6639138 2.187645,2.0514951 2.202093,2.1484221 0.0097,0.065044 0.027,0.1896922 0.03845,0.2769962 l 0.02083,0.1587345 -1.626899,1.4525995 -1.738397,1.6755958 z"
           style="opacity:1;fill:#000000;fill-opacity:1;stroke:#000000;stroke-width:0.80000001;stroke-linecap:round;stroke-miterlimit:4;stroke-dasharray:none;stroke-dashoffset:3.29370975;stroke-opacity:1" />
      </g>
    </g>
    <g
       id="g4578">
      <path
         style="opacity:1;fill:#729fcf;fill-opacity:1;fill-rule:evenodd;stroke:#3465a4;stroke-width:0.44995108;stroke-linecap:butt;stroke-linejoin:miter;stroke-miterlimit:4;stroke-dasharray:none;stroke-opacity:1"
         d="m 17.25758,14.963927 c -0.942948,1.34092 1.578263,5.629225 -2.355161,8.05982 -2.078366,2.34729 2.483964,2.689504 2.497779,5.089615 -1.035594,1.937543 -0.646744,5.202263 2.287046,4.624323 5.209336,-2.275628 5.507327,-3.547697 11.627715,-2.171531 2.639155,0.112927 2.800604,-3.13437 1.300413,-4.610756 -2.166835,-2.11679 -1.030089,-5.050148 0.221421,-7.297996 1.488201,-1.895131 -0.151267,-4.791913 -2.393998,-2.976204 -1.151933,1.448636 -2.870828,2.846792 -5.315691,2.729702 -2.335412,0.196347 -5.326192,-5.214182 -7.869524,-3.446973 z"
         id="path4271"
         inkscape:connector-curvature="0"
         sodipodi:nodetypes="cccccccccc" />
      <g
         style="stroke:#000000;stroke-width:0.80000001;stroke-miterlimit:4;stroke-dasharray:none"
         id="g4421"
         transform="matrix(1,0,0,-1,-13.07118,29.041903)">
        <path
           sodipodi:nodetypes="csssscccccscscscscccccc"
           inkscape:connector-curvature="0"
           id="path4425"
           d="m 23.901211,-4.7745789 c -0.19931,-0.023921 -0.251584,-0.048801 -0.378828,-0.180306 -0.08119,-0.083907 -0.993763,-1.070564 -2.027947,-2.192572 -1.034183,-1.1220085 -1.89437,-2.0400154 -1.911527,-2.0400154 -0.01716,0 -1.426967,1.6657997 -2.042706,2.5434336 l -1.119525,1.595699 -0.601164,8.35e-4 -0.601164,8.35e-4 0,-6.0753103 0,-6.07531 6.001784,0.0284 c 3.300982,0.01562 6.013905,0.03984 6.028719,0.05382 0.01481,0.01398 0.01481,0.290833 0,0.61523 l -0.02693,0.589812 -1.576823,1.095956 c -0.867254,0.602776 -2.583213,2.279751 -2.586762,2.295716 -0.0035,0.01597 0.976555,0.942599 2.178011,2.059187 1.790382,1.6639138 2.187645,2.0514951 2.202093,2.1484221 0.0097,0.065044 0.027,0.1896922 0.03845,0.2769962 l 0.02083,0.1587345 -1.626899,1.4525995 -1.738397,1.6755958 z"
           style="opacity:1;fill:#8ae234;fill-opacity:1;stroke:#000000;stroke-width:0.80000001;stroke-linecap:round;stroke-miterlimit:4;stroke-dasharray:none;stroke-dashoffset:3.29370975;stroke-opacity:1" />
      </g>
      <g
         transform="matrix(-1,0,0,1,61.65357,19.152227)"
         id="g4364"
         style="stroke:#000000;stroke-width:0.80000001;stroke-miterlimit:4;stroke-dasharray:none">
        <path
           style="opacity:1;fill:#8ae234;fill-opacity:1;stroke:#000000;stroke-width:0.80000001;stroke-linecap:round;stroke-miterlimit:4;stroke-dasharray:none;stroke-dashoffset:3.29370975;stroke-opacity:1"
           d="m 23.901211,-4.7745789 c -0.19931,-0.023921 -0.251584,-0.048801 -0.378828,-0.180306 -0.08119,-0.083907 -0.993763,-1.070564 -2.027947,-2.192572 -1.034183,-1.1220085 -1.89437,-2.0400154 -1.911527,-2.0400154 -0.01716,0 -1.426967,1.6657997 -2.042706,2.5434336 l -1.119525,1.595699 -0.601164,8.35e-4 -0.601164,8.35e-4 0,-6.0753103 0,-6.07531 6.001784,0.0284 c 3.300982,0.01562 6.013905,0.03984 6.028719,0.05382 0.01481,0.01398 0.01481,0.290833 0,0.61523 l -0.02693,0.589812 -1.576823,1.095956 c -0.867254,0.602776 -2.583213,2.279751 -2.586762,2.295716 -0.0035,0.01597 0.976555,0.942599 2.178011,2.059187 1.790382,1.6639138 2.187645,2.0514951 2.202093,2.1484221 0.0097,0.065044 0.027,0.1896922 0.03845,0.2769962 l 0.02083,0.1587345 -1.626899,1.4525995 -1.738397,1.6755958 z"
           id="path4366"
           inkscape:connector-curvature="0"
           sodipodi:nodetypes="csssscccccscscscscccccc" />
      </g>
      <g
         style="stroke:#000000;stroke-width:0.80000001;stroke-miterlimit:4;stroke-dasharray:none"
         id="g4368"
         transform="translate(-13.07118,19.152227)">
        <path
           sodipodi:nodetypes="csssscccccscscscscccccc"
           inkscape:connector-curvature="0"
           id="path4370"
           d="m 23.901211,-4.7745789 c -0.19931,-0.023921 -0.251584,-0.048801 -0.378828,-0.180306 -0.08119,-0.083907 -0.993763,-1.070564 -2.027947,-2.192572 -1.034183,-1.1220085 -1.89437,-2.0400154 -1.911527,-2.0400154 -0.01716,0 -1.426967,1.6657997 -2.042706,2.5434336 l -1.119525,1.595699 -0.601164,8.35e-4 -0.601164,8.35e-4 0,-6.0753103 0,-6.07531 6.001784,0.0284 c 3.300982,0.01562 6.013905,0.03984 6.028719,0.05382 0.01481,0.01398 0.01481,0.290833 0,0.61523 l -0.02693,0.589812 -1.576823,1.095956 c -0.867254,0.602776 -2.583213,2.279751 -2.586762,2.295716 -0.0035,0.01597 0.976555,0.942599 2.178011,2.059187 1.790382,1.6639138 2.187645,2.0514951 2.202093,2.1484221 0.0097,0.065044 0.027,0.1896922 0.03845,0.2769962 l 0.02083,0.1587345 -1.626899,1.4525995 -1.738397,1.6755958 z"
           style="opacity:1;fill:#8ae234;fill-opacity:1;stroke:#000000;stroke-width:0.80000001;stroke-linecap:round;stroke-miterlimit:4;stroke-dasharray:none;stroke-dashoffset:3.29370975;stroke-opacity:1" />
      </g>
      <g
         transform="matrix(-1,0,0,-1,61.65357,29.041903)"
         id="g4372"
         style="stroke:#000000;stroke-width:0.80000001;stroke-miterlimit:4;stroke-dasharray:none">
        <path
           style="opacity:1;fill:#8ae234;fill-opacity:1;stroke:#000000;stroke-width:0.80000001;stroke-linecap:round;stroke-miterlimit:4;stroke-dasharray:none;stroke-dashoffset:3.29370975;stroke-opacity:1"
           d="m 23.901211,-4.7745789 c -0.19931,-0.023921 -0.251584,-0.048801 -0.378828,-0.180306 -0.08119,-0.083907 -0.993763,-1.070564 -2.027947,-2.192572 -1.034183,-1.1220085 -1.89437,-2.0400154 -1.911527,-2.0400154 -0.01716,0 -1.426967,1.6657997 -2.042706,2.5434336 l -1.119525,1.595699 -0.601164,8.35e-4 -0.601164,8.35e-4 0,-6.0753103 0,-6.07531 6.001784,0.0284 c 3.300982,0.01562 6.013905,0.03984 6.028719,0.05382 0.01481,0.01398 0.01481,0.290833 0,0.61523 l -0.02693,0.589812 -1.576823,1.095956 c -0.867254,0.602776 -2.583213,2.279751 -2.586762,2.295716 -0.0035,0.01597 0.976555,0.942599 2.178011,2.059187 1.790382,1.6639138 2.187645,2.0514951 2.202093,2.1484221 0.0097,0.065044 0.027,0.1896922 0.03845,0.2769962 l 0.02083,0.1587345 -1.626899,1.4525995 -1.738397,1.6755958 z"
           id="path4374"
           inkscape:connector-curvature="0"
           sodipodi:nodetypes="csssscccccscscscscccccc" />
      </g>
    </g>
  </g>
  <g
     inkscape:label="rueda"
     inkscape:groupmode="layer"
     id="layer1"
     style="display:inline" />
</svg>
