<?xml version="1.0" encoding="UTF-8" standalone="no"?>
<!-- Created with Inkscape (http://www.inkscape.org/) -->

<svg
   xmlns:dc="http://purl.org/dc/elements/1.1/"
   xmlns:cc="http://creativecommons.org/ns#"
   xmlns:rdf="http://www.w3.org/1999/02/22-rdf-syntax-ns#"
   xmlns:svg="http://www.w3.org/2000/svg"
   xmlns="http://www.w3.org/2000/svg"
   xmlns:xlink="http://www.w3.org/1999/xlink"
   xmlns:sodipodi="http://sodipodi.sourceforge.net/DTD/sodipodi-0.dtd"
   xmlns:inkscape="http://www.inkscape.org/namespaces/inkscape"
   width="48"
   height="48"
   id="svg2"
   sodipodi:version="0.32"
   inkscape:version="0.91 r13725"
   version="1.0"
   sodipodi:docname="toolgroup_analyze.svg"
   inkscape:output_extension="org.inkscape.output.svg.inkscape">
  <defs
     id="defs4">
    <linearGradient
       id="linearGradient3513">
      <stop
         style="stop-color:#2a5d90;stop-opacity:1;"
         offset="0"
         id="stop3515" />
      <stop
         style="stop-color:#4997ca;stop-opacity:1;"
         offset="1"
         id="stop3517" />
    </linearGradient>
    <inkscape:perspective
       sodipodi:type="inkscape:persp3d"
       inkscape:vp_x="0 : 526.18109 : 1"
       inkscape:vp_y="0 : 1000 : 0"
       inkscape:vp_z="744.09448 : 526.18109 : 1"
       inkscape:persp3d-origin="372.04724 : 350.78739 : 1"
       id="perspective10" />
    <inkscape:perspective
       id="perspective2442"
       inkscape:persp3d-origin="372.04724 : 350.78739 : 1"
       inkscape:vp_z="744.09448 : 526.18109 : 1"
       inkscape:vp_y="6.1230318e-14 : 1000 : 0"
       inkscape:vp_x="0 : 526.18109 : 1"
       sodipodi:type="inkscape:persp3d" />
    <inkscape:path-effect
       teeth="10"
       id="path-effect3585"
       effect="gears" />
    <inkscape:path-effect
       teeth="10"
       id="path-effect3587"
       effect="gears" />
    <inkscape:path-effect
       prop_scale="1"
       id="path-effect3589"
       effect="skeletal" />
    <inkscape:path-effect
       prop_scale="1.04"
       id="path-effect3591"
       effect="bend_path" />
    <marker
       style="overflow:visible"
       id="Arrow2Sstart"
       refX="0"
       refY="0"
       orient="auto"
       inkscape:stockid="Arrow2Sstart">
      <path
         transform="matrix(0.3,0,0,0.3,-0.69,0)"
         d="M 8.7185878,4.0337352 L -2.2072895,0.016013256 L 8.7185884,-4.0017078 C 6.97309,-1.6296469 6.9831476,1.6157441 8.7185878,4.0337352 z"
         style="font-size:12px;fill-rule:evenodd;stroke-width:0.625;stroke-linejoin:round"
         id="path3703" />
    </marker>
    <marker
       orient="auto"
       refY="0"
       refX="0"
       id="RazorWire"
       inkscape:stockid="RazorWire">
       style=&quot;overflow:visible&quot;&gt;
      <path
   d="M 0.022727273,-0.74009011 L 0.022727273,0.69740989 L -7.7585227,3.0099099 L 10.678977,3.0099099 L 3.4914773,0.69740989 L 3.4914773,-0.74009011 L 10.741477,-2.8963401 L -7.7272727,-2.8963401 L 0.022727273,-0.74009011 z"
   style="fill:#808080;fill-opacity:1;fill-rule:evenodd;stroke:#000000;stroke-width:0.1pt"
   transform="scale(0.8,0.8)"
   id="path3906" />
</marker>
    <marker
       style="overflow:visible"
       id="Arrow1Send"
       refX="0"
       refY="0"
       orient="auto"
       inkscape:stockid="Arrow1Send">
      <path
         transform="matrix(-0.2,0,0,-0.2,-1.2,0)"
         style="fill-rule:evenodd;stroke:#000000;stroke-width:1pt;marker-start:none"
         d="M 0,0 L 5,-5 L -12.5,0 L 5,5 L 0,0 z"
         id="path3688" />
    </marker>
    <linearGradient
       id="linearGradient3198">
      <stop
         id="stop3200"
         offset="0"
         style="stop-color:#868686;stop-opacity:1;" />
      <stop
         id="stop3202"
         offset="1"
         style="stop-color:#ffffff;stop-opacity:0;" />
    </linearGradient>
    <inkscape:perspective
       id="perspective2545"
       inkscape:persp3d-origin="372.04724 : 350.78739 : 1"
       inkscape:vp_z="744.09448 : 526.18109 : 1"
       inkscape:vp_y="6.1230318e-14 : 1000 : 0"
       inkscape:vp_x="0 : 526.18109 : 1"
       sodipodi:type="inkscape:persp3d" />
    <inkscape:path-effect
       teeth="10"
       id="path-effect2543"
       effect="gears" />
    <inkscape:path-effect
       teeth="10"
       id="path-effect2541"
       effect="gears" />
    <inkscape:path-effect
       prop_scale="1"
       id="path-effect2539"
       effect="skeletal" />
    <inkscape:path-effect
       prop_scale="1.04"
       id="path-effect2537"
       effect="bend_path" />
    <marker
       style="overflow:visible"
       id="marker2533"
       refX="0"
       refY="0"
       orient="auto"
       inkscape:stockid="Arrow2Sstart">
      <path
         transform="matrix(0.3,0,0,0.3,-0.69,0)"
         d="M 8.7185878,4.0337352 L -2.2072895,0.016013256 L 8.7185884,-4.0017078 C 6.97309,-1.6296469 6.9831476,1.6157441 8.7185878,4.0337352 z"
         style="font-size:12px;fill-rule:evenodd;stroke-width:0.625;stroke-linejoin:round"
         id="path2535" />
    </marker>
    <marker
       orient="auto"
       refY="0"
       refX="0"
       id="marker2529"
       inkscape:stockid="RazorWire">
       style=&quot;overflow:visible&quot;&gt;
      <path
   d="M 0.022727273,-0.74009011 L 0.022727273,0.69740989 L -7.7585227,3.0099099 L 10.678977,3.0099099 L 3.4914773,0.69740989 L 3.4914773,-0.74009011 L 10.741477,-2.8963401 L -7.7272727,-2.8963401 L 0.022727273,-0.74009011 z"
   style="fill:#808080;fill-opacity:1;fill-rule:evenodd;stroke:#000000;stroke-width:0.1pt"
   transform="scale(0.8,0.8)"
   id="path2531" />
</marker>
    <marker
       style="overflow:visible"
       id="marker2525"
       refX="0"
       refY="0"
       orient="auto"
       inkscape:stockid="Arrow1Send">
      <path
         transform="matrix(-0.2,0,0,-0.2,-1.2,0)"
         style="fill-rule:evenodd;stroke:#000000;stroke-width:1pt;marker-start:none"
         d="M 0,0 L 5,-5 L -12.5,0 L 5,5 L 0,0 z"
         id="path2527" />
    </marker>
    <linearGradient
       id="linearGradient3199">
      <stop
         id="stop3201"
         offset="0"
         style="stop-color:#868686;stop-opacity:1;" />
      <stop
         id="stop3203"
         offset="1"
         style="stop-color:#ffffff;stop-opacity:1;" />
    </linearGradient>
    <radialGradient
       inkscape:collect="always"
       xlink:href="#linearGradient3198"
       id="radialGradient3455"
       cx="18.182745"
       cy="96.739861"
       fx="18.182745"
       fy="96.739861"
       r="35.860416"
       gradientTransform="matrix(1,0,0,0.1197183,0,85.158328)"
       gradientUnits="userSpaceOnUse" />
  </defs>
  <sodipodi:namedview
     id="base"
     pagecolor="#ffffff"
     bordercolor="#666666"
     borderopacity="1.0"
     inkscape:pageopacity="0.0"
     inkscape:pageshadow="2"
     inkscape:zoom="7.9195959"
     inkscape:cx="25.88422"
     inkscape:cy="20.750882"
     inkscape:document-units="px"
     inkscape:current-layer="layer3"
     showgrid="false"
     inkscape:window-width="1680"
     inkscape:window-height="993"
     inkscape:window-x="0"
     inkscape:window-y="35"
     inkscape:window-maximized="0" />
  <metadata
     id="metadata7">
    <rdf:RDF>
      <cc:Work
         rdf:about="">
        <dc:format>image/svg+xml</dc:format>
        <dc:type
           rdf:resource="http://purl.org/dc/dcmitype/StillImage" />
        <dc:title></dc:title>
      </cc:Work>
    </rdf:RDF>
  </metadata>
  <g
     inkscape:label="Capa 1"
     inkscape:groupmode="layer"
     id="layer1"
     style="display:inline">
    <path
       sodipodi:type="arc"
       style="fill:url(#radialGradient3455);fill-opacity:1;stroke:none;stroke-width:5;stroke-linecap:round;stroke-linejoin:miter;stroke-miterlimit:4;stroke-dasharray:none;stroke-opacity:1"
       id="path2641"
       sodipodi:cx="18.182745"
       sodipodi:cy="96.739861"
       sodipodi:rx="35.860416"
       sodipodi:ry="4.2931485"
       d="M 54.043161,96.739861 A 35.860416,4.2931485 0 1 1 -17.677671,96.739861 A 35.860416,4.2931485 0 1 1 54.043161,96.739861 z"
       transform="matrix(0.6934333,0,0,0.6934333,11.159928,-23.449757)" />
  </g>
  <g
     inkscape:groupmode="layer"
     id="layer4"
     inkscape:label="cerrado"
     style="display:none">
    <g
       id="layer2"
       inkscape:label="ojo"
       style="display:inline"
       transform="matrix(0.242492,0,0,0.242492,-68.794643,-56.953862)">
      <path
         style="fill:#ffffff;fill-opacity:1;stroke:#000000;stroke-width:5;stroke-miterlimit:4;stroke-dasharray:none;stroke-opacity:1"
         d="M 304.10018,325.28597 C 308.34362,343.52175 331.56998,375.23851 395.05304,376.27113 C 433.53453,373.46157 442.05953,361.27153 462.72551,337.13085 C 486.03255,265.9923 301.76459,278.37295 304.10018,325.28597 z"
         id="path3656"
         sodipodi:nodetypes="cccc" />
      <g
         id="g9431"
         transform="matrix(1,0,0,-1,-398.14286,610.99189)">
        <path
           sodipodi:nodetypes="cc"
           id="path3668"
           d="M 700.16045,279.74946 C 720.78799,247.7719 826.43983,232.41375 860.9436,269.41767"
           style="fill:none;fill-rule:evenodd;stroke:#000000;stroke-width:11.51041794;stroke-linecap:round;stroke-linejoin:miter;marker-start:none;marker-end:none;stroke-miterlimit:4.69999981;stroke-dasharray:none;stroke-opacity:1" />
        <path
           id="path8123"
           d="M 705.52986,266.92169 C 702.72306,266.03946 700.27126,264.18754 698.20489,262.00797 C 685.03549,245.63934 696.66967,268.24408 702.04744,274.40502"
           style="fill:#000000;fill-opacity:1;fill-rule:evenodd;stroke:#000000;stroke-width:2.02144313px;stroke-linecap:butt;stroke-linejoin:miter;stroke-opacity:1" />
        <path
           id="path8125"
           d="M 721.54899,262.43163 C 720.31006,259.16628 718.57355,256.16325 716.85063,253.17729 C 708.21128,233.9573 711.92878,259.89118 713.1912,267.66996"
           style="fill:#000000;fill-opacity:1;fill-rule:evenodd;stroke:#000000;stroke-width:2.02144313px;stroke-linecap:butt;stroke-linejoin:miter;stroke-opacity:1" />
        <path
           id="path8127"
           d="M 741.74702,254.19995 C 739.204,250.26434 737.46557,245.78884 736.26159,241.19294 C 732.0239,220.29724 734.5739,248.33137 732.69275,254.94826"
           style="fill:#000000;fill-opacity:1;fill-rule:evenodd;stroke:#000000;stroke-width:2.02144313px;stroke-linecap:butt;stroke-linejoin:miter;stroke-opacity:1" />
        <path
           sodipodi:nodetypes="ccc"
           id="path8129"
           d="M 770.30288,248.2133 C 768.12578,245.30031 767.86683,241.57618 767.55291,237.92236 C 763.83742,215.79532 765.25808,230.09955 759.8556,246.71661"
           style="fill:#000000;fill-opacity:1;fill-rule:evenodd;stroke:#000000;stroke-width:2.02144313px;stroke-linecap:butt;stroke-linejoin:miter;stroke-opacity:1" />
        <path
           id="path8131"
           d="M 793.98332,246.71661 C 792.32536,242.36529 791.45027,237.7294 790.80469,233.09663 C 788.00944,213.54685 787.67222,233.95966 786.32203,242.22661"
           style="fill:#000000;fill-opacity:1;fill-rule:evenodd;stroke:#000000;stroke-width:2.02144313px;stroke-linecap:butt;stroke-linejoin:miter;stroke-opacity:1" />
        <path
           id="path8133"
           d="M 814.87787,245.21995 C 814.22014,241.86977 814.17226,238.43551 814.09653,235.02909 C 811.8449,213.92652 813.1955,240.19622 806.52008,244.47158"
           style="fill:#000000;fill-opacity:1;fill-rule:evenodd;stroke:#000000;stroke-width:2.02144313px;stroke-linecap:butt;stroke-linejoin:miter;stroke-opacity:1" />
        <path
           id="path8135"
           d="M 835.7724,253.45161 C 835.60671,248.13325 835.69696,242.80976 835.51461,237.49183 C 834.46045,218.44012 832.08665,241.90425 828.11107,247.46497"
           style="fill:#000000;fill-opacity:1;fill-rule:evenodd;stroke:#000000;stroke-width:2.02144313px;stroke-linecap:butt;stroke-linejoin:miter;stroke-opacity:1" />
        <path
           id="path8137"
           d="M 852.48801,262.43163 C 853.74131,256.75594 853.96854,250.89318 853.94364,245.08307 C 855.18679,224.00966 850.26058,248.30349 842.73724,252.7033"
           style="fill:#000000;fill-opacity:1;fill-rule:evenodd;stroke:#000000;stroke-width:2.02144313px;stroke-linecap:butt;stroke-linejoin:miter;stroke-opacity:1" />
        <path
           id="path9193"
           d="M 856.66691,264.67659 C 861.30727,257.90295 864.8149,250.25105 870.10082,243.98808 C 878.61593,242.54471 861.57281,263.35264 864.32824,272.16004"
           style="fill:#000000;fill-opacity:1;fill-rule:evenodd;stroke:#000000;stroke-width:2.02144313px;stroke-linecap:butt;stroke-linejoin:miter;stroke-opacity:1" />
      </g>
    </g>
  </g>
  <g
     inkscape:groupmode="layer"
     id="layer3"
     inkscape:label="abierto"
     style="display:inline">
    <g
       id="g5610"
       transform="matrix(0.39850111,0,0,0.39850111,35.362755,15.905792)">
      <path
         style="fill:#334d5d"
         inkscape:connector-curvature="0"
         id="path8"
         d="m -81.50153,-23.308402 106.18199,0 c 3.32689,0 6.02445,2.697563 6.02445,6.025868 l 0,65.411639 c 0,3.328306 -2.69756,6.024458 -6.02445,6.024458 l -106.18199,0 c -3.3269,0 -6.02446,-2.696152 -6.02446,-6.024458 l 0,-65.411639 c 0,-3.328305 2.69756,-6.025868 6.02446,-6.025868 z" />
      <path
         style="fill:#ecf0f0"
         inkscape:connector-curvature="0"
         id="path10"
         d="m -77.762113,-19.059321 98.701733,0 c 3.32691,0 5.5852,2.258294 5.5852,5.5866 l 0,57.268269 c 0,3.326899 -2.69756,6.024459 -6.02447,6.024459 l -97.821787,0 c -3.326899,0 -6.02446,-2.69756 -6.02446,-6.024459 l 0,-57.355561 c -0.0014,-3.328305 2.256885,-5.499308 5.583784,-5.499308 z" />
      <path
         style="fill:#228ab4"
         inkscape:connector-curvature="0"
         id="path12"
         d="m -69.221715,-5.4954852 0,43.0399002 c 0,1.427624 2.932684,2.583519 6.259583,2.583519 3.328306,0 6.379253,-1.155895 6.379253,-2.583519 l 0,-43.0399002 -12.638836,0 z" />
      <path
         style="fill:#2ca4d5"
         inkscape:connector-curvature="0"
         id="path14"
         d="m -62.859355,-7.9016102 c 3.318451,0 6.275068,0.978501 6.275068,2.406125 0,1.427622 -2.956617,2.290674 -6.275068,2.290674 -3.318449,0 -6.363766,-0.863052 -6.363766,-2.290674 0,-1.427624 3.045317,-2.406125 6.363766,-2.406125 z" />
      <path
         style="fill:#3b9885"
         inkscape:connector-curvature="0"
         id="path16"
         d="m -48.10161,8.5836438 0,28.9607712 c 0,1.427624 2.931274,2.583519 6.258173,2.583519 3.328305,0 6.379253,-1.155895 6.379253,-2.583519 l 0,-28.9607712 -12.637426,0 z" />
      <path
         style="fill:#45b39c"
         inkscape:connector-curvature="0"
         id="path18"
         d="m -41.739252,6.1775198 c 3.319859,0 6.276477,0.9785 6.276477,2.406124 0,1.4276252 -2.956618,2.2892662 -6.276477,2.2892662 -3.319857,0 -6.363768,-0.861641 -6.363768,-2.2892662 0,-1.427624 3.043911,-2.406124 6.363768,-2.406124 z" />
      <path
         style="fill:#bd3e25"
         inkscape:connector-curvature="0"
         id="path20"
         d="m -26.984324,2.9519918 0,34.5924232 c 0,1.427624 2.932683,2.583519 6.259582,2.583519 3.328307,0 6.379252,-1.155895 6.379252,-2.583519 l 0,-34.5924232 -12.638834,0 z" />
      <path
         style="fill:#d5614f"
         inkscape:connector-curvature="0"
         id="path22"
         d="m -20.621964,0.54586877 c 3.318452,0 6.275067,0.97849903 6.275067,2.40612303 0,1.427624 -2.956615,2.289267 -6.275067,2.289267 -3.31845,0 -6.363768,-0.861643 -6.363768,-2.289267 0,-1.427624 3.045318,-2.40612303 6.363768,-2.40612303 z" />
      <path
         style="fill:#bd3e25"
         inkscape:connector-curvature="0"
         id="path24"
         d="m -1.6348475,18.94166 5.603498,0 0,5.604902 -5.603498,0 0,-5.604902 z" />
      <path
         style="fill:#3b9885"
         inkscape:connector-curvature="0"
         id="path26"
         d="m -1.6348475,25.979818 5.603498,0 0,5.606308 -5.603498,0 0,-5.606308 z" />
      <path
         style="fill:#228ab4"
         inkscape:connector-curvature="0"
         id="path28"
         d="m -1.6348475,33.020791 5.603498,0 0,5.604902 -5.603498,0 0,-5.604902 z" />
      <path
         style="fill:#bdbdbd"
         inkscape:connector-curvature="0"
         id="path30"
         d="m -1.6348475,-7.8129102 0,4.195579 16.8653875,0 0,-4.195579 -16.8653875,0 z m 0,11.147855 16.8653875,0 0,-4.10829203 -16.8653875,0 0,4.10829203 z m 11.232329,2.931274 -11.233735,0 0,4.1082902 11.233735,0 0,-4.1082902 z m -4.258931,18.2803432 8.5206795,0 0,-5.604902 -8.5206795,0 0,5.604902 z m 0,7.039564 8.5206795,0 0,-5.606308 -8.5206795,0 0,5.606308 z m 0,7.039567 8.5206795,0 0,-5.604902 -8.5206795,0 0,5.604902 z" />
    </g>
  </g>
</svg>
