<?xml version="1.0" encoding="UTF-8" standalone="no"?>
<!-- Created with Inkscape (http://www.inkscape.org/) -->

<svg
   xmlns:dc="http://purl.org/dc/elements/1.1/"
   xmlns:cc="http://creativecommons.org/ns#"
   xmlns:rdf="http://www.w3.org/1999/02/22-rdf-syntax-ns#"
   xmlns:svg="http://www.w3.org/2000/svg"
   xmlns="http://www.w3.org/2000/svg"
   xmlns:xlink="http://www.w3.org/1999/xlink"
   xmlns:sodipodi="http://sodipodi.sourceforge.net/DTD/sodipodi-0.dtd"
   xmlns:inkscape="http://www.inkscape.org/namespaces/inkscape"
   version="1.1"
   width="100%"
   height="100%"
   viewBox="0 0 32.006 32.006"
   id="Capa_1"
   xml:space="preserve"
   inkscape:version="0.48.4 r9939"
   sodipodi:docname="ruler-max.svg"><sodipodi:namedview
     pagecolor="#ffffff"
     bordercolor="#666666"
     borderopacity="1"
     objecttolerance="10"
     gridtolerance="10"
     guidetolerance="10"
     inkscape:pageopacity="0"
     inkscape:pageshadow="2"
     inkscape:window-width="1865"
     inkscape:window-height="1056"
     id="namedview60"
     showgrid="false"
     inkscape:zoom="20.85574"
     inkscape:cx="10.297137"
     inkscape:cy="16.003"
     inkscape:window-x="55"
     inkscape:window-y="24"
     inkscape:window-maximized="1"
     inkscape:current-layer="Capa_1" /><metadata
     id="metadata3178"><rdf:RDF><cc:Work
         rdf:about=""><dc:format>image/svg+xml</dc:format><dc:type
           rdf:resource="http://purl.org/dc/dcmitype/StillImage" /><dc:title></dc:title></cc:Work></rdf:RDF></metadata><defs
     id="defs3176"><radialGradient
       cx="25.073229"
       cy="28.689009"
       r="8.6582489"
       fx="25.073229"
       fy="28.689009"
       id="radialGradient3562"
       xlink:href="#linearGradient3529"
       gradientUnits="userSpaceOnUse"
       gradientTransform="matrix(0.99999998,0,0,0.37288779,-18.633761,5.4508127)" /><linearGradient
       id="linearGradient3529"><stop
         id="stop3531"
         style="stop-color:#ffffff;stop-opacity:1"
         offset="0" /><stop
         id="stop3533"
         style="stop-color:#ffffff;stop-opacity:0"
         offset="1" /></linearGradient><filter
       x="-0.19684789"
       y="-0.52790111"
       width="1.3936958"
       height="2.0558023"
       color-interpolation-filters="sRGB"
       id="filter3756"><feGaussianBlur
         stdDeviation="1.4202982"
         id="feGaussianBlur3758" /></filter><radialGradient
       cx="375.65048"
       cy="523.67358"
       r="9.2176418"
       fx="375.65048"
       fy="523.67358"
       id="radialGradient3535"
       xlink:href="#linearGradient3529"
       gradientUnits="userSpaceOnUse" /><radialGradient
       cx="25.748859"
       cy="24.745079"
       r="12.047049"
       fx="25.748859"
       fy="24.745079"
       id="radialGradient3519"
       xlink:href="#linearGradient3513"
       gradientUnits="userSpaceOnUse"
       gradientTransform="matrix(0.99999998,0,0,0.86092199,-20.275259,-10.992956)" /><linearGradient
       id="linearGradient3513"><stop
         id="stop3515"
         style="stop-color:#2a5d90;stop-opacity:1"
         offset="0" /><stop
         id="stop3517"
         style="stop-color:#4997ca;stop-opacity:1"
         offset="1" /></linearGradient><radialGradient
       cx="25.748859"
       cy="24.745079"
       r="12.047049"
       fx="25.748859"
       fy="24.745079"
       id="radialGradient3347"
       xlink:href="#linearGradient3513"
       gradientUnits="userSpaceOnUse"
       gradientTransform="matrix(0.99999998,0,0,0.86092199,-20.275259,-10.992956)" /><radialGradient
       cx="375.65048"
       cy="523.67358"
       r="9.2176418"
       fx="375.65048"
       fy="523.67358"
       id="radialGradient3349"
       xlink:href="#linearGradient3529"
       gradientUnits="userSpaceOnUse" /><radialGradient
       cx="25.073229"
       cy="28.689009"
       r="8.6582489"
       fx="25.073229"
       fy="28.689009"
       id="radialGradient3351"
       xlink:href="#linearGradient3529"
       gradientUnits="userSpaceOnUse"
       gradientTransform="matrix(0.99999998,0,0,0.37288779,-18.633761,5.4508127)" /><filter
       color-interpolation-filters="sRGB"
       id="filter3307"><feGaussianBlur
         id="feGaussianBlur3309"
         stdDeviation="0.61034295" /></filter><linearGradient
       x1="0.0063453317"
       y1="23.998526"
       x2="48.000607"
       y2="23.998526"
       id="linearGradient3161"
       xlink:href="#linearGradient3155"
       gradientUnits="userSpaceOnUse"
       gradientTransform="matrix(0.9062359,0,0,0.9062359,2.2471869,2.2516735)" /><linearGradient
       id="linearGradient3155"><stop
         id="stop3157"
         style="stop-color:#ff0000;stop-opacity:1"
         offset="0" /><stop
         id="stop3163"
         style="stop-color:#e98800;stop-opacity:1"
         offset="0.08986767" /><stop
         id="stop3165"
         style="stop-color:#ffff00;stop-opacity:1"
         offset="0.25595695" /><stop
         id="stop3167"
         style="stop-color:#42ff00;stop-opacity:1"
         offset="0.42204621" /><stop
         id="stop3169"
         style="stop-color:#29942e;stop-opacity:1"
         offset="0.64345068" /><stop
         id="stop3171"
         style="stop-color:#528be0;stop-opacity:1"
         offset="0.83373404" /><stop
         id="stop3173"
         style="stop-color:#460db7;stop-opacity:1"
         offset="1" /></linearGradient><linearGradient
       x1="0.74739808"
       y1="-0.33812565"
       x2="20.55932"
       y2="31.746843"
       id="linearGradient3211"
       xlink:href="#linearGradient3205-1"
       gradientUnits="userSpaceOnUse"
       gradientTransform="matrix(0.9796808,0,0,0.9796808,0.4876598,0.4876598)" /><linearGradient
       id="linearGradient3205-1"><stop
         id="stop3207-3"
         style="stop-color:#ffffff;stop-opacity:1"
         offset="0" /><stop
         id="stop3209-2"
         style="stop-color:#ffffff;stop-opacity:0"
         offset="1" /></linearGradient><linearGradient
       x1="0.74739808"
       y1="-0.33812565"
       x2="20.55932"
       y2="31.746843"
       id="linearGradient4184"
       xlink:href="#linearGradient3205-1"
       gradientUnits="userSpaceOnUse"
       gradientTransform="matrix(0.9796808,0,0,0.9796808,0.4876598,0.4876598)" /></defs><g
     id="g3144" /><g
     id="g3146" /><g
     id="g3148" /><g
     id="g3150" /><g
     id="g3152" /><g
     id="g3154" /><g
     id="g3156" /><g
     id="g3158" /><g
     id="g3160" /><g
     id="g3162" /><g
     id="g3164" /><g
     id="g3166" /><g
     id="g3168" /><g
     id="g3170" /><g
     id="g3172" /><text
     x="2.7561679"
     y="1.9982218"
     id="text3187"
     xml:space="preserve"
     style="font-size:40px;font-style:normal;font-weight:normal;line-height:125%;letter-spacing:0px;word-spacing:0px;fill:#000000;fill-opacity:1;stroke:none;font-family:Sans"><tspan
       x="2.7561679"
       y="1.9982218"
       id="tspan3189" /></text>
<text
     x="2.3771949"
     y="3.6519225"
     id="text3191"
     xml:space="preserve"
     style="font-size:20px;font-style:normal;font-weight:normal;line-height:125%;letter-spacing:0px;word-spacing:0px;fill:#000000;fill-opacity:1;stroke:none;font-family:Sans"><tspan
       x="2.3771949"
       y="3.6519225"
       id="tspan3193" /></text>
<g
     transform="matrix(0,0.68348558,-0.2778137,0,14.247001,-0.70840848)"
     id="layer1-1"
     style="display:inline"><rect
       width="43.494125"
       height="43.492794"
       x="2.8779373"
       y="2.878603"
       id="rect3213"
       style="fill:#000000;fill-opacity:1;stroke:none;filter:url(#filter3307)" /><rect
       width="43.494125"
       height="43.492794"
       x="2.2529373"
       y="2.253603"
       id="rect2383"
       style="fill:url(#linearGradient3161);fill-opacity:1;stroke:none" /><path
       d="m 2.6919417,2.6919417 0,42.5547283 C 2.5300641,3.090546 45.396709,20.981634 45.308059,2.722645 l 0,-0.030703 -42.6161173,0 z"
       id="rect3177"
       style="fill:url(#linearGradient4184);fill-opacity:1;stroke:none" /></g><g
     transform="scale(0.9608989,1.0406922)"
     style="font-size:14.56968975px;font-style:normal;font-weight:normal;line-height:0%;letter-spacing:-7.85722542px;word-spacing:0px;writing-mode:tb-rl;fill:#000000;fill-opacity:1;stroke:none;font-family:Sans"
     id="text4443"><path
       d="m 20.936006,0.96378044 2.141346,0 2.710475,7.22793206 2.724703,-7.22793206 2.141346,0 0,10.62136056 -1.401479,0 0,-9.3265932 -2.738931,7.2848449 -1.444164,0 -2.738931,-7.2848449 0,9.3265932 -1.394365,0 0,-10.62136056"
       style=""
       id="path3117" /><path
       d="m 26.321385,16.682704 c -1.057635,4e-6 -1.790387,0.120943 -2.198259,0.362819 -0.407878,0.241883 -0.611816,0.654501 -0.611813,1.237854 -3e-6,0.464791 0.151765,0.834724 0.455302,1.109801 0.308275,0.270337 0.725636,0.405505 1.252083,0.405504 0.725634,1e-6 1.306619,-0.256107 1.742956,-0.768323 0.441069,-0.516957 0.661606,-1.202282 0.661612,-2.055977 l 0,-0.291678 -1.301881,0 m 2.610877,-0.540673 0,4.545914 -1.308996,0 0,-1.209398 c -0.298798,0.48376 -0.671103,0.841837 -1.116915,1.07423 -0.445822,0.227652 -0.991236,0.341477 -1.636244,0.341477 -0.815754,0 -1.465508,-0.227651 -1.949265,-0.682954 -0.479018,-0.460044 -0.718526,-1.074228 -0.718525,-1.842553 -1e-6,-0.896374 0.298791,-1.572214 0.896377,-2.027521 0.602326,-0.455298 1.498702,-0.682949 2.689133,-0.682954 l 1.835439,0 0,-0.128054 c -6e-6,-0.602322 -0.199201,-1.067109 -0.597585,-1.394365 -0.393652,-0.331984 -0.948552,-0.49798 -1.664701,-0.497987 -0.455306,7e-6 -0.898752,0.05455 -1.330338,0.163624 -0.431591,0.10909 -0.84658,0.272714 -1.244968,0.490874 l 0,-1.209398 c 0.479014,-0.184959 0.943802,-0.322499 1.394365,-0.412618 0.450556,-0.09485 0.889259,-0.142274 1.316109,-0.142283 1.15248,9e-6 2.013286,0.298801 2.582421,0.896378 0.569121,0.597591 0.853685,1.503453 0.853693,2.717588"
       style=""
       id="path3119" /><path
       d="m 29.480048,21.82295 -2.881213,3.877188 3.030609,4.090612 -1.543761,0 -2.319199,-3.130207 -2.319198,3.130207 -1.543761,0 3.094636,-4.168867 -2.831414,-3.798933 1.543761,0 2.112889,2.838529 2.11289,-2.838529 1.543761,0"
       style=""
       id="path3121" /></g></svg>