<?xml version="1.0" encoding="UTF-8" standalone="no"?>
<!-- Created with Inkscape (http://www.inkscape.org/) -->

<svg
   xmlns:dc="http://purl.org/dc/elements/1.1/"
   xmlns:cc="http://creativecommons.org/ns#"
   xmlns:rdf="http://www.w3.org/1999/02/22-rdf-syntax-ns#"
   xmlns:svg="http://www.w3.org/2000/svg"
   xmlns="http://www.w3.org/2000/svg"
   xmlns:xlink="http://www.w3.org/1999/xlink"
   xmlns:sodipodi="http://sodipodi.sourceforge.net/DTD/sodipodi-0.dtd"
   xmlns:inkscape="http://www.inkscape.org/namespaces/inkscape"
   width="48"
   height="48"
   id="svg2"
   sodipodi:version="0.32"
   inkscape:version="0.91 r13725"
   version="1.0"
   sodipodi:docname="settings.svg"
   inkscape:output_extension="org.inkscape.output.svg.inkscape">
  <defs
     id="defs4">
    <linearGradient
       id="linearGradient3367">
      <stop
         id="stop3369"
         offset="0"
         style="stop-color:#000000;stop-opacity:1" />
      <stop
         style="stop-color:#940000;stop-opacity:1;"
         offset="0.44431007"
         id="stop3371" />
      <stop
         style="stop-color:#dc0808;stop-opacity:1;"
         offset="1"
         id="stop3373" />
    </linearGradient>
    <linearGradient
       id="linearGradient3124">
      <stop
         style="stop-color:#4e1818;stop-opacity:1;"
         offset="0"
         id="stop3126" />
      <stop
         id="stop3128"
         offset="0.62318391"
         style="stop-color:#940000;stop-opacity:1;" />
      <stop
         id="stop3130"
         offset="1"
         style="stop-color:#dc0808;stop-opacity:1;" />
    </linearGradient>
    <linearGradient
       id="linearGradient3358">
      <stop
         style="stop-color:#000000;stop-opacity:1"
         offset="0"
         id="stop3360" />
      <stop
         id="stop3362"
         offset="0.11136102"
         style="stop-color:#940000;stop-opacity:1;" />
      <stop
         id="stop3364"
         offset="1"
         style="stop-color:#dc0808;stop-opacity:1;" />
    </linearGradient>
    <linearGradient
       id="linearGradient3336">
      <stop
         style="stop-color:#4e1818;stop-opacity:1;"
         offset="0"
         id="stop3338" />
      <stop
         id="stop3340"
         offset="0.4582659"
         style="stop-color:#940000;stop-opacity:1;" />
      <stop
         id="stop3342"
         offset="1"
         style="stop-color:#dc0808;stop-opacity:1;" />
    </linearGradient>
    <linearGradient
       id="linearGradient3300">
      <stop
         id="stop3308"
         offset="0"
         style="stop-color:#4e1818;stop-opacity:1;" />
      <stop
         style="stop-color:#940000;stop-opacity:1;"
         offset="0.23567311"
         id="stop3322" />
      <stop
         style="stop-color:#dc0808;stop-opacity:1;"
         offset="1"
         id="stop3304" />
    </linearGradient>
    <inkscape:perspective
       sodipodi:type="inkscape:persp3d"
       inkscape:vp_x="22.834507 : -67.351805 : 1"
       inkscape:vp_y="163.04886 : 71.233252 : 1"
       inkscape:vp_z="-116.10672 : 125.71655 : 1"
       inkscape:persp3d-origin="188.14303 : 248.03225 : 1"
       id="perspective10" />
    <linearGradient
       id="linearGradient3264">
      <stop
         id="stop3266"
         offset="0"
         style="stop-color:#c9c9c9;stop-opacity:1;" />
      <stop
         style="stop-color:#f8f8f8;stop-opacity:1;"
         offset="0.25"
         id="stop3276" />
      <stop
         style="stop-color:#e2e2e2;stop-opacity:1;"
         offset="0.5"
         id="stop3272" />
      <stop
         id="stop3274"
         offset="0.75"
         style="stop-color:#b0b0b0;stop-opacity:1;" />
      <stop
         id="stop3268"
         offset="1"
         style="stop-color:#c9c9c9;stop-opacity:1;" />
    </linearGradient>
    <inkscape:perspective
       id="perspective22"
       inkscape:persp3d-origin="24 : 16 : 1"
       inkscape:vp_z="48 : 24 : 1"
       inkscape:vp_y="0 : 1000 : 0"
       inkscape:vp_x="0 : 24 : 1"
       sodipodi:type="inkscape:persp3d" />
    <inkscape:perspective
       id="perspective2478"
       inkscape:persp3d-origin="372.04724 : 350.78739 : 1"
       inkscape:vp_z="744.09448 : 526.18109 : 1"
       inkscape:vp_y="6.1230318e-14 : 1000 : 0"
       inkscape:vp_x="0 : 526.18109 : 1"
       sodipodi:type="inkscape:persp3d" />
    <inkscape:path-effect
       teeth="10"
       id="path-effect3585"
       effect="gears" />
    <inkscape:path-effect
       teeth="10"
       id="path-effect3587"
       effect="gears" />
    <inkscape:path-effect
       prop_scale="1"
       id="path-effect3589"
       effect="skeletal" />
    <inkscape:path-effect
       prop_scale="1.04"
       id="path-effect3591"
       effect="bend_path" />
    <marker
       style="overflow:visible"
       id="Arrow2Sstart"
       refX="0"
       refY="0"
       orient="auto"
       inkscape:stockid="Arrow2Sstart">
      <path
         transform="matrix(0.3,0,0,0.3,-0.69,0)"
         d="M 8.7185878,4.0337352 L -2.2072895,0.016013256 L 8.7185884,-4.0017078 C 6.97309,-1.6296469 6.9831476,1.6157441 8.7185878,4.0337352 z"
         style="font-size:12px;fill-rule:evenodd;stroke-width:0.625;stroke-linejoin:round"
         id="path3703" />
    </marker>
    <marker
       orient="auto"
       refY="0"
       refX="0"
       id="RazorWire"
       inkscape:stockid="RazorWire">
       style=&quot;overflow:visible&quot;&gt;
      <path
   d="M 0.022727273,-0.74009011 L 0.022727273,0.69740989 L -7.7585227,3.0099099 L 10.678977,3.0099099 L 3.4914773,0.69740989 L 3.4914773,-0.74009011 L 10.741477,-2.8963401 L -7.7272727,-2.8963401 L 0.022727273,-0.74009011 z"
   style="fill:#808080;fill-opacity:1;fill-rule:evenodd;stroke:#000000;stroke-width:0.1pt"
   transform="scale(0.8,0.8)"
   id="path3906" />
</marker>
    <marker
       style="overflow:visible"
       id="Arrow1Send"
       refX="0"
       refY="0"
       orient="auto"
       inkscape:stockid="Arrow1Send">
      <path
         transform="matrix(-0.2,0,0,-0.2,-1.2,0)"
         style="fill-rule:evenodd;stroke:#000000;stroke-width:1pt;marker-start:none"
         d="M 0,0 L 5,-5 L -12.5,0 L 5,5 L 0,0 z"
         id="path3688" />
    </marker>
    <linearGradient
       id="linearGradient3199">
      <stop
         id="stop3201"
         offset="0"
         style="stop-color:#868686;stop-opacity:1;" />
      <stop
         id="stop3203"
         offset="1"
         style="stop-color:#ffffff;stop-opacity:1;" />
    </linearGradient>
    <inkscape:perspective
       id="perspective2712"
       inkscape:persp3d-origin="372.04724 : 350.78739 : 1"
       inkscape:vp_z="744.09448 : 526.18109 : 1"
       inkscape:vp_y="6.1230318e-14 : 1000 : 0"
       inkscape:vp_x="0 : 526.18109 : 1"
       sodipodi:type="inkscape:persp3d" />
    <inkscape:path-effect
       teeth="10"
       id="path-effect2710"
       effect="gears" />
    <inkscape:path-effect
       teeth="10"
       id="path-effect2708"
       effect="gears" />
    <inkscape:path-effect
       prop_scale="1"
       id="path-effect2706"
       effect="skeletal" />
    <inkscape:path-effect
       prop_scale="1.04"
       id="path-effect2704"
       effect="bend_path" />
    <marker
       style="overflow:visible"
       id="marker2700"
       refX="0"
       refY="0"
       orient="auto"
       inkscape:stockid="Arrow2Sstart">
      <path
         transform="matrix(0.3,0,0,0.3,-0.69,0)"
         d="M 8.7185878,4.0337352 L -2.2072895,0.016013256 L 8.7185884,-4.0017078 C 6.97309,-1.6296469 6.9831476,1.6157441 8.7185878,4.0337352 z"
         style="font-size:12px;fill-rule:evenodd;stroke-width:0.625;stroke-linejoin:round"
         id="path2702" />
    </marker>
    <marker
       orient="auto"
       refY="0"
       refX="0"
       id="marker2696"
       inkscape:stockid="RazorWire">
       style=&quot;overflow:visible&quot;&gt;
      <path
   d="M 0.022727273,-0.74009011 L 0.022727273,0.69740989 L -7.7585227,3.0099099 L 10.678977,3.0099099 L 3.4914773,0.69740989 L 3.4914773,-0.74009011 L 10.741477,-2.8963401 L -7.7272727,-2.8963401 L 0.022727273,-0.74009011 z"
   style="fill:#808080;fill-opacity:1;fill-rule:evenodd;stroke:#000000;stroke-width:0.1pt"
   transform="scale(0.8,0.8)"
   id="path2698" />
</marker>
    <marker
       style="overflow:visible"
       id="marker2692"
       refX="0"
       refY="0"
       orient="auto"
       inkscape:stockid="Arrow1Send">
      <path
         transform="matrix(-0.2,0,0,-0.2,-1.2,0)"
         style="fill-rule:evenodd;stroke:#000000;stroke-width:1pt;marker-start:none"
         d="M 0,0 L 5,-5 L -12.5,0 L 5,5 L 0,0 z"
         id="path2694" />
    </marker>
    <linearGradient
       id="linearGradient3198">
      <stop
         id="stop3200"
         offset="0"
         style="stop-color:#868686;stop-opacity:1;" />
      <stop
         id="stop3202"
         offset="1"
         style="stop-color:#ffffff;stop-opacity:1;" />
    </linearGradient>
    <inkscape:perspective
       id="perspective2672"
       inkscape:persp3d-origin="372.04724 : 350.78739 : 1"
       inkscape:vp_z="744.09448 : 526.18109 : 1"
       inkscape:vp_y="6.1230318e-14 : 1000 : 0"
       inkscape:vp_x="0 : 526.18109 : 1"
       sodipodi:type="inkscape:persp3d" />
    <inkscape:path-effect
       teeth="10"
       id="path-effect2670"
       effect="gears" />
    <inkscape:path-effect
       teeth="10"
       id="path-effect2668"
       effect="gears" />
    <inkscape:path-effect
       prop_scale="1"
       id="path-effect2666"
       effect="skeletal" />
    <inkscape:path-effect
       prop_scale="1.04"
       id="path-effect2664"
       effect="bend_path" />
    <marker
       style="overflow:visible"
       id="marker2660"
       refX="0"
       refY="0"
       orient="auto"
       inkscape:stockid="Arrow2Sstart">
      <path
         transform="matrix(0.3,0,0,0.3,-0.69,0)"
         d="M 8.7185878,4.0337352 L -2.2072895,0.016013256 L 8.7185884,-4.0017078 C 6.97309,-1.6296469 6.9831476,1.6157441 8.7185878,4.0337352 z"
         style="font-size:12px;fill-rule:evenodd;stroke-width:0.625;stroke-linejoin:round"
         id="path2662" />
    </marker>
    <marker
       orient="auto"
       refY="0"
       refX="0"
       id="marker2656"
       inkscape:stockid="RazorWire">
       style=&quot;overflow:visible&quot;&gt;
      <path
   d="M 0.022727273,-0.74009011 L 0.022727273,0.69740989 L -7.7585227,3.0099099 L 10.678977,3.0099099 L 3.4914773,0.69740989 L 3.4914773,-0.74009011 L 10.741477,-2.8963401 L -7.7272727,-2.8963401 L 0.022727273,-0.74009011 z"
   style="fill:#808080;fill-opacity:1;fill-rule:evenodd;stroke:#000000;stroke-width:0.1pt"
   transform="scale(0.8,0.8)"
   id="path2658" />
</marker>
    <marker
       style="overflow:visible"
       id="marker2652"
       refX="0"
       refY="0"
       orient="auto"
       inkscape:stockid="Arrow1Send">
      <path
         transform="matrix(-0.2,0,0,-0.2,-1.2,0)"
         style="fill-rule:evenodd;stroke:#000000;stroke-width:1pt;marker-start:none"
         d="M 0,0 L 5,-5 L -12.5,0 L 5,5 L 0,0 z"
         id="path2654" />
    </marker>
    <linearGradient
       id="linearGradient2646">
      <stop
         id="stop2648"
         offset="0"
         style="stop-color:#868686;stop-opacity:1;" />
      <stop
         id="stop2650"
         offset="1"
         style="stop-color:#ffffff;stop-opacity:1;" />
    </linearGradient>
    <linearGradient
       inkscape:collect="always"
       xlink:href="#linearGradient3199"
       id="linearGradient2707"
       gradientUnits="userSpaceOnUse"
       x1="-482.45612"
       y1="473.16379"
       x2="-361.58667"
       y2="473.16379" />
    <linearGradient
       inkscape:collect="always"
       xlink:href="#linearGradient3199"
       id="linearGradient2709"
       gradientUnits="userSpaceOnUse"
       x1="313.02472"
       y1="84.767693"
       x2="446.75058"
       y2="84.767693" />
    <linearGradient
       inkscape:collect="always"
       xlink:href="#linearGradient3199"
       id="linearGradient2711"
       gradientUnits="userSpaceOnUse"
       x1="-364.76328"
       y1="471.94717"
       x2="-243.89383"
       y2="471.94717" />
    <linearGradient
       inkscape:collect="always"
       xlink:href="#linearGradient3199"
       id="linearGradient2713"
       gradientUnits="userSpaceOnUse"
       x1="-196.22874"
       y1="441.06339"
       x2="46.90115"
       y2="441.06339" />
    <linearGradient
       inkscape:collect="always"
       xlink:href="#linearGradient3199"
       id="linearGradient2715"
       gradientUnits="userSpaceOnUse"
       x1="-482.46341"
       y1="403.97192"
       x2="-361.59396"
       y2="403.97192" />
    <linearGradient
       inkscape:collect="always"
       xlink:href="#linearGradient3199"
       id="linearGradient2717"
       gradientUnits="userSpaceOnUse"
       x1="312.86624"
       y1="11.616987"
       x2="446.5921"
       y2="11.616987" />
    <linearGradient
       inkscape:collect="always"
       xlink:href="#linearGradient3199"
       id="linearGradient2719"
       gradientUnits="userSpaceOnUse"
       x1="-367.11237"
       y1="404.1579"
       x2="-246.24292"
       y2="404.1579" />
    <filter
       style="color-interpolation-filters:sRGB;"
       inkscape:label="Colorize"
       id="filter15874">
      <feComposite
         in2="SourceGraphic"
         operator="arithmetic"
         k1="0"
         k2="1"
         result="composite1"
         id="feComposite15876" />
      <feColorMatrix
         in="composite1"
         values="1"
         type="saturate"
         result="colormatrix1"
         id="feColorMatrix15878" />
      <feFlood
         flood-opacity="1"
         flood-color="rgb(158,67,0)"
         result="flood1"
         id="feFlood15880" />
      <feBlend
         in="flood1"
         in2="colormatrix1"
         mode="multiply"
         result="blend1"
         id="feBlend15882" />
      <feBlend
         in2="blend1"
         mode="screen"
         result="blend2"
         id="feBlend15884" />
      <feColorMatrix
         in="blend2"
         values="1"
         type="saturate"
         result="colormatrix2"
         id="feColorMatrix15886" />
      <feComposite
         in="colormatrix2"
         in2="SourceGraphic"
         operator="in"
         k2="1"
         result="composite2"
         id="feComposite15888" />
    </filter>
    <filter
       style="color-interpolation-filters:sRGB;"
       inkscape:label="Out of Focus"
       id="filter4562">
      <feFlood
         flood-opacity="1"
         flood-color="rgb(255,255,255)"
         result="flood"
         id="feFlood4564" />
      <feColorMatrix
         in="SourceGraphic"
         values="1 0 0 0 0 0 1 0 0 0 0 0 1 0 0 -0.2125 -0.7154 -0.0721 1 0 "
         result="colormatrix1"
         id="feColorMatrix4566" />
      <feGaussianBlur
         in="colormatrix1"
         stdDeviation="3 3"
         result="blur"
         id="feGaussianBlur4568" />
      <feColorMatrix
         in="blur"
         values="1 0 0 0 0 0 1 0 0 0 0 0 1 0 0 0 0 0 6 -2 "
         result="colormatrix2"
         id="feColorMatrix4570" />
      <feBlend
         in="colormatrix2"
         in2="flood"
         mode="normal"
         result="blend"
         id="feBlend4572" />
      <feComposite
         in="blend"
         in2="blend"
         operator="arithmetic"
         k2="1"
         result="composite1"
         id="feComposite4574" />
      <feComposite
         in2="SourceGraphic"
         operator="in"
         id="feComposite4576"
         result="fbSourceGraphic" />
      <feColorMatrix
         result="fbSourceGraphicAlpha"
         in="fbSourceGraphic"
         values="0 0 0 -1 0 0 0 0 -1 0 0 0 0 -1 0 0 0 0 1 0"
         id="feColorMatrix4578" />
      <feFlood
         id="feFlood4580"
         flood-opacity="1"
         flood-color="rgb(255,255,255)"
         result="flood"
         in="fbSourceGraphic" />
      <feColorMatrix
         id="feColorMatrix4582"
         in="fbSourceGraphic"
         values="1 0 0 0 0 0 1 0 0 0 0 0 1 0 0 -0.2125 -0.7154 -0.0721 1 0 "
         result="colormatrix1" />
      <feGaussianBlur
         id="feGaussianBlur4584"
         in="colormatrix1"
         stdDeviation="3 3"
         result="blur" />
      <feColorMatrix
         id="feColorMatrix4586"
         in="blur"
         values="1 0 0 0 0 0 1 0 0 0 0 0 1 0 0 0 0 0 6 -2 "
         result="colormatrix2" />
      <feBlend
         id="feBlend4588"
         in2="flood"
         in="colormatrix2"
         mode="normal"
         result="blend" />
      <feComposite
         id="feComposite4590"
         in2="blend"
         in="blend"
         operator="arithmetic"
         k2="1"
         result="composite1" />
      <feComposite
         id="feComposite4592"
         in2="fbSourceGraphic"
         operator="in"
         result="fbSourceGraphic" />
      <feColorMatrix
         result="fbSourceGraphicAlpha"
         in="fbSourceGraphic"
         values="0 0 0 -1 0 0 0 0 -1 0 0 0 0 -1 0 0 0 0 1 0"
         id="feColorMatrix4594" />
      <feFlood
         id="feFlood4596"
         flood-opacity="1"
         flood-color="rgb(255,255,255)"
         result="flood"
         in="fbSourceGraphic" />
      <feColorMatrix
         id="feColorMatrix4598"
         in="fbSourceGraphic"
         values="1 0 0 0 0 0 1 0 0 0 0 0 1 0 0 -0.2125 -0.7154 -0.0721 1 0 "
         result="colormatrix1" />
      <feGaussianBlur
         id="feGaussianBlur4600"
         in="colormatrix1"
         stdDeviation="3 3"
         result="blur" />
      <feColorMatrix
         id="feColorMatrix4602"
         in="blur"
         values="1 0 0 0 0 0 1 0 0 0 0 0 1 0 0 0 0 0 6 -2 "
         result="colormatrix2" />
      <feBlend
         id="feBlend4604"
         in2="flood"
         in="colormatrix2"
         mode="normal"
         result="blend" />
      <feComposite
         id="feComposite4606"
         in2="blend"
         in="blend"
         operator="arithmetic"
         k2="1"
         result="composite1" />
      <feComposite
         id="feComposite4608"
         in2="fbSourceGraphic"
         operator="in"
         result="fbSourceGraphic" />
      <feColorMatrix
         result="fbSourceGraphicAlpha"
         in="fbSourceGraphic"
         values="0 0 0 -1 0 0 0 0 -1 0 0 0 0 -1 0 0 0 0 1 0"
         id="feColorMatrix4610" />
      <feFlood
         id="feFlood4612"
         flood-opacity="1"
         flood-color="rgb(255,255,255)"
         result="flood"
         in="fbSourceGraphic" />
      <feColorMatrix
         id="feColorMatrix4614"
         in="fbSourceGraphic"
         values="1 0 0 0 0 0 1 0 0 0 0 0 1 0 0 -0.2125 -0.7154 -0.0721 1 0 "
         result="colormatrix1" />
      <feGaussianBlur
         id="feGaussianBlur4616"
         in="colormatrix1"
         stdDeviation="3 3"
         result="blur" />
      <feColorMatrix
         id="feColorMatrix4618"
         in="blur"
         values="1 0 0 0 0 0 1 0 0 0 0 0 1 0 0 0 0 0 6 -2 "
         result="colormatrix2" />
      <feBlend
         id="feBlend4620"
         in2="flood"
         in="colormatrix2"
         mode="normal"
         result="blend" />
      <feComposite
         id="feComposite4622"
         in2="blend"
         in="blend"
         operator="arithmetic"
         k2="1"
         result="composite1" />
      <feComposite
         id="feComposite4624"
         in2="fbSourceGraphic"
         operator="in"
         result="fbSourceGraphic" />
      <feColorMatrix
         result="fbSourceGraphicAlpha"
         in="fbSourceGraphic"
         values="0 0 0 -1 0 0 0 0 -1 0 0 0 0 -1 0 0 0 0 1 0"
         id="feColorMatrix4626" />
      <feFlood
         id="feFlood4628"
         flood-opacity="1"
         flood-color="rgb(255,255,255)"
         result="flood"
         in="fbSourceGraphic" />
      <feColorMatrix
         id="feColorMatrix4630"
         in="fbSourceGraphic"
         values="1 0 0 0 0 0 1 0 0 0 0 0 1 0 0 -0.2125 -0.7154 -0.0721 1 0 "
         result="colormatrix1" />
      <feGaussianBlur
         id="feGaussianBlur4632"
         in="colormatrix1"
         stdDeviation="3 3"
         result="blur" />
      <feColorMatrix
         id="feColorMatrix4634"
         in="blur"
         values="1 0 0 0 0 0 1 0 0 0 0 0 1 0 0 0 0 0 6 -2 "
         result="colormatrix2" />
      <feBlend
         id="feBlend4636"
         in2="flood"
         in="colormatrix2"
         mode="normal"
         result="blend" />
      <feComposite
         id="feComposite4638"
         in2="blend"
         in="blend"
         operator="arithmetic"
         k2="1"
         result="composite1" />
      <feComposite
         id="feComposite4640"
         in2="fbSourceGraphic"
         operator="in"
         result="fbSourceGraphic" />
      <feColorMatrix
         result="fbSourceGraphicAlpha"
         in="fbSourceGraphic"
         values="0 0 0 -1 0 0 0 0 -1 0 0 0 0 -1 0 0 0 0 1 0"
         id="feColorMatrix4642" />
      <feFlood
         id="feFlood4644"
         flood-opacity="1"
         flood-color="rgb(255,255,255)"
         result="flood"
         in="fbSourceGraphic" />
      <feColorMatrix
         id="feColorMatrix4646"
         in="fbSourceGraphic"
         values="1 0 0 0 0 0 1 0 0 0 0 0 1 0 0 -0.2125 -0.7154 -0.0721 1 0 "
         result="colormatrix1" />
      <feGaussianBlur
         id="feGaussianBlur4648"
         in="colormatrix1"
         stdDeviation="3 3"
         result="blur" />
      <feColorMatrix
         id="feColorMatrix4650"
         in="blur"
         values="1 0 0 0 0 0 1 0 0 0 0 0 1 0 0 0 0 0 6 -2 "
         result="colormatrix2" />
      <feBlend
         id="feBlend4652"
         in2="flood"
         in="colormatrix2"
         mode="normal"
         result="blend" />
      <feComposite
         id="feComposite4654"
         in2="blend"
         in="blend"
         operator="arithmetic"
         k2="1"
         result="composite1" />
      <feComposite
         id="feComposite4656"
         in2="fbSourceGraphic"
         operator="in"
         result="fbSourceGraphic" />
      <feColorMatrix
         result="fbSourceGraphicAlpha"
         in="fbSourceGraphic"
         values="0 0 0 -1 0 0 0 0 -1 0 0 0 0 -1 0 0 0 0 1 0"
         id="feColorMatrix4658" />
      <feFlood
         id="feFlood4660"
         flood-opacity="1"
         flood-color="rgb(255,255,255)"
         result="flood"
         in="fbSourceGraphic" />
      <feColorMatrix
         id="feColorMatrix4662"
         in="fbSourceGraphic"
         values="1 0 0 0 0 0 1 0 0 0 0 0 1 0 0 -0.2125 -0.7154 -0.0721 1 0 "
         result="colormatrix1" />
      <feGaussianBlur
         id="feGaussianBlur4664"
         in="colormatrix1"
         stdDeviation="3 3"
         result="blur" />
      <feColorMatrix
         id="feColorMatrix4666"
         in="blur"
         values="1 0 0 0 0 0 1 0 0 0 0 0 1 0 0 0 0 0 6 -2 "
         result="colormatrix2" />
      <feBlend
         id="feBlend4668"
         in2="flood"
         in="colormatrix2"
         mode="normal"
         result="blend" />
      <feComposite
         id="feComposite4670"
         in2="blend"
         in="blend"
         operator="arithmetic"
         k2="1"
         result="composite1" />
      <feComposite
         id="feComposite4672"
         in2="fbSourceGraphic"
         operator="in"
         result="fbSourceGraphic" />
      <feColorMatrix
         result="fbSourceGraphicAlpha"
         in="fbSourceGraphic"
         values="0 0 0 -1 0 0 0 0 -1 0 0 0 0 -1 0 0 0 0 1 0"
         id="feColorMatrix4674" />
      <feFlood
         id="feFlood4676"
         flood-opacity="1"
         flood-color="rgb(255,255,255)"
         result="flood"
         in="fbSourceGraphic" />
      <feColorMatrix
         id="feColorMatrix4678"
         in="fbSourceGraphic"
         values="1 0 0 0 0 0 1 0 0 0 0 0 1 0 0 -0.2125 -0.7154 -0.0721 1 0 "
         result="colormatrix1" />
      <feGaussianBlur
         id="feGaussianBlur4680"
         in="colormatrix1"
         stdDeviation="11.34 3"
         result="blur" />
      <feColorMatrix
         id="feColorMatrix4682"
         in="blur"
         values="1 0 0 0 0 0 1 0 0 0 0 0 1 0 0 0 0 0 6 -2 "
         result="colormatrix2" />
      <feBlend
         id="feBlend4684"
         in2="flood"
         in="colormatrix2"
         mode="normal"
         result="blend" />
      <feComposite
         id="feComposite4686"
         in2="blend"
         in="blend"
         operator="arithmetic"
         k2="1"
         result="composite1" />
      <feComposite
         id="feComposite4688"
         in2="fbSourceGraphic"
         operator="in" />
    </filter>
    <linearGradient
       id="linearGradient3205"
       inkscape:collect="always">
      <stop
         id="stop3207"
         offset="0"
         style="stop-color:#ffffff;stop-opacity:1;" />
      <stop
         id="stop3209"
         offset="1"
         style="stop-color:#ffffff;stop-opacity:0;" />
    </linearGradient>
    <linearGradient
       id="linearGradient3155">
      <stop
         id="stop3157"
         offset="0"
         style="stop-color:#ff0000;stop-opacity:1;" />
      <stop
         style="stop-color:#e98800;stop-opacity:1;"
         offset="0.08986767"
         id="stop3163" />
      <stop
         id="stop3165"
         offset="0.25595695"
         style="stop-color:#ffff00;stop-opacity:1;" />
      <stop
         style="stop-color:#42ff00;stop-opacity:1;"
         offset="0.42204621"
         id="stop3167" />
      <stop
         id="stop3169"
         offset="0.64345068"
         style="stop-color:#29942e;stop-opacity:1;" />
      <stop
         style="stop-color:#528be0;stop-opacity:1;"
         offset="0.83373404"
         id="stop3171" />
      <stop
         id="stop3173"
         offset="1"
         style="stop-color:#460db7;stop-opacity:1;" />
    </linearGradient>
    <inkscape:perspective
       id="perspective10-3"
       inkscape:persp3d-origin="372.04724 : 350.78739 : 1"
       inkscape:vp_z="744.09448 : 526.18109 : 1"
       inkscape:vp_y="0 : 1000 : 0"
       inkscape:vp_x="0 : 526.18109 : 1"
       sodipodi:type="inkscape:persp3d" />
    <linearGradient
       gradientUnits="userSpaceOnUse"
       y2="31.247843"
       x2="22.058985"
       y1="-0.66034907"
       x1="0.75033534"
       id="linearGradient3185"
       xlink:href="#linearGradient3205"
       inkscape:collect="always" />
    <linearGradient
       gradientTransform="matrix(-0.42698,-0.87201,0.87201,-0.42698,11.5331,-7.26288)"
       gradientUnits="userSpaceOnUse"
       xlink:href="#linearGradient700-3"
       id="linearGradient3352"
       y2="-0.473952"
       x2="-16.435499"
       y1="-1.11146"
       x1="-30.512699" />
    <linearGradient
       id="linearGradient700-3">
      <stop
         offset="0"
         style="stop-color:#376796;stop-opacity:1"
         id="stop347-3" />
      <stop
         offset="1"
         style="stop-color:#b0dde2;stop-opacity:1"
         id="stop348-41" />
    </linearGradient>
    <linearGradient
       id="linearGradient4798">
      <stop
         offset="0"
         style="stop-color:#ffffff;stop-opacity:1"
         id="stop4802" />
      <stop
         offset="1"
         style="stop-color:#5eba69;stop-opacity:1"
         id="stop4800" />
    </linearGradient>
    <radialGradient
       gradientTransform="matrix(1.20758,0.0165454,0.27747,1.03554,1573.42,3294.03)"
       gradientUnits="userSpaceOnUse"
       xlink:href="#linearGradient4798"
       id="radialGradient7308"
       fy="-2729.78"
       fx="-293.81201"
       r="9.4159403"
       cy="-2729.78"
       cx="-293.81201" />
    <radialGradient
       gradientTransform="matrix(1.20758,0.0165454,0.27747,1.03554,1400.0145,3362.6719)"
       gradientUnits="userSpaceOnUse"
       xlink:href="#linearGradient4798"
       id="radialGradient3207"
       fy="-2729.78"
       fx="-293.81201"
       r="9.4159403"
       cy="-2729.78"
       cx="-293.81201" />
    <linearGradient
       gradientTransform="matrix(-0.33357813,-0.68125781,0.68125781,-0.33357813,287.45,505.21776)"
       gradientUnits="userSpaceOnUse"
       xlink:href="#linearGradient700-3"
       id="linearGradient3213"
       y2="-0.473952"
       x2="-16.435499"
       y1="-1.11146"
       x1="-30.512699" />
  </defs>
  <sodipodi:namedview
     id="base"
     pagecolor="#ffffff"
     bordercolor="#666666"
     borderopacity="1.0"
     inkscape:pageopacity="0.0"
     inkscape:pageshadow="2"
     inkscape:zoom="4.1805975"
     inkscape:cx="35.585183"
     inkscape:cy="7.4630599"
     inkscape:document-units="px"
     inkscape:current-layer="layer2"
     showgrid="false"
     inkscape:window-width="1920"
     inkscape:window-height="1025"
     inkscape:window-x="-2"
     inkscape:window-y="32"
     inkscape:window-maximized="1" />
  <metadata
     id="metadata7">
    <rdf:RDF>
      <cc:Work
         rdf:about="">
        <dc:format>image/svg+xml</dc:format>
        <dc:type
           rdf:resource="http://purl.org/dc/dcmitype/StillImage" />
        <dc:title></dc:title>
      </cc:Work>
    </rdf:RDF>
  </metadata>
  <g
     inkscape:groupmode="layer"
     id="layer2"
     inkscape:label="icono"
     style="display:inline">
    <g
       style="overflow:visible"
       id="g5286"
       transform="matrix(0.36353688,0,0,0.36353688,0.73382139,0.55223478)">
      <path
         id="path5247"
         d="m 120.842,50.368 -4.813,0 c -0.868,0 -1.989,-0.808 -2.266,-1.63 -0.012,-0.032 -3.011,-7.303 -3.011,-7.303 -0.439,-0.888 -0.238,-2.256 0.385,-2.88 l 3.403,-3.403 c 0.972,-0.972 1.507,-2.268 1.507,-3.648 0,-1.379 -0.535,-2.674 -1.507,-3.646 L 101.141,14.46 c -0.971,-0.971 -2.266,-1.506 -3.646,-1.507 -1.381,0 -2.677,0.535 -3.647,1.507 l -3.403,3.403 c -0.612,0.612 -1.974,0.833 -2.749,0.445 -0.033,-0.016 -7.306,-3.023 -7.306,-3.023 -0.935,-0.317 -1.759,-1.43 -1.759,-2.313 l 0,-4.814 C 78.631,5.313 76.317,3 73.474,3 L 54.526,3 c -2.844,0 -5.158,2.313 -5.158,5.158 l 0,4.814 c 0,0.868 -0.808,1.99 -1.63,2.266 -0.032,0.012 -7.303,3.011 -7.303,3.011 -0.888,0.439 -2.257,0.237 -2.879,-0.386 l -3.403,-3.402 c -0.972,-0.972 -2.267,-1.507 -3.647,-1.507 -1.38,0 -2.675,0.536 -3.646,1.507 L 13.46,27.86 c -0.973,0.973 -1.509,2.268 -1.509,3.647 0,1.379 0.536,2.674 1.509,3.646 l 3.403,3.403 c 0.612,0.612 0.833,1.974 0.445,2.749 -0.016,0.033 -3.023,7.306 -3.023,7.306 -0.317,0.934 -1.43,1.758 -2.313,1.758 l -3.567,0 C 5.562,50.368 2,52.682 2,55.526 l 0,18.947 c 0,2.845 2.314,5.158 5.158,5.158 l 4.814,0 c 0.868,0 1.99,0.808 2.265,1.63 0.012,0.032 3.012,7.303 3.012,7.303 0.439,0.887 0.237,2.257 -0.386,2.881 l -3.403,3.402 c -2.011,2.011 -2.011,5.282 0,7.293 l 13.4,13.399 c 0.971,0.972 2.266,1.507 3.646,1.507 1.381,0 2.676,-0.535 3.648,-1.507 l 3.403,-3.403 c 0.612,-0.611 1.974,-0.832 2.749,-0.445 0.033,0.016 7.306,3.023 7.306,3.023 0.934,0.317 1.758,1.43 1.758,2.313 l 0,4.813 c 0,2.844 2.314,5.158 5.158,5.158 l 18.947,0 c 2.844,0 5.157,-2.314 5.157,-5.158 l 0,-4.813 c 0,-0.868 0.809,-1.989 1.631,-2.266 0.032,-0.012 7.303,-3.011 7.303,-3.011 0.889,-0.439 2.256,-0.238 2.88,0.385 l 3.403,3.403 c 0.971,0.972 2.267,1.507 3.646,1.507 1.381,0 2.676,-0.535 3.646,-1.507 l 13.399,-13.399 c 0.972,-0.971 1.507,-2.266 1.507,-3.646 0,-1.379 -0.535,-2.676 -1.507,-3.646 l -3.403,-3.403 c -0.611,-0.612 -0.832,-1.974 -0.445,-2.749 0.016,-0.033 3.023,-7.306 3.023,-7.306 0.317,-0.934 1.43,-1.758 2.313,-1.758 l 4.813,0 c 2.844,0 5.158,-2.313 5.158,-5.158 l 0,-18.947 C 126,52.682 123.686,50.368 120.842,50.368 Z M 64,81.701 c -10.036,0 -18.2,-8.165 -18.2,-18.201 0,-10.036 8.164,-18.2 18.2,-18.2 10.035,0 18.2,8.165 18.2,18.2 0,10.035 -8.165,18.201 -18.2,18.201 z"
         inkscape:connector-curvature="0"
         style="opacity:0.1;fill:#040404" />
      <path
         id="path5249"
         d="m 120.842,50.368 -4.813,0 c -1.299,0 -2.801,-1.081 -3.214,-2.312 -0.023,-0.064 -2.987,-7.239 -2.987,-7.239 -0.61,-1.227 -0.315,-3.05 0.603,-3.969 l 3.403,-3.403 c 0.782,-0.783 1.214,-1.827 1.214,-2.94 0,-1.113 -0.432,-2.157 -1.214,-2.939 L 100.435,14.167 c -0.782,-0.782 -1.826,-1.213 -2.939,-1.214 -1.113,0 -2.157,0.431 -2.939,1.214 l -3.403,3.403 c -0.918,0.917 -2.742,1.213 -3.903,0.633 -0.065,-0.03 -7.24,-2.993 -7.24,-2.993 -1.296,-0.437 -2.377,-1.939 -2.377,-3.238 l 0,-4.814 C 77.631,4.865 75.766,3 73.474,3 L 54.526,3 c -2.293,0 -4.158,1.865 -4.158,4.158 l 0,4.814 c 0,1.299 -1.081,2.801 -2.312,3.214 -0.064,0.024 -7.239,2.987 -7.239,2.987 -1.227,0.61 -3.051,0.314 -3.969,-0.604 l -3.403,-3.402 c -0.783,-0.783 -1.827,-1.214 -2.94,-1.214 -1.113,0 -2.157,0.432 -2.939,1.214 l -13.4,13.399 c -1.621,1.621 -1.621,4.258 0,5.879 l 3.403,3.403 c 0.917,0.918 1.213,2.742 0.633,3.903 -0.03,0.065 -2.994,7.24 -2.994,7.24 -0.437,1.296 -1.938,2.376 -3.237,2.376 l -3.566,0 C 6.113,50.368 3,52.233 3,54.526 l 0,18.947 c 0,2.293 1.865,4.158 4.158,4.158 l 4.814,0 c 1.299,0 2.801,1.08 3.213,2.312 0.024,0.064 2.988,7.239 2.988,7.239 0.61,1.227 0.314,3.05 -0.603,3.969 l -3.403,3.403 c -1.621,1.621 -1.621,4.258 0,5.879 l 13.4,13.399 c 0.782,0.782 1.826,1.214 2.939,1.214 1.114,0 2.158,-0.432 2.94,-1.214 l 3.403,-3.403 c 0.918,-0.917 2.742,-1.213 3.903,-0.633 0.065,0.03 7.24,2.994 7.24,2.994 1.295,0.437 2.376,1.938 2.376,3.237 l 0,4.813 c 0,2.293 1.865,4.158 4.158,4.158 l 18.947,0 c 2.292,0 4.157,-1.865 4.157,-4.158 l 0,-4.813 c 0,-1.299 1.081,-2.801 2.313,-3.214 0.064,-0.023 7.239,-2.987 7.239,-2.987 1.227,-0.61 3.052,-0.315 3.969,0.603 l 3.403,3.403 c 0.782,0.782 1.826,1.214 2.939,1.214 1.113,0 2.157,-0.432 2.939,-1.214 l 13.399,-13.399 c 0.782,-0.782 1.214,-1.826 1.214,-2.939 0,-1.113 -0.432,-2.157 -1.214,-2.939 l -3.403,-3.403 c -0.918,-0.918 -1.213,-2.742 -0.633,-3.903 0.03,-0.065 2.994,-7.24 2.994,-7.24 0.437,-1.295 1.938,-2.376 3.237,-2.376 l 4.813,0 c 2.293,0 4.158,-1.865 4.158,-4.158 l 0,-18.949 C 125,52.233 123.135,50.368 120.842,50.368 Z M 64,81.691 c -9.755,0 -17.692,-7.936 -17.692,-17.691 0,-9.755 7.937,-17.692 17.692,-17.692 9.756,0 17.691,7.937 17.691,17.692 0,9.756 -7.935,17.691 -17.691,17.691 z"
         inkscape:connector-curvature="0"
         style="opacity:0.1;fill:#030303" />
      <path
         id="path5251"
         d="m 120.842,49.446 -4.813,0 c -1.299,0 -2.801,-1.083 -3.214,-2.316 -0.023,-0.064 -2.987,-7.25 -2.987,-7.25 -0.61,-1.229 -0.315,-3.055 0.603,-3.975 l 3.403,-3.409 c 0.782,-0.784 1.214,-1.83 1.214,-2.945 0,-1.114 -0.432,-2.16 -1.214,-2.944 L 100.435,13.186 c -0.782,-0.784 -1.826,-1.216 -2.939,-1.216 -1.113,0 -2.157,0.432 -2.939,1.216 l -3.403,3.408 c -0.918,0.919 -2.742,1.215 -3.903,0.634 -0.065,-0.03 -7.24,-2.998 -7.24,-2.998 -1.296,-0.438 -2.377,-1.942 -2.377,-3.243 l 0,-4.822 C 77.631,3.868 75.766,2 73.474,2 L 54.526,2 c -2.293,0 -4.158,1.868 -4.158,4.165 l 0,4.822 c 0,1.301 -1.081,2.806 -2.312,3.219 -0.064,0.024 -7.239,2.992 -7.239,2.992 -1.227,0.611 -3.051,0.315 -3.969,-0.604 l -3.403,-3.408 c -0.783,-0.784 -1.827,-1.216 -2.94,-1.216 -1.113,0 -2.157,0.433 -2.939,1.216 l -13.4,13.421 c -1.621,1.624 -1.621,4.266 0,5.889 l 3.403,3.409 c 0.917,0.919 1.213,2.746 0.633,3.91 -0.03,0.065 -2.994,7.252 -2.994,7.252 -0.437,1.298 -1.938,2.38 -3.237,2.38 l -3.566,0 C 6.113,49.446 3,51.314 3,53.611 L 3,72.59 c 0,2.296 1.865,4.164 4.158,4.164 l 4.814,0 c 1.299,0 2.801,1.082 3.213,2.316 0.024,0.064 2.988,7.25 2.988,7.25 0.61,1.229 0.314,3.056 -0.603,3.976 l -3.403,3.409 c -1.621,1.623 -1.621,4.266 0,5.889 l 13.4,13.421 c 0.782,0.784 1.826,1.216 2.939,1.216 1.114,0 2.158,-0.432 2.94,-1.216 l 3.403,-3.408 c 0.918,-0.919 2.742,-1.216 3.903,-0.634 0.065,0.029 7.24,2.998 7.24,2.998 1.295,0.438 2.376,1.941 2.376,3.243 l 0,4.821 c 0,2.297 1.865,4.165 4.158,4.165 l 18.947,0 c 2.292,0 4.157,-1.868 4.157,-4.165 l 0,-4.821 c 0,-1.302 1.081,-2.806 2.313,-3.22 0.064,-0.023 7.239,-2.992 7.239,-2.992 1.227,-0.611 3.052,-0.314 3.969,0.604 l 3.403,3.408 c 0.782,0.784 1.826,1.216 2.939,1.216 1.113,0 2.157,-0.432 2.939,-1.216 l 13.399,-13.421 c 0.782,-0.783 1.214,-1.829 1.214,-2.944 0,-1.115 -0.432,-2.161 -1.214,-2.944 l -3.403,-3.409 c -0.918,-0.919 -1.213,-2.747 -0.633,-3.909 0.03,-0.066 2.994,-7.252 2.994,-7.252 0.437,-1.299 1.938,-2.381 3.237,-2.381 l 4.813,0 c 2.293,0 4.158,-1.868 4.158,-4.164 l 0,-18.979 C 125,51.314 123.135,49.446 120.842,49.446 Z M 64,82.191 C 53.417,82.191 44.808,73.582 44.808,63 44.808,52.417 53.417,43.808 64,43.808 c 10.582,0 19.191,8.609 19.191,19.192 0,10.582 -8.609,19.191 -19.191,19.191 z"
         inkscape:connector-curvature="0"
         style="opacity:0.5;fill:#3a3a3d" />
      <path
         id="path5258"
         d="m 120.748,50.389 -4.807,0 c -1.777,0 -3.684,-1.372 -4.25,-3.058 l -2.955,-7.156 c -0.793,-1.584 -0.418,-3.9 0.84,-5.158 l 3.396,-3.397 c 0.574,-0.574 0.891,-1.34 0.891,-2.159 0,-0.818 -0.316,-1.584 -0.891,-2.158 L 99.596,13.927 c -0.572,-0.574 -1.34,-0.89 -2.157,-0.89 -0.818,0 -1.585,0.316 -2.159,0.89 l -3.396,3.397 c -1.258,1.257 -3.574,1.633 -5.165,0.837 l -7.155,-2.956 c -1.68,-0.563 -3.053,-2.469 -3.053,-4.247 l 0,-4.806 C 76.511,4.469 75.142,3.1 73.459,3.1 l -18.917,0 c -1.684,0 -3.053,1.369 -3.053,3.052 l 0,4.806 c 0,1.778 -1.372,3.684 -3.058,4.25 0,0 -7.156,2.956 -7.156,2.956 -1.584,0.792 -3.901,0.417 -5.158,-0.84 L 32.72,13.927 c -0.574,-0.574 -1.34,-0.89 -2.159,-0.89 -0.818,0 -1.584,0.316 -2.158,0.89 L 15.026,27.304 c -1.19,1.19 -1.19,3.126 0,4.316 l 3.397,3.397 c 1.257,1.257 1.633,3.574 0.837,5.165 0,0 -2.956,7.156 -2.956,7.156 -0.563,1.68 -2.468,3.051 -4.247,3.051 l -3.557,0 c -1.659,0 -4.3,1.397 -4.3,3.053 l 0,18.916 c 0,1.684 1.369,3.053 3.052,3.053 l 4.806,0 c 1.778,0 3.684,1.372 4.249,3.059 l 2.957,7.156 c 0.792,1.584 0.417,3.9 -0.84,5.158 l -3.397,3.396 c -1.19,1.19 -1.19,3.127 0,4.316 l 13.377,13.377 c 0.573,0.574 1.34,0.891 2.158,0.891 0.818,0 1.585,-0.316 2.159,-0.891 l 3.397,-3.396 c 1.257,-1.258 3.574,-1.633 5.165,-0.838 0,0 7.156,2.955 7.156,2.955 1.68,0.563 3.051,2.47 3.051,4.248 l 0,4.805 c 0,1.684 1.369,3.053 3.053,3.053 l 18.916,0 c 1.683,0 3.052,-1.369 3.052,-3.053 l 0,-4.805 c 0,-1.778 1.373,-3.686 3.059,-4.25 0,-0.001 7.156,-2.956 7.156,-2.956 1.584,-0.792 3.9,-0.417 5.158,0.841 l 3.396,3.396 c 0.574,0.574 1.341,0.891 2.159,0.891 0.817,0 1.585,-0.316 2.157,-0.891 l 13.377,-13.377 c 0.574,-0.573 0.891,-1.34 0.891,-2.158 0,-0.818 -0.316,-1.584 -0.891,-2.158 l -3.396,-3.396 c -1.258,-1.258 -1.633,-3.575 -0.838,-5.166 l 2.956,-7.155 c 0.563,-1.68 2.47,-3.052 4.247,-3.052 l 4.807,0 c 1.683,0 3.052,-1.369 3.052,-3.053 l 0,-18.916 c -0.001,-1.683 -1.37,-3.053 -3.053,-3.053 z M 64,93.9 C 46.962,93.9 33.1,80.038 33.1,63 33.1,45.962 46.962,32.1 64,32.1 81.038,32.1 94.9,45.962 94.9,63 94.9,80.038 81.038,93.9 64,93.9 Z"
         inkscape:connector-curvature="0"
         style="fill:url(#XMLID_4_)" />
      <path
         id="path5260"
         d="m 64,21 c -24.262,0 -44,19.738 -44,44 0,24.262 19.738,44 44,44 24.262,0 44,-19.738 44,-44 C 108,40.738 88.262,21 64,21 Z m 0,73 C 46.878,94 33,80.122 33,63 33,45.878 46.878,32 64,32 81.122,32 95,45.878 95,63 95,80.122 81.122,94 64,94 Z"
         inkscape:connector-curvature="0"
         style="opacity:0.1;fill:#030303" />
      <path
         id="path5262"
         d="m 64,21.7 c -23.71,0 -43,19.29 -43,43 0,23.71 19.29,43 43,43 23.711,0 43,-19.289 43,-43 0,-23.711 -19.289,-43 -43,-43 z m 0,65.2 C 51.186,86.9 40.8,76.513 40.8,63.699 40.8,50.885 51.186,40.5 64,40.5 c 12.814,0 23.2,10.386 23.2,23.2 0,12.814 -10.386,23.2 -23.2,23.2 z"
         inkscape:connector-curvature="0"
         style="opacity:0.1;fill:#3b3b3e" />
      <path
         id="path5264"
         d="m 64,20 c -23.71,0 -43,19.29 -43,43 0,23.711 19.29,43 43,43 23.711,0 43,-19.289 43,-43 C 107,39.29 87.711,20 64,20 Z m 0,69.9 C 49.142,89.9 37.1,77.857 37.1,63 37.1,48.142 49.142,36.1 64,36.1 78.857,36.1 90.9,48.142 90.9,63 90.9,77.857 78.857,89.9 64,89.9 Z"
         inkscape:connector-curvature="0"
         style="opacity:0.3;fill:#1c1c1e" />
      <path
         id="path5271"
         d="m 64,21.395 c -22.941,0 -41.605,18.664 -41.605,41.605 0,22.941 18.664,41.605 41.605,41.605 22.941,0 41.605,-18.664 41.605,-41.605 C 105.605,40.059 86.941,21.395 64,21.395 Z M 64,93.6 C 47.099,93.6 33.4,79.902 33.4,63 33.4,46.098 47.099,32.4 64,32.4 80.901,32.4 94.6,46.099 94.6,63 94.6,79.901 80.901,93.6 64,93.6 Z"
         inkscape:connector-curvature="0"
         style="fill:url(#XMLID_5_)" />
      <path
         id="path5278"
         d="M 64,32 C 46.879,32 33,45.879 33,63 33,80.121 46.879,94 64,94 81.121,94 95,80.121 95,63 95,45.879 81.121,32 64,32 Z m 0,51.5 C 52.677,83.5 43.5,74.322 43.5,63 43.5,51.677 52.677,42.5 64,42.5 c 11.322,0 20.5,9.177 20.5,20.5 0,11.322 -9.178,20.5 -20.5,20.5 z"
         inkscape:connector-curvature="0"
         style="fill:url(#XMLID_6_)" />
    </g>
  </g>
  <g
     inkscape:label="rueda"
     inkscape:groupmode="layer"
     id="layer1"
     style="display:inline" />
</svg>
