<?xml version="1.0" encoding="UTF-8" standalone="no"?>
<!-- Created with Inkscape (http://www.inkscape.org/) -->

<svg
   xmlns:dc="http://purl.org/dc/elements/1.1/"
   xmlns:cc="http://creativecommons.org/ns#"
   xmlns:rdf="http://www.w3.org/1999/02/22-rdf-syntax-ns#"
   xmlns:svg="http://www.w3.org/2000/svg"
   xmlns="http://www.w3.org/2000/svg"
   xmlns:xlink="http://www.w3.org/1999/xlink"
   xmlns:sodipodi="http://sodipodi.sourceforge.net/DTD/sodipodi-0.dtd"
   xmlns:inkscape="http://www.inkscape.org/namespaces/inkscape"
   inkscape:output_extension="org.inkscape.output.svg.inkscape"
   sodipodi:docname="settings.svg"
   version="1.0"
   inkscape:version="0.91 r13725"
   sodipodi:version="0.32"
   id="svg2"
   height="48"
   width="48">
  <sodipodi:namedview
     inkscape:window-maximized="1"
     inkscape:window-y="24"
     inkscape:window-x="-2"
     inkscape:window-height="1153"
     inkscape:window-width="1920"
     showgrid="false"
     inkscape:current-layer="layer2"
     inkscape:document-units="px"
     inkscape:cy="-62.103066"
     inkscape:cx="-285.11006"
     inkscape:zoom="0.73903221"
     inkscape:pageshadow="2"
     inkscape:pageopacity="0.0"
     borderopacity="1.0"
     bordercolor="#666666"
     pagecolor="#ffffff"
     id="base"
     showguides="false" />
  <defs
     id="defs4">
    <linearGradient
       id="linearGradient3367">
      <stop
         id="stop3369"
         offset="0"
         style="stop-color:#000000;stop-opacity:1" />
      <stop
         style="stop-color:#008f94;stop-opacity:1;"
         offset="0.44431007"
         id="stop3371" />
      <stop
         style="stop-color:#08d4dc;stop-opacity:1;"
         offset="1"
         id="stop3373" />
    </linearGradient>
    <linearGradient
       id="linearGradient3124">
      <stop
         style="stop-color:#184c4e;stop-opacity:1;"
         offset="0"
         id="stop3126" />
      <stop
         id="stop3128"
         offset="0.62318391"
         style="stop-color:#008f94;stop-opacity:1;" />
      <stop
         id="stop3130"
         offset="1"
         style="stop-color:#08d4dc;stop-opacity:1;" />
    </linearGradient>
    <linearGradient
       id="linearGradient3358">
      <stop
         style="stop-color:#000000;stop-opacity:1"
         offset="0"
         id="stop3360" />
      <stop
         id="stop3362"
         offset="0.11136102"
         style="stop-color:#008f94;stop-opacity:1;" />
      <stop
         id="stop3364"
         offset="1"
         style="stop-color:#08d4dc;stop-opacity:1;" />
    </linearGradient>
    <linearGradient
       id="linearGradient3336">
      <stop
         style="stop-color:#184c4e;stop-opacity:1;"
         offset="0"
         id="stop3338" />
      <stop
         id="stop3340"
         offset="0.4582659"
         style="stop-color:#008f94;stop-opacity:1;" />
      <stop
         id="stop3342"
         offset="1"
         style="stop-color:#08d4dc;stop-opacity:1;" />
    </linearGradient>
    <linearGradient
       id="linearGradient3300">
      <stop
         id="stop3308"
         offset="0"
         style="stop-color:#184c4e;stop-opacity:1;" />
      <stop
         style="stop-color:#008f94;stop-opacity:1;"
         offset="0.23567311"
         id="stop3322" />
      <stop
         style="stop-color:#08d4dc;stop-opacity:1;"
         offset="1"
         id="stop3304" />
    </linearGradient>
    <inkscape:perspective
       sodipodi:type="inkscape:persp3d"
       inkscape:vp_x="22.834507 : -67.351805 : 1"
       inkscape:vp_y="163.04886 : 71.233252 : 1"
       inkscape:vp_z="-116.10672 : 125.71655 : 1"
       inkscape:persp3d-origin="188.14303 : 248.03225 : 1"
       id="perspective10" />
    <linearGradient
       id="linearGradient3264">
      <stop
         id="stop3266"
         offset="0"
         style="stop-color:#c9c9c9;stop-opacity:1;" />
      <stop
         style="stop-color:#f8f8f8;stop-opacity:1;"
         offset="0.25"
         id="stop3276" />
      <stop
         style="stop-color:#e2e2e2;stop-opacity:1;"
         offset="0.5"
         id="stop3272" />
      <stop
         id="stop3274"
         offset="0.75"
         style="stop-color:#b0b0b0;stop-opacity:1;" />
      <stop
         id="stop3268"
         offset="1"
         style="stop-color:#c9c9c9;stop-opacity:1;" />
    </linearGradient>
    <inkscape:perspective
       id="perspective22"
       inkscape:persp3d-origin="24 : 16 : 1"
       inkscape:vp_z="48 : 24 : 1"
       inkscape:vp_y="0 : 1000 : 0"
       inkscape:vp_x="0 : 24 : 1"
       sodipodi:type="inkscape:persp3d" />
    <inkscape:perspective
       id="perspective2478"
       inkscape:persp3d-origin="372.04724 : 350.78739 : 1"
       inkscape:vp_z="744.09448 : 526.18109 : 1"
       inkscape:vp_y="6.1230318e-14 : 1000 : 0"
       inkscape:vp_x="0 : 526.18109 : 1"
       sodipodi:type="inkscape:persp3d" />
    <inkscape:path-effect
       teeth="10"
       id="path-effect3585"
       effect="gears" />
    <inkscape:path-effect
       teeth="10"
       id="path-effect3587"
       effect="gears" />
    <inkscape:path-effect
       prop_scale="1"
       id="path-effect3589"
       effect="skeletal" />
    <inkscape:path-effect
       prop_scale="1.04"
       id="path-effect3591"
       effect="bend_path" />
    <marker
       style="overflow:visible"
       id="Arrow2Sstart"
       refX="0"
       refY="0"
       orient="auto"
       inkscape:stockid="Arrow2Sstart">
      <path
         transform="matrix(0.3,0,0,0.3,-0.69,0)"
         d="M 8.7185878,4.0337352 L -2.2072895,0.016013256 L 8.7185884,-4.0017078 C 6.97309,-1.6296469 6.9831476,1.6157441 8.7185878,4.0337352 z"
         style="font-size:12px;fill-rule:evenodd;stroke-width:0.625;stroke-linejoin:round"
         id="path3703" />
    </marker>
    <marker
       orient="auto"
       refY="0"
       refX="0"
       id="RazorWire"
       inkscape:stockid="RazorWire">
       style=&quot;overflow:visible&quot;&gt;
      <path
   d="M 0.022727273,-0.74009011 L 0.022727273,0.69740989 L -7.7585227,3.0099099 L 10.678977,3.0099099 L 3.4914773,0.69740989 L 3.4914773,-0.74009011 L 10.741477,-2.8963401 L -7.7272727,-2.8963401 L 0.022727273,-0.74009011 z"
   style="fill:#808080;fill-opacity:1;fill-rule:evenodd;stroke:#000000;stroke-width:0.1pt"
   transform="scale(0.8,0.8)"
   id="path3906" />
</marker>
    <marker
       style="overflow:visible"
       id="Arrow1Send"
       refX="0"
       refY="0"
       orient="auto"
       inkscape:stockid="Arrow1Send">
      <path
         transform="matrix(-0.2,0,0,-0.2,-1.2,0)"
         style="fill-rule:evenodd;stroke:#000000;stroke-width:1pt;marker-start:none"
         d="M 0,0 L 5,-5 L -12.5,0 L 5,5 L 0,0 z"
         id="path3688" />
    </marker>
    <linearGradient
       id="linearGradient3199">
      <stop
         id="stop3201"
         offset="0"
         style="stop-color:#868686;stop-opacity:1;" />
      <stop
         id="stop3203"
         offset="1"
         style="stop-color:#ffffff;stop-opacity:1;" />
    </linearGradient>
    <inkscape:perspective
       id="perspective2712"
       inkscape:persp3d-origin="372.04724 : 350.78739 : 1"
       inkscape:vp_z="744.09448 : 526.18109 : 1"
       inkscape:vp_y="6.1230318e-14 : 1000 : 0"
       inkscape:vp_x="0 : 526.18109 : 1"
       sodipodi:type="inkscape:persp3d" />
    <inkscape:path-effect
       teeth="10"
       id="path-effect2710"
       effect="gears" />
    <inkscape:path-effect
       teeth="10"
       id="path-effect2708"
       effect="gears" />
    <inkscape:path-effect
       prop_scale="1"
       id="path-effect2706"
       effect="skeletal" />
    <inkscape:path-effect
       prop_scale="1.04"
       id="path-effect2704"
       effect="bend_path" />
    <marker
       style="overflow:visible"
       id="marker2700"
       refX="0"
       refY="0"
       orient="auto"
       inkscape:stockid="Arrow2Sstart">
      <path
         transform="matrix(0.3,0,0,0.3,-0.69,0)"
         d="M 8.7185878,4.0337352 L -2.2072895,0.016013256 L 8.7185884,-4.0017078 C 6.97309,-1.6296469 6.9831476,1.6157441 8.7185878,4.0337352 z"
         style="font-size:12px;fill-rule:evenodd;stroke-width:0.625;stroke-linejoin:round"
         id="path2702" />
    </marker>
    <marker
       orient="auto"
       refY="0"
       refX="0"
       id="marker2696"
       inkscape:stockid="RazorWire">
       style=&quot;overflow:visible&quot;&gt;
      <path
   d="M 0.022727273,-0.74009011 L 0.022727273,0.69740989 L -7.7585227,3.0099099 L 10.678977,3.0099099 L 3.4914773,0.69740989 L 3.4914773,-0.74009011 L 10.741477,-2.8963401 L -7.7272727,-2.8963401 L 0.022727273,-0.74009011 z"
   style="fill:#808080;fill-opacity:1;fill-rule:evenodd;stroke:#000000;stroke-width:0.1pt"
   transform="scale(0.8,0.8)"
   id="path2698" />
</marker>
    <marker
       style="overflow:visible"
       id="marker2692"
       refX="0"
       refY="0"
       orient="auto"
       inkscape:stockid="Arrow1Send">
      <path
         transform="matrix(-0.2,0,0,-0.2,-1.2,0)"
         style="fill-rule:evenodd;stroke:#000000;stroke-width:1pt;marker-start:none"
         d="M 0,0 L 5,-5 L -12.5,0 L 5,5 L 0,0 z"
         id="path2694" />
    </marker>
    <linearGradient
       id="linearGradient3198">
      <stop
         id="stop3200"
         offset="0"
         style="stop-color:#868686;stop-opacity:1;" />
      <stop
         id="stop3202"
         offset="1"
         style="stop-color:#ffffff;stop-opacity:1;" />
    </linearGradient>
    <inkscape:perspective
       id="perspective2672"
       inkscape:persp3d-origin="372.04724 : 350.78739 : 1"
       inkscape:vp_z="744.09448 : 526.18109 : 1"
       inkscape:vp_y="6.1230318e-14 : 1000 : 0"
       inkscape:vp_x="0 : 526.18109 : 1"
       sodipodi:type="inkscape:persp3d" />
    <inkscape:path-effect
       teeth="10"
       id="path-effect2670"
       effect="gears" />
    <inkscape:path-effect
       teeth="10"
       id="path-effect2668"
       effect="gears" />
    <inkscape:path-effect
       prop_scale="1"
       id="path-effect2666"
       effect="skeletal" />
    <inkscape:path-effect
       prop_scale="1.04"
       id="path-effect2664"
       effect="bend_path" />
    <marker
       style="overflow:visible"
       id="marker2660"
       refX="0"
       refY="0"
       orient="auto"
       inkscape:stockid="Arrow2Sstart">
      <path
         transform="matrix(0.3,0,0,0.3,-0.69,0)"
         d="M 8.7185878,4.0337352 L -2.2072895,0.016013256 L 8.7185884,-4.0017078 C 6.97309,-1.6296469 6.9831476,1.6157441 8.7185878,4.0337352 z"
         style="font-size:12px;fill-rule:evenodd;stroke-width:0.625;stroke-linejoin:round"
         id="path2662" />
    </marker>
    <marker
       orient="auto"
       refY="0"
       refX="0"
       id="marker2656"
       inkscape:stockid="RazorWire">
       style=&quot;overflow:visible&quot;&gt;
      <path
   d="M 0.022727273,-0.74009011 L 0.022727273,0.69740989 L -7.7585227,3.0099099 L 10.678977,3.0099099 L 3.4914773,0.69740989 L 3.4914773,-0.74009011 L 10.741477,-2.8963401 L -7.7272727,-2.8963401 L 0.022727273,-0.74009011 z"
   style="fill:#808080;fill-opacity:1;fill-rule:evenodd;stroke:#000000;stroke-width:0.1pt"
   transform="scale(0.8,0.8)"
   id="path2658" />
</marker>
    <marker
       style="overflow:visible"
       id="marker2652"
       refX="0"
       refY="0"
       orient="auto"
       inkscape:stockid="Arrow1Send">
      <path
         transform="matrix(-0.2,0,0,-0.2,-1.2,0)"
         style="fill-rule:evenodd;stroke:#000000;stroke-width:1pt;marker-start:none"
         d="M 0,0 L 5,-5 L -12.5,0 L 5,5 L 0,0 z"
         id="path2654" />
    </marker>
    <linearGradient
       id="linearGradient2646">
      <stop
         id="stop2648"
         offset="0"
         style="stop-color:#868686;stop-opacity:1;" />
      <stop
         id="stop2650"
         offset="1"
         style="stop-color:#ffffff;stop-opacity:1;" />
    </linearGradient>
    <linearGradient
       inkscape:collect="always"
       xlink:href="#linearGradient3199"
       id="linearGradient2707"
       gradientUnits="userSpaceOnUse"
       x1="-482.45612"
       y1="473.16379"
       x2="-361.58667"
       y2="473.16379" />
    <linearGradient
       inkscape:collect="always"
       xlink:href="#linearGradient3199"
       id="linearGradient2709"
       gradientUnits="userSpaceOnUse"
       x1="313.02472"
       y1="84.767693"
       x2="446.75058"
       y2="84.767693" />
    <linearGradient
       inkscape:collect="always"
       xlink:href="#linearGradient3199"
       id="linearGradient2711"
       gradientUnits="userSpaceOnUse"
       x1="-364.76328"
       y1="471.94717"
       x2="-243.89383"
       y2="471.94717" />
    <linearGradient
       inkscape:collect="always"
       xlink:href="#linearGradient3199"
       id="linearGradient2713"
       gradientUnits="userSpaceOnUse"
       x1="-196.22874"
       y1="441.06339"
       x2="46.90115"
       y2="441.06339" />
    <linearGradient
       inkscape:collect="always"
       xlink:href="#linearGradient3199"
       id="linearGradient2715"
       gradientUnits="userSpaceOnUse"
       x1="-482.46341"
       y1="403.97192"
       x2="-361.59396"
       y2="403.97192" />
    <linearGradient
       inkscape:collect="always"
       xlink:href="#linearGradient3199"
       id="linearGradient2717"
       gradientUnits="userSpaceOnUse"
       x1="312.86624"
       y1="11.616987"
       x2="446.5921"
       y2="11.616987" />
    <linearGradient
       inkscape:collect="always"
       xlink:href="#linearGradient3199"
       id="linearGradient2719"
       gradientUnits="userSpaceOnUse"
       x1="-367.11237"
       y1="404.1579"
       x2="-246.24292"
       y2="404.1579" />
    <linearGradient
       id="linearGradient3205"
       inkscape:collect="always">
      <stop
         id="stop3207"
         offset="0"
         style="stop-color:#ffffff;stop-opacity:1;" />
      <stop
         id="stop3209"
         offset="1"
         style="stop-color:#ffffff;stop-opacity:0;" />
    </linearGradient>
    <linearGradient
       id="linearGradient3155">
      <stop
         id="stop3157"
         offset="0"
         style="stop-color:#00f6ff;stop-opacity:1;" />
      <stop
         style="stop-color:#0059e9;stop-opacity:1;"
         offset="0.08986767"
         id="stop3163" />
      <stop
         id="stop3165"
         offset="0.25595695"
         style="stop-color:#0800ff;stop-opacity:1;" />
      <stop
         style="stop-color:#c500ff;stop-opacity:1;"
         offset="0.42204621"
         id="stop3167" />
      <stop
         id="stop3169"
         offset="0.64345068"
         style="stop-color:#94288b;stop-opacity:1;" />
      <stop
         style="stop-color:#dfab52;stop-opacity:1;"
         offset="0.83373404"
         id="stop3171" />
      <stop
         id="stop3173"
         offset="1"
         style="stop-color:#78b70d;stop-opacity:1;" />
    </linearGradient>
    <inkscape:perspective
       id="perspective10-3"
       inkscape:persp3d-origin="372.04724 : 350.78739 : 1"
       inkscape:vp_z="744.09448 : 526.18109 : 1"
       inkscape:vp_y="0 : 1000 : 0"
       inkscape:vp_x="0 : 526.18109 : 1"
       sodipodi:type="inkscape:persp3d" />
    <linearGradient
       gradientUnits="userSpaceOnUse"
       y2="31.247843"
       x2="22.058985"
       y1="-0.66034907"
       x1="0.75033534"
       id="linearGradient3185"
       xlink:href="#linearGradient3205"
       inkscape:collect="always" />
    <linearGradient
       gradientTransform="matrix(-0.42698,-0.87201,0.87201,-0.42698,11.5331,-7.26288)"
       gradientUnits="userSpaceOnUse"
       xlink:href="#linearGradient700-3"
       id="linearGradient3352"
       y2="-0.473952"
       x2="-16.435499"
       y1="-1.11146"
       x1="-30.512699" />
    <linearGradient
       id="linearGradient700-3">
      <stop
         offset="0"
         style="stop-color:#966937;stop-opacity:1"
         id="stop347-3" />
      <stop
         offset="1"
         style="stop-color:#e2b6b0;stop-opacity:1"
         id="stop348-41" />
    </linearGradient>
    <linearGradient
       id="linearGradient4798">
      <stop
         offset="0"
         style="stop-color:#ffffff;stop-opacity:1"
         id="stop4802" />
      <stop
         offset="1"
         style="stop-color:#ba5eab;stop-opacity:1"
         id="stop4800" />
    </linearGradient>
    <radialGradient
       gradientTransform="matrix(1.20758,0.0165454,0.27747,1.03554,1573.42,3294.03)"
       gradientUnits="userSpaceOnUse"
       xlink:href="#linearGradient4798"
       id="radialGradient7308"
       fy="-2729.78"
       fx="-293.81201"
       r="9.4159403"
       cy="-2729.78"
       cx="-293.81201" />
    <radialGradient
       gradientTransform="matrix(1.20758,0.0165454,0.27747,1.03554,1400.0145,3362.6719)"
       gradientUnits="userSpaceOnUse"
       xlink:href="#linearGradient4798"
       id="radialGradient3207"
       fy="-2729.78"
       fx="-293.81201"
       r="9.4159403"
       cy="-2729.78"
       cx="-293.81201" />
    <linearGradient
       gradientTransform="matrix(-0.33357813,-0.68125781,0.68125781,-0.33357813,287.45,505.21776)"
       gradientUnits="userSpaceOnUse"
       xlink:href="#linearGradient700-3"
       id="linearGradient3213"
       y2="-0.473952"
       x2="-16.435499"
       y1="-1.11146"
       x1="-30.512699" />
  </defs>
  <metadata
     id="metadata7">
    <rdf:RDF>
      <cc:Work
         rdf:about="">
        <dc:format>image/svg+xml</dc:format>
        <dc:type
           rdf:resource="http://purl.org/dc/dcmitype/StillImage" />
        <dc:title />
      </cc:Work>
    </rdf:RDF>
  </metadata>
  <g
     inkscape:groupmode="layer"
     id="layer2"
     inkscape:label="icono"
     style="display:inline">
    <path
       style="opacity:0.1;fill:#000107"
       inkscape:connector-curvature="0"
       d="m 44.664345,18.86286 -1.749703,0 c -0.31555,0 -0.723075,-0.293737 -0.823775,-0.592565 -0.0044,-0.01163 -1.094609,-2.65491 -1.094609,-2.65491 -0.159593,-0.32282 -0.08652,-0.820139 0.139962,-1.046986 l 1.237116,-1.237116 c 0.353357,-0.353358 0.54785,-0.824501 0.54785,-1.326182 0,-0.501318 -0.194493,-0.972098 -0.54785,-1.325456 L 37.502305,5.8089781 C 37.149311,5.4559838 36.67853,5.2614915 36.17685,5.261128 c -0.502045,0 -0.973189,0.1944922 -1.325819,0.5478501 l -1.237116,1.237116 C 33.39143,7.2685786 32.896293,7.3489203 32.614552,7.207868 32.602555,7.2020514 29.958551,6.108896 29.958551,6.108896 29.618644,5.9936548 29.31909,5.5890383 29.31909,5.2680352 l 0,-1.7500666 c 0,-1.0342624 -0.841225,-1.8751232 -1.87476,-1.8751232 l -6.888297,0 c -1.033899,0 -1.875123,0.8408608 -1.875123,1.8751232 l 0,1.7500666 c 0,0.31555 -0.293738,0.7234384 -0.592565,0.8237746 -0.01163,0.00436 -2.65491,1.0946095 -2.65491,1.0946095 -0.322821,0.1595927 -0.820503,0.086158 -1.046623,-0.1403252 L 13.149696,5.8093416 C 12.796339,5.4559838 12.325558,5.2614915 11.823877,5.2614915 c -0.50168,0 -0.972461,0.1948558 -1.325455,0.5478501 L 5.6270278,10.680372 c -0.3537214,0.353722 -0.5485772,0.824502 -0.5485772,1.325819 0,0.501318 0.1948558,0.972098 0.5485772,1.325456 l 1.237116,1.237116 c 0.2224846,0.222484 0.3028262,0.717622 0.1617739,0.999363 -0.00582,0.012 -1.098972,2.656 -1.098972,2.656 -0.1152412,0.339543 -0.5198577,0.639098 -0.8408608,0.639098 l -1.296736,0 c -1.0335354,-3.64e-4 -2.3284538,0.840861 -2.3284538,1.87476 l 0,6.887933 c 0,1.034262 0.8412244,1.875123 1.8751233,1.875123 l 1.7500665,0 c 0.31555,0 0.7234384,0.293738 0.8234111,0.592565 0.00436,0.01163 1.094973,2.65491 1.094973,2.65491 0.1595927,0.322457 0.086158,0.820503 -0.1403252,1.04735 l -1.237116,1.236752 c -0.7310727,0.731073 -0.7310727,1.920202 0,2.651275 l 4.8713942,4.87103 c 0.352994,0.353358 0.823775,0.54785 1.325455,0.54785 0.502045,0 0.972825,-0.194492 1.326183,-0.54785 l 1.237116,-1.237116 c 0.222485,-0.222121 0.717622,-0.302462 0.999363,-0.161774 0.012,0.0058 2.656,1.098972 2.656,1.098972 0.339544,0.115242 0.639098,0.519858 0.639098,0.840861 l 0,1.749703 c 0,1.033899 0.841224,1.875123 1.875123,1.875123 l 6.887934,0 c 1.033899,0 1.874759,-0.841224 1.874759,-1.875123 l 0,-1.749703 c 0,-0.31555 0.294102,-0.723075 0.592929,-0.823774 0.01163,-0.0044 2.65491,-1.09461 2.65491,-1.09461 0.323184,-0.159593 0.820139,-0.08652 1.046986,0.139962 l 1.237116,1.237116 c 0.352994,0.353358 0.824138,0.54785 1.325456,0.54785 0.502044,0 0.972824,-0.194492 1.325455,-0.54785 l 4.871031,-4.871031 c 0.353357,-0.352994 0.54785,-0.823774 0.54785,-1.325455 0,-0.501318 -0.194493,-0.972825 -0.54785,-1.325456 L 41.13622,33.795501 c -0.222121,-0.222484 -0.302463,-0.717622 -0.161774,-0.999363 0.0058,-0.012 1.098972,-2.656 1.098972,-2.656 0.115241,-0.339544 0.519857,-0.639098 0.840861,-0.639098 l 1.749703,0 c 1.033898,0 1.875123,-0.840861 1.875123,-1.875123 l 0,-6.887933 c 3.63e-4,-1.033899 -0.840861,-1.875124 -1.87476,-1.875124 z M 24.000182,30.253561 c -3.648456,0 -6.616372,-2.968278 -6.616372,-6.616734 0,-3.648456 2.967916,-6.616372 6.616372,-6.616372 3.648092,0 6.616371,2.968279 6.616371,6.616372 0,3.648092 -2.968279,6.616734 -6.616371,6.616734 z"
       id="path5247" />
    <path
       style="opacity:0.1;fill:#000005"
       inkscape:connector-curvature="0"
       d="m 44.664345,18.86286 -1.749703,0 c -0.472234,0 -1.018267,-0.392983 -1.168407,-0.840497 -0.0084,-0.02327 -1.085885,-2.631643 -1.085885,-2.631643 -0.221758,-0.44606 -0.114514,-1.108788 0.219213,-1.442878 l 1.237116,-1.237116 c 0.284285,-0.28465 0.441333,-0.664182 0.441333,-1.068799 0,-0.404616 -0.157048,-0.784149 -0.441333,-1.068435 L 37.245648,5.7024618 C 36.961362,5.4181759 36.58183,5.2614915 36.177213,5.261128 c -0.404617,0 -0.784149,0.1566844 -1.068435,0.4413338 l -1.237116,1.237116 C 33.537935,7.2729411 32.874844,7.380548 32.452778,7.1696966 32.429148,7.1587905 29.820771,6.0816307 29.820771,6.0816307 29.349627,5.9227651 28.956644,5.3767327 28.956644,4.9044983 l 0,-1.7500665 C 28.955553,2.3208417 28.277557,1.6428454 27.44433,1.6428454 l -6.888297,0 c -0.83359,0 -1.511586,0.6779963 -1.511586,1.5115864 l 0,1.7500665 c 0,0.4722344 -0.392983,1.0182668 -0.840497,1.1684075 -0.02327,0.00872 -2.631644,1.0858847 -2.631644,1.0858847 -0.44606,0.2217575 -1.109151,0.1141506 -1.442878,-0.2195763 L 12.892312,5.7024618 C 12.607663,5.4178124 12.22813,5.261128 11.823514,5.261128 c -0.404617,0 -0.784149,0.1570479 -1.068435,0.4413338 L 5.8836848,10.573492 c -0.5892933,0.589294 -0.5892933,1.54794 0,2.137234 l 1.237116,1.237116 c 0.3333634,0.333727 0.4409703,0.996818 0.2301189,1.418884 -0.010906,0.02363 -1.0884294,2.632007 -1.0884294,2.632007 -0.1588657,0.471144 -0.7045345,0.863764 -1.1767689,0.863764 l -1.2963725,0 c -0.8332266,3.63e-4 -1.9649169,0.67836 -1.9649169,1.51195 l 0,6.887933 c 0,0.83359 0.6779963,1.511586 1.5115864,1.511586 l 1.7500665,0 c 0.4722344,0 1.0182668,0.39262 1.168044,0.840498 0.00872,0.02327 1.0862482,2.631643 1.0862482,2.631643 0.2217575,0.44606 0.1141506,1.108788 -0.2192127,1.442878 l -1.237116,1.237116 c -0.5892933,0.589293 -0.5892933,1.54794 0,2.137233 l 4.8713946,4.871031 c 0.284285,0.284286 0.663818,0.441334 1.068434,0.441334 0.404981,0 0.784513,-0.157048 1.068799,-0.441334 l 1.237116,-1.237116 c 0.333727,-0.333363 0.996818,-0.44097 1.418884,-0.230119 0.02363,0.01091 2.632007,1.088429 2.632007,1.088429 0.470781,0.158866 0.863764,0.704535 0.863764,1.176769 l 0,1.749703 c 0,0.83359 0.677996,1.511587 1.511586,1.511587 l 6.887934,0 c 0.833226,0 1.511222,-0.677997 1.511222,-1.511587 l 0,-1.749703 c 0,-0.472234 0.392984,-1.018266 0.840861,-1.168407 0.02327,-0.0084 2.631644,-1.085885 2.631644,-1.085885 0.446059,-0.221757 1.109514,-0.114514 1.442878,0.219213 l 1.237116,1.237116 c 0.284285,0.284286 0.663818,0.441334 1.068434,0.441334 0.404617,0 0.784149,-0.157048 1.068435,-0.441334 l 4.871031,-4.871031 c 0.284286,-0.284286 0.441334,-0.663818 0.441334,-1.068435 0,-0.404616 -0.157048,-0.784149 -0.441334,-1.068435 l -1.237116,-1.237116 c -0.333727,-0.333726 -0.44097,-0.996818 -0.230119,-1.418884 0.01091,-0.02363 1.08843,-2.632007 1.08843,-2.632007 0.158865,-0.47078 0.704534,-0.863764 1.176768,-0.863764 l 1.749703,0 c 0.83359,0 1.511587,-0.677996 1.511587,-1.511586 l 0,-6.88866 c 0.0011,-0.83359 -0.676906,-1.511587 -1.510496,-1.511587 z M 24.000182,30.249926 c -3.546303,0 -6.431695,-2.885029 -6.431695,-6.431331 0,-3.546302 2.885392,-6.431694 6.431695,-6.431694 3.546666,0 6.431331,2.885392 6.431331,6.431694 0,3.546666 -2.884665,6.431331 -6.431331,6.431331 z"
       id="path5249" />
    <path
       style="opacity:0.718;fill:#211262"
       inkscape:connector-curvature="0"
       d="m 44.664345,18.527679 -1.749703,0 c -0.472234,0 -1.018267,-0.39371 -1.168407,-0.841951 -0.0084,-0.02327 -1.085885,-2.635642 -1.085885,-2.635642 -0.221758,-0.446787 -0.114514,-1.110606 0.219213,-1.44506 l 1.237116,-1.239297 c 0.284285,-0.285013 0.441333,-0.665272 0.441333,-1.070616 0,-0.40498 -0.157048,-0.78524 -0.441333,-1.070252 L 37.245648,5.3458321 C 36.961362,5.0608192 36.58183,4.9037712 36.177213,4.9037712 c -0.404617,0 -0.784149,0.157048 -1.068435,0.4420609 L 33.871662,6.5847658 C 33.537935,6.9188562 32.874844,7.0264631 32.452778,6.8152481 32.429148,6.804342 29.820771,5.7253646 29.820771,5.7253646 29.349627,5.5661354 28.956644,5.019376 28.956644,4.5464145 l 0,-1.7529749 C 28.955553,1.9583954 28.277557,1.2793085 27.44433,1.2793085 l -6.888297,0 c -0.83359,0 -1.511586,0.6790869 -1.511586,1.5141311 l 0,1.7529749 c 0,0.4729615 -0.392983,1.0200845 -0.840497,1.1702252 -0.02327,0.00872 -2.631644,1.0877023 -2.631644,1.0877023 -0.44606,0.2221211 -1.109151,0.1145142 -1.442878,-0.2195762 L 12.892312,5.3458321 C 12.607663,5.0608192 12.22813,4.9037712 11.823514,4.9037712 c -0.404617,0 -0.784149,0.1574115 -1.068435,0.4420609 L 5.8836848,10.224861 c -0.5892933,0.590383 -0.5892933,1.550848 0,2.140868 l 1.237116,1.239297 c 0.3333634,0.334091 0.4409703,0.998273 0.2301189,1.42143 -0.010906,0.02363 -1.0884294,2.636369 -1.0884294,2.636369 -0.1588657,0.471871 -0.7045345,0.865218 -1.1767689,0.865218 l -1.2963725,0 C 2.9561223,18.527679 1.824432,19.206766 1.824432,20.04181 l 0,6.899567 c 0,0.834681 0.6779963,1.513767 1.5115864,1.513767 l 1.7500665,0 c 0.4722344,0 1.0182668,0.393347 1.168044,0.841952 0.00872,0.02327 1.0862482,2.635642 1.0862482,2.635642 0.2217575,0.446787 0.1141506,1.110969 -0.2192127,1.445423 l -1.237116,1.239297 c -0.5892933,0.59002 -0.5892933,1.550848 0,2.140869 l 4.8713946,4.879028 c 0.284285,0.285013 0.663818,0.442061 1.068434,0.442061 0.404981,0 0.784513,-0.157048 1.068799,-0.442061 l 1.237116,-1.238933 c 0.333727,-0.334091 0.996818,-0.442061 1.418884,-0.230483 0.02363,0.01054 2.632007,1.089884 2.632007,1.089884 0.470781,0.159229 0.863764,0.705625 0.863764,1.17895 l 0,1.752611 c 0,0.835044 0.677996,1.514131 1.511586,1.514131 l 6.887934,0 c 0.833226,0 1.511222,-0.679087 1.511222,-1.514131 l 0,-1.752611 c 0,-0.473325 0.392984,-1.020085 0.840861,-1.170589 0.02327,-0.0084 2.631644,-1.087702 2.631644,-1.087702 0.446059,-0.222121 1.109514,-0.114151 1.442878,0.219576 l 1.237116,1.238934 c 0.284285,0.285013 0.663818,0.442061 1.068434,0.442061 0.404617,0 0.784149,-0.157048 1.068435,-0.442061 l 4.871031,-4.879029 c 0.284286,-0.284649 0.441334,-0.664909 0.441334,-1.070252 0,-0.405344 -0.157048,-0.785604 -0.441334,-1.070253 l -1.237116,-1.239297 c -0.333727,-0.33409 -0.44097,-0.998636 -0.230119,-1.421066 0.01091,-0.02399 1.08843,-2.636369 1.08843,-2.636369 0.158865,-0.472235 0.704534,-0.865582 1.176768,-0.865582 l 1.749703,0 c 0.83359,0 1.511587,-0.679086 1.511587,-1.513767 l 0,-6.899567 c 0.0011,-0.835044 -0.676906,-1.514131 -1.510496,-1.514131 z M 24.000182,30.431694 c -3.847311,0 -6.977,-3.129689 -6.977,-6.976636 0,-3.847311 3.129689,-6.977 6.977,-6.977 3.846947,0 6.976636,3.129689 6.976636,6.977 0,3.846947 -3.129689,6.976636 -6.976636,6.976636 z"
       id="path5251" />
    <path
       style="fill:url(#XMLID_4_-980-358-897-445)"
       inkscape:connector-curvature="0"
       d="m 44.630173,18.870495 -1.747522,0 c -0.646005,0 -1.33927,-0.498773 -1.545032,-1.111696 l -1.074251,-2.60147 c -0.288285,-0.575842 -0.151959,-1.417794 0.305371,-1.875123 l 1.234571,-1.234935 c 0.20867,-0.20867 0.323911,-0.487139 0.323911,-0.784876 0,-0.297373 -0.114877,-0.575843 -0.323911,-0.784513 L 36.94064,5.6152129 C 36.732697,5.4065427 36.453501,5.2916651 36.156491,5.2916651 c -0.297373,0 -0.576206,0.1148776 -0.784876,0.3235478 L 34.137044,6.8501477 C 33.679715,7.3071135 32.837763,7.4438034 32.259376,7.1544281 L 29.65827,6.079813 C 29.047528,5.8751418 28.548392,5.1822405 28.548392,4.5358719 l 0,-1.7471582 c 0,-0.6118326 -0.497682,-1.1095146 -1.109515,-1.1095146 l -6.877027,0 c -0.612196,0 -1.109878,0.497682 -1.109878,1.1095146 l 0,1.7471582 c 0,0.6463686 -0.498773,1.3392699 -1.111696,1.5450318 0,0 -2.60147,1.074615 -2.60147,1.074615 -0.575842,0.2879212 -1.418157,0.1515948 -1.875123,-0.305371 L 12.628748,5.6152129 c -0.20867,-0.2086702 -0.487139,-0.3235478 -0.784876,-0.3235478 -0.297373,0 -0.575842,0.1148776 -0.784513,0.3235478 L 6.1963265,10.478246 c -0.4326088,0.432609 -0.4326088,1.136416 0,1.569025 l 1.2349348,1.234935 c 0.4569659,0.456966 0.5936558,1.299281 0.3042804,1.877668 0,0 -1.074615,2.60147 -1.074615,2.60147 -0.2046713,0.610742 -0.897209,1.109151 -1.5439411,1.109151 l -1.2931007,0 c -0.6031077,0 -1.5632086,0.507861 -1.5632086,1.109878 l 0,6.876663 c 0,0.612196 0.497682,1.109878 1.1095145,1.109878 l 1.7471583,0 c 0.6463686,0 1.3392699,0.498773 1.5446682,1.11206 l 1.0749785,2.60147 c 0.2879213,0.575842 0.1515949,1.417793 -0.3053709,1.875123 l -1.2349348,1.234571 c -0.4326089,0.432609 -0.4326089,1.13678 0,1.569025 l 4.8630329,4.863033 c 0.208307,0.20867 0.487139,0.323912 0.784513,0.323912 0.297373,0 0.576205,-0.114878 0.784876,-0.323912 l 1.234934,-1.234571 c 0.456966,-0.457329 1.299281,-0.593656 1.877668,-0.304644 0,0 2.60147,1.074251 2.60147,1.074251 0.610742,0.204672 1.109151,0.897937 1.109151,1.544305 l 0,1.746795 c 0,0.612196 0.497682,1.109878 1.109878,1.109878 l 6.876664,0 c 0.611833,0 1.109515,-0.497682 1.109515,-1.109878 l 0,-1.746795 c 0,-0.646368 0.499136,-1.339997 1.112059,-1.545032 0,-3.63e-4 2.60147,-1.074615 2.60147,-1.074615 0.575842,-0.287921 1.417794,-0.151594 1.875123,0.305735 l 1.234571,1.234571 c 0.20867,0.20867 0.487503,0.323912 0.784876,0.323912 0.29701,0 0.576206,-0.114878 0.784149,-0.323912 l 4.863033,-4.863033 c 0.208671,-0.208306 0.323912,-0.487139 0.323912,-0.784512 0,-0.297373 -0.114878,-0.575843 -0.323912,-0.784513 l -1.234571,-1.234571 c -0.457329,-0.45733 -0.593656,-1.299644 -0.304644,-1.878032 l 1.074615,-2.601106 c 0.204671,-0.610742 0.897936,-1.109515 1.543941,-1.109515 l 1.747522,0 c 0.611833,0 1.109515,-0.497682 1.109515,-1.109878 l 0,-6.876663 C 45.739687,19.36854 45.242005,18.870495 44.630173,18.870495 Z M 24.000182,34.688348 c -6.193942,0 -11.23329,-5.039348 -11.23329,-11.23329 0,-6.193941 5.039348,-11.233289 11.23329,-11.233289 6.193941,0 11.233289,5.039348 11.233289,11.233289 0,6.193942 -5.039348,11.23329 -11.233289,11.23329 z"
       id="path5258" />
    <path
       style="opacity:0.1;fill:#020203"
       inkscape:connector-curvature="0"
       d="m 24.000182,8.1865093 c -8.820132,0 -15.995623,7.1754907 -15.995623,15.9956227 0,8.820132 7.175491,15.995623 15.995623,15.995623 8.820131,0 15.995622,-7.175491 15.995622,-15.995623 0,-8.820132 -7.175491,-15.9956227 -15.995622,-15.9956227 z m 0,26.5381927 c -6.224479,0 -11.269644,-5.045165 -11.269644,-11.269644 0,-6.224478 5.045165,-11.269643 11.269644,-11.269643 6.224478,0 11.269643,5.045165 11.269643,11.269643 0,6.224479 -5.045165,11.269644 -11.269643,11.269644 z"
       id="path5260" />
    <path
       style="opacity:0.533;fill:#729fcf;stroke:#5c3566"
       inkscape:connector-curvature="0"
       d="m 24.000182,8.4409851 c -8.61946,0 -15.6320861,7.0126259 -15.6320861,15.6320859 0,8.619459 7.0126261,15.632086 15.6320861,15.632086 8.619823,0 15.632086,-7.012263 15.632086,-15.632086 0,-8.619823 -7.012263,-15.6320859 -15.632086,-15.6320859 z m 0,23.7026049 c -4.658362,0 -8.434056,-3.776058 -8.434056,-8.43442 0,-4.658361 3.775694,-8.433692 8.434056,-8.433692 4.658361,0 8.434055,3.775694 8.434055,8.434056 0,4.658362 -3.775694,8.434056 -8.434055,8.434056 z"
       id="path5262" />
    <path
       style="fill:url(#XMLID_5_-513-392-285-471)"
       inkscape:connector-curvature="0"
       d="m 24.000182,8.3301063 c -8.3399,0 -15.1249522,6.7850527 -15.1249522,15.1249517 0,8.3399 6.7850522,15.124952 15.1249522,15.124952 8.339899,0 15.124952,-6.785052 15.124952,-15.124952 0,-8.339899 -6.785053,-15.1249517 -15.124952,-15.1249517 z m 0,26.2491807 c -6.144137,0 -11.124229,-4.979728 -11.124229,-11.124229 0,-6.1445 4.980092,-11.124228 11.124229,-11.124228 6.144137,0 11.124228,4.980091 11.124228,11.124228 0,6.144137 -4.980091,11.124229 -11.124228,11.124229 z"
       id="path5271" />
    <path
       style="fill:url(#XMLID_6_-49-457-680-129)"
       inkscape:connector-curvature="0"
       d="m 24.000182,12.185415 c -6.224115,0 -11.269644,5.045528 -11.269644,11.269643 0,6.224115 5.045529,11.269644 11.269644,11.269644 6.224115,0 11.269643,-5.045529 11.269643,-11.269644 0,-6.224115 -5.045528,-11.269643 -11.269643,-11.269643 z m 0,18.722149 c -4.116328,0 -7.452506,-3.336541 -7.452506,-7.452506 0,-4.116328 3.336178,-7.452506 7.452506,-7.452506 4.115964,0 7.452506,3.336178 7.452506,7.452506 0,4.115965 -3.336542,7.452506 -7.452506,7.452506 z"
       id="path5278" />
  </g>
  <g
     inkscape:label="rueda"
     inkscape:groupmode="layer"
     id="layer1"
     style="display:inline" />
</svg>
