<?xml version="1.0" encoding="UTF-8" standalone="no"?>
<!-- Created with Inkscape (http://www.inkscape.org/) -->

<svg
   xmlns:dc="http://purl.org/dc/elements/1.1/"
   xmlns:cc="http://creativecommons.org/ns#"
   xmlns:rdf="http://www.w3.org/1999/02/22-rdf-syntax-ns#"
   xmlns:svg="http://www.w3.org/2000/svg"
   xmlns="http://www.w3.org/2000/svg"
   xmlns:xlink="http://www.w3.org/1999/xlink"
   xmlns:sodipodi="http://sodipodi.sourceforge.net/DTD/sodipodi-0.dtd"
   xmlns:inkscape="http://www.inkscape.org/namespaces/inkscape"
   width="48"
   height="48"
   id="svg2"
   sodipodi:version="0.32"
   inkscape:version="0.48.5 r10040"
   version="1.0"
   sodipodi:docname="show_channels.svg"
   inkscape:output_extension="org.inkscape.output.svg.inkscape">
  <defs
     id="defs4">
    <linearGradient
       id="linearGradient3358">
      <stop
         style="stop-color:#4e1818;stop-opacity:1;"
         offset="0"
         id="stop3360" />
      <stop
         id="stop3362"
         offset="0.37978989"
         style="stop-color:#940000;stop-opacity:1;" />
      <stop
         id="stop3364"
         offset="1"
         style="stop-color:#dc0808;stop-opacity:1;" />
    </linearGradient>
    <linearGradient
       id="linearGradient3336">
      <stop
         style="stop-color:#4e1818;stop-opacity:1;"
         offset="0"
         id="stop3338" />
      <stop
         id="stop3340"
         offset="0.4582659"
         style="stop-color:#940000;stop-opacity:1;" />
      <stop
         id="stop3342"
         offset="1"
         style="stop-color:#dc0808;stop-opacity:1;" />
    </linearGradient>
    <linearGradient
       id="linearGradient3300">
      <stop
         id="stop3308"
         offset="0"
         style="stop-color:#4e1818;stop-opacity:1;" />
      <stop
         style="stop-color:#940000;stop-opacity:1;"
         offset="0.69562352"
         id="stop3322" />
      <stop
         style="stop-color:#dc0808;stop-opacity:1;"
         offset="1"
         id="stop3304" />
    </linearGradient>
    <inkscape:perspective
       sodipodi:type="inkscape:persp3d"
       inkscape:vp_x="22.834507 : -67.351805 : 1"
       inkscape:vp_y="163.04886 : 71.233252 : 1"
       inkscape:vp_z="-116.10672 : 125.71655 : 1"
       inkscape:persp3d-origin="188.14303 : 248.03225 : 1"
       id="perspective10" />
    <linearGradient
       id="linearGradient3256"
       inkscape:collect="always">
      <stop
         id="stop3258"
         offset="0"
         style="stop-color:#000000;stop-opacity:1;" />
      <stop
         id="stop3260"
         offset="1"
         style="stop-color:#000000;stop-opacity:0;" />
    </linearGradient>
    <linearGradient
       id="linearGradient3264">
      <stop
         id="stop3266"
         offset="0"
         style="stop-color:#c9c9c9;stop-opacity:1;" />
      <stop
         style="stop-color:#f8f8f8;stop-opacity:1;"
         offset="0.25"
         id="stop3276" />
      <stop
         style="stop-color:#e2e2e2;stop-opacity:1;"
         offset="0.5"
         id="stop3272" />
      <stop
         id="stop3274"
         offset="0.75"
         style="stop-color:#b0b0b0;stop-opacity:1;" />
      <stop
         id="stop3268"
         offset="1"
         style="stop-color:#c9c9c9;stop-opacity:1;" />
    </linearGradient>
    <inkscape:perspective
       id="perspective22"
       inkscape:persp3d-origin="24 : 16 : 1"
       inkscape:vp_z="48 : 24 : 1"
       inkscape:vp_y="0 : 1000 : 0"
       inkscape:vp_x="0 : 24 : 1"
       sodipodi:type="inkscape:persp3d" />
    <radialGradient
       inkscape:collect="always"
       xlink:href="#linearGradient3300"
       id="radialGradient3312"
       cx="-34.558239"
       cy="72.334976"
       fx="-34.558243"
       fy="72.334976"
       r="19.700615"
       gradientTransform="matrix(0.8934483,5.9856281e-2,-3.6923127e-2,0.8453347,56.086036,-36.443912)"
       gradientUnits="userSpaceOnUse" />
    <radialGradient
       inkscape:collect="always"
       xlink:href="#linearGradient3358"
       id="radialGradient3356"
       cx="19.624994"
       cy="22.15597"
       fx="19.624994"
       fy="22.15597"
       r="19.281645"
       gradientTransform="matrix(0.9764689,0.189603,-5.9049306e-2,0.4664422,4.6843018,8.5793799)"
       gradientUnits="userSpaceOnUse" />
    <radialGradient
       inkscape:collect="always"
       xlink:href="#linearGradient3256"
       id="radialGradient3385"
       gradientUnits="userSpaceOnUse"
       gradientTransform="matrix(1,0,0,0.315315,0,26.81305)"
       cx="25.455845"
       cy="39.161163"
       fx="25.455845"
       fy="39.161163"
       r="19.622213" />
    <inkscape:perspective
       id="perspective2478"
       inkscape:persp3d-origin="372.04724 : 350.78739 : 1"
       inkscape:vp_z="744.09448 : 526.18109 : 1"
       inkscape:vp_y="6.1230318e-14 : 1000 : 0"
       inkscape:vp_x="0 : 526.18109 : 1"
       sodipodi:type="inkscape:persp3d" />
    <inkscape:path-effect
       teeth="10"
       id="path-effect3585"
       effect="gears" />
    <inkscape:path-effect
       teeth="10"
       id="path-effect3587"
       effect="gears" />
    <inkscape:path-effect
       prop_scale="1"
       id="path-effect3589"
       effect="skeletal" />
    <inkscape:path-effect
       prop_scale="1.04"
       id="path-effect3591"
       effect="bend_path" />
    <marker
       style="overflow:visible"
       id="Arrow2Sstart"
       refX="0"
       refY="0"
       orient="auto"
       inkscape:stockid="Arrow2Sstart">
      <path
         transform="matrix(0.3,0,0,0.3,-0.69,0)"
         d="M 8.7185878,4.0337352 L -2.2072895,0.016013256 L 8.7185884,-4.0017078 C 6.97309,-1.6296469 6.9831476,1.6157441 8.7185878,4.0337352 z"
         style="font-size:12px;fill-rule:evenodd;stroke-width:0.625;stroke-linejoin:round"
         id="path3703" />
    </marker>
    <marker
       orient="auto"
       refY="0"
       refX="0"
       id="RazorWire"
       inkscape:stockid="RazorWire">
       style=&quot;overflow:visible&quot;&gt;
      <path
   d="M 0.022727273,-0.74009011 L 0.022727273,0.69740989 L -7.7585227,3.0099099 L 10.678977,3.0099099 L 3.4914773,0.69740989 L 3.4914773,-0.74009011 L 10.741477,-2.8963401 L -7.7272727,-2.8963401 L 0.022727273,-0.74009011 z"
   style="fill:#808080;fill-opacity:1;fill-rule:evenodd;stroke:#000000;stroke-width:0.1pt"
   transform="scale(0.8,0.8)"
   id="path3906" />
</marker>
    <marker
       style="overflow:visible"
       id="Arrow1Send"
       refX="0"
       refY="0"
       orient="auto"
       inkscape:stockid="Arrow1Send">
      <path
         transform="matrix(-0.2,0,0,-0.2,-1.2,0)"
         style="fill-rule:evenodd;stroke:#000000;stroke-width:1pt;marker-start:none"
         d="M 0,0 L 5,-5 L -12.5,0 L 5,5 L 0,0 z"
         id="path3688" />
    </marker>
    <linearGradient
       id="linearGradient3199">
      <stop
         id="stop3201"
         offset="0"
         style="stop-color:#868686;stop-opacity:1;" />
      <stop
         id="stop3203"
         offset="1"
         style="stop-color:#ffffff;stop-opacity:1;" />
    </linearGradient>
    <inkscape:perspective
       id="perspective2712"
       inkscape:persp3d-origin="372.04724 : 350.78739 : 1"
       inkscape:vp_z="744.09448 : 526.18109 : 1"
       inkscape:vp_y="6.1230318e-14 : 1000 : 0"
       inkscape:vp_x="0 : 526.18109 : 1"
       sodipodi:type="inkscape:persp3d" />
    <inkscape:path-effect
       teeth="10"
       id="path-effect2710"
       effect="gears" />
    <inkscape:path-effect
       teeth="10"
       id="path-effect2708"
       effect="gears" />
    <inkscape:path-effect
       prop_scale="1"
       id="path-effect2706"
       effect="skeletal" />
    <inkscape:path-effect
       prop_scale="1.04"
       id="path-effect2704"
       effect="bend_path" />
    <marker
       style="overflow:visible"
       id="marker2700"
       refX="0"
       refY="0"
       orient="auto"
       inkscape:stockid="Arrow2Sstart">
      <path
         transform="matrix(0.3,0,0,0.3,-0.69,0)"
         d="M 8.7185878,4.0337352 L -2.2072895,0.016013256 L 8.7185884,-4.0017078 C 6.97309,-1.6296469 6.9831476,1.6157441 8.7185878,4.0337352 z"
         style="font-size:12px;fill-rule:evenodd;stroke-width:0.625;stroke-linejoin:round"
         id="path2702" />
    </marker>
    <marker
       orient="auto"
       refY="0"
       refX="0"
       id="marker2696"
       inkscape:stockid="RazorWire">
       style=&quot;overflow:visible&quot;&gt;
      <path
   d="M 0.022727273,-0.74009011 L 0.022727273,0.69740989 L -7.7585227,3.0099099 L 10.678977,3.0099099 L 3.4914773,0.69740989 L 3.4914773,-0.74009011 L 10.741477,-2.8963401 L -7.7272727,-2.8963401 L 0.022727273,-0.74009011 z"
   style="fill:#808080;fill-opacity:1;fill-rule:evenodd;stroke:#000000;stroke-width:0.1pt"
   transform="scale(0.8,0.8)"
   id="path2698" />
</marker>
    <marker
       style="overflow:visible"
       id="marker2692"
       refX="0"
       refY="0"
       orient="auto"
       inkscape:stockid="Arrow1Send">
      <path
         transform="matrix(-0.2,0,0,-0.2,-1.2,0)"
         style="fill-rule:evenodd;stroke:#000000;stroke-width:1pt;marker-start:none"
         d="M 0,0 L 5,-5 L -12.5,0 L 5,5 L 0,0 z"
         id="path2694" />
    </marker>
    <linearGradient
       id="linearGradient3198">
      <stop
         id="stop3200"
         offset="0"
         style="stop-color:#868686;stop-opacity:1;" />
      <stop
         id="stop3202"
         offset="1"
         style="stop-color:#ffffff;stop-opacity:1;" />
    </linearGradient>
    <inkscape:perspective
       id="perspective2672"
       inkscape:persp3d-origin="372.04724 : 350.78739 : 1"
       inkscape:vp_z="744.09448 : 526.18109 : 1"
       inkscape:vp_y="6.1230318e-14 : 1000 : 0"
       inkscape:vp_x="0 : 526.18109 : 1"
       sodipodi:type="inkscape:persp3d" />
    <inkscape:path-effect
       teeth="10"
       id="path-effect2670"
       effect="gears" />
    <inkscape:path-effect
       teeth="10"
       id="path-effect2668"
       effect="gears" />
    <inkscape:path-effect
       prop_scale="1"
       id="path-effect2666"
       effect="skeletal" />
    <inkscape:path-effect
       prop_scale="1.04"
       id="path-effect2664"
       effect="bend_path" />
    <marker
       style="overflow:visible"
       id="marker2660"
       refX="0"
       refY="0"
       orient="auto"
       inkscape:stockid="Arrow2Sstart">
      <path
         transform="matrix(0.3,0,0,0.3,-0.69,0)"
         d="M 8.7185878,4.0337352 L -2.2072895,0.016013256 L 8.7185884,-4.0017078 C 6.97309,-1.6296469 6.9831476,1.6157441 8.7185878,4.0337352 z"
         style="font-size:12px;fill-rule:evenodd;stroke-width:0.625;stroke-linejoin:round"
         id="path2662" />
    </marker>
    <marker
       orient="auto"
       refY="0"
       refX="0"
       id="marker2656"
       inkscape:stockid="RazorWire">
       style=&quot;overflow:visible&quot;&gt;
      <path
   d="M 0.022727273,-0.74009011 L 0.022727273,0.69740989 L -7.7585227,3.0099099 L 10.678977,3.0099099 L 3.4914773,0.69740989 L 3.4914773,-0.74009011 L 10.741477,-2.8963401 L -7.7272727,-2.8963401 L 0.022727273,-0.74009011 z"
   style="fill:#808080;fill-opacity:1;fill-rule:evenodd;stroke:#000000;stroke-width:0.1pt"
   transform="scale(0.8,0.8)"
   id="path2658" />
</marker>
    <marker
       style="overflow:visible"
       id="marker2652"
       refX="0"
       refY="0"
       orient="auto"
       inkscape:stockid="Arrow1Send">
      <path
         transform="matrix(-0.2,0,0,-0.2,-1.2,0)"
         style="fill-rule:evenodd;stroke:#000000;stroke-width:1pt;marker-start:none"
         d="M 0,0 L 5,-5 L -12.5,0 L 5,5 L 0,0 z"
         id="path2654" />
    </marker>
    <linearGradient
       id="linearGradient2646">
      <stop
         id="stop2648"
         offset="0"
         style="stop-color:#868686;stop-opacity:1;" />
      <stop
         id="stop2650"
         offset="1"
         style="stop-color:#ffffff;stop-opacity:1;" />
    </linearGradient>
    <linearGradient
       inkscape:collect="always"
       xlink:href="#linearGradient3199"
       id="linearGradient2707"
       gradientUnits="userSpaceOnUse"
       x1="-482.45612"
       y1="473.16379"
       x2="-361.58667"
       y2="473.16379" />
    <linearGradient
       inkscape:collect="always"
       xlink:href="#linearGradient3199"
       id="linearGradient2709"
       gradientUnits="userSpaceOnUse"
       x1="313.02472"
       y1="84.767693"
       x2="446.75058"
       y2="84.767693" />
    <linearGradient
       inkscape:collect="always"
       xlink:href="#linearGradient3199"
       id="linearGradient2711"
       gradientUnits="userSpaceOnUse"
       x1="-364.76328"
       y1="471.94717"
       x2="-243.89383"
       y2="471.94717" />
    <linearGradient
       inkscape:collect="always"
       xlink:href="#linearGradient3199"
       id="linearGradient2713"
       gradientUnits="userSpaceOnUse"
       x1="-196.22874"
       y1="441.06339"
       x2="46.90115"
       y2="441.06339" />
    <linearGradient
       inkscape:collect="always"
       xlink:href="#linearGradient3199"
       id="linearGradient2715"
       gradientUnits="userSpaceOnUse"
       x1="-482.46341"
       y1="403.97192"
       x2="-361.59396"
       y2="403.97192" />
    <linearGradient
       inkscape:collect="always"
       xlink:href="#linearGradient3199"
       id="linearGradient2717"
       gradientUnits="userSpaceOnUse"
       x1="312.86624"
       y1="11.616987"
       x2="446.5921"
       y2="11.616987" />
    <linearGradient
       inkscape:collect="always"
       xlink:href="#linearGradient3199"
       id="linearGradient2719"
       gradientUnits="userSpaceOnUse"
       x1="-367.11237"
       y1="404.1579"
       x2="-246.24292"
       y2="404.1579" />
    <filter
       inkscape:label="Soft colors"
       inkscape:menu="Color"
       inkscape:menu-tooltip="Adds a colorizable edges glow inside objects and pictures"
       height="1"
       width="1"
       x="0"
       y="0"
       color-interpolation-filters="sRGB"
       id="filter4577">
      <feColorMatrix
         type="saturate"
         values="1"
         result="result91"
         id="feColorMatrix4579" />
      <feComposite
         result="result15"
         operator="arithmetic"
         k2="0.4"
         k1="0.3"
         k3="0.3"
         in2="result91"
         id="feComposite4581" />
      <feGaussianBlur
         in="result15"
         result="result8"
         stdDeviation="5"
         id="feGaussianBlur4583" />
      <feComposite
         operator="in"
         result="result13"
         in2="result8"
         id="feComposite4585" />
      <feComposite
         k3="0.3"
         k1="0.3"
         k2="0.4"
         in2="result13"
         operator="arithmetic"
         in="result15"
         result="result6"
         id="feComposite4587" />
      <feFlood
         flood-color="rgb(128,172,0)"
         flood-opacity="1"
         in="result6"
         result="result10"
         id="feFlood4589" />
      <feBlend
         result="result12"
         in2="result10"
         in="result6"
         mode="darken"
         id="feBlend4591" />
      <feBlend
         in2="result6"
         result="result14"
         mode="screen"
         id="feBlend4593" />
      <feComposite
         in="result14"
         in2="SourceGraphic"
         operator="in"
         result="result2"
         id="feComposite4595" />
    </filter>
    <filter
       inkscape:label="Desaturate"
       inkscape:menu="Color"
       inkscape:menu-tooltip="Render in shades of gray by reducing saturation to zero"
       height="1"
       width="1"
       x="0"
       y="0"
       color-interpolation-filters="sRGB"
       id="filter4577-0">
      <feColorMatrix
         type="saturate"
         values="1"
         result="result91"
         id="feColorMatrix4579-9" />
      <feComposite
         k4="0"
         result="result15"
         operator="arithmetic"
         k2="0.4"
         k1="0.3"
         k3="0.3"
         in2="result91"
         id="feComposite4581-5" />
      <feGaussianBlur
         in="result15"
         result="result8"
         stdDeviation="5"
         id="feGaussianBlur4583-0" />
      <feComposite
         operator="in"
         result="result13"
         in2="result8"
         id="feComposite4585-2" />
      <feComposite
         k4="0"
         k3="0.3"
         k1="0.3"
         k2="0.4"
         in2="result13"
         operator="arithmetic"
         in="result15"
         result="result6"
         id="feComposite4587-5" />
      <feFlood
         flood-color="rgb(128,172,0)"
         flood-opacity="1"
         in="result6"
         result="result10"
         id="feFlood4589-9" />
      <feBlend
         result="result12"
         in2="result10"
         in="result6"
         mode="darken"
         id="feBlend4591-8" />
      <feBlend
         in2="result6"
         result="result14"
         mode="screen"
         id="feBlend4593-8" />
      <feComposite
         in="result14"
         in2="SourceGraphic"
         operator="in"
         result="fbSourceGraphic"
         id="feComposite4595-9" />
      <feColorMatrix
         result="fbSourceGraphicAlpha"
         in="fbSourceGraphic"
         values="0 0 0 -1 0 0 0 0 -1 0 0 0 0 -1 0 0 0 0 1 0"
         id="feColorMatrix5279" />
      <feColorMatrix
         id="feColorMatrix5281"
         type="saturate"
         values="0"
         in="fbSourceGraphic" />
    </filter>
    <radialGradient
       inkscape:collect="always"
       xlink:href="#linearGradient3256-6"
       id="radialGradient3385-5"
       gradientUnits="userSpaceOnUse"
       gradientTransform="matrix(1,0,0,0.315315,0,26.81305)"
       cx="25.455845"
       cy="39.161163"
       fx="25.455845"
       fy="39.161163"
       r="19.622213" />
    <linearGradient
       id="linearGradient3256-6"
       inkscape:collect="always">
      <stop
         id="stop3258-8"
         offset="0"
         style="stop-color:#000000;stop-opacity:1;" />
      <stop
         id="stop3260-8"
         offset="1"
         style="stop-color:#000000;stop-opacity:0;" />
    </linearGradient>
    <radialGradient
       r="19.622213"
       fy="39.161163"
       fx="25.455845"
       cy="39.161163"
       cx="25.455845"
       gradientTransform="matrix(1,0,0,0.315315,0,26.81305)"
       gradientUnits="userSpaceOnUse"
       id="radialGradient5240"
       xlink:href="#linearGradient3256-6"
       inkscape:collect="always" />
    <filter
       x="0"
       y="0"
       width="1"
       height="1"
       inkscape:menu-tooltip="Give lead pencil or chromolithography or engraving or other effects to images and material filled objects"
       inkscape:menu="Image effects"
       inkscape:label="Drawing"
       color-interpolation-filters="sRGB"
       id="filter5353">
      <feGaussianBlur
         stdDeviation="0.5"
         result="result8"
         id="feGaussianBlur5355" />
      <feConvolveMatrix
         bias="0"
         result="result0"
         preserveAlpha="true"
         targetY="1"
         targetX="1"
         divisor="1"
         in="result8"
         kernelMatrix="1 1 1 1 -8 1 1 1 1 "
         order="3 3"
         id="feConvolveMatrix5357" />
      <feColorMatrix
         values="0 -6 0 0 1 0 -6 0 0 1 0 -6 0 0 1 0 0 0 1 0 "
         result="result3"
         id="feColorMatrix5359" />
      <feComposite
         k3="0.3"
         k1="1"
         operator="arithmetic"
         in2="result3"
         in="SourceGraphic"
         result="fbSourceGraphic"
         id="feComposite5361" />
      <feGaussianBlur
         stdDeviation="0.01"
         in="fbSourceGraphic"
         result="result7"
         id="feGaussianBlur5363" />
      <feBlend
         in2="result7"
         in="result7"
         mode="multiply"
         id="feBlend5365" />
      <feComposite
         operator="in"
         in2="SourceGraphic"
         id="feComposite5367" />
    </filter>
  </defs>
  <sodipodi:namedview
     id="base"
     pagecolor="#ffffff"
     bordercolor="#666666"
     borderopacity="1.0"
     inkscape:pageopacity="0.0"
     inkscape:pageshadow="2"
     inkscape:zoom="10.489938"
     inkscape:cx="21.890054"
     inkscape:cy="24.429921"
     inkscape:document-units="px"
     inkscape:current-layer="layer1"
     showgrid="false"
     inkscape:window-width="1276"
     inkscape:window-height="969"
     inkscape:window-x="0"
     inkscape:window-y="35"
     inkscape:window-maximized="0" />
  <metadata
     id="metadata7">
    <rdf:RDF>
      <cc:Work
         rdf:about="">
        <dc:format>image/svg+xml</dc:format>
        <dc:type
           rdf:resource="http://purl.org/dc/dcmitype/StillImage" />
        <dc:title />
      </cc:Work>
    </rdf:RDF>
  </metadata>
  <g
     inkscape:label="icono"
     inkscape:groupmode="layer"
     id="layer1"
     style="display:inline">
    <g
       id="g4533"
       transform="matrix(0.27221762,0,0,0.27221762,-37.113421,-6.7800119)"
       style="display:inline;filter:url(#filter5353)">
      <path
         style="fill:#c2bbae;"
         d="m 119.53877,132.86258 c 99.44121,-57.517862 49.7206,-28.75893 0,0 z m 138.0179,21.62122 c -4.88932,-2.14155 -10.06432,-5.01884 -11.5,-6.39397 -1.43569,-1.37513 -4.34877,-3.22642 -6.47352,-4.11399 -2.12474,-0.88757 -5.58714,-2.75462 -7.6942,-4.14901 -3.49709,-2.31427 -4.15243,-2.42919 -7.51813,-1.31841 -6.00606,1.98218 -18.06896,0.82304 -23.96093,-2.30244 -11.49281,-6.09654 -16.22703,-7.72154 -22.65163,-7.77509 -16.08499,-0.13406 -26.18183,-4.01592 -31.5518,-12.1305 -2.52314,-3.81271 -2.78728,-5.12147 -3.11458,-15.43212 -0.3308,-10.420571 -0.16618,-11.664559 2.19342,-16.575432 1.40308,-2.920137 2.79778,-6.50065 3.09933,-7.956695 0.30155,-1.456045 2.0138,-4.473439 3.80499,-6.70532 1.79119,-2.231881 4.49366,-5.883312 6.00549,-8.114291 4.73785,-6.991524 19.31152,-14.943269 31.56842,-17.224486 3.12554,-0.581715 8.1578,-2.239113 11.1828,-3.683106 4.99539,-2.384564 6.50922,-2.610968 16.5,-2.467679 17.14937,0.245958 27.43592,0.897006 34.5,2.183547 3.575,0.651095 7.93907,1.419152 9.69793,1.706794 1.75886,0.287642 5.06394,2.08199 7.34461,3.987441 2.28068,1.90545 4.67262,3.464455 5.31542,3.464455 2.50095,0 11.3465,6.974485 14.11344,11.128079 1.60181,2.404557 5.26672,6.621921 8.14425,9.371921 3.16478,3.024524 5.47136,6.185286 5.83804,8 0.3334,1.65 2.19573,6.15 4.13852,10 3.66434,7.261583 6.37539,16.033282 6.39592,20.694232 0.007,1.48183 -1.05904,3.93924 -2.36792,5.46091 -1.88092,2.18671 -3.50553,2.87968 -7.75,3.30577 -4.68328,0.47013 -5.32565,0.79492 -5.02184,2.53909 1.27482,7.31881 1.21135,10.48383 -0.26756,13.34373 -1.78184,3.44569 -11.66371,10.59725 -17.37549,12.57472 -3.19959,1.10772 -3.78899,1.80501 -4.32783,5.12003 -0.68802,4.23282 -3.87222,7.49191 -7.23827,7.40854 -1.17657,-0.0292 -6.13957,-1.80517 -11.02888,-3.94672 z"
         id="path4545"
         inkscape:connector-curvature="0"
         sodipodi:nodetypes="ccsssssssssssssssssssssssscsssssscs" />
      <path
         style="fill:#b7b1a7;"
         d="m 258.8707,153.59692 c -3.6166,-1.51011 -8.11881,-3.92268 -10.0049,-5.36127 -1.88609,-1.43859 -7.20045,-4.70162 -11.80969,-7.25116 -8.3381,-4.61212 -8.4056,-4.62951 -13.3612,-3.44067 -8.56911,2.05569 -15.94579,0.75009 -28.03989,-4.96282 -9.04864,-4.27431 -11.71321,-5.09753 -16.5,-5.09767 -8.03017,-2.4e-4 -20.88972,-2.63958 -24.8818,-5.10681 -5.47211,-3.38195 -8.35211,-8.01374 -9.37302,-15.07425 -1.44138,-9.968427 -1.11116,-15.881901 1.16258,-20.818772 1.13989,-2.475 2.63037,-6.31082 3.31217,-8.524045 1.1051,-3.58732 3.78521,-7.806557 10.64542,-16.758837 4.9917,-6.51396 20.70922,-14.465113 31.92596,-16.150651 2.475,-0.371918 6.86884,-1.833379 9.76408,-3.247692 6.95593,-3.397938 21.04493,-4.417586 27.47943,-1.98874 3.06183,1.155754 5.27678,1.371739 7.8917,0.769535 1.99937,-0.460444 6.04937,-0.441964 9,0.04107 2.95064,0.483031 8.24294,1.299351 11.76069,1.814044 4.85345,0.710124 7.14449,1.627442 9.5,3.803737 1.70725,1.577362 4.4541,3.43245 6.1041,4.122416 5.57714,2.332148 10.6507,6.483334 14.50879,11.871094 2.11236,2.94987 5.8837,7.161761 8.38075,9.359757 3.29966,2.904477 4.71894,5.006169 5.19467,7.692336 0.36002,2.032789 1.97543,6.043711 3.5898,8.913162 2.75793,4.902055 6.82599,17.326216 6.82599,20.847076 0,0.87427 -1.31538,2.90497 -2.92308,4.51266 -2.53192,2.53192 -3.66936,2.92308 -8.5,2.92308 -3.0673,0 -5.57692,0.23945 -5.57692,0.53212 0,0.29266 0.675,2.14762 1.5,4.12212 1.90048,4.54849 1.89776,7.6759 -0.01,11.36487 -1.65627,3.20286 -11.7137,10.49892 -16.78478,12.17633 -3.82762,1.2661 -5.70534,3.38043 -5.70534,6.42426 0,3.04148 -2.58039,5.3951 -5.82143,5.30983 -1.47321,-0.0387 -5.63761,-1.306 -9.2542,-2.81611 z m 12.07563,-1.23145 c 0,-1.1 -0.36677,-1.77333 -0.81504,-1.49628 -1.54487,0.95478 -11.17784,-2.53743 -12.59999,-4.56784 -0.78382,-1.11907 -1.82008,-1.79058 -2.3028,-1.49224 -0.48271,0.29833 -1.51038,0.15138 -2.2837,-0.32656 -1.19955,-0.74136 -1.20352,-1.24739 -0.0271,-3.44565 1.23458,-2.30683 1.17737,-2.72923 -0.54621,-4.03324 -2.37746,-1.79871 -2.9949,-1.81407 -7.65654,-0.19044 -4.75633,1.65661 -5.52787,2.45804 -3.1618,3.28433 1.04122,0.36362 3.24313,2.166 4.89313,4.00528 2.10615,2.34776 5.9627,4.52331 12.94364,7.30175 5.469,2.17668 10.3065,3.73334 10.75,3.45924 0.4435,-0.27409 0.80636,-1.39835 0.80636,-2.49835 z m -39.73511,-24.1078 c -2.68325,-3.3515 -2.44629,-5.72123 0.87544,-8.75516 l 3.27256,-2.98903 -2.24294,-2.76499 c -1.23362,-1.52075 -2.504,-3.55249 -2.82308,-4.51499 -0.33644,-1.01489 -1.5813,-1.75 -2.9635,-1.75 -2.65472,0 -3.20487,1.47078 -0.88337,2.36162 0.825,0.31659 1.5,1.26473 1.5,2.10699 0,0.84227 -0.675,1.53139 -1.5,1.53139 -2.23453,0 -1.81292,3.76216 0.56418,5.03435 1.65047,0.8833 1.93339,1.70021 1.41162,4.07582 -0.63552,2.89353 1.92897,8.81839 3.2466,7.50076 0.30943,-0.30943 0.10355,-1.13597 -0.45751,-1.83676 z m -36.64041,-7.37486 c 3.61253,-1.37964 4.52551,-2.2793 5.35933,-5.28112 0.55277,-1.99001 1.00755,-4.63069 1.01061,-5.86819 0.004,-1.72899 0.58174,-2.25 2.49376,-2.25 2.13645,0 2.58012,-0.57493 3.13854,-4.06711 0.71816,-4.491129 2.5812,-6.932892 5.28972,-6.932892 0.97547,0 2.55158,-0.859675 3.50246,-1.910388 0.95221,-1.052179 4.95263,-2.692928 8.90499,-3.652332 3.94686,-0.958068 7.49249,-2.228285 7.87919,-2.822703 0.48791,-0.750021 2.07518,-0.57222 5.18674,0.581007 3.85354,1.428223 4.64894,1.462644 5.65955,0.244925 0.91348,-1.10067 0.8718,-1.513025 -0.18675,-1.847857 -2.7879,-0.881847 -13.86262,-1.374395 -13.86262,-0.616539 0,0.432551 -2.13145,1.323161 -4.73655,1.979133 -8.03044,2.022088 -14.13722,5.136956 -17.43516,8.893097 -3.54932,4.042459 -6.74687,4.392599 -12.57829,1.377333 -6.07162,-3.139464 -3.55199,-7.861324 6.75,-12.649722 4.53584,-2.108273 7.07771,-2.573196 14.5,-2.652138 7.11224,-0.07564 8.37075,-0.289907 6,-1.021515 -1.65,-0.509187 -5.7,-0.968111 -9,-1.019832 -11.19993,-0.175536 -29.5,8.89157 -29.5,14.616321 0,0.934335 1.4625,3.068277 3.25,4.742092 1.7875,1.67382 3.10808,3.69658 2.93462,4.49503 -0.24619,1.13322 0.36613,1.30203 2.79096,0.76945 6.8742,-1.50983 8.30421,5.18426 2.34401,10.97273 -3.71132,3.60439 -7.22595,5.15556 -9.60925,4.241 -0.71177,-0.27313 -2.17527,0.18181 -3.25223,1.01098 -1.79642,1.3831 -1.51344,1.45906 3.42698,0.91987 2.9618,-0.32324 7.34453,-1.33602 9.73939,-2.25063 z m -31.37448,-0.0616 c -0.6875,-0.27741 -1.8125,-0.27741 -2.5,0 -0.6875,0.27741 -0.125,0.50439 1.25,0.50439 1.375,0 1.9375,-0.22698 1.25,-0.50439 z m -2.04206,-7.89234 c -1.77485,-0.74627 -3.65797,-2.49885 -4.19081,-3.90031 -0.5322,-1.39979 -1.37252,-2.54507 -1.86738,-2.54507 -0.49487,0 -2.306,-0.28125 -4.02475,-0.625 -3.03293,-0.60659 -3.125,-0.51986 -3.125,2.94329 0,4.98262 2.2151,6.26464 10.07665,5.83202 l 6.35445,-0.34969 z m 23.27253,-1.09518 c -2.4956,-0.63664 -5.53713,-1.87277 -6.75896,-2.74696 -1.22183,-0.87419 -3.25064,-2.33347 -4.50847,-3.24285 -1.25783,-0.90938 -3.93719,-1.69999 -5.95412,-1.75691 -3.04749,-0.086 -3.76702,-0.52592 -4.25812,-2.60348 -0.52458,-2.219155 -3.0008,-3.663233 -3.0008,-1.750002 0,0.412502 0,1.881612 0,3.264702 0,2.88638 4.89747,6.44188 9,6.53388 1.375,0.0308 5.63467,1.32565 9.46592,2.87737 5.51014,2.23169 7.34065,2.58729 8.75896,1.70153 1.55193,-0.96919 1.18288,-1.27542 -2.74441,-2.27728 z m 0.51953,-6.8502 c -0.68469,-0.825 -2.36989,-1.5 -3.74489,-1.5 -2.10884,0 -2.30522,0.23469 -1.25511,1.5 0.68469,0.825 2.36989,1.5 3.74489,1.5 2.10884,0 2.30522,-0.2347 1.25511,-1.5 z m 36.37111,-3.25 c 1.21794,-0.97477 2.02412,-2.55867 1.81987,-3.575478 -0.34696,-1.727233 -0.4686,-1.73326 -2.26008,-0.111988 -1.44062,1.303742 -2.21879,1.44343 -3.25415,0.584152 -1.5933,-1.322318 -2.67675,-0.534382 -2.67675,1.946654 0,0.96801 0.7875,1.96581 1.75,2.21733 0.9625,0.25153 1.90402,0.50953 2.09227,0.57333 0.18825,0.0638 1.32623,-0.6715 2.52884,-1.634 z m -69.61341,-2.879675 c -2.64136,-1.413613 -3.7577,-0.93774 -3.7577,1.601825 0,1.64444 0.33872,1.72627 2.99515,0.72358 2.98321,-1.12604 2.98625,-1.13532 0.76255,-2.325405 z m 101.2423,1.629675 c 0,-0.550002 -0.45,-1.000002 -1,-1.000002 -0.55,0 -1,0.45 -1,1.000002 0,0.55 0.45,1 1,1 0.55,0 1,-0.45 1,-1 z m -75,-6.464818 c 0,-1.55833 -3.79108,-4.077434 -4.72731,-3.141208 -0.30581,0.305809 0.52023,1.452297 1.83565,2.547751 2.90257,2.417215 2.89166,2.414975 2.89166,0.593457 z m 51.72917,0.860649 c -0.3323,-0.332291 -1.1948,-0.367818 -1.91667,-0.07895 -0.79773,0.319226 -0.56078,0.556183 0.60417,0.604167 1.05416,0.04342 1.64479,-0.192928 1.3125,-0.525217 z M 185.94633,84.483498 c 0,-0.55 -0.42344,-1 -0.94098,-1 -0.51754,0 -1.2191,0.45 -1.55902,1 -0.33992,0.55 0.0835,1 0.94098,1 0.85746,0 1.55902,-0.45 1.55902,-1 z m -23,-7.932612 c 0,-2.787291 -3.37218,-3.450925 -7.20002,-1.41694 l -3.29998,1.753498 3,0.679712 c 5.69598,1.290542 7.5,1.046092 7.5,-1.01627 z m 9,-5.567388 c 0,-1.699567 -1.56621,-2.010906 -2.50167,-0.497296 -0.41211,0.666801 -1.26937,0.655015 -2.55902,-0.03518 -2.58037,-1.380975 -2.46506,-2.967524 0.21568,-2.967524 2.09164,0 2.10178,-0.05879 0.34501,-2 -2.34492,-2.591106 -4.0164,-2.528529 -5.9433,0.222506 -2.10285,3.002244 -1.99418,3.476281 1.1933,5.205519 3.70171,2.008212 9.25,2.051384 9.25,0.07197 z m 14.41821,-1.106989 c 2.69757,-1.035152 1.73775,-2.374203 -1.27054,-1.772546 -2.2771,0.455422 -3.27201,0.03693 -4.93339,-2.075183 -1.14459,-1.455107 -2.27443,-3.185566 -2.51077,-3.845466 -0.23634,-0.659899 -0.76988,-0.883745 -1.18565,-0.497435 -0.41578,0.386309 -0.0274,1.430952 0.86309,2.321429 0.89048,0.890476 1.61905,2.171904 1.61905,2.847619 0,2.915194 3.73302,4.435725 7.41821,3.021582 z m 17.83179,-7.445592 c 2.0625,-0.572785 3.75,-1.522759 3.75,-2.111054 0,-0.629296 -0.92625,-0.810204 -2.25,-0.43945 -5.2148,1.460558 -10.50901,1.802038 -11.17716,0.720936 -0.80596,-1.304071 -3.57284,-1.51368 -3.57284,-0.270665 0,1.216199 4.07007,3.006773 7,3.079557 1.375,0.03416 4.1875,-0.406539 6.25,-0.979324 z m -30.25,-3.506436 c 0,-1.650075 -1.58044,-1.928854 -2.5,-0.440983 -0.33992,0.55 -1.60398,1.053242 -2.80902,1.118315 -1.66499,0.08991 -1.47077,0.287153 0.80902,0.821608 3.49887,0.820244 4.5,0.486771 4.5,-1.49894 z m 61.5,-3.440983 c -0.33992,-0.55 -1.06803,-1 -1.61803,-1 -0.55,0 -0.72189,0.45 -0.38197,1 0.33992,0.55 1.06803,1 1.61803,1 0.55,0 0.72189,-0.45 0.38197,-1 z"
         id="path4543"
         inkscape:connector-curvature="0"
         sodipodi:nodetypes="cssssssssssssssssssssssssssscssccccsssscssssscccsscsssssssssssscssssscsssssssssssssssssssssssssssssscsssssssscsssssssssssssssssssssssssssssssssssssssscsssssssssssssssssssssssssssssssssss" />
      <path
         style="fill:#aea697;"
         d="m 270.38746,149.03267 c -1.26295,-0.94395 -3.19383,-1.25786 -5.5267,-0.89849 -3.26491,0.50295 -3.86857,0.19504 -6.75,-3.44307 -1.74044,-2.19748 -3.16443,-4.51551 -3.16443,-5.15117 0,-2.35015 -3.00995,-6.87801 -4.43336,-6.6691 -0.80888,0.11872 -2.27978,0.92138 -3.26867,1.78369 -2.64744,2.30857 -7.35782,2.84938 -10.53001,1.20898 -2.2455,-1.16119 -2.76796,-1.18114 -2.76796,-0.10569 0,0.72912 0.5625,1.91709 1.25,2.63993 0.73079,0.76835 -0.19149,0.58573 -2.2204,-0.43965 -3.08857,-1.56093 -4.16802,-1.61523 -9.81123,-0.49354 -10.22602,2.0326 -17.9328,0.10922 -34.37266,-8.5784 -1.45986,-0.77146 -4.83486,-1.41095 -7.5,-1.42109 -6.66647,-0.0253 -20.78826,-2.62321 -24.9216,-4.58461 -3.60783,-1.71202 -9.42411,-7.66153 -9.42411,-9.63997 0,-0.64537 1.9125,0.66773 4.25,2.91801 2.3375,2.25028 5.23291,4.59397 6.43426,5.20821 2.62292,1.34107 6.98207,1.46569 7.75098,0.22157 0.61417,-0.99374 -1.66498,-2.10478 -4.31766,-2.10478 -2.16973,0 -7.09941,-2.25344 -7.10978,-3.25 -0.0129,-1.24325 10.50014,-0.84206 11.7922,0.45 0.66,0.66 1.2,1.9549 1.2,2.87756 0,2.81523 2.513,3.99798 9.79096,4.60813 5.46176,0.4579 8.46079,0.12891 13.90832,-1.52573 8.27601,-2.51376 10.20464,-4.3721 10.63157,-10.24411 0.26815,-3.688 0.64289,-4.38306 2.27359,-4.21689 2.08714,0.21268 5.06261,-4.81063 3.93255,-6.63911 -0.79301,-1.28312 3.22828,-5.307679 4.77551,-4.779385 0.65312,0.223006 1.1875,1.899855 1.1875,3.726335 0,2.74979 0.48286,3.4823 2.80786,4.25965 2.15133,0.71928 3.22194,0.56406 4.57874,-0.66383 0.97399,-0.88144 2.55253,-1.60262 3.50788,-1.60262 3.05643,0 5.58031,-1.90212 4.89467,-3.688865 -0.48042,-1.251956 -0.22623,-1.50097 1.03724,-1.016131 2.48329,0.952929 2.11433,-1.988774 -0.41953,-3.344853 -2.4172,-1.293644 -6.64225,-0.483326 -9.11961,1.749039 -1.76914,1.594175 -4.78725,1.162957 -4.78725,-0.683986 0,-1.355624 4.90282,-3.391877 12.72849,-5.286432 5.2378,-1.268043 6.82839,-1.300338 10,-0.203037 3.20962,1.11045 4.01744,1.084291 5.42223,-0.175586 1.10391,-0.99003 1.86879,-1.1276 2.30902,-0.415294 0.83935,1.358096 2.54026,1.385142 2.54026,0.04039 0,-1.538589 -4.67148,-3.013696 -11.45099,-3.615859 -3.32695,-0.295505 -8.74901,-1.494156 -12.04901,-2.663671 -9.47556,-3.358122 -18.07773,-2.977481 -28.5,1.261112 -10.10586,4.109912 -14.43649,7.834206 -13.75025,11.825064 0.25707,1.494958 0.80418,3.505605 1.21581,4.468109 1.02274,2.39144 -0.9677,2.24785 -3.46556,-0.25 -1.1,-1.100004 -2,-3.265378 -2,-4.811946 0,-3.503032 -5.39961,-8.195023 -6.40771,-5.567973 -1.12803,2.939594 -0.58057,5.724191 1.98659,10.104729 3.38794,5.78108 7.65811,8.43714 11.44315,7.11766 1.53694,-0.53578 4.52324,-0.83202 6.63621,-0.65831 3.18367,0.26174 3.89985,0.72682 4.18087,2.71508 0.18651,1.31958 -0.22736,3.45769 -0.9197,4.75135 -1.29138,2.41296 -7.04858,6.34941 -9.28625,6.34941 -2.08279,0 -26.03296,-8.10597 -27.48734,-9.30313 -0.7448,-0.61307 -1.74616,-2.14567 -2.22525,-3.40578 -0.63771,-1.6773 -1.6656,-2.29109 -3.8368,-2.29109 -3.22045,0 -4.89512,-1.58866 -3.32734,-3.15644 0.82652,-0.82651 2.12165,-1.26533 5.21535,-1.76705 0.25948,-0.0421 -1.09052,-1.152855 -3,-2.468382 l -3.47178,-2.391868 -0.65032,2.141868 c -0.35768,1.178027 -0.70207,4.841872 -0.76532,8.141872 -0.19572,10.2124 -2.05197,4.12681 -2.06905,-6.783248 -0.013,-8.329486 0.33787,-10.484138 2.36148,-14.5 1.30723,-2.594216 2.68786,-6.155921 3.06806,-7.914901 0.3802,-1.75898 2.05448,-4.90898 3.7206,-7 1.66613,-2.09102 3.65042,-4.997517 4.40954,-6.458882 3.27089,-6.296752 25.43785,-17.842973 34.25576,-17.842973 1.38116,0 5.24676,-1.324251 8.59022,-2.942779 7.9811,-3.863546 21.02802,-5.149941 26.98558,-2.660714 2.75724,1.152048 5.31279,1.4443 8.70017,0.994949 2.6379,-0.349931 7.63053,-0.150592 11.09473,0.442974 3.4642,0.593567 8.49255,1.359688 11.17411,1.702492 3.18047,0.406585 5.69125,1.438983 7.22176,2.969488 1.29041,1.290414 5.09527,3.811442 8.45523,5.602285 3.61788,1.928309 7.80916,5.271707 10.27824,8.198986 2.29307,2.718599 6.73608,7.585274 9.87338,10.814834 4.13609,4.257736 5.88583,6.903562 6.36503,9.624705 0.36348,2.064029 1.9246,5.77778 3.46916,8.25278 2.8746,4.606246 5.96164,14.683014 5.96164,19.460084 0,5.77428 -4.07822,8.53992 -12.59299,8.53992 l -4.29455,0 2.03585,4.60238 c 2.51387,5.68301 1.89275,10.08087 -1.91076,13.52922 -4.81551,4.36585 -10.01814,7.84543 -14.78656,9.88941 -2.74518,1.17672 -4.85403,2.8042 -5.16259,3.98416 -0.62154,2.37678 -1.27205,2.46876 -3.84727,0.544 z m -39.06858,-22.15597 -1.8508,-3.43673 2.65294,-2.22823 c 1.45912,-1.22553 2.94705,-3.24074 3.30652,-4.47824 0.44663,-1.5376 1.42379,-2.25 3.08618,-2.25 1.33793,0 2.43261,-0.45 2.43261,-1 0,-0.55 -1.27562,-1 -2.8347,-1 -1.90676,0 -3.7351,-1.01054 -5.58525,-3.08701 -2.23401,-2.5073 -3.25096,-2.96349 -5.41529,-2.42924 -3.25128,0.80255 -5.25908,2.51625 -2.94809,2.51625 2.28882,0 2.79594,2.18601 0.98837,4.26048 -1.3916,1.59707 -1.33308,1.97432 0.63049,4.06445 1.38031,1.46927 2.16447,3.59034 2.16447,5.85466 0,2.14272 0.87126,4.65833 2.19719,6.34397 2.84784,3.62044 3.65426,1.47268 1.17536,-3.13036 z m -41.26442,-13.83073 2.89685,-2.43754 -3.48598,0.5657 c -4.13401,0.67086 -8.37726,-0.86042 -14.519,-5.23954 -3.51644,-2.50725 -5.21035,-3.10095 -7.75,-2.71631 -2.98191,0.45161 -3.25,0.27074 -3.25,-2.19271 0,-1.476712 0.67914,-3.364065 1.50919,-4.19412 0.83006,-0.830056 1.2535,-1.922913 0.94098,-2.428572 -0.74253,-1.201446 -3.45017,-1.191062 -3.45017,0.01323 0,0.512937 -0.9532,1.235147 -2.11823,1.604912 -1.85953,0.590192 -2.05542,1.229491 -1.60398,5.23465 0.54992,4.87889 3.43125,8.15591 7.22221,8.21401 1.1,0.0169 5.375,1.33188 9.5,2.92226 9.36842,3.61197 10.52888,3.66577 14.10813,0.65403 z m 31.89187,-1.56247 c 0,-1.1 -0.45,-2 -1,-2 -0.55,0 -1,0.18819 -1,0.41821 0,0.23002 -0.27314,1.13002 -0.60699,2 -0.39831,1.03798 -0.0545,1.58179 1,1.58179 0.94032,0 1.60699,-0.82971 1.60699,-2 z m 13,-10.44099 c 0,-0.24254 -0.45,-0.71909 -1,-1.059012 -0.55,-0.339919 -1,-0.141476 -1,0.440982 0,0.58246 0.45,1.05902 1,1.05902 0.55,0 1,-0.19844 1,-0.44099 z m 18.7823,-1.404515 c 0.28658,-0.860627 -0.19425,-1.220995 -1.33427,-1 -0.98026,0.190026 -1.98391,0.95098 -2.23033,1.691005 -0.28658,0.86063 0.19425,1.221 1.33427,1 0.98026,-0.19003 1.98391,-0.95098 2.23033,-1.691005 z m 10.73942,-2.91981 c 0.56194,-0.404078 0.7864,-2.309687 0.49879,-4.234687 l -0.52292,-3.5 -2.12333,4.25 c -1.85604,3.714984 -1.91883,4.248072 -0.4988,4.234687 0.8935,-0.0084 2.08431,-0.345922 2.64626,-0.75 z m -107.8668,-3.691559 c -0.32568,-0.84872 -1.35102,-1.543128 -2.27853,-1.543128 -1.53891,0 -1.52761,0.175422 0.12915,2.006131 1.98964,2.198524 3.08053,1.963533 2.14938,-0.463003 z m 101.34508,-6.424413 c 0,-2.567748 -0.47567,-3.001061 -4.37125,-3.981978 -2.40418,-0.605381 -5.10418,-1.381948 -6,-1.725704 -0.89581,-0.343756 -1.62875,-0.161764 -1.62875,0.404426 0,0.56619 1.58208,1.55157 3.51573,2.189732 1.93365,0.638162 4.29615,2.233919 5.25,3.546127 2.30841,3.17567 3.23427,3.05183 3.23427,-0.432603 z m -89.44615,0.794153 c 1.14709,-1.85603 -1.25222,-3.408085 -3.01147,-1.948042 -0.84831,0.704035 -1.54238,1.674963 -1.54238,2.157619 0,1.258271 3.75343,1.085531 4.55385,-0.209577 z m 18.58189,-2.506933 c 3.31073,-2.29434 3.63468,-2.879573 2.80375,-5.065099 -0.51672,-1.35907 -0.93949,-3.56674 -0.93949,-4.905936 0,-2.768311 -1.17461,-3.134359 -3,-0.9349 -0.68469,0.825 -1.8041,1.5 -2.48759,1.5 -1.99384,0 -6.4205,3.921582 -8.10613,7.181226 -1.91382,3.700937 -1.46448,4.258046 2.11787,2.625816 2.41235,-1.09914 2.92784,-1.037592 3.87411,0.462559 1.38748,2.19961 1.29766,2.213132 5.73748,-0.863666 z m 77.54737,-1.593435 c -0.31922,-0.797733 -0.55618,-0.560776 -0.60416,0.604167 -0.0434,1.054166 0.19292,1.644791 0.52522,1.3125 0.33229,-0.332292 0.36781,-1.194792 0.0789,-1.916667 z m -105.32324,-4.281243 4.64013,0.695831 -10e-4,-3.363544 c -0.002,-3.288081 0.0933,-3.363544 4.22784,-3.363544 5.58683,0 6.1776,-2.455768 1.70169,-7.07374 -2.51113,-2.59083 -2.92202,-3.491527 -1.79082,-3.925609 2.65037,-1.017045 8.53555,2.280396 10.74081,6.018036 1.83745,3.114237 2.54287,3.54429 5.29772,3.229704 3.92613,-0.44834 5.76921,-2.904268 3.88412,-5.175658 -1.20595,-1.453085 -1.44013,-1.438307 -2.63344,0.166177 -1.77359,2.384716 -4.60071,0.637531 -5.81405,-3.593145 -0.59457,-2.073161 -1.5348,-3.145765 -2.75753,-3.145765 -1.02044,0 -1.85534,-0.675 -1.85534,-1.5 0,-3.237234 -6.67485,-0.976422 -10.98484,3.720632 -3.60433,3.928012 -4.68427,7.268211 -3.00438,9.292354 1.02365,1.233428 0.88598,1.487014 -0.8073,1.487014 -2.96772,0 -8.18979,3.23838 -8.19716,5.083333 -0.008,2.121211 1.19269,3.212693 2.03524,1.849409 0.43943,-0.711003 2.31175,-0.852346 5.31831,-0.401485 z m 52.64013,-3.591298 2.5,-0.07532 -2.23588,-1.078833 c -1.7507,-0.844729 -3.47816,-0.621211 -7.96073,1.03005 -5.68572,2.094469 -5.73735,2.095471 -7.55308,0.146513 -1.77145,-1.901428 -1.77084,-1.962369 0.0196,-1.962369 1.0163,0 2.58807,-0.5625 3.49282,-1.25 1.47915,-1.123977 1.49202,-1.451636 0.12767,-3.25 -1.49577,-1.971602 -1.55191,-1.960161 -3.95386,0.805764 -2.41587,2.781953 -3.45254,7.440187 -1.36924,6.152637 0.58702,-0.362798 1.30065,0.232694 1.58586,1.323314 0.51349,1.96358 0.57875,1.964637 6.68269,0.108255 3.39028,-1.03108 7.28914,-1.908585 8.66414,-1.950011 z m 40,-10.439959 c 0,-0.825 -0.45,-1.5 -1,-1.5 -0.55,0 -1,0.675 -1,1.5 0,0.825 0.45,1.5 1,1.5 0.55,0 1,-0.675 1,-1.5 z M 231.2708,64.765657 c -1.74654,-0.218772 -3.71414,-1.046755 -4.37244,-1.839963 -0.65831,-0.793208 -1.63219,-1.442196 -2.16418,-1.442196 -0.532,0 -1.81193,-1.0125 -2.84429,-2.25 -1.46598,-1.757284 -1.88431,-1.898753 -1.91029,-0.646023 -0.0183,0.882188 1.07024,2.794688 2.41898,4.25 2.05348,2.215744 3.23243,2.619999 7.25,2.485986 3.51161,-0.117136 3.94648,-0.266667 1.62222,-0.557804 z m -26.80414,-1.131839 c 1.11118,-0.357676 3.05598,-1.39031 4.32177,-2.294743 2.14382,-1.531796 2.21914,-1.919145 1.09967,-5.65558 -0.99515,-3.321538 -1.71112,-4.085915 -4.1644,-4.44598 -1.88666,-0.276903 -3.14943,0.05199 -3.47699,0.905581 -0.75389,1.964615 -5.4195,1.593858 -8.30038,-0.659598 -3.18187,-2.488897 -5.14849,-2.489694 -9.22583,-0.0037 -1.80079,1.097944 -4.39917,2.03347 -5.77417,2.078947 -1.375,0.04548 -1.9375,0.309659 -1.25,0.587072 0.6875,0.277412 1.25,1.141886 1.25,1.921052 0,1.865051 2.36851,1.794585 6.19528,-0.184317 2.39006,-1.235948 2.77775,-1.802474 1.70034,-2.484687 -1.00991,-0.639476 -0.65192,-0.887935 1.29536,-0.899016 1.48004,-0.0084 2.98041,0.452992 3.33416,1.025364 0.35375,0.572373 1.50752,0.766345 2.56394,0.431049 1.24206,-0.394213 2.13351,-0.05523 2.52283,0.959323 0.77072,2.008458 4.30783,2.013895 7.16734,0.01102 2.41704,-1.69296 4.22075,-1.193833 4.22075,1.167977 0,3.365037 -11.59023,5.793549 -13.96926,2.926992 -1.06179,-1.279369 -1.52385,-1.260046 -3.68192,0.153975 l -2.46776,1.61694 4.80947,1.759088 c 5.05909,1.850389 8.4749,2.163182 11.8298,1.083281 z m 43.47967,-9.84145 c 0,-2.274551 -0.46888,-3.30887 -1.5,-3.30887 -0.825,0 -1.5,0.45 -1.5,1 0,0.55 -0.9,1 -2,1 -1.1,0 -2,0.45 -2,1 0,0.55 0.65917,1 1.46482,1 1.76903,0 3.42885,2.925069 2.83723,5 -0.27341,0.958895 0.13607,0.799763 1.13513,-0.44113 0.85955,-1.067621 1.56282,-3.430121 1.56282,-5.25 z m -10.18251,2.825091 c 1.30395,-0.826831 1.14918,-0.917207 -6.31749,-3.688912 -1.1,-0.408331 -2.9387,-0.652979 -4.086,-0.543661 -1.1473,0.109318 -2.66078,-0.493819 -3.3633,-1.340303 -1.22904,-1.480902 -3.0507,-1.279421 -3.0507,0.337417 0,1.312704 5.34443,3.43075 8.07982,3.202106 1.4189,-0.118602 3.1615,0.485242 3.87245,1.341876 1.43917,1.734104 2.8947,1.940973 4.86522,0.691477 z M 215.6968,44.733498 c 0.26131,-0.784826 -0.54516,-1.25 -2.16714,-1.25 -2.52385,0 -3.28827,0.961731 -1.88209,2.367903 1.02877,1.028775 3.56787,0.327785 4.04923,-1.117903 z m 26.67653,98.271472 c -1.69187,-1.27997 -1.72067,-1.46174 -0.23602,-1.48967 0.93004,-0.0175 1.9876,0.44814 2.35014,1.03473 1.08933,1.76258 -0.059,2.0097 -2.11412,0.45494 z m -71.677,-21.60157 c -2.16093,-1.25862 -2.30361,-3.9199 -0.21016,-3.9199 1.65838,0 9.46016,3.7279 9.46016,4.52032 0,0.90561 -7.50016,0.41877 -9.25,-0.60042 z m 24.62005,-22.360293 c -1.72148,-0.74916 -3.46205,-1.899455 -3.86795,-2.556212 -1.47186,-2.381526 1.94507,-6.088759 8.74953,-9.492896 6.80767,-3.405735 7.00857,-3.440302 16.5698,-2.850967 14.21643,0.876273 14.25663,1.484185 0.42174,6.37676 -4.02557,1.423602 -7.6389,3.594727 -10.13236,6.088187 -4.18241,4.182411 -6.58206,4.680121 -11.74076,2.435128 z"
         id="path4541"
         inkscape:connector-curvature="0"
         sodipodi:nodetypes="ssssssssssssssssssscsssssssssssssssssssssssssssssssssssssssscscssssssssssssssssssssscsssssscsssssssssssssscssssssssscsssssssssssssssssssscscssssssssssssssssssssssssscccccsccssssssssssssscssccssssssssssccssssssssssssscssssssssssscssssssscsccssssssssssssssssssssssssssssssssssss" />
      <path
         style="fill:#908777;"
         d="m 265.3272,144.03546 c -3.03981,-2.65915 -5.44932,-4.08351 -5.99119,-3.54164 -1.5891,1.5891 -3.06134,-0.31595 -6.33055,-8.19157 -1.75369,-4.22468 -3.83441,-8.21729 -4.62383,-8.87244 -1.20821,-1.00273 -1.4353,-0.52856 -1.4353,2.99699 0,7.43412 -3.25702,10.38324 -6.4433,5.83419 -1.27959,-1.82687 -1.5567,-1.91588 -1.5567,-0.5 0,1.08537 -0.77989,1.72251 -2.10841,1.72251 -1.79969,0 -2.00755,-0.40184 -1.4196,-2.74441 0.96616,-3.84949 2.37757,-5.25559 5.27545,-5.25559 2.19794,0 2.43501,-0.33474 1.94759,-2.75 -0.30523,-1.5125 -0.86993,-3.56434 -1.25488,-4.55966 -0.51581,-1.33366 -0.13969,-1.95615 1.42997,-2.36663 1.20597,-0.31537 2.12988,-1.36033 2.12988,-2.40896 0,-1.23536 0.49943,-1.66033 1.5,-1.27638 1.04387,0.40057 1.5,-0.0718 1.5,-1.55341 0,-2.17166 -7.88379,-8.08496 -10.77911,-8.08496 -2.25021,0 -0.78653,-2.39434 1.84317,-3.015124 1.567,-0.369919 1.99629,-0.829544 1.22185,-1.308178 -0.65666,-0.405839 -2.33963,-0.450338 -3.73992,-0.09889 -1.53754,0.385901 -2.54599,0.216002 -2.54599,-0.428933 0,-0.587366 -1.21209,-2.191853 -2.69354,-3.565526 -2.38867,-2.214907 -2.49646,-2.573211 -0.95234,-3.165746 3.41065,-1.308788 10.03636,0.334342 12.17784,3.020019 1.12374,1.409307 2.57721,2.562376 3.22992,2.562376 0.65272,0 1.88487,1.35 2.73812,3 2.15514,4.167582 5.07954,3.942062 6.95059,-0.535989 l 1.47743,-3.53599 2.03599,2.03599 c 1.11979,1.119794 2.59849,2.043763 3.28599,2.053266 0.6875,0.0095 2.33089,1.156485 3.65198,2.548855 l 2.40199,2.53158 3.09801,-2.91717 c 4.42811,-4.169629 6.44021,-5.011395 10.63427,-4.448854 4.22326,0.566458 6.24091,-1.194326 2.45684,-2.144067 -2.99923,-0.752758 -3.25267,-3.110738 -0.49309,-4.587621 2.35265,-1.259101 2.6428,-3 0.5,-3 -0.825,0 -1.5,0.424041 -1.5,0.942314 0,0.518273 -2.24954,2.205773 -4.99898,3.75 -2.74944,1.544227 -4.99944,3.145186 -5,3.557686 -10e-4,1.105291 -3.83882,4.750002 -5.00102,4.750002 -2.35477,0 -0.60375,-3.120183 5.01205,-8.931081 3.30663,-3.421501 5.72855,-6.679622 5.38205,-7.240269 -0.3465,-0.560647 -0.0771,-2.052418 0.59862,-3.315046 0.85476,-1.597136 0.92296,-2.841865 0.22412,-4.090618 -0.67382,-1.204049 -0.67088,-2.527136 0.009,-4.019162 0.76164,-1.671599 0.62577,-2.777692 -0.54682,-4.451797 -1.44993,-2.070063 -1.40535,-2.356885 0.6304,-4.056528 l 2.19058,-1.828962 -2.25,-0.03327 c -1.33096,-0.01968 -2.25,0.568936 -2.25,1.441051 0,1.625974 -4.89929,4.52568 -7.64651,4.52568 -1.35386,0 -0.99854,-0.771 1.58263,-3.434087 2.39585,-2.471899 3.12532,-3.942884 2.60347,-5.25 -0.67188,-1.682932 -0.83696,-1.651144 -2.25425,0.434087 -2.12549,3.127184 -4.22367,2.808333 -4.93534,-0.75 -0.37624,-1.881216 -1.21636,-3 -2.25276,-3 -0.90902,0 -2.42336,-0.9 -3.36521,-2 -2.68438,-3.135131 -4.43678,-2.413903 -8.31049,3.420313 -4.22185,6.358564 -4.21404,9.062103 0.0263,9.118198 3.60057,0.04763 4.1361,1.431536 2.08719,5.393698 -2.04703,3.958503 -3.13152,3.866053 -5.6992,-0.48584 -1.78563,-3.026417 -2.55917,-3.508585 -5.21394,-3.25 -2.98296,0.290552 -3.16481,0.570834 -4.2216,6.506678 l -1.10436,6.203046 3.10202,0.623225 c 12.05728,2.422418 18.11852,8.978317 12.77328,13.815694 -2.65818,2.405617 -3.41534,2.042751 -2.68414,-1.28636 1.34301,-6.114716 -2.53863,-8.975684 -13.08298,-9.642822 -3.35273,-0.212126 -8.97773,-1.268669 -12.5,-2.347873 -11.76492,-3.604707 -15.49258,-3.637002 -25.29292,-0.219131 -11.33883,3.954422 -14.56068,5.891717 -17.61119,10.589599 -2.25845,3.478079 -2.53211,3.633443 -2.83238,1.607964 -0.50184,-3.38534 3.12778,-6.518599 13.24269,-11.431706 12.64365,-6.141386 16.46737,-6.896609 26.19674,-5.17411 4.34112,0.768558 9.19286,1.896429 10.78164,2.506381 1.58878,0.609951 3.09634,0.901351 3.35013,0.647556 0.88748,-0.887479 -0.87277,-2.59451 -2.67539,-2.59451 -2.49044,0 -4.70821,-2.755224 -3.32841,-4.135022 0.73368,-0.733679 1.70904,-0.697693 3.23576,0.119385 2.49952,1.337701 5.02922,0.707491 5.02922,-1.252902 0,-1.165292 -8.14428,-3.570656 -14.26856,-4.214135 -0.9727,-0.102202 -2.3227,-0.885282 -3,-1.740177 -0.67729,-0.854895 -2.91894,-1.849874 -4.98144,-2.211065 -2.31379,-0.405197 -3.75,-1.213841 -3.75,-2.111397 0,-0.800078 0.45,-1.454687 1,-1.454687 1.85325,0 0.98601,-5.469425 -1.50634,-9.5 -1.3604,-2.2 -2.76118,-4.809291 -3.11285,-5.798424 -0.9837,-2.766837 -3.65704,-1.57451 -4.59623,2.049953 -0.65957,2.545346 -1.36908,3.248471 -3.27799,3.248471 -2.44364,0 -5.10715,-3.219256 -4.06228,-4.909887 0.29523,-0.477705 1.77854,-1.178465 3.29624,-1.557245 1.5177,-0.378779 3.43445,-1.250995 4.25945,-1.938256 4.36465,-3.635949 20.75284,-4.849309 27.488,-2.035178 2.89935,1.211425 4.41235,1.322352 6.77976,0.497068 2.3444,-0.817262 5.95278,-0.586008 15.63988,1.00233 10.62002,1.741304 13.06225,2.486114 15.59236,4.755213 1.65,1.479783 5.025,3.720156 7.5,4.978607 5.51055,2.801919 8.63318,5.489258 12.44173,10.707348 1.60573,2.2 5.04111,6.025 7.63419,8.5 3.31433,3.163409 5.07337,5.836591 5.92228,9 0.66418,2.475 2.48863,6.975 4.05435,10 3.56492,6.887531 6.30367,16.302282 5.48901,18.869052 -0.75371,2.37473 -3.54156,4.93574 -3.54156,3.25339 0,-0.61734 -0.85,-1.12244 -1.88889,-1.12244 -1.18518,0 -1.83714,0.65196 -1.75,1.75 0.11332,1.42783 -0.8276,1.80564 -5.11111,2.05226 -2.8875,0.16624 -5.25,0.40859 -5.25,0.53856 0,0.12996 0.9,2.00159 2,4.15918 3.18566,6.2485 2.6811,10.09818 -1.88313,14.36765 -5.95535,5.57075 -9.58442,8.03321 -14.28123,9.69034 -2.36375,0.83398 -4.66612,2.1746 -5.11637,2.97917 -1.30569,2.33313 -2.919,1.75556 -8.3384,-2.9852 z m 3.61913,-2.01678 c 0,-0.25565 -1.0125,-1.00432 -2.25,-1.66372 -2.04022,-1.08712 -2.12204,-1.04378 -0.87756,0.46482 1.27783,1.54902 3.12756,2.25809 3.12756,1.1989 z m -22,-23.0942 c 0,-0.85746 -0.45,-1.2809 -1,-0.94098 -0.55,0.33992 -1,1.04148 -1,1.55902 0,0.51754 0.45,0.94098 1,0.94098 0.55,0 1,-0.70156 1,-1.55902 z m 55,-9.01791 c 0,-1.29731 -5.96341,-6.42307 -7.47274,-6.42307 -0.89462,0 -2.95423,-0.68656 -4.57692,-1.52568 -1.62269,-0.83913 -2.95034,-1.34424 -2.95034,-1.12248 0,1.17893 11.51234,9.64816 13.11488,9.64816 1.03682,0 1.88512,-0.25962 1.88512,-0.57692 z m -41.17668,-2.75594 c 0.35859,-1.84895 -1.5135,-2.16812 -3.82332,-0.65182 -1.33333,0.87528 -1.33333,1.09399 0,1.96843 1.94783,1.27745 3.41845,0.77102 3.82332,-1.31661 z m 33.46643,-18.667132 c -0.28766,-1.1 -0.92053,-2 -1.40638,-2 -1.0332,0 -1.18684,2.363201 -0.2167,3.333333 1.311,1.311006 2.13712,0.632364 1.62308,-1.333333 z m -5.69157,-6.765313 c 1.4327,-0.958482 2.84488,-9.626547 1.42541,-8.749264 -0.56298,0.347936 -1.02359,1.450953 -1.02359,2.451149 0,1.000196 -0.675,2.378739 -1.5,3.063428 -2.66065,2.208143 -1.68092,5.093919 1.09818,3.234687 z M 238.79689,65.035616 c 7.52263,-2.002282 9.8061,-4.351639 11.74739,-12.086351 0.54369,-2.16626 0.0776,-2.675909 -4.07492,-4.455897 -6.19635,-2.656066 -7.52303,-2.564098 -7.52303,0.521515 0,1.392261 -0.66805,2.787741 -1.48457,3.101066 -2.01673,0.773893 -7.74316,-2.704812 -9.17275,-5.572283 -1.74556,-3.501237 -3.18285,-4.028137 -11.03366,-4.044855 -7.94777,-0.01693 -9.94046,1.245207 -6.44052,4.079288 1.55942,1.262743 3.18283,1.60905 5.65911,1.207206 3.88441,-0.630353 3.92547,-0.546096 2.32962,4.780386 -0.88572,2.95628 -0.85528,4.508306 0.13536,6.899913 2.82844,6.828469 8.818,8.508494 19.85797,5.570012 z m -8.77379,-2.959621 c -2.00692,-2.418186 -0.90117,-5.137355 1.95444,-4.806196 4.88986,0.567067 5.51543,0.5534 8.71879,-0.19049 2.6464,-0.614553 3.25,-0.451906 3.25,0.87576 0,1.671276 -4.09368,3.787956 -9.59066,4.958955 -2.1634,0.460861 -3.46325,0.209437 -4.33257,-0.838029 z m -27.66652,72.585635 c -3.34937,-1.6179 -7.17437,-3.28338 -8.5,-3.70107 -3.79576,-1.196 -9.18956,-5.1864 -8.00227,-5.92019 0.58308,-0.36036 3.25543,-1.30713 5.93855,-2.10394 6.80077,-2.01961 9.84819,-4.6865 10.62774,-9.30066 l 0.64873,-3.83979 2.77001,2.59376 c 2.2827,2.13746 2.71691,3.29745 2.46817,6.59376 -0.23062,3.05611 -0.12187,3.41007 0.46086,1.5 0.89051,-2.91895 8.48854,-6.97141 11.6403,-6.20843 3.04546,0.73725 6.46024,5.30744 6.50682,8.70843 0.0226,1.65 1.14974,4.8 2.50475,7 3.15841,5.12798 3.12851,5.95599 -0.22391,6.20089 -21.26089,1.55309 -20.36718,1.60379 -26.83975,-1.52276 z m -24.66025,-8.84041 c 0.6875,-0.27741 1.8125,-0.27741 2.5,0 0.6875,0.27741 0.125,0.50439 -1.25,0.50439 -1.375,0 -1.9375,-0.22698 -1.25,-0.50439 z m -14,-2 c 0.6875,-0.27741 1.8125,-0.27741 2.5,0 0.6875,0.27741 0.125,0.50439 -1.25,0.50439 -1.375,0 -1.9375,-0.22698 -1.25,-0.50439 z m 8.45368,-8.68236 c -6.76298,-2.30298 -12.69579,-4.83358 -13.18402,-5.62355 -1.69101,-2.7361 0.11126,-3.01495 3.70464,-0.57318 1.98539,1.3491 3.98753,2.21947 4.4492,1.93414 0.46168,-0.28533 4.58162,0.85957 9.15544,2.54422 4.57382,1.68466 9.10094,3.06301 10.06027,3.06301 0.95933,0 3.28921,-1.17841 5.17751,-2.61869 3.39535,-2.58976 4.60213,-2.17657 2.18328,0.74753 -1.71065,2.06797 -6.39807,4.8884 -7.96482,4.79246 -0.70685,-0.0433 -6.81853,-1.96296 -13.5815,-4.26594 z m -14.20368,2.34464 c 0,-0.55 0.87344,-1 1.94098,-1 1.06754,0 2.2191,0.45 2.55902,1 0.35052,0.56716 -0.48962,1 -1.94098,1 -1.40746,0 -2.55902,-0.45 -2.55902,-1 z m 49.94254,-8.10736 c -0.85231,-1.59257 -0.83037,-2.38649 0.0898,-3.25 0.91711,-0.86062 1.33513,-0.82104 1.69364,0.16036 0.36587,1.00153 0.74457,0.93572 1.63677,-0.28444 1.0203,-1.39535 1.39975,-1.41269 3.13572,-0.14332 1.93895,1.41779 1.94047,1.48223 0.0832,3.53444 -2.42204,2.67632 -5.20157,2.66918 -6.6392,-0.017 z m 30.34903,0.3406 c 1.25327,-0.27695 1.6086,-0.9724 1.18262,-2.31457 -0.82979,-2.61444 0.7134,-2.41234 3.3977,0.44496 l 2.22052,2.36364 -4.2962,-0.0491 c -2.36292,-0.027 -3.49,-0.22722 -2.50464,-0.44497 z m -49.29157,-1.23324 c 0,-0.55 0.45,-1 1,-1 0.55,0 1,0.45 1,1 0,0.55 -0.45,1 -1,1 -0.55,0 -1,-0.45 -1,-1 z m 34,-3 c 0,-0.55 1.0125,-0.99311 2.25,-0.98469 1.81944,0.0124 1.96296,0.20081 0.75,0.98469 -1.93876,1.25292 -3,1.25292 -3,0 z m -70.87812,-0.90351 c -1.78754,-1.13221 -0.55871,-3.09649 1.93713,-3.09649 2.89112,0 2.36509,-1.43914 -1.6436,-4.496724 -4.73649,-3.612694 -3.11623,-5.636574 1.8869,-2.356944 2.68461,1.759806 3.6392,3.160701 3.97585,5.834748 0.24367,1.9354 0.2542,3.85642 0.0234,4.26892 -0.56993,1.01867 -4.48249,0.92148 -6.17968,-0.15351 z m 76.69062,-0.77961 c 0.72187,-0.28887 1.58437,-0.25334 1.91667,0.0789 0.33229,0.3323 -0.25834,0.56865 -1.3125,0.52522 -1.16495,-0.048 -1.4019,-0.28494 -0.60417,-0.60416 z m -56.8125,-1.33042 c -0.825,-0.5406 -2.7375,-0.72296 -4.25,-0.40523 -2.17279,0.45643 -2.75,0.21021 -2.75,-1.17304 0,-0.962889 0.71087,-2.53621 1.5797,-3.496264 1.24285,-1.373328 1.34197,-2.189777 0.46482,-3.828741 -0.61319,-1.145753 -1.66155,-2.096871 -2.3297,-2.113596 -1.48849,-0.03726 0.86422,-1.445913 4.03518,-2.416016 2.06166,-0.630731 2.25,-0.367573 2.25,3.143846 0,2.107709 0.90087,5.513033 2.00194,7.567388 2.02094,3.770623 1.74456,4.521363 -1.00194,2.721653 z m 36.57024,-0.664 c -0.85649,-2.232001 1.98271,-5.169509 3.51526,-3.636964 0.79971,0.799711 0.79206,1.674769 -0.028,3.207144 -1.35975,2.54071 -2.61769,2.69576 -3.48722,0.42982 z m -15.04955,-4.572462 c -2.48201,-2.155498 -2.52109,-2.348622 -0.93035,-4.598091 0.91326,-1.29145 4.60635,-3.669814 8.20686,-5.285253 5.92189,-2.656972 7.40467,-2.90995 15.5437,-2.651909 5.60665,0.177755 9.13942,0.714327 9.3744,1.423822 0.21979,0.663645 -2.59538,2.041425 -6.74901,3.303051 -5.08796,1.545422 -8.35075,3.293345 -11.40802,6.111431 -5.13978,4.737691 -9.87683,5.310331 -14.03758,1.696949 z m -35.04769,-2.793674 c -0.89435,-1.447096 0.40981,-2.956326 2.55463,-2.956326 1.24046,0 1.7183,0.498524 1.36367,1.422681 -0.69856,1.82042 -3.14843,2.779313 -3.9183,1.533645 z m 99.86909,-6.519208 0.15791,-6.674062 -4,-0.294979 c -7.52584,-0.554989 -10.5,-1.569483 -10.5,-3.581576 0,-2.27826 0.69745,-2.328686 5.34576,-0.386501 5.65148,2.361339 7.01124,2.03501 6.30177,-1.512359 -0.4977,-2.488511 -0.0847,-3.473703 2.375,-5.665297 4.36017,-3.884927 3.5489,-6.322344 -2.10432,-6.322344 -2.5316,0 -2.42363,-1.196425 0.33179,-3.676674 4.26324,-3.837488 5.47916,-3.61509 6.19109,1.132385 0.3558,2.372677 1.52711,5.110527 2.60291,6.084111 1.0758,0.973584 1.956,2.796114 1.956,4.050066 0,3.493024 1.76664,7.380302 5.05748,11.128358 2.88063,3.280859 3.12063,5.281786 0.6335,5.281725 -1.66181,-4.2e-5 -6.68624,-6.508868 -6.71322,-8.696542 -0.0122,-0.991886 -0.88793,-2.928429 -1.946,-4.303429 -1.53168,-1.990464 -2.17732,-2.247273 -3.16776,-1.260013 -0.99178,0.988607 -0.90137,1.958444 0.44601,4.783927 2.66423,5.586949 1.72936,15.652241 -1.51177,16.276425 -1.36745,0.263346 -1.58994,-0.708929 -1.45615,-6.363221 z m -81.84209,1.562882 c -0.93958,-1.520272 0.37541,-3 2.66601,-3 1.45664,0 1.87271,0.456726 1.44098,1.581787 -0.33385,0.869984 -0.60699,1.769984 -0.60699,2 0,0.861626 -2.90652,0.378491 -3.5,-0.581787 z m -22,-4 c -0.33992,-0.55 -1.71648,-1 -3.05902,-1 -2.5728,0 -2.94377,-0.658944 -1.58081,-2.80799 0.54064,-0.852463 1.75876,-1.074772 3.49767,-0.638333 1.46747,0.368312 3.22478,0.246551 3.90514,-0.27058 1.45053,-1.102523 10.73702,-0.464102 10.73702,0.738141 0,0.450919 -1.4625,1.166331 -3.25,1.589806 -3.54563,0.839992 -3.46699,0.841878 -6,-0.143941 -1.32846,-0.517019 -1.75,-0.17354 -1.75,1.425908 0,2.197736 -1.43357,2.832514 -2.5,1.106989 z m 16.03982,-1.25 c -0.21857,-0.6875 -0.31695,-2.375 -0.21861,-3.75 0.13579,-1.89879 -0.3623,-2.576847 -2.07121,-2.819551 -3.28862,-0.467059 -2.7479,-2.912181 0.81716,-3.6952 2.22622,-0.48896 3.5971,-0.194074 5,1.075532 2.38418,2.157655 2.41579,3.428602 0.18284,7.351857 -1.86365,3.27439 -3.06428,3.868969 -3.71018,1.837362 z m 10.96018,-10.75 c -0.33992,-0.55 0.0835,-1 0.94098,-1 0.85746,0 1.55902,0.45 1.55902,1 0,0.55 -0.42344,1 -0.94098,1 -0.51754,0 -1.2191,-0.45 -1.55902,-1 z m 8.6508,-0.718236 c -0.56735,-1.060096 -0.64391,-2.483896 -0.17441,-3.243558 0.47259,-0.764664 0.37151,-2.375305 -0.23222,-3.700344 -0.58798,-1.290473 -0.80464,-2.610722 -0.48148,-2.933888 0.7461,-0.746102 7.73731,1.740982 7.73731,2.752505 0,0.63917 -4.37445,7.551301 -5.47624,8.653099 -0.19895,0.198943 -0.81678,-0.488573 -1.37296,-1.527814 z m -37.1508,0.03269 c 0,-0.377052 0.85716,-1.614552 1.9048,-2.75 1.04764,-1.135448 2.75693,-3.609214 3.79842,-5.497257 1.04149,-1.888043 2.53679,-3.647198 3.3229,-3.909233 1.08918,-0.363062 1.01578,0.09684 -0.30851,1.932806 -0.95578,1.325078 -2.21457,3.53341 -2.7973,4.907403 -1.72835,4.075161 -5.92031,7.839436 -5.92031,5.316281 z m 21.45245,-2.564451 c -0.37527,-1.2375 -1.60904,-3.2625 -2.7417,-4.5 -2.39264,-2.614114 -1.89682,-2.772413 2.68604,-0.857569 2.2046,0.921139 3.69923,2.444243 4.41587,4.5 1.01439,2.909879 0.93186,3.107569 -1.29729,3.107569 -1.59993,0 -2.60435,-0.737841 -3.06292,-2.25 z m 37.29755,1.45153 c -5.15273,-0.626525 -2.47296,-3.20153 3.33179,-3.20153 1.81795,0 2.91821,0.521575 2.91821,1.383369 0,1.608321 -2.35101,2.292243 -6.25,1.818161 z m -30.81556,-7.873979 c -1.37688,-3.621452 -0.81571,-4.607103 3.51448,-6.172919 4.50849,-1.630291 5.65639,-0.833041 2.72831,1.894883 -1.19748,1.115617 -2.17723,3.135865 -2.17723,4.48944 0,3.346349 -2.76763,3.202436 -4.06556,-0.211404 z M 170.94633,54.4873 c 0,-1.212308 2.80451,-2.532619 3.62877,-1.708358 0.29839,0.298385 -0.39602,1.04481 -1.54312,1.658722 -1.44619,0.773977 -2.08565,0.789195 -2.08565,0.04964 z m 7.58125,-3.985049 c 0.53969,-0.539687 2.54219,-1.269452 4.45,-1.6217 3.30426,-0.610079 3.37391,-0.565056 1.46875,0.949447 -2.18442,1.736499 -7.59786,2.351359 -5.91875,0.672253 z"
         id="path4539"
         inkscape:connector-curvature="0"
         sodipodi:nodetypes="ssssssssssssssssssssssssssscssscssssssscssssscsccssssssssssssssscssssssssssssssssssssssssscsssssssssssssssssssssssssssssssssssssssssssssssssssssssssssssssssssssssssscsssssssssssssssssssssssscsssssscssssscccsscsccsssssscssssssscsccsccsssssssssscscccssssssssssssscsssssssssssscssssssssssssssssssssssssssssssssssssscsssssssssssssssssssssssssssssss" />
      <path
         style="fill:#847a6a;"
         d="m 268.94633,145.9835 c -1.04007,-1.2532 -0.89568,-1.5 0.87756,-1.5 3.3316,0 2.51947,-1.68928 -2.62756,-5.46549 -5.49163,-4.02904 -6.81688,-4.29876 -7.53975,-1.53451 -0.91976,3.51717 -2.61353,2.16939 -5.62764,-4.47808 -6.23137,-13.743 -6.48852,-16.37127 -1.23581,-12.63101 3.09203,2.20172 7.1532,2.8314 7.1532,1.10909 0,-0.55 -1.30186,-1 -2.89301,-1 -1.64908,0 -3.14051,-0.64497 -3.46862,-1.5 -0.31658,-0.825 -1.25615,-1.5 -2.08793,-1.5 -1.45997,0 -2.18041,-1.80324 -2.77049,-6.93445 -0.19215,-1.67092 -1.9485,-3.55271 -5.60008,-6 -3.93971,-2.64039 -4.84786,-3.65561 -3.5,-3.91262 3.32175,-0.63339 3.72874,-2.047081 0.89905,-3.122925 -1.51071,-0.574373 -3.17156,-0.781768 -3.69077,-0.460878 -0.91001,0.562418 -4.78687,-3.285889 -4.85488,-4.819129 -0.0183,-0.4125 1.54173,-0.75 3.46673,-0.75 3.38831,0 7.5,2.741126 7.5,5 0,0.55 0.66463,1 1.47695,1 0.81232,0 2.21407,1.125 3.11501,2.5 1.8663,2.848342 4.60434,3.161852 9.5292,1.091102 2.32765,-0.9787 3.90913,-1.110078 5.17938,-0.43026 2.31661,1.23982 0.81522,3.3423 -3.08596,4.32144 -3.92497,0.9851 -5.28703,2.38255 -4.24279,4.353 0.48522,0.91559 1.12594,2.45222 1.42383,3.41472 0.66081,2.13513 3.60438,2.3393 3.60438,0.25 0,-0.825 0.45,-1.5 1,-1.5 0.55,0 1,-0.72749 1,-1.61663 0,-1.1243 0.60908,-1.45736 2,-1.09362 1.29986,0.33992 2,0.0307 2,-0.88337 0,-2.07505 1.60151,-1.71191 3.72047,0.84362 1.02609,1.2375 3.28319,3.0019 5.01578,3.92089 2.70835,1.43655 3.31555,1.47161 4.3294,0.25 1.31365,-1.58284 -0.29128,-4.42089 -2.50004,-4.42089 -0.65422,0 -2.1681,-1.32364 -3.36418,-2.94143 l -2.17469,-2.94142 2.891,-2.05858 c 1.59005,-1.132213 3.99432,-2.058572 5.34283,-2.058572 2.37404,0 11.41147,6.027002 13.04306,8.698332 0.44199,0.72365 2.57949,2.22172 4.75,3.32903 2.1705,1.10731 3.94637,2.40536 3.94637,2.88455 0,1.24125 -4.15706,2.12128 -6.78015,1.43533 -2.69204,-0.70398 -2.96169,1.17556 -0.55084,3.83952 1.93512,2.13828 3.19633,12.81324 1.51384,12.81324 -0.58565,0 -1.35644,-0.47185 -1.71286,-1.04856 -0.81589,-1.32014 -3.46999,0.69592 -3.46999,2.63582 0,0.73831 -0.9,1.82404 -2,2.41274 -1.74313,0.9329 -2,0.76049 -2,-1.34237 0,-1.32701 0.675,-2.97294 1.5,-3.65763 0.96162,-0.79808 1.5,-3.01184 1.5,-6.1679 0,-3.89357 -0.51327,-5.43628 -2.45455,-7.37756 -1.35,-1.35 -2.87685,-2.45454 -3.39301,-2.45454 -1.68402,0 -2.22731,3.22302 -0.73781,4.37706 0.79715,0.61761 1.74268,3.17119 2.10117,5.67461 0.57942,4.04618 0.34013,4.90686 -2.15468,7.75 -2.46514,2.80932 -3.42403,3.19833 -7.8838,3.19833 -2.79253,0 -5.61732,-0.54 -6.27732,-1.2 -0.93333,-0.93333 -1.2,-0.82735 -1.2,0.47695 0,1.90312 4.15815,4.98695 6.16957,4.57555 0.73173,-0.14966 2.35993,0.29723 3.6182,0.99309 1.25828,0.69587 3.28328,1.02024 4.5,0.72083 1.21673,-0.2994 -0.15027,0.60543 -3.03777,2.01075 -2.8875,1.40531 -5.25,2.97535 -5.25,3.48897 0,1.46434 -2.62295,1.0931 -4,-0.56614 z m -4.33683,-12.93539 c -0.30295,-0.78947 -0.0136,-1.65394 0.64301,-1.92105 0.6566,-0.26712 -0.38118,-0.50622 -2.30618,-0.53134 l -3.5,-0.0457 2.36078,1.96673 c 2.8043,2.33621 3.54918,2.47744 2.80239,0.53134 z m -54.72026,3.47057 c -2.50641,-0.44781 -6.78141,-1.96355 -9.5,-3.36831 -2.7186,-1.40477 -6.14729,-2.84496 -7.61931,-3.20043 -1.47203,-0.35547 -3.44578,-1.49646 -4.38612,-2.53553 -1.61746,-1.78727 -1.60794,-1.92476 0.1764,-2.54792 1.03737,-0.36229 4.69862,-1.96966 8.13612,-3.57193 5.17217,-2.41083 6.25,-3.33555 6.25,-5.36214 0,-1.46558 0.57862,-2.44892 1.44098,-2.44892 2.14674,0 2.98464,1.98702 2.6708,6.33364 -0.20804,2.88138 0.065,3.77538 1.0537,3.44954 0.73399,-0.24191 1.47928,-1.4244 1.6562,-2.62775 0.32731,-2.22622 6.52897,-6.15543 9.71541,-6.15543 2.58545,0 7.69534,5.69231 7.02,7.82013 -0.32864,1.03545 0.51221,3.89307 1.93031,6.56015 1.38193,2.59905 2.5126,5.09057 2.5126,5.53671 0,0.75789 -2.66839,1.28198 -12.5,2.4551 -2.2,0.26251 -6.05069,0.1109 -8.55709,-0.33691 z m 94.43709,-28.48729 c -0.30647,-0.79867 -0.26527,-1.92451 0.0916,-2.50188 0.57216,-0.92577 -0.44036,-1.49805 -6.37506,-3.6032 -1.10106,-0.39057 -0.99332,-0.79975 0.5,-1.89891 1.78099,-1.310891 1.79087,-1.444724 0.1535,-2.079471 -0.9625,-0.373125 -2.39628,-0.430408 -3.18618,-0.127296 -0.78989,0.303112 -2.47936,-0.269461 -3.75437,-1.272384 -1.27501,-1.002924 -3.17894,-1.990279 -4.23096,-2.194124 -2.41708,-0.468339 -3.31579,-2.870627 -1.07397,-2.870627 1.3893,0 1.55981,-0.659548 1.01072,-3.909564 -0.57209,-3.386195 -0.38337,-3.997527 1.40978,-4.56665 1.13866,-0.361397 2.34512,-1.752094 2.68102,-3.090436 0.72011,-2.869147 2.39392,-3.257754 2.39392,-0.555795 0,1.032656 0.63494,2.404507 1.41097,3.048559 1.99368,1.654609 2.90372,-0.216836 2.03307,-4.180894 -0.61474,-2.79888 -0.51045,-3.045222 0.8213,-1.939972 0.83899,0.696305 1.82391,2.856933 2.18869,4.801394 0.36478,1.944462 0.93364,4.24004 1.26413,5.101285 0.50048,1.304232 0.0311,1.454238 -2.80863,0.897686 -6.31405,-1.237455 -7.3376,-1.152572 -7.70053,0.638606 -0.43866,2.164889 3.58109,7.995906 5.14399,7.461832 0.63085,-0.215577 0.99609,-1.422432 0.81164,-2.681902 -0.28998,-1.979977 0.0146,-2.223045 2.25,-1.795718 1.84093,0.351917 2.58537,0.06698 2.58537,-0.989548 0,-2.227928 2.55508,0.183913 3.75477,3.544273 3.24886,9.100146 4.38474,13.410896 3.88022,14.725666 -0.73396,1.91266 -4.52521,1.94084 -5.25499,0.0391 z m -152.38,-4.54789 c 0,-0.55 0.42344,-1 0.94098,-1 0.51754,0 1.2191,0.45 1.55902,1 0.33992,0.55 -0.0835,1 -0.94099,1 -0.85746,0 -1.55901,-0.45 -1.55901,-1 z m 14,-3.507868 c 0,-0.755755 0.4996,-1.682867 1.11021,-2.060249 0.64237,-0.397007 0.8849,-2.074597 0.57553,-3.981011 -0.36,-2.218395 -0.10145,-3.461108 0.79135,-3.803709 0.90897,-0.348804 1.47855,0.648848 1.81095,3.171995 0.26671,2.024462 0.79533,4.623883 1.17471,5.776492 0.59678,1.81309 0.27501,2.10744 -2.38648,2.18312 -1.98496,0.0564 -3.07627,-0.4 -3.07627,-1.286638 z m 43,0.0079 c 0,-0.825 0.675,-1.5 1.5,-1.5 0.825,0 1.5,0.675 1.5,1.5 0,0.824998 -0.675,1.499998 -1.5,1.499998 -0.825,0 -1.5,-0.675 -1.5,-1.499998 z m 80.44113,-0.05178 c -1.8655,-1.491319 -1.84373,-1.525901 0.55887,-0.887604 3.08534,0.819679 5.00499,2.439382 2.89113,2.439382 -0.82988,0 -2.38238,-0.6983 -3.45,-1.551778 z M 196.1493,98.352529 c -4.73202,-1.364322 -5.16659,-3.618849 -1.35414,-7.025272 3.8128,-3.406733 7.22815,-3.854144 6.44092,-0.84376 -0.68331,2.612977 1.80187,2.661229 4.13755,0.08033 1.66388,-1.838569 1.63874,-1.93483 -0.59501,-2.278611 -2.25551,-0.347127 -2.23352,-0.409859 0.66771,-1.905456 2.24,-1.154731 5.08999,-1.437324 11.25,-1.115504 4.5375,0.237054 8.25,0.761126 8.25,1.164605 0,0.403478 -2.9992,1.591304 -6.6649,2.639612 -4.85207,1.387586 -7.95199,3.063226 -11.39693,6.160518 -4.99012,4.486546 -5.4966,4.633913 -10.7352,3.123538 z m -43.34219,-1.782951 c -1.29843,-1.052657 -2.07521,-2.200734 -1.72617,-2.551283 0.34904,-0.35055 1.92404,0.496494 3.5,1.882319 3.32399,2.922955 1.74223,3.519482 -1.77383,0.668964 z m 116.13922,0.91392 c 0,-0.55 0.47656,-1 1.05902,-1 0.58246,0 0.7809,0.45 0.44098,1 -0.33992,0.55 -0.81648,1 -1.05902,1 -0.24254,0 -0.44098,-0.45 -0.44098,-1 z m -16.24144,-5.179965 c -0.27575,-1.276019 -0.83434,-3.112638 -1.2413,-4.081376 -0.5703,-1.357529 -0.36854,-1.61882 0.88003,-1.139698 1.97786,0.758973 3.23175,5.172001 1.85946,6.54429 -0.66243,0.662425 -1.16501,0.218538 -1.49819,-1.323216 z m 7.02909,-4.272895 c 0.33356,-4.022363 0.017,-6.196275 -1.16481,-8.000008 -2.16956,-3.311164 -2.1698,-8.547132 -4e-4,-8.547132 1.3377,0 1.40123,0.266551 0.36199,1.518758 -1.0336,1.245413 -0.92065,1.894234 0.62756,3.604987 1.43311,1.583571 1.88801,3.615007 1.88801,8.431243 0,3.489756 -0.48834,6.833348 -1.08519,7.430203 -0.78026,0.780255 -0.95649,-0.466828 -0.62716,-4.438051 z m 16.51693,2.06799 c 2.03248,-1.861679 3.75167,-4.111679 3.82042,-5 0.0687,-0.888322 0.2375,-2.06513 0.375,-2.61513 0.1375,-0.55 0.30625,-1.675 0.375,-2.5 0.21184,-2.542035 3.04764,-1.656395 3.75793,1.173626 0.58066,2.313507 -0.0286,3.323703 -4.52319,7.5 -2.85682,2.654506 -5.71315,4.826374 -6.3474,4.826374 -0.63425,0 0.50976,-1.523192 2.54224,-3.38487 z m -98.80458,-1.61513 c 0.33992,-0.55 0.81648,-1 1.05902,-1 0.24254,0 0.44098,0.45 0.44098,1 0,0.55 -0.47656,1 -1.05902,1 -0.58246,0 -0.7809,-0.45 -0.44098,-1 z m 91.99445,-6.006131 c -0.99854,-1.103372 -1.57924,-2.242415 -1.29044,-2.531208 0.28879,-0.288793 1.2714,0.613966 2.18358,2.006131 1.993,3.041696 1.59573,3.275249 -0.89314,0.525077 z m -34.68195,0.323017 c 0.72187,-0.288871 1.58437,-0.253344 1.91667,0.07895 0.33229,0.332292 -0.25834,0.568641 -1.3125,0.52522 -1.16495,-0.04798 -1.4019,-0.284941 -0.60417,-0.60417 z m -62.8125,-2.185967 c 0,-1.162684 -0.9,-2.676031 -2,-3.362992 -2.65174,-1.656037 -2.53123,-2.767927 0.3,-2.767927 4.27813,0 6.30146,4.426021 3.2,7 -1.25288,1.039799 -1.5,0.896621 -1.5,-0.869081 z m 52.5,0.332966 c -2.28311,-1.045421 -2.52208,-1.375988 -1,-1.383346 1.1,-0.0053 3.125,0.63344 4.5,1.419461 3.17604,1.81559 0.48329,1.787805 -3.5,-0.03611 z m 10.5,-2.34144 c 0,-0.482656 0.675,-1.437756 1.5,-2.122445 1.2532,-1.040066 1.5,-0.89568 1.5,0.877555 0,1.219951 -0.63782,2.122445 -1.5,2.122445 -0.825,0 -1.5,-0.3949 -1.5,-0.877555 z m 49.63837,-2.622445 c -0.31658,-0.825 -1.26472,-1.5 -2.10699,-1.5 -1.90998,0 -1.90693,-1.338071 0.0156,-6.858448 1.17238,-3.366352 1.25045,-4.680701 0.34295,-5.774166 -2.03901,-2.456852 0.008,-2.811745 2.5336,-0.439219 4.32077,4.059156 5.02694,7.268491 2.6322,11.962574 -2.32912,4.56546 -2.59021,4.764804 -3.41737,2.609259 z m -34.72037,-4.689235 c -1.5903,-3.018551 -2.82694,-3.776874 -6.18944,-3.795452 -1.99415,-0.01102 -3.09091,0.68585 -3.91051,2.484687 -1.20668,2.648367 -2.30223,3.143634 -3.31805,1.5 -0.33992,-0.55 -1.46218,-1 -2.49392,-1 -1.03173,0 -3.14268,-0.521104 -4.69098,-1.158008 -2.78708,-1.146483 -2.76534,-1.166009 2.1849,-1.961997 2.75,-0.442194 7.54607,-1.646976 10.65794,-2.677293 l 5.65794,-1.873304 0.56706,2.835301 c 0.47117,2.355829 1.07316,2.835301 3.55984,2.835301 2.66279,0 2.9031,0.242403 2.17949,2.198501 -1.14121,3.084987 -2.7761,3.323075 -4.20427,0.612264 z m 13.082,0.220991 c -1.95454,-1.504034 -2.23652,-2.188128 -1.29238,-3.135383 1.60463,-1.60994 4.217,0.454172 4.0124,3.170323 -0.0801,1.063317 -0.16237,1.923298 -0.18282,1.911068 -0.0205,-0.01223 -1.1622,-0.887933 -2.5372,-1.946008 z m -72.30801,0.27889 c -0.30801,-0.498376 -0.17112,-1.535405 0.30422,-2.30451 0.50283,-0.813603 0.44136,-2.188532 -0.14701,-3.2879 -0.55618,-1.039241 -0.75168,-2.149086 -0.43445,-2.466323 0.73054,-0.730534 5.59754,1.441611 5.54929,2.476648 -0.0716,1.536492 -4.72639,6.464985 -5.27205,5.582085 z m -15.87587,-2.814872 c -0.62755,-1.377324 -0.80611,-2.839117 -0.3968,-3.248428 0.86288,-0.862881 3.58068,2.510028 3.58068,4.443784 0,2.199375 -1.97498,1.457888 -3.18388,-1.195356 z m 44.99032,-2.576442 c -0.19812,-0.594368 -1.92312,-1.407328 -3.83333,-1.806578 -3.17444,-0.663484 -3.44645,-0.997966 -3.16313,-3.889526 0.17049,-1.73999 -0.62247,-5.271572 -1.76213,-7.847961 -2.31615,-5.236034 -2.16229,-6.042067 0.84598,-4.432085 1.13582,0.607872 3.19936,0.820548 4.58565,0.472612 2.8055,-0.704135 3.00536,-0.105047 1.45175,4.351648 -1.17417,3.368206 0.37416,7.623401 4.36006,11.982558 l 2.05734,2.25 -2.09098,0 c -1.15004,0 -2.25308,-0.486301 -2.45121,-1.080668 z m -38.33839,-3.019995 c -0.82351,-2.594661 1.00857,-4.822719 2.63129,-3.2 1.18284,1.182847 0.32882,5.300663 -1.09934,5.300663 -0.47587,0 -1.16525,-0.945298 -1.53195,-2.100663 z m 76.63623,-0.813725 c -1.67894,-1.063103 -0.74877,-4.085612 1.25735,-4.085612 1.33673,0 2.63837,2.013753 2.63837,4.081787 0,1.158999 -2.06816,1.161029 -3.89572,0.0038 z m -26.85775,-1.23908 c -2.56215,-2.562152 -1.29472,-3.47225 4.74769,-3.409139 6.37501,0.06658 7.62367,0.996988 3.46168,2.579375 -4.88251,1.856325 -6.97165,2.067485 -8.20937,0.829764 z m 36.28063,-1.096532 c -0.22553,-0.6875 -0.56522,-2.15 -0.75486,-3.25 -0.21149,-1.226725 -0.99528,-1.889176 -2.0272,-1.713363 -0.92531,0.15765 -2.25475,-0.62985 -2.95429,-1.75 -1.84087,-2.947694 -5.21763,-2.506534 -8.23165,1.07543 l -2.61864,3.112066 0.64421,-4.028621 0.6442,-4.02862 -5.61552,-2.656567 c -6.62675,-3.134956 -9.06706,-3.000878 -9.09414,0.499659 -0.0114,1.474149 -0.59804,2.490016 -1.4379,2.490016 -1.47911,0 -5.10569,-5.484733 -4.42498,-6.692222 0.96802,-1.717162 9.80422,-1.699956 20.74176,0.04039 9.32374,1.483561 12.24475,2.332623 13.5,3.924104 0.88102,1.117002 4.38157,3.415126 7.779,5.106943 3.39744,1.691817 6.49259,3.586413 6.87812,4.210212 0.90636,1.46652 -1.60887,3.073509 -3.55527,2.271474 -4.06245,-1.673975 -5.81233,-1.527541 -6.46897,0.541337 -0.73779,2.324578 -2.36842,2.784781 -3.00387,0.847762 z m -7.52716,-11.75 c 0,-0.55 -0.47656,-1 -1.05902,-1 -0.58246,0 -0.7809,0.45 -0.44098,1 0.33992,0.55 0.81648,1 1.05902,1 0.24254,0 0.44098,-0.45 0.44098,-1 z m -63.62,0.547887 c -0.69661,-1.815354 0.31521,-3.547887 2.07203,-3.547887 1.52965,0 2.45753,1.914662 1.81733,3.75 -0.59752,1.712974 -3.2065,1.577397 -3.88936,-0.202113 z m 22.90768,-8.64907 c 1.2038,-0.700572 2.67355,-0.716425 4.5,-0.04854 2.50351,0.915472 2.36589,0.995564 -1.78768,1.040366 -3.58155,0.03863 -4.13514,-0.163799 -2.71232,-0.991826 z"
         id="path4537"
         inkscape:connector-curvature="0"
         sodipodi:nodetypes="ssssssssssssssssssssssssssssssssssscssssssssssssssssssssssssssssccscsccssssssssscsssssssccssssssssssssssssssssssssccssssssssssscsssssssssssssssssssssssssssssssssssscssssssscsssssssssssscsssssssssssscssssssscssscsccsssssssscssssssscssssccssssscssssssscscsssscssccsssscsssscccsssssssssscsssssssssssss" />
      <path
         style="fill:#655d50;"
         d="m 136.77966,160.4835 c 87.94728,-75.931809 43.97364,-37.9659 0,0 z m 136.16667,-17.83333 c 0,-1.409 1.12639,-2.0554 2.59777,-1.49078 2.08694,0.80084 1.69515,2.32411 -0.59777,2.32411 -1.1,0 -2,-0.375 -2,-0.83333 z m -17.34112,-7.41667 c -0.75238,-1.7875 -2.39472,-5.62619 -3.64966,-8.53043 -1.25493,-2.90424 -2.0521,-5.51002 -1.77149,-5.79064 0.28062,-0.28061 2.14192,0.45253 4.13624,1.62921 2.70718,1.59728 3.62991,2.81124 3.64134,4.79064 0.008,1.45817 0.37895,3.22419 0.8234,3.92448 0.9957,1.5689 0.26073,7.22674 -0.93879,7.22674 -0.48019,0 -1.48866,-1.4625 -2.24104,-3.25 z m -44.97618,-1.85536 c -0.55563,-2.12471 -3.40474,-2.1438 -2.9327,-0.0196 0.374,1.683 -1.41339,1.38874 -8.67154,-1.42762 -11.40572,-4.42573 -13.23267,-5.81182 -9.32846,-7.07745 4.70965,-1.52672 14.44903,-6.72501 14.92533,-7.96624 0.29626,-0.77207 0.98865,-1.40373 1.53865,-1.40373 0.55,0 0.73909,0.67992 0.4202,1.51094 -0.88464,2.30531 0.44739,7.48906 1.9244,7.48906 0.71972,0 1.45097,-1.22621 1.625,-2.72491 0.22833,-1.96634 1.40365,-3.3329 4.22195,-4.90893 2.14804,-1.20121 4.62304,-1.93295 5.5,-1.62608 3.03029,1.06037 6.09447,4.61739 6.09447,7.0747 0,1.35639 0.99375,4.45595 2.20833,6.88792 2.83276,5.67204 2.00301,6.26157 -8.8417,6.28199 -7.43456,0.014 -8.18067,-0.16558 -8.68393,-2.09005 z m 79.88169,-9.10152 c -0.22326,-0.71121 -0.80746,-2.61574 -1.29821,-4.23227 -0.49076,-1.61654 -2.08063,-3.82639 -3.53305,-4.91078 -2.30349,-1.7198 -2.86039,-1.79143 -4.36036,-0.56084 -1.55056,1.27209 -1.66193,1.18701 -1.13294,-0.86549 0.462,-1.79256 -0.36671,-3.16983 -3.89991,-6.48141 l -4.48658,-4.20516 2.18411,-1.76858 c 1.20127,-0.97273 3.36787,-1.768592 4.81467,-1.768592 2.55842,0 13.14788,6.461822 13.14788,8.023002 0,0.4287 1.575,1.70872 3.5,2.8445 4.59984,2.71397 4.42821,4.1325 -0.5,4.1325 -4.58768,0 -4.72722,0.26003 -2,3.72713 2.53345,3.22076 2.52944,4.91916 -0.0148,6.28081 -1.52312,0.81515 -2.1139,0.76273 -2.42077,-0.21482 z m -25.16084,-7.31712 c -0.0952,-4.46592 -0.0726,-4.49795 1.77327,-2.51658 1.29067,1.38537 1.6741,2.78639 1.23805,4.52375 -1.04516,4.16423 -2.90618,2.92378 -3.01132,-2.00717 z m -4.83212,1.95257 c -2.14394,-2.14394 -1.97297,-2.71384 0.42857,-1.42857 1.1,0.5887 2,1.50453 2,2.03518 0,1.35894 -0.61719,1.20477 -2.42857,-0.60661 z m 15.47441,-0.51422 c 0.61391,-1.1471 1.36033,-1.84151 1.65872,-1.54313 0.82426,0.82426 -0.49605,3.62878 -1.70836,3.62878 -0.73956,0 -0.72434,-0.63946 0.0496,-2.08565 z m -25.60425,-4.29107 c -0.34643,-1.38029 -0.36054,-2.94541 -0.0313,-3.47806 0.32919,-0.53264 -1.65345,-2.62154 -4.40586,-4.642 -2.75246,-2.02046 -5.00443,-3.97699 -5.00443,-4.34784 0,-0.37086 0.96179,-1.27493 2.13731,-2.009058 1.92358,-1.201298 2.36289,-1.051853 4.3933,1.494528 2.40128,3.01149 2.61979,3.00632 12.71939,-0.30104 1.09499,-0.35858 1.75,-0.0594 1.75,0.79941 0,0.75486 -2.25,2.40469 -5,3.66628 -5.10112,2.34018 -6.26249,4.38859 -3.39726,5.99206 2.01383,1.12699 1.44422,4.56971 -0.8285,5.0074 -1.12646,0.21693 -1.91597,-0.52148 -2.33265,-2.18168 z M 166.94633,99.605943 c 0,-1.311349 2.58498,-3.204134 3.34201,-2.447102 1.36904,1.369041 0.57965,3.324659 -1.34201,3.324659 -1.1,0 -2,-0.3949 -2,-0.877557 z m 26.92499,-2.982103 -2.29658,-1.859658 2.64034,-2.640342 c 3.14656,-3.14656 5.73125,-3.435343 5.73125,-0.640342 0,2.401257 2.01749,2.559437 6.04966,0.47432 3.85289,-1.992409 3.86618,-0.236317 0.0273,3.602603 -3.47574,3.475739 -8.6172,3.92567 -12.15193,1.063419 z m 42.32501,-1.360837 c -3.08081,-1.485817 -2.82482,-2.779505 0.55,-2.779505 2.69895,0 5.2,1.53911 5.2,3.2 0,1.106658 -3.04524,0.88396 -5.75,-0.420495 z m 54.24445,-0.785636 c -2.81314,-3.108486 -0.77629,-3.730253 2.26313,-0.690839 1.97553,1.975535 2.27638,2.69697 1.12468,2.69697 -0.86476,0 -2.38927,-0.902759 -3.38781,-2.006131 z m -79.49445,-5.993869 c 0,-0.55 -0.675,-1 -1.5,-1 -0.825,0 -1.5,-0.45 -1.5,-1 0,-0.583944 3.35301,-1 8.05902,-1 8.50458,0 9.71564,1.135269 3.15485,2.957396 -4.71791,1.310301 -8.21387,1.328434 -8.21387,0.0426 z m 77.33685,-1.564577 c -0.43038,-1.121545 0.16155,-2.314521 1.75706,-3.541146 2.93791,-2.258665 3.90609,-2.356393 3.90609,-0.394277 0,0.825 -0.675,1.5 -1.5,1.5 -0.825,0 -1.5,0.648442 -1.5,1.440983 0,2.191243 -1.92768,2.911052 -2.66315,0.99444 z m 8.34536,-1.086546 c -0.81388,-0.813878 2.5172,-3.343668 3.55676,-2.701184 0.41857,0.258687 0.76103,1.118783 0.76103,1.911324 0,1.444921 -3.09631,2.011335 -4.31779,0.78986 z m -14.9132,-2.12417 c -0.28813,-1.101821 -0.15324,-2.603014 0.29976,-3.335984 1.2383,-2.003614 2.35735,1.527429 1.16136,3.664547 -0.84375,1.507691 -0.9895,1.474917 -1.46112,-0.328563 z M 171.17483,77.52253 c -1.44038,-1.201286 -1.87469,-2.139668 -1.18698,-2.564692 1.11331,-0.688067 4.95848,2.166174 4.95848,3.680648 0,1.32733 -1.30484,0.941239 -3.7715,-1.115956 z m 111.23713,-5.267991 c -0.63745,-1.661175 2.18379,-8.771041 3.4804,-8.771041 1.47824,0 2.08762,3.256824 1.21621,6.5 -0.85166,3.169656 -3.80396,4.59724 -4.69661,2.271041 z m -31.46563,-1.271041 c 0,-0.825 0.45,-1.5 1,-1.5 0.55,0 1,0.675 1,1.5 0,0.825 -0.45,1.5 -1,1.5 -0.55,0 -1,-0.675 -1,-1.5 z m -17.98992,-1.392385 c -3.19277,-0.888651 -1.94631,-1.593613 5.48992,-3.104942 3.3,-0.670688 6.52244,-1.642513 7.16097,-2.159611 0.73552,-0.595638 1.39846,-0.555921 1.80902,0.10838 1.11229,1.799717 -0.26075,2.732882 -3.35327,2.278997 -2.23344,-0.327799 -3.29746,0.08611 -4.28457,1.666731 -1.35861,2.175468 -2.57774,2.39178 -6.82207,1.210445 z m -41.41443,-3.718956 c -0.45257,-1.179371 -0.19124,-1.447452 0.9748,-1 0.87622,0.336238 1.78132,0.611341 2.01134,0.611341 0.23001,0 0.41821,0.45 0.41821,1 0,1.628986 -2.73299,1.138206 -3.40435,-0.611341 z m -9.59565,-3.447676 c 0,-1.132459 0.45,-1.780902 1,-1.440983 0.55,0.339919 1,1.266476 1,2.059017 0,0.792541 -0.45,1.440983 -1,1.440983 -0.55,0 -1,-0.926558 -1,-2.059017 z m 33.15482,1.340811 c -1.77134,-0.33675 -2.21725,-0.935068 -1.82233,-2.445225 0.28756,-1.099661 -0.11473,-4.10025 -0.894,-6.667976 -0.77926,-2.567726 -1.42171,-4.736093 -1.42767,-4.818593 -0.006,-0.0825 1.5494,-0.15 3.45634,-0.15 l 3.46717,0 -0.59013,4.305408 c -0.42635,3.110591 -0.13972,4.948439 1.03284,6.622506 2.6959,3.84893 2.32799,4.20903 -3.22222,3.15388 z m 42.84518,-2.781794 c 0,-0.825 0.675,-1.5 1.5,-1.5 0.825,0 1.5,0.675 1.5,1.5 0,0.825 -0.675,1.5 -1.5,1.5 -0.825,0 -1.5,-0.675 -1.5,-1.5 z m -26.54112,-0.566531 c -0.97288,-1.574154 0.10629,-2.206255 2.48028,-1.452779 1.14943,0.364817 1.83179,1.080904 1.51634,1.591306 -0.7773,1.257704 -3.18528,1.17424 -3.99662,-0.138527 z M 267.557,56.450212 c -0.78201,-4.890411 0.42534,-7.011642 2.84695,-5.001888 2.02857,1.683563 1.91807,3.988779 -0.33143,6.914128 l -1.82933,2.378953 z m -15.26515,-7.966714 c -0.81297,-3.045804 -0.77995,-4 0.13842,-4 1.65306,0 4.51606,3.310382 4.51606,5.221752 0,1.225268 -1.88666,2.778248 -3.3752,2.778248 -0.11639,0 -0.69206,-1.8 -1.27928,-4 z m 9.65448,-0.08333 c 0,-2.437045 2.33677,-2.09257 2.82332,0.416199 0.19138,0.986764 -0.31876,1.667134 -1.25,1.667134 -0.92763,0 -1.57332,-0.854996 -1.57332,-2.083333 z m -65,-0.5 c 0,-1.765927 2.15276,-1.45839 2.77083,0.395833 0.21771,0.653125 -0.31666,1.1875 -1.1875,1.1875 -0.87083,0 -1.58333,-0.7125 -1.58333,-1.583333 z m 36.95416,-1.502313 c -1.33461,-2.493743 -1.27386,-2.574712 2.54789,-3.396191 2.4923,-0.535716 2.69539,-0.452575 1.20412,0.492936 -1.16821,0.740678 -1.58066,1.808981 -1.18261,3.06312 0.82072,2.585857 -1.16609,2.46224 -2.5694,-0.159865 z"
         id="path4535"
         inkscape:connector-curvature="0"
         sodipodi:nodetypes="ccsssssscsccssssssssssssssssscssssscsssssssccscssssssccsccscssssssssssssssccssssccssssssssssssssssssssssssssssssssssssssssssssssssssssssssssssscscssssssssssssssscsssssssssssssssssss" />
    </g>
    <path
       sodipodi:type="arc"
       style="opacity:0.40909089;fill:url(#radialGradient5240);fill-opacity:1;fill-rule:nonzero;stroke:none;stroke-width:1.01758969;marker:none;visibility:visible;display:inline;overflow:visible"
       id="path3374"
       sodipodi:cx="25.455845"
       sodipodi:cy="39.161163"
       sodipodi:rx="19.622213"
       sodipodi:ry="6.1871843"
       d="m 45.078058,39.161163 a 19.622213,6.1871843 0 1 1 -39.2444265,0 19.622213,6.1871843 0 1 1 39.2444265,0 z"
       transform="matrix(0.9325851,0,0,1.0248018,0.12360217,1.512626)" />
  </g>
  <g
     inkscape:groupmode="layer"
     id="layer2"
     inkscape:label="ojo"
     style="display:none">
    <g
       id="g2692"
       inkscape:label="ojo"
       style="display:inline"
       transform="matrix(0.1448339,0,0,0.1448339,-21.670517,-10.202007)">
      <path
         style="fill:#ffffff;fill-opacity:1;stroke:#000000;stroke-width:5;stroke-miterlimit:4;stroke-opacity:1;stroke-dasharray:none"
         d="m 426.07398,304.75554 c 7.31628,8.59787 11.76648,19.71982 11.76648,31.88532 0,27.19599 -22.06469,49.26068 -49.26069,49.26068 -27.19599,6e-5 -49.26068,-22.06469 -49.26068,-49.26068 0,-11.65108 4.02156,-22.35031 10.79101,-30.78793 -43.31676,6.05218 -51.94916,14.77343 -48.58135,29.24635 4.24344,18.23578 27.46981,49.95254 90.95286,50.98516 38.48149,-2.80956 47.0065,-14.9996 67.67247,-39.14028 18.45973,-21.56348 0.59098,-35.30028 -34.0801,-42.18862 z"
         id="path3656"
         sodipodi:nodetypes="cscscscsc"
         inkscape:connector-curvature="0" />
      <path
         style="fill:none;stroke:#000000;stroke-width:11.51041794;stroke-linecap:round;stroke-linejoin:miter;stroke-miterlimit:4.69999981;stroke-opacity:1;stroke-dasharray:none;marker-start:none;marker-end:none"
         d="M 303.01759,328.32089 C 323.64514,296.34333 429.29698,280.98518 463.80074,317.9891"
         id="path3668"
         sodipodi:nodetypes="cc"
         inkscape:connector-curvature="0" />
      <path
         style="fill:#000000;fill-opacity:1;fill-rule:evenodd;stroke:#000000;stroke-width:2.02144313px;stroke-linecap:butt;stroke-linejoin:miter;stroke-opacity:1"
         d="m 308.38701,315.49312 c -2.80681,-0.88223 -5.25861,-2.73415 -7.32498,-4.91372 -13.1694,-16.36863 -1.53522,6.23611 3.84255,12.39705"
         id="path8123"
         inkscape:connector-curvature="0" />
      <path
         style="fill:#000000;fill-opacity:1;fill-rule:evenodd;stroke:#000000;stroke-width:2.02144313px;stroke-linecap:butt;stroke-linejoin:miter;stroke-opacity:1"
         d="m 324.40613,311.00306 c -1.23893,-3.26535 -2.97544,-6.26838 -4.69835,-9.25434 -8.63935,-19.21999 -4.92186,6.71389 -3.65944,14.49267"
         id="path8125"
         inkscape:connector-curvature="0" />
      <path
         style="fill:#000000;fill-opacity:1;fill-rule:evenodd;stroke:#000000;stroke-width:2.02144313px;stroke-linecap:butt;stroke-linejoin:miter;stroke-opacity:1"
         d="m 344.60416,302.77138 c -2.54302,-3.93561 -4.28144,-8.41111 -5.48543,-13.00701 -4.23769,-20.8957 -1.68768,7.13843 -3.56884,13.75532"
         id="path8127"
         inkscape:connector-curvature="0" />
      <path
         style="fill:#000000;fill-opacity:1;fill-rule:evenodd;stroke:#000000;stroke-width:2.02144313px;stroke-linecap:butt;stroke-linejoin:miter;stroke-opacity:1"
         d="m 373.16003,296.78473 c -2.17711,-2.91299 -2.43606,-6.63712 -2.74998,-10.29094 -3.71548,-22.12704 -2.29482,-7.82281 -7.69731,8.79425"
         id="path8129"
         sodipodi:nodetypes="ccc"
         inkscape:connector-curvature="0" />
      <path
         style="fill:#000000;fill-opacity:1;fill-rule:evenodd;stroke:#000000;stroke-width:2.02144313px;stroke-linecap:butt;stroke-linejoin:miter;stroke-opacity:1"
         d="m 396.84047,295.28804 c -1.65797,-4.35132 -2.53305,-8.98721 -3.17863,-13.61998 -2.79526,-19.54978 -3.13248,0.86303 -4.48267,9.12998"
         id="path8131"
         inkscape:connector-curvature="0" />
      <path
         style="fill:#000000;fill-opacity:1;fill-rule:evenodd;stroke:#000000;stroke-width:2.02144313px;stroke-linecap:butt;stroke-linejoin:miter;stroke-opacity:1"
         d="m 417.73502,293.79138 c -0.65774,-3.35018 -0.70561,-6.78444 -0.78135,-10.19086 -2.25163,-21.10257 -0.90103,5.16713 -7.57645,9.44249"
         id="path8133"
         inkscape:connector-curvature="0" />
      <path
         style="fill:#000000;fill-opacity:1;fill-rule:evenodd;stroke:#000000;stroke-width:2.02144313px;stroke-linecap:butt;stroke-linejoin:miter;stroke-opacity:1"
         d="m 438.62955,302.02304 c -0.1657,-5.31836 -0.0754,-10.64185 -0.2578,-15.95978 -1.05416,-19.05171 -3.42796,4.41242 -7.40354,9.97314"
         id="path8135"
         inkscape:connector-curvature="0" />
      <path
         style="fill:#000000;fill-opacity:1;fill-rule:evenodd;stroke:#000000;stroke-width:2.02144313px;stroke-linecap:butt;stroke-linejoin:miter;stroke-opacity:1"
         d="m 455.34515,311.00306 c 1.25331,-5.67569 1.48053,-11.53845 1.45564,-17.34856 1.24314,-21.07341 -3.68306,3.22042 -11.20641,7.62023"
         id="path8137"
         inkscape:connector-curvature="0" />
      <path
         style="fill:#000000;fill-opacity:1;fill-rule:evenodd;stroke:#000000;stroke-width:2.02144313px;stroke-linecap:butt;stroke-linejoin:miter;stroke-opacity:1"
         d="m 459.52405,313.24802 c 4.64036,-6.77364 8.148,-14.42554 13.43391,-20.68851 8.51511,-1.44337 -8.52801,19.36456 -5.77257,28.17196"
         id="path9193"
         inkscape:connector-curvature="0" />
      <path
         style="fill:#2a5d90;fill-opacity:1;stroke:#000000;stroke-width:2.90681934;stroke-linecap:round;stroke-linejoin:miter;stroke-miterlimit:4.69999981;stroke-opacity:1;stroke-dasharray:none"
         d="m 384.22115,384.54474 c -18.42966,-1.55654 -35.14058,-14.58214 -41.09044,-32.02858 -4.54286,-13.32079 -3.12326,-28.40738 3.76393,-40.00022 2.38135,-4.00845 2.72015,-4.18866 11.28528,-6.00296 15.5871,-3.30173 33.50503,-4.73962 46.99977,-3.77167 9.09693,0.65253 18.25962,1.85825 19.61215,2.58081 1.37534,0.73474 5.19703,6.45013 7.26785,10.86913 7.09957,15.15011 5.85344,33.12601 -3.24514,46.81223 -7.84466,11.80003 -21.50674,20.27037 -34.42551,21.34338 -1.89682,0.15755 -4.00303,0.3474 -4.68047,0.42188 -0.67743,0.0745 -3.14679,-0.0263 -5.48744,-0.224 l 2e-5,0 z"
         id="path9357"
         inkscape:connector-curvature="0" />
      <path
         sodipodi:type="arc"
         style="fill:#ffffff;fill-opacity:1;stroke:none"
         id="path9361"
         sodipodi:cx="375.65048"
         sodipodi:cy="523.67358"
         sodipodi:rx="9.2176418"
         sodipodi:ry="9.2176418"
         d="m 384.86812,523.67358 a 9.2176418,9.2176418 0 1 1 -18.43528,0 9.2176418,9.2176418 0 1 1 18.43528,0 z"
         transform="matrix(1.9509182,0,0,1.9509182,-366.71555,-696.08871)" />
    </g>
    <g
       id="g4519"
       transform="matrix(0.32460733,0,0,0.32460733,-64.198554,79.009798)" />
  </g>
</svg>
