<?xml version="1.0" encoding="UTF-8" standalone="no"?>
<!-- Created with Inkscape (http://www.inkscape.org/) -->

<svg
   xmlns:osb="http://www.openswatchbook.org/uri/2009/osb"
   xmlns:dc="http://purl.org/dc/elements/1.1/"
   xmlns:cc="http://creativecommons.org/ns#"
   xmlns:rdf="http://www.w3.org/1999/02/22-rdf-syntax-ns#"
   xmlns:svg="http://www.w3.org/2000/svg"
   xmlns="http://www.w3.org/2000/svg"
   xmlns:xlink="http://www.w3.org/1999/xlink"
   xmlns:sodipodi="http://sodipodi.sourceforge.net/DTD/sodipodi-0.dtd"
   xmlns:inkscape="http://www.inkscape.org/namespaces/inkscape"
   width="48"
   height="48"
   id="svg2"
   sodipodi:version="0.32"
   inkscape:version="0.48.4 r9939"
   version="1.0"
   sodipodi:docname="slic.svg"
   inkscape:output_extension="org.inkscape.output.svg.inkscape"
   enable-background="new">
  <sodipodi:namedview
     id="base"
     pagecolor="#ffffff"
     bordercolor="#666666"
     borderopacity="1.0"
     inkscape:pageopacity="0.0"
     inkscape:pageshadow="2"
     inkscape:zoom="10.415106"
     inkscape:cx="-12.412129"
     inkscape:cy="24.367098"
     inkscape:document-units="px"
     inkscape:current-layer="layer1"
     showgrid="false"
     inkscape:window-width="1865"
     inkscape:window-height="1056"
     inkscape:window-x="55"
     inkscape:window-y="24"
     inkscape:window-maximized="1" />
  <defs
     id="defs4">
    <linearGradient
       osb:paint="solid"
       id="linearGradient3949">
      <stop
         id="stop3951"
         offset="0"
         style="stop-color:#ef2929;stop-opacity:1;" />
    </linearGradient>
    <linearGradient
       id="linearGradient4101">
      <stop
         style="stop-color:#6a6a6a;stop-opacity:1;"
         offset="0"
         id="stop4103" />
      <stop
         style="stop-color:#b9b9b9;stop-opacity:0;"
         offset="1"
         id="stop4105" />
    </linearGradient>
    <linearGradient
       id="linearGradient3975">
      <stop
         style="stop-color:#666666;stop-opacity:1;"
         offset="0"
         id="stop3977" />
      <stop
         style="stop-color:#ffffff;stop-opacity:1;"
         offset="1"
         id="stop3979" />
    </linearGradient>
    <linearGradient
       id="linearGradient3621">
      <stop
         style="stop-color:#ffffff;stop-opacity:1;"
         offset="0"
         id="stop3623" />
      <stop
         style="stop-color:#dddddd;stop-opacity:1;"
         offset="1"
         id="stop3625" />
    </linearGradient>
    <linearGradient
       id="linearGradient3615">
      <stop
         id="stop3617"
         offset="0"
         style="stop-color:#ffffff;stop-opacity:1;" />
      <stop
         id="stop3619"
         offset="1"
         style="stop-color:#000000;stop-opacity:1;" />
    </linearGradient>
    <linearGradient
       id="linearGradient3597">
      <stop
         style="stop-color:#966337;stop-opacity:1;"
         offset="0"
         id="stop3599" />
      <stop
         style="stop-color:#ff8700;stop-opacity:1;"
         offset="1"
         id="stop3601" />
    </linearGradient>
    <linearGradient
       id="linearGradient3573">
      <stop
         id="stop3575"
         offset="0"
         style="stop-color:#ffffff;stop-opacity:1;" />
      <stop
         id="stop3577"
         offset="1"
         style="stop-color:#dddddd;stop-opacity:1;" />
    </linearGradient>
    <linearGradient
       id="linearGradient3543">
      <stop
         style="stop-color:#ffffff;stop-opacity:1;"
         offset="0"
         id="stop3545" />
      <stop
         style="stop-color:#d9d9d9;stop-opacity:1;"
         offset="1"
         id="stop3547" />
    </linearGradient>
    <linearGradient
       id="linearGradient3159">
      <stop
         style="stop-color:#ffffff;stop-opacity:1;"
         offset="0"
         id="stop3161" />
      <stop
         style="stop-color:#4c4c4c;stop-opacity:1;"
         offset="1"
         id="stop3163" />
    </linearGradient>
    <inkscape:perspective
       sodipodi:type="inkscape:persp3d"
       inkscape:vp_x="0 : 526.18109 : 1"
       inkscape:vp_y="0 : 1000 : 0"
       inkscape:vp_z="744.09448 : 526.18109 : 1"
       inkscape:persp3d-origin="372.04724 : 350.78739 : 1"
       id="perspective10" />
    <inkscape:perspective
       id="perspective3812"
       inkscape:persp3d-origin="372.04724 : 350.78739 : 1"
       inkscape:vp_z="744.09448 : 526.18109 : 1"
       inkscape:vp_y="0 : 1000 : 0"
       inkscape:vp_x="0 : 526.18109 : 1"
       sodipodi:type="inkscape:persp3d" />
    <radialGradient
       inkscape:collect="always"
       xlink:href="#linearGradient3597-738"
       id="radialGradient4164-483"
       gradientUnits="userSpaceOnUse"
       gradientTransform="matrix(1,0,0,0.1593625,0,35.832171)"
       cx="19.1875"
       cy="42.625"
       fx="19.1875"
       fy="42.625"
       r="15.6875" />
    <linearGradient
       id="linearGradient3597-738">
      <stop
         style="stop-color:#2f2f2f;stop-opacity:1;"
         offset="0"
         id="stop2457" />
      <stop
         style="stop-color:#c7c7c7;stop-opacity:1;"
         offset="1"
         id="stop2459" />
    </linearGradient>
    <radialGradient
       inkscape:collect="always"
       xlink:href="#linearGradient3543-534"
       id="radialGradient4161-819"
       gradientUnits="userSpaceOnUse"
       gradientTransform="matrix(0.708106,-0.3768867,0.7104127,1.3347473,-9.3325349,-7.7140526)"
       cx="19.508642"
       cy="24.242718"
       fx="19.508642"
       fy="24.242718"
       r="14.116934" />
    <linearGradient
       id="linearGradient3543-534">
      <stop
         style="stop-color:#ffffff;stop-opacity:1;"
         offset="0"
         id="stop2463" />
      <stop
         style="stop-color:#d9d9d9;stop-opacity:1;"
         offset="1"
         id="stop2465" />
    </linearGradient>
    <linearGradient
       inkscape:collect="always"
       xlink:href="#linearGradient4186-726"
       id="linearGradient4192-619"
       x1="17.846429"
       y1="18.332224"
       x2="45.440179"
       y2="18.332224"
       gradientUnits="userSpaceOnUse" />
    <linearGradient
       inkscape:collect="always"
       id="linearGradient4186-726">
      <stop
         style="stop-color:#8b8b8b;stop-opacity:1;"
         offset="0"
         id="stop2469" />
      <stop
         style="stop-color:#8b8b8b;stop-opacity:0;"
         offset="1"
         id="stop2471" />
    </linearGradient>
    <radialGradient
       gradientUnits="userSpaceOnUse"
       r="4.7595444"
       fy="12.187655"
       fx="9.6945658"
       cy="12.187655"
       cx="9.6945658"
       id="radialGradient3963-5"
       xlink:href="#linearGradient3597-2"
       inkscape:collect="always" />
    <linearGradient
       id="linearGradient3597-2">
      <stop
         style="stop-color:#966337;stop-opacity:1;"
         offset="0"
         id="stop3599-6" />
      <stop
         style="stop-color:#ff8700;stop-opacity:1;"
         offset="1"
         id="stop3601-0" />
    </linearGradient>
    <radialGradient
       gradientUnits="userSpaceOnUse"
       r="4.7595444"
       fy="12.187655"
       fx="9.6945658"
       cy="12.187655"
       cx="9.6945658"
       id="radialGradient3963-7"
       xlink:href="#linearGradient3597-8"
       inkscape:collect="always" />
    <linearGradient
       id="linearGradient3597-8">
      <stop
         style="stop-color:#966337;stop-opacity:1;"
         offset="0"
         id="stop3599-2" />
      <stop
         style="stop-color:#ff8700;stop-opacity:1;"
         offset="1"
         id="stop3601-3" />
    </linearGradient>
    <radialGradient
       inkscape:collect="always"
       xlink:href="#linearGradient3597-2-6"
       id="radialGradient3988-3"
       gradientUnits="userSpaceOnUse"
       cx="9.6945658"
       cy="12.187655"
       fx="9.6945658"
       fy="12.187655"
       r="4.7595444" />
    <linearGradient
       id="linearGradient3597-2-6">
      <stop
         style="stop-color:#966337;stop-opacity:1;"
         offset="0"
         id="stop3599-6-7" />
      <stop
         style="stop-color:#ff8700;stop-opacity:1;"
         offset="1"
         id="stop3601-0-5" />
    </linearGradient>
    <radialGradient
       inkscape:collect="always"
       xlink:href="#linearGradient3597-2-9"
       id="radialGradient3988-0"
       gradientUnits="userSpaceOnUse"
       cx="9.6945658"
       cy="12.187655"
       fx="9.6945658"
       fy="12.187655"
       r="4.7595444" />
    <linearGradient
       id="linearGradient3597-2-9">
      <stop
         style="stop-color:#966337;stop-opacity:1;"
         offset="0"
         id="stop3599-6-3" />
      <stop
         style="stop-color:#ff8700;stop-opacity:1;"
         offset="1"
         id="stop3601-0-6" />
    </linearGradient>
    <radialGradient
       inkscape:collect="always"
       xlink:href="#linearGradient3597-2-9"
       id="radialGradient3108"
       gradientUnits="userSpaceOnUse"
       cx="9.6945658"
       cy="12.187655"
       fx="9.6945658"
       fy="12.187655"
       r="4.7595444" />
    <radialGradient
       inkscape:collect="always"
       xlink:href="#linearGradient3597-2-2"
       id="radialGradient3988-6"
       gradientUnits="userSpaceOnUse"
       cx="9.6945658"
       cy="12.187655"
       fx="9.6945658"
       fy="12.187655"
       r="4.7595444" />
    <linearGradient
       id="linearGradient3597-2-2">
      <stop
         style="stop-color:#966337;stop-opacity:1;"
         offset="0"
         id="stop3599-6-6" />
      <stop
         style="stop-color:#ff8700;stop-opacity:1;"
         offset="1"
         id="stop3601-0-1" />
    </linearGradient>
    <radialGradient
       inkscape:collect="always"
       xlink:href="#linearGradient3597-2-2"
       id="radialGradient3142"
       gradientUnits="userSpaceOnUse"
       cx="9.6945658"
       cy="12.187655"
       fx="9.6945658"
       fy="12.187655"
       r="4.7595444" />
    <radialGradient
       inkscape:collect="always"
       xlink:href="#linearGradient3597-2-92"
       id="radialGradient3988-7"
       gradientUnits="userSpaceOnUse"
       cx="9.6945658"
       cy="12.187655"
       fx="9.6945658"
       fy="12.187655"
       r="4.7595444" />
    <linearGradient
       id="linearGradient3597-2-92">
      <stop
         style="stop-color:#966337;stop-opacity:1;"
         offset="0"
         id="stop3599-6-0" />
      <stop
         style="stop-color:#ff8700;stop-opacity:1;"
         offset="1"
         id="stop3601-0-2" />
    </linearGradient>
    <radialGradient
       inkscape:collect="always"
       xlink:href="#linearGradient3597-2-22"
       id="radialGradient3988-59"
       gradientUnits="userSpaceOnUse"
       cx="9.6945658"
       cy="12.187655"
       fx="9.6945658"
       fy="12.187655"
       r="4.7595444" />
    <linearGradient
       id="linearGradient3597-2-22">
      <stop
         style="stop-color:#966337;stop-opacity:1;"
         offset="0"
         id="stop3599-6-8" />
      <stop
         style="stop-color:#ff8700;stop-opacity:1;"
         offset="1"
         id="stop3601-0-9" />
    </linearGradient>
    <radialGradient
       inkscape:collect="always"
       xlink:href="#linearGradient3597-2-22"
       id="radialGradient3193"
       gradientUnits="userSpaceOnUse"
       cx="9.6945658"
       cy="12.187655"
       fx="9.6945658"
       fy="12.187655"
       r="4.7595444" />
    <radialGradient
       r="4.7595444"
       fy="12.187655"
       fx="9.6945658"
       cy="12.187655"
       cx="9.6945658"
       gradientUnits="userSpaceOnUse"
       id="radialGradient4132"
       xlink:href="#linearGradient3597-2-9"
       inkscape:collect="always" />
    <radialGradient
       r="4.7595444"
       fy="12.187655"
       fx="9.6945658"
       cy="12.187655"
       cx="9.6945658"
       gradientUnits="userSpaceOnUse"
       id="radialGradient4134"
       xlink:href="#linearGradient3597-2-22"
       inkscape:collect="always" />
    <filter
       color-interpolation-filters="sRGB"
       inkscape:menu-tooltip="Invert colors"
       inkscape:menu="Color"
       height="1"
       width="1"
       y="0"
       x="0"
       inkscape:label="Invert"
       id="filter5022">
      <feColorMatrix
         values="0"
         type="saturate"
         id="feColorMatrix5024"
         result="fbSourceGraphic" />
      <feColorMatrix
         result="fbSourceGraphicAlpha"
         in="fbSourceGraphic"
         values="0 0 0 -1 0 0 0 0 -1 0 0 0 0 -1 0 0 0 0 1 0"
         id="feColorMatrix5196" />
      <feColorMatrix
         id="feColorMatrix5198"
         type="hueRotate"
         values="180"
         result="fbSourceGraphic"
         in="fbSourceGraphic" />
      <feColorMatrix
         result="fbSourceGraphicAlpha"
         in="fbSourceGraphic"
         values="0 0 0 -1 0 0 0 0 -1 0 0 0 0 -1 0 0 0 0 1 0"
         id="feColorMatrix5200" />
      <feColorMatrix
         id="feColorMatrix5202"
         in="fbSourceGraphic"
         result="r"
         type="matrix"
         values="1 0 0 0 0 1 0 0 0 0 1 0 0 0 0 0 0 0 0 1 " />
      <feColorMatrix
         id="feColorMatrix5204"
         in="fbSourceGraphic"
         result="g"
         type="matrix"
         values="0 1 0 0 0 0 1 0 0 0 0 1 0 0 0 0 0 0 0 1 " />
      <feColorMatrix
         id="feColorMatrix5206"
         in="fbSourceGraphic"
         result="b"
         type="matrix"
         values="0 0 1 0 0 0 0 1 0 0 0 0 1 0 0 0 0 0 0 1 " />
      <feBlend
         id="feBlend5208"
         in2="g"
         mode="darken"
         in="r"
         result="minrg" />
      <feBlend
         id="feBlend5210"
         in2="b"
         mode="darken"
         in="minrg"
         result="p" />
      <feBlend
         id="feBlend5212"
         in2="g"
         mode="lighten"
         in="r"
         result="maxrg" />
      <feBlend
         id="feBlend5214"
         in2="b"
         mode="lighten"
         in="maxrg"
         result="q" />
      <feComponentTransfer
         id="feComponentTransfer5216"
         in="q"
         result="q2">
        <feFuncR
           id="feFuncR5218"
           type="linear"
           slope="0" />
      </feComponentTransfer>
      <feBlend
         id="feBlend5220"
         in2="q2"
         mode="lighten"
         in="p"
         result="pq" />
      <feColorMatrix
         id="feColorMatrix5222"
         in="pq"
         result="qminp"
         type="matrix"
         values="-1 1 0 0 0 -1 1 0 0 0 -1 1 0 0 0 0 0 0 0 1 " />
      <feComponentTransfer
         id="feComponentTransfer5224"
         in="qminp"
         result="coefsq">
        <feFuncR
           id="feFuncR5226"
           type="table"
           tableValues="1 1 0 0 0 1 1" />
        <feFuncG
           id="feFuncG5228"
           type="table"
           tableValues="0 1 1 1 0 0 0" />
        <feFuncB
           id="feFuncB5230"
           type="table"
           tableValues="0 0 0 1 1 1 0" />
      </feComponentTransfer>
      <feFlood
         id="feFlood5232"
         flood-color="rgb(203,0,254)"
         result="result1" />
      <feComposite
         id="feComposite5234"
         in2="result1"
         in="qminp"
         result="qminpc"
         operator="arithmetic"
         k1="1" />
      <feComposite
         id="feComposite5236"
         in2="qminpc"
         in="p"
         result="color"
         operator="arithmetic"
         k2="1"
         k3="1" />
      <feComposite
         id="feComposite5238"
         in2="fbSourceGraphic"
         in="color"
         operator="in"
         k1="1"
         result="fbSourceGraphic" />
      <feColorMatrix
         result="fbSourceGraphicAlpha"
         in="fbSourceGraphic"
         values="0 0 0 -1 0 0 0 0 -1 0 0 0 0 -1 0 0 0 0 1 0"
         id="feColorMatrix5240" />
      <feColorMatrix
         id="feColorMatrix5242"
         type="saturate"
         values="1"
         result="fbSourceGraphic"
         in="fbSourceGraphic" />
      <feColorMatrix
         id="feColorMatrix5244"
         in="fbSourceGraphic"
         values="-1 0 0 0 1 0 -1 0 0 1 0 0 -1 0 1 0 0 0 1 0 " />
    </filter>
    <filter
       color-interpolation-filters="sRGB"
       inkscape:menu-tooltip="Invert colors"
       inkscape:menu="Color"
       height="1"
       width="1"
       y="0"
       x="0"
       inkscape:label="Invert"
       id="filter5022-3">
      <feColorMatrix
         values="0"
         type="saturate"
         id="feColorMatrix5024-6"
         result="fbSourceGraphic" />
      <feColorMatrix
         result="fbSourceGraphicAlpha"
         in="fbSourceGraphic"
         values="0 0 0 -1 0 0 0 0 -1 0 0 0 0 -1 0 0 0 0 1 0"
         id="feColorMatrix5196-7" />
      <feColorMatrix
         id="feColorMatrix5198-5"
         type="hueRotate"
         values="180"
         result="fbSourceGraphic"
         in="fbSourceGraphic" />
      <feColorMatrix
         result="fbSourceGraphicAlpha"
         in="fbSourceGraphic"
         values="0 0 0 -1 0 0 0 0 -1 0 0 0 0 -1 0 0 0 0 1 0"
         id="feColorMatrix5200-3" />
      <feColorMatrix
         id="feColorMatrix5202-5"
         in="fbSourceGraphic"
         result="r"
         type="matrix"
         values="1 0 0 0 0 1 0 0 0 0 1 0 0 0 0 0 0 0 0 1 " />
      <feColorMatrix
         id="feColorMatrix5204-6"
         in="fbSourceGraphic"
         result="g"
         type="matrix"
         values="0 1 0 0 0 0 1 0 0 0 0 1 0 0 0 0 0 0 0 1 " />
      <feColorMatrix
         id="feColorMatrix5206-2"
         in="fbSourceGraphic"
         result="b"
         type="matrix"
         values="0 0 1 0 0 0 0 1 0 0 0 0 1 0 0 0 0 0 0 1 " />
      <feBlend
         id="feBlend5208-9"
         in2="g"
         mode="darken"
         in="r"
         result="minrg" />
      <feBlend
         id="feBlend5210-1"
         in2="b"
         mode="darken"
         in="minrg"
         result="p" />
      <feBlend
         id="feBlend5212-2"
         in2="g"
         mode="lighten"
         in="r"
         result="maxrg" />
      <feBlend
         id="feBlend5214-7"
         in2="b"
         mode="lighten"
         in="maxrg"
         result="q" />
      <feComponentTransfer
         id="feComponentTransfer5216-0"
         in="q"
         result="q2">
        <feFuncR
           id="feFuncR5218-9"
           type="linear"
           slope="0" />
      </feComponentTransfer>
      <feBlend
         id="feBlend5220-3"
         in2="q2"
         mode="lighten"
         in="p"
         result="pq" />
      <feColorMatrix
         id="feColorMatrix5222-6"
         in="pq"
         result="qminp"
         type="matrix"
         values="-1 1 0 0 0 -1 1 0 0 0 -1 1 0 0 0 0 0 0 0 1 " />
      <feComponentTransfer
         id="feComponentTransfer5224-0"
         in="qminp"
         result="coefsq">
        <feFuncR
           id="feFuncR5226-6"
           type="table"
           tableValues="1 1 0 0 0 1 1" />
        <feFuncG
           id="feFuncG5228-2"
           type="table"
           tableValues="0 1 1 1 0 0 0" />
        <feFuncB
           id="feFuncB5230-6"
           type="table"
           tableValues="0 0 0 1 1 1 0" />
      </feComponentTransfer>
      <feFlood
         id="feFlood5232-1"
         flood-color="rgb(203,0,254)"
         result="result1" />
      <feComposite
         k4="0"
         k3="0"
         k2="0"
         id="feComposite5234-8"
         in2="result1"
         in="qminp"
         result="qminpc"
         operator="arithmetic"
         k1="1" />
      <feComposite
         k4="0"
         k1="0"
         id="feComposite5236-7"
         in2="qminpc"
         in="p"
         result="color"
         operator="arithmetic"
         k2="1"
         k3="1" />
      <feComposite
         id="feComposite5238-9"
         in2="fbSourceGraphic"
         in="color"
         operator="in"
         result="fbSourceGraphic" />
      <feColorMatrix
         result="fbSourceGraphicAlpha"
         in="fbSourceGraphic"
         values="0 0 0 -1 0 0 0 0 -1 0 0 0 0 -1 0 0 0 0 1 0"
         id="feColorMatrix5240-2" />
      <feColorMatrix
         id="feColorMatrix5242-0"
         type="saturate"
         values="1"
         result="fbSourceGraphic"
         in="fbSourceGraphic" />
      <feColorMatrix
         id="feColorMatrix5244-2"
         in="fbSourceGraphic"
         values="-1 0 0 0 1 0 -1 0 0 1 0 0 -1 0 1 0 0 0 1 0 " />
    </filter>
    <filter
       color-interpolation-filters="sRGB"
       inkscape:menu-tooltip="Invert colors"
       inkscape:menu="Color"
       height="1"
       width="1"
       y="0"
       x="0"
       inkscape:label="Invert"
       id="filter5022-7">
      <feColorMatrix
         values="0"
         type="saturate"
         id="feColorMatrix5024-5"
         result="fbSourceGraphic" />
      <feColorMatrix
         result="fbSourceGraphicAlpha"
         in="fbSourceGraphic"
         values="0 0 0 -1 0 0 0 0 -1 0 0 0 0 -1 0 0 0 0 1 0"
         id="feColorMatrix5196-9" />
      <feColorMatrix
         id="feColorMatrix5198-2"
         type="hueRotate"
         values="180"
         result="fbSourceGraphic"
         in="fbSourceGraphic" />
      <feColorMatrix
         result="fbSourceGraphicAlpha"
         in="fbSourceGraphic"
         values="0 0 0 -1 0 0 0 0 -1 0 0 0 0 -1 0 0 0 0 1 0"
         id="feColorMatrix5200-2" />
      <feColorMatrix
         id="feColorMatrix5202-8"
         in="fbSourceGraphic"
         result="r"
         type="matrix"
         values="1 0 0 0 0 1 0 0 0 0 1 0 0 0 0 0 0 0 0 1 " />
      <feColorMatrix
         id="feColorMatrix5204-9"
         in="fbSourceGraphic"
         result="g"
         type="matrix"
         values="0 1 0 0 0 0 1 0 0 0 0 1 0 0 0 0 0 0 0 1 " />
      <feColorMatrix
         id="feColorMatrix5206-7"
         in="fbSourceGraphic"
         result="b"
         type="matrix"
         values="0 0 1 0 0 0 0 1 0 0 0 0 1 0 0 0 0 0 0 1 " />
      <feBlend
         id="feBlend5208-3"
         in2="g"
         mode="darken"
         in="r"
         result="minrg" />
      <feBlend
         id="feBlend5210-6"
         in2="b"
         mode="darken"
         in="minrg"
         result="p" />
      <feBlend
         id="feBlend5212-1"
         in2="g"
         mode="lighten"
         in="r"
         result="maxrg" />
      <feBlend
         id="feBlend5214-2"
         in2="b"
         mode="lighten"
         in="maxrg"
         result="q" />
      <feComponentTransfer
         id="feComponentTransfer5216-9"
         in="q"
         result="q2">
        <feFuncR
           id="feFuncR5218-3"
           type="linear"
           slope="0" />
      </feComponentTransfer>
      <feBlend
         id="feBlend5220-1"
         in2="q2"
         mode="lighten"
         in="p"
         result="pq" />
      <feColorMatrix
         id="feColorMatrix5222-9"
         in="pq"
         result="qminp"
         type="matrix"
         values="-1 1 0 0 0 -1 1 0 0 0 -1 1 0 0 0 0 0 0 0 1 " />
      <feComponentTransfer
         id="feComponentTransfer5224-4"
         in="qminp"
         result="coefsq">
        <feFuncR
           id="feFuncR5226-7"
           type="table"
           tableValues="1 1 0 0 0 1 1" />
        <feFuncG
           id="feFuncG5228-8"
           type="table"
           tableValues="0 1 1 1 0 0 0" />
        <feFuncB
           id="feFuncB5230-4"
           type="table"
           tableValues="0 0 0 1 1 1 0" />
      </feComponentTransfer>
      <feFlood
         id="feFlood5232-5"
         flood-color="rgb(203,0,254)"
         result="result1" />
      <feComposite
         k4="0"
         k3="0"
         k2="0"
         id="feComposite5234-0"
         in2="result1"
         in="qminp"
         result="qminpc"
         operator="arithmetic"
         k1="1" />
      <feComposite
         k4="0"
         k1="0"
         id="feComposite5236-3"
         in2="qminpc"
         in="p"
         result="color"
         operator="arithmetic"
         k2="1"
         k3="1" />
      <feComposite
         id="feComposite5238-6"
         in2="fbSourceGraphic"
         in="color"
         operator="in"
         result="fbSourceGraphic" />
      <feColorMatrix
         result="fbSourceGraphicAlpha"
         in="fbSourceGraphic"
         values="0 0 0 -1 0 0 0 0 -1 0 0 0 0 -1 0 0 0 0 1 0"
         id="feColorMatrix5240-1" />
      <feColorMatrix
         id="feColorMatrix5242-06"
         type="saturate"
         values="1"
         result="fbSourceGraphic"
         in="fbSourceGraphic" />
      <feColorMatrix
         id="feColorMatrix5244-3"
         in="fbSourceGraphic"
         values="-1 0 0 0 1 0 -1 0 0 1 0 0 -1 0 1 0 0 0 1 0 " />
    </filter>
  </defs>
  <metadata
     id="metadata7">
    <rdf:RDF>
      <cc:Work
         rdf:about="">
        <dc:format>image/svg+xml</dc:format>
        <dc:type
           rdf:resource="http://purl.org/dc/dcmitype/StillImage" />
        <dc:title />
      </cc:Work>
    </rdf:RDF>
  </metadata>
  <g
     inkscape:label="puntero"
     inkscape:groupmode="layer"
     id="layer1">
    <text
       sodipodi:linespacing="125%"
       id="text3074-3"
       y="32.569141"
       x="0.29636633"
       style="font-size:14px;font-style:normal;font-weight:normal;line-height:125%;letter-spacing:0px;word-spacing:0px;fill:#ffffff;fill-opacity:1;stroke:none;font-family:Sans"
       xml:space="preserve"><tspan
         style="font-size:22px;fill:#ffffff"
         y="32.569141"
         x="0.29636633"
         id="tspan3076-6"
         sodipodi:role="line">SLIC</tspan></text>
    <text
       sodipodi:linespacing="125%"
       id="text3074"
       y="31.940409"
       x="-0.29496452"
       style="font-size:14px;font-style:normal;font-weight:normal;line-height:125%;letter-spacing:0px;word-spacing:0px;fill:#000000;fill-opacity:1;stroke:none;font-family:Sans"
       xml:space="preserve"><tspan
         style="font-size:22px"
         y="31.940409"
         x="-0.29496452"
         id="tspan3076"
         sodipodi:role="line">SLIC</tspan></text>
    <g
       id="g3158"
       transform="translate(-0.09601478,0.09601443)"
       style="stroke:none;stroke-opacity:1">
      <path
         inkscape:connector-curvature="0"
         id="path3150"
         d="m 8.7878469,40.368209 0,-0.816122 -3.4085107,0 -3.4085107,0 0,-0.816122 0,-0.816122 -0.8161223,0 -0.81612224,0 0,-18.914834 0,-18.91483427 11.85777704,0 11.857776,0 0,1.63224457 0,1.6322445 0.86413,0 0.864129,0 0,1.6802518 0,1.6802517 0.86413,0 0.864129,0 0,0.8161223 0,0.8161223 0.864129,0 0.86413,0 0,1.6322445 0,1.6322446 0.816122,0 0.816122,0 0,1.632245 0,1.632244 0.86413,0 0.864129,0 0,2.496374 0,2.496374 0.86413,0 c 0.475271,0 0.864107,0.0108 0.864081,0.024 -2.7e-5,0.0132 -0.08386,0.244518 -0.186301,0.514036 -0.293567,0.772373 -0.502073,2.087159 -0.518582,3.270043 l -0.01518,1.08749 -0.504075,5.76e-4 -0.504076,5.76e-4 0,1.632245 0,1.632244 -0.864129,0 -0.86413,0 0,-5.760863 0,-5.760863 -0.288043,0 c -0.265182,0 -0.288043,-0.02667 -0.288043,-0.33605 l 0,-0.336051 -1.152172,0 -1.152173,0 0,7.729158 0,7.729158 -0.240036,0 c -0.237212,0 -0.240036,0.0096 -0.240036,0.816123 l 0,0.816122 -0.864129,0 -0.86413,0 0,0.816122 0,0.816122 -0.864129,0 -0.86413,0 0,0.86413 0,0.864129 -0.816122,0 -0.816122,0 0,1.632245 0,1.632244 -0.86413,0 -0.864129,0 0,0.816123 0,0.816122 -5.952892,0 -5.9528921,0 0,-0.816122 0,8e-6 z m 0.7022446,-7.71692 c 2.1383635,-0.56876 3.2919545,-1.81444 3.5390865,-3.821605 0.08763,-0.711739 0.07936,-0.983588 -0.04911,-1.613545 C 12.760665,26.140248 12.460436,25.602044 11.552534,24.657062 10.387839,23.444801 9.5790508,23.077877 6.9155663,22.553406 5.5191744,22.27844 4.4441974,21.933231 4.2229091,21.688711 4.0987332,21.551497 4.0313408,21.298872 4.0038846,20.867682 c -0.09763,-1.533243 0.8370284,-2.469834 2.7293911,-2.735033 1.2917326,-0.181027 2.7966404,0.06487 4.4531343,0.72762 0.46295,0.185222 0.868776,0.336768 0.901833,0.336768 0.03306,0 0.06011,-0.477519 0.06011,-1.061153 l 0,-1.061152 -0.282381,-0.09844 C 11.665186,16.906302 11.575018,16.80519 11.553925,16.626387 11.528365,16.40973 11.444511,16.35101 10.948174,16.202203 8.95996,15.606114 6.258105,15.416891 4.8032529,15.771845 c -1.3914175,0.339478 -2.6146817,1.176531 -3.1460008,2.152739 -0.4946415,0.908819 -0.6713785,2.229777 -0.4425966,3.308032 0.165666,0.780787 0.520071,1.387433 1.2538185,2.146199 1.0311606,1.066319 1.9308989,1.479119 4.2700128,1.959082 1.6170581,0.331803 2.4418774,0.596572 2.8792023,0.924226 0.5509229,0.412766 0.6745509,1.75376 0.2401777,2.605202 -0.9684713,1.89836 -4.6065011,2.104059 -7.908645,0.447167 -0.3551351,-0.178193 -0.668382,-0.323988 -0.6961043,-0.323988 -0.027722,0 -0.050404,0.514251 -0.050404,1.142779 l 0,1.142781 0.2880432,0.100413 c 0.211443,0.07371 0.2880431,0.161296 0.2880431,0.32936 0,0.206614 0.097948,0.25962 1.0040923,0.543381 1.675631,0.52473 2.7608166,0.679651 4.4687277,0.637955 1.1103902,-0.02711 1.6786982,-0.087 2.2384748,-0.235885 l 0,0 z m 16.9644025,-0.972382 0,-0.960143 -0.288043,0 c -0.265183,0 -0.288044,-0.02667 -0.288044,-0.336051 l 0,-0.33605 -3.600539,0 -3.600539,0 0,-6.769014 0,-6.769014 -0.336051,0 c -0.320047,0 -0.33605,-0.016 -0.33605,-0.336051 l 0,-0.33605 -1.104166,0 -1.104165,0 0,8.065208 0,8.065209 0.288043,0 c 0.265182,0 0.288043,0.02667 0.288043,0.33605 l 0,0.33605 5.040756,0 5.040755,0 0,-0.960144 z"
         style="fill:#dcdcdc;fill-opacity:1;fill-rule:nonzero;stroke:none;stroke-width:0.08602889000000000;stroke-linecap:round;stroke-linejoin:miter;stroke-miterlimit:4;stroke-opacity:1;stroke-dasharray:none;stroke-dashoffset:0" />
      <path
         inkscape:connector-curvature="0"
         id="path3152"
         d="m 36.583256,23.925746 c 0.15194,-1.979375 0.673521,-3.329671 1.681007,-4.351865 1.011322,-1.026086 2.123293,-1.434005 3.902441,-1.431583 0.592816,7.68e-4 1.311436,0.06463 1.666393,0.148005 0.84955,0.199539 2.036153,0.792615 2.760414,1.379682 l 0.60009,0.486417 0,-1.197577 c 0,-1.182704 -0.0031,-1.199601 -0.248793,-1.360591 -0.136834,-0.08966 -0.284657,-0.257351 -0.328494,-0.372648 -0.117341,-0.308631 -1.661216,-1.069103 -2.763056,-1.361009 -0.810446,-0.214708 -1.126808,-0.246942 -2.42052,-0.246629 -1.222871,2.88e-4 -1.625179,0.03733 -2.256338,0.207685 -2.029257,0.547725 -3.573383,1.710404 -4.491304,3.381811 l -0.309415,0.563401 -0.840126,0.0011 -0.840126,0.0011 0,-2.496374 0,-2.496374 -0.86413,0 -0.864129,0 0,-1.632245 0,-1.632244 -0.816122,0 -0.816123,0 0,-1.632245 0,-1.6322445 -0.864129,0 -0.86413,0 0,-0.8161223 0,-0.8161223 -0.864129,0 -0.86413,0 0,-1.6802517 0,-1.6802518 -0.864129,0 -0.864129,0 0,-1.5842373 0,-1.58423737 11.905783,0 11.905784,0 0,12.33784827 0,12.337849 -5.721475,0 -5.721475,0 0.06449,-0.840126 0,0 z"
         style="fill:#808080;fill-opacity:1;fill-rule:nonzero;stroke:none;stroke-width:0.08602889000000000;stroke-linecap:round;stroke-linejoin:miter;stroke-miterlimit:4;stroke-opacity:1;stroke-dasharray:none;stroke-dashoffset:0" />
      <path
         inkscape:connector-curvature="0"
         id="path3154"
         d="m 0.33858096,42.912591 0,-4.896734 0.76811504,0 0.7681151,0 0,0.816122 0,0.816122 3.4085107,0 3.4085107,0 0,0.816123 0,0.816122 5.1367695,0 5.13677,0 0,3.264489 0,3.264489 -9.3133957,0 -9.31339534,0 0,-4.896733 z"
         style="fill:#696969;fill-opacity:1;fill-rule:nonzero;stroke:none;stroke-width:0.08602889000000000;stroke-linecap:round;stroke-linejoin:miter;stroke-miterlimit:4;stroke-opacity:1;stroke-dasharray:none;stroke-dashoffset:0" />
      <path
         inkscape:connector-curvature="0"
         id="path3156"
         d="m 19.061386,44.544835 0,-3.264489 0.86413,0 0.864129,0 0,-0.816122 0,-0.816123 0.864129,0 0.86413,0 0,-1.632244 0,-1.632245 0.816122,0 0.816123,0 0,-0.864129 0,-0.86413 0.864129,0 0.864129,0 0,-0.816122 0,-0.816122 0.86413,0 0.864129,0 0,-0.816122 c 0,-0.752113 0.01506,-0.816123 0.192029,-0.816123 0.149356,0 0.192029,0.06401 0.192029,0.288043 0,0.265183 0.02667,0.288044 0.33605,0.288044 0.320048,0 0.336051,0.016 0.336051,0.33605 l 0,0.33605 1.104165,0 1.104165,0 0,-1.089091 c 0,-0.599 0.02824,-1.614352 0.06276,-2.256338 l 0.06276,-1.167247 0.849375,0 0.849374,0 0,-1.632244 0,-1.632245 0.480072,0 c 0.465325,0 0.480072,0.0085 0.480072,0.277437 0,0.53533 0.305551,1.889769 0.5834,2.586078 0.417708,1.046808 1.059535,1.96663 2.094269,3.001364 0.802697,0.802696 1.047352,0.984213 1.836601,1.362622 1.389695,0.666297 1.973751,0.785554 3.838981,0.783872 1.174239,-0.0011 1.753925,-0.04407 2.239911,-0.166201 0.814098,-0.204584 1.911242,-0.656459 2.499209,-1.029337 l 0.445657,-0.282627 0,-1.154288 c 0,-0.634858 -0.02962,-1.154287 -0.06582,-1.154287 -0.0362,0 -0.165821,0.09394 -0.288043,0.208766 l -0.22222,0.208765 0,-0.544816 c 0,-0.299649 -0.02139,-0.544816 -0.04752,-0.544816 -0.02614,0 -0.312792,0.213757 -0.637011,0.475015 -1.479802,1.192439 -3.452479,1.730621 -5.334703,1.455403 -1.549031,-0.226498 -2.621624,-0.831414 -3.142474,-1.77228 -0.389635,-0.703836 -0.685531,-1.63155 -0.771194,-2.4179 -0.03431,-0.314964 -0.08558,-0.734686 -0.113934,-0.932716 l -0.05155,-0.360054 5.721295,0 5.721296,0 0,11.473719 0,11.473719 -14.450165,0 -14.450165,0 0,-3.264489 z"
         style="fill:#a9a9a9;fill-opacity:1;fill-rule:nonzero;stroke:none;stroke-width:0.08602889000000000;stroke-linecap:round;stroke-linejoin:miter;stroke-miterlimit:4;stroke-opacity:1;stroke-dasharray:none;stroke-dashoffset:0" />
    </g>
  </g>
  <g
     inkscape:groupmode="layer"
     id="layer2"
     inkscape:label="mas" />
</svg>
