<?xml version="1.0" encoding="UTF-8" standalone="no"?>
<!-- Created with Inkscape (http://www.inkscape.org/) -->

<svg
   xmlns:dc="http://purl.org/dc/elements/1.1/"
   xmlns:cc="http://creativecommons.org/ns#"
   xmlns:rdf="http://www.w3.org/1999/02/22-rdf-syntax-ns#"
   xmlns:svg="http://www.w3.org/2000/svg"
   xmlns="http://www.w3.org/2000/svg"
   xmlns:sodipodi="http://sodipodi.sourceforge.net/DTD/sodipodi-0.dtd"
   xmlns:inkscape="http://www.inkscape.org/namespaces/inkscape"
   width="48"
   height="48"
   id="svg2"
   sodipodi:version="0.32"
   inkscape:version="0.91 r13725"
   version="1.0"
   sodipodi:docname="tag2.svg"
   inkscape:output_extension="org.inkscape.output.svg.inkscape">
  <defs
     id="defs4">
    <inkscape:perspective
       sodipodi:type="inkscape:persp3d"
       inkscape:vp_x="0 : 526.18109 : 1"
       inkscape:vp_y="0 : 1000 : 0"
       inkscape:vp_z="744.09448 : 526.18109 : 1"
       inkscape:persp3d-origin="372.04724 : 350.78739 : 1"
       id="perspective10" />
  </defs>
  <sodipodi:namedview
     id="base"
     pagecolor="#ffffff"
     bordercolor="#666666"
     borderopacity="1.0"
     inkscape:pageopacity="0.0"
     inkscape:pageshadow="2"
     inkscape:zoom="2.8"
     inkscape:cx="-44.711909"
     inkscape:cy="43.181519"
     inkscape:document-units="px"
     inkscape:current-layer="layer1"
     showgrid="false"
     inkscape:window-width="1276"
     inkscape:window-height="873"
     inkscape:window-x="0"
     inkscape:window-y="35"
     inkscape:window-maximized="0" />
  <metadata
     id="metadata7">
    <rdf:RDF>
      <cc:Work
         rdf:about="">
        <dc:format>image/svg+xml</dc:format>
        <dc:type
           rdf:resource="http://purl.org/dc/dcmitype/StillImage" />
        <dc:title></dc:title>
      </cc:Work>
    </rdf:RDF>
  </metadata>
  <g
     inkscape:label="Capa 1"
     inkscape:groupmode="layer"
     id="layer1">
    <path
       style="display:inline;fill:#fcaf3e;stroke:#2e3436"
       d="M 13.047925,44.721079 C 12.626236,44.541577 10.256845,42.353027 7.7826031,39.857632 3.6155427,35.654935 3.2658736,35.188356 3.0381539,33.526812 2.902938,32.540253 2.9116114,31.246437 3.057416,30.651665 3.3929035,29.28322 28.210471,4.2369666 29.998954,3.4618655 30.879416,3.080287 32.94197,2.9272495 37.20424,2.9272495 c 5.829191,0 5.994161,0.0225 6.912663,0.9409553 0.917994,0.9179972 0.940955,1.0857722 0.940955,6.8753962 0,3.26394 -0.182523,6.420062 -0.4056,7.013608 -0.427838,1.138353 -23.25381,24.330931 -25.815742,26.230369 -1.160045,0.860068 -1.89026,1.103026 -3.258495,1.08417 -0.969876,-0.01345 -2.108427,-0.171136 -2.530116,-0.350669 z M 23.923012,33.4543 c 6.623255,-6.629168 7.761454,-7.933603 7.537702,-8.638584 -0.330919,-1.042635 -7.291966,-7.974123 -8.3432,-8.307776 -0.636664,-0.20206 -2.2008,1.173985 -8.586687,7.554176 -4.9315331,4.927126 -7.8082238,8.082599 -7.8082238,8.564918 0,1.033856 7.5898408,8.63549 8.6220968,8.63549 0.499738,0 3.561213,-2.786641 8.578312,-7.808224 z M 38.680856,12.09989 c 1.154628,-0.908226 1.297172,-2.086369 0.375638,-3.1046495 -1.223462,-1.3519125 -3.965787,-0.4581188 -3.965787,1.2925505 0,0.739144 1.598366,2.60663 2.23099,2.60663 0.19199,0 0.803619,-0.35754 1.359159,-0.794531 z"
       id="path4464"
       inkscape:connector-curvature="0" />
  </g>
</svg>
