<?xml version="1.0" encoding="UTF-8" standalone="no"?>
<!-- Generator: Adobe Illustrator 18.0.0, SVG Export Plug-In . SVG Version: 6.00 Build 0)  -->

<svg
   xmlns:dc="http://purl.org/dc/elements/1.1/"
   xmlns:cc="http://creativecommons.org/ns#"
   xmlns:rdf="http://www.w3.org/1999/02/22-rdf-syntax-ns#"
   xmlns:svg="http://www.w3.org/2000/svg"
   xmlns="http://www.w3.org/2000/svg"
   xmlns:sodipodi="http://sodipodi.sourceforge.net/DTD/sodipodi-0.dtd"
   xmlns:inkscape="http://www.inkscape.org/namespaces/inkscape"
   version="1.1"
   id="Capa_1"
   x="0px"
   y="0px"
   viewBox="0 0 309.694 309.694"
   style="enable-background:new 0 0 309.694 309.694;"
   xml:space="preserve"
   inkscape:version="0.48.4 r9939"
   width="100%"
   height="100%"
   sodipodi:docname="truncate.svg"><metadata
     id="metadata49"><rdf:RDF><cc:Work
         rdf:about=""><dc:format>image/svg+xml</dc:format><dc:type
           rdf:resource="http://purl.org/dc/dcmitype/StillImage" /><dc:title /></cc:Work></rdf:RDF></metadata><defs
     id="defs47"><marker
       inkscape:stockid="Tail"
       orient="auto"
       refY="0.0"
       refX="0.0"
       id="Tail"
       style="overflow:visible"><g
         id="g3847"
         transform="scale(-1.2)"><path
           id="path3849"
           d="M -3.8048674,-3.9585227 L 0.54352094,0"
           style="fill:none;fill-rule:evenodd;stroke:#000000;stroke-width:0.8;stroke-linecap:round" /><path
           id="path3851"
           d="M -1.2866832,-3.9585227 L 3.0617053,0"
           style="fill:none;fill-rule:evenodd;stroke:#000000;stroke-width:0.8;stroke-linecap:round" /><path
           id="path3853"
           d="M 1.3053582,-3.9585227 L 5.6537466,0"
           style="fill:none;fill-rule:evenodd;stroke:#000000;stroke-width:0.8;stroke-linecap:round" /><path
           id="path3855"
           d="M -3.8048674,4.1775838 L 0.54352094,0.21974226"
           style="fill:none;fill-rule:evenodd;stroke:#000000;stroke-width:0.8;stroke-linecap:round" /><path
           id="path3857"
           d="M -1.2866832,4.1775838 L 3.0617053,0.21974226"
           style="fill:none;fill-rule:evenodd;stroke:#000000;stroke-width:0.8;stroke-linecap:round" /><path
           id="path3859"
           d="M 1.3053582,4.1775838 L 5.6537466,0.21974226"
           style="fill:none;fill-rule:evenodd;stroke:#000000;stroke-width:0.8;stroke-linecap:round" /></g></marker><marker
       inkscape:stockid="Arrow1Lend"
       orient="auto"
       refY="0.0"
       refX="0.0"
       id="Arrow1Lend"
       style="overflow:visible;"><path
         id="path3814"
         d="M 0.0,0.0 L 5.0,-5.0 L -12.5,0.0 L 5.0,5.0 L 0.0,0.0 z "
         style="fill-rule:evenodd;stroke:#000000;stroke-width:1.0pt;"
         transform="scale(0.8) rotate(180) translate(12.5,0)" /></marker></defs><sodipodi:namedview
     pagecolor="#ffffff"
     bordercolor="#666666"
     borderopacity="1"
     objecttolerance="10"
     gridtolerance="10"
     guidetolerance="10"
     inkscape:pageopacity="0"
     inkscape:pageshadow="2"
     inkscape:window-width="1920"
     inkscape:window-height="1056"
     id="namedview45"
     showgrid="false"
     inkscape:zoom="3.0481701"
     inkscape:cx="148.31797"
     inkscape:cy="152.17751"
     inkscape:window-x="1920"
     inkscape:window-y="24"
     inkscape:window-maximized="1"
     inkscape:current-layer="Capa_1" /><path
     inkscape:connector-curvature="0"
     id="path5"
     d="m 169.941,182.463 125.645,40.038 c 1.703,0.543 3.566,0.102 4.846,-1.145 1.28,-1.248 1.767,-3.1 1.268,-4.816 -5.93,-20.375 -21.613,-36.46 -41.832,-42.903 l -103.221,-32.893 -8.899,-27.925 c 0.832,-0.193 1.656,-0.416 2.472,-0.676 20.449,-6.517 30.154,-31.434 22.095,-56.726 -7.803,-24.488 -30.171,-40.075 -50.842,-33.485 -19.629,6.254 -30.345,30.837 -22.096,56.728 0.017,0.052 0.035,0.102 0.052,0.153 l 15.499,48.637 -48.583,-15.481 c -0.069,-0.022 -0.137,-0.048 -0.206,-0.07 -24.616,-7.844 -50.126,1.376 -56.729,22.097 -6.516,20.449 8.193,42.781 33.485,50.841 24.63,7.848 50.126,-1.384 56.727,-22.095 0.262,-0.821 0.477,-1.646 0.671,-2.472 l 27.929,8.899 22.001,69.042 h 37.483 l -17.765,-55.748 z m -93.186,-27.01 c -2.157,6.771 -14.017,10.517 -26.572,6.515 -13.105,-4.176 -19.955,-14.255 -17.905,-20.688 2.154,-6.763 14.004,-10.52 26.574,-6.516 13.105,4.176 19.953,14.255 17.903,20.689 z M 128.76,44.799 c 6.577,-2.101 16.574,4.996 20.688,17.905 4.176,13.104 -0.082,24.521 -6.515,26.571 -6.595,2.106 -16.585,-5.024 -20.688,-17.903 -3.978,-12.481 -0.273,-24.41 6.515,-26.573 z m 23.109,119.592 c -3.945,3.945 -10.343,3.945 -14.288,0 -3.946,-3.946 -3.946,-10.343 0,-14.289 3.945,-3.945 10.343,-3.945 14.288,0 3.947,3.946 3.947,10.342 0,14.289 z" /><g
     id="g15" /><g
     id="g17" /><g
     id="g19" /><g
     id="g21" /><g
     id="g23" /><g
     id="g25" /><g
     id="g27" /><g
     id="g29" /><g
     id="g31" /><g
     id="g33" /><g
     id="g35" /><g
     id="g37" /><g
     id="g39" /><g
     id="g41" /><g
     id="g43" /><path
     style="fill:#000000;stroke:#ff0000;stroke-width:20.22024727;stroke-linecap:round;stroke-linejoin:miter;stroke-miterlimit:4;stroke-opacity:1;stroke-dasharray:none"
     d="m 18.667163,262.847 200.989647,0"
     id="path4451"
     inkscape:connector-curvature="0" /><g
     id="g4018"
     style="stroke-width:20;stroke-miterlimit:4;stroke-dasharray:none"
     transform="translate(103.99682,108)"><path
       inkscape:connector-curvature="0"
       id="path3008"
       d="m 122.86059,125.97722 63.97281,57.73956"
       style="fill:none;stroke:#ff0000;stroke-width:20;stroke-linecap:round;stroke-linejoin:miter;stroke-miterlimit:4;stroke-opacity:1;stroke-dasharray:none;marker-start:none" /><path
       inkscape:connector-curvature="0"
       id="path3008-3"
       d="m 186.8334,125.97722 -63.97281,57.73956"
       style="fill:none;stroke:#ff0000;stroke-width:20;stroke-linecap:round;stroke-linejoin:miter;stroke-miterlimit:4;stroke-opacity:1;stroke-dasharray:none;marker-start:none" /></g></svg>