<?xml version="1.0" encoding="UTF-8" standalone="no"?>
<!-- Created with Inkscape (http://www.inkscape.org/) -->

<svg
   xmlns:dc="http://purl.org/dc/elements/1.1/"
   xmlns:cc="http://creativecommons.org/ns#"
   xmlns:rdf="http://www.w3.org/1999/02/22-rdf-syntax-ns#"
   xmlns:svg="http://www.w3.org/2000/svg"
   xmlns="http://www.w3.org/2000/svg"
   xmlns:xlink="http://www.w3.org/1999/xlink"
   xmlns:sodipodi="http://sodipodi.sourceforge.net/DTD/sodipodi-0.dtd"
   xmlns:inkscape="http://www.inkscape.org/namespaces/inkscape"
   width="48"
   height="48"
   id="svg2"
   sodipodi:version="0.32"
   inkscape:version="0.48.4 r9939"
   version="1.0"
   sodipodi:docname="visualBookmarks.svg"
   inkscape:output_extension="org.inkscape.output.svg.inkscape">
  <defs
     id="defs4">
    <linearGradient
       id="linearGradient3367">
      <stop
         id="stop3369"
         offset="0"
         style="stop-color:#000000;stop-opacity:1" />
      <stop
         style="stop-color:#940000;stop-opacity:1;"
         offset="0.44431007"
         id="stop3371" />
      <stop
         style="stop-color:#dc0808;stop-opacity:1;"
         offset="1"
         id="stop3373" />
    </linearGradient>
    <linearGradient
       id="linearGradient3124">
      <stop
         style="stop-color:#4e1818;stop-opacity:1;"
         offset="0"
         id="stop3126" />
      <stop
         id="stop3128"
         offset="0.62318391"
         style="stop-color:#940000;stop-opacity:1;" />
      <stop
         id="stop3130"
         offset="1"
         style="stop-color:#dc0808;stop-opacity:1;" />
    </linearGradient>
    <linearGradient
       id="linearGradient3358">
      <stop
         style="stop-color:#000000;stop-opacity:1"
         offset="0"
         id="stop3360" />
      <stop
         id="stop3362"
         offset="0.11136102"
         style="stop-color:#940000;stop-opacity:1;" />
      <stop
         id="stop3364"
         offset="1"
         style="stop-color:#dc0808;stop-opacity:1;" />
    </linearGradient>
    <linearGradient
       id="linearGradient3336">
      <stop
         style="stop-color:#4e1818;stop-opacity:1;"
         offset="0"
         id="stop3338" />
      <stop
         id="stop3340"
         offset="0.4582659"
         style="stop-color:#940000;stop-opacity:1;" />
      <stop
         id="stop3342"
         offset="1"
         style="stop-color:#dc0808;stop-opacity:1;" />
    </linearGradient>
    <linearGradient
       id="linearGradient3300">
      <stop
         id="stop3308"
         offset="0"
         style="stop-color:#4e1818;stop-opacity:1;" />
      <stop
         style="stop-color:#940000;stop-opacity:1;"
         offset="0.23567311"
         id="stop3322" />
      <stop
         style="stop-color:#dc0808;stop-opacity:1;"
         offset="1"
         id="stop3304" />
    </linearGradient>
    <inkscape:perspective
       sodipodi:type="inkscape:persp3d"
       inkscape:vp_x="22.834507 : -67.351805 : 1"
       inkscape:vp_y="163.04886 : 71.233252 : 1"
       inkscape:vp_z="-116.10672 : 125.71655 : 1"
       inkscape:persp3d-origin="188.14303 : 248.03225 : 1"
       id="perspective10" />
    <linearGradient
       id="linearGradient3256"
       inkscape:collect="always">
      <stop
         id="stop3258"
         offset="0"
         style="stop-color:#000000;stop-opacity:1;" />
      <stop
         id="stop3260"
         offset="1"
         style="stop-color:#000000;stop-opacity:0;" />
    </linearGradient>
    <linearGradient
       id="linearGradient3264">
      <stop
         id="stop3266"
         offset="0"
         style="stop-color:#f70847;stop-opacity:1;" />
      <stop
         style="stop-color:#f8f8f8;stop-opacity:1;"
         offset="0.25"
         id="stop3276" />
      <stop
         style="stop-color:#e2e2e2;stop-opacity:1;"
         offset="0.5"
         id="stop3272" />
      <stop
         id="stop3274"
         offset="0.75"
         style="stop-color:#b0b0b0;stop-opacity:1;" />
      <stop
         id="stop3268"
         offset="1"
         style="stop-color:#c9c9c9;stop-opacity:1;" />
    </linearGradient>
    <inkscape:perspective
       id="perspective22"
       inkscape:persp3d-origin="24 : 16 : 1"
       inkscape:vp_z="48 : 24 : 1"
       inkscape:vp_y="0 : 1000 : 0"
       inkscape:vp_x="0 : 24 : 1"
       sodipodi:type="inkscape:persp3d" />
    <radialGradient
       inkscape:collect="always"
       xlink:href="#linearGradient3256"
       id="radialGradient3385"
       gradientUnits="userSpaceOnUse"
       gradientTransform="matrix(1,0,0,0.315315,0,26.81305)"
       cx="25.455845"
       cy="39.161163"
       fx="25.455845"
       fy="39.161163"
       r="19.622213" />
    <inkscape:perspective
       id="perspective2478"
       inkscape:persp3d-origin="372.04724 : 350.78739 : 1"
       inkscape:vp_z="744.09448 : 526.18109 : 1"
       inkscape:vp_y="6.1230318e-14 : 1000 : 0"
       inkscape:vp_x="0 : 526.18109 : 1"
       sodipodi:type="inkscape:persp3d" />
    <inkscape:path-effect
       teeth="10"
       id="path-effect3585"
       effect="gears" />
    <inkscape:path-effect
       teeth="10"
       id="path-effect3587"
       effect="gears" />
    <inkscape:path-effect
       prop_scale="1"
       id="path-effect3589"
       effect="skeletal" />
    <inkscape:path-effect
       prop_scale="1.04"
       id="path-effect3591"
       effect="bend_path" />
    <marker
       style="overflow:visible"
       id="Arrow2Sstart"
       refX="0"
       refY="0"
       orient="auto"
       inkscape:stockid="Arrow2Sstart">
      <path
         transform="matrix(0.3,0,0,0.3,-0.69,0)"
         d="M 8.7185878,4.0337352 L -2.2072895,0.016013256 L 8.7185884,-4.0017078 C 6.97309,-1.6296469 6.9831476,1.6157441 8.7185878,4.0337352 z"
         style="font-size:12px;fill-rule:evenodd;stroke-width:0.625;stroke-linejoin:round"
         id="path3703" />
    </marker>
    <marker
       orient="auto"
       refY="0"
       refX="0"
       id="RazorWire"
       inkscape:stockid="RazorWire">
       style=&quot;overflow:visible&quot;&gt;
      <path
   d="M 0.022727273,-0.74009011 L 0.022727273,0.69740989 L -7.7585227,3.0099099 L 10.678977,3.0099099 L 3.4914773,0.69740989 L 3.4914773,-0.74009011 L 10.741477,-2.8963401 L -7.7272727,-2.8963401 L 0.022727273,-0.74009011 z"
   style="fill:#808080;fill-opacity:1;fill-rule:evenodd;stroke:#000000;stroke-width:0.1pt"
   transform="scale(0.8,0.8)"
   id="path3906" />
</marker>
    <marker
       style="overflow:visible"
       id="Arrow1Send"
       refX="0"
       refY="0"
       orient="auto"
       inkscape:stockid="Arrow1Send">
      <path
         transform="matrix(-0.2,0,0,-0.2,-1.2,0)"
         style="fill-rule:evenodd;stroke:#000000;stroke-width:1pt;marker-start:none"
         d="M 0,0 L 5,-5 L -12.5,0 L 5,5 L 0,0 z"
         id="path3688" />
    </marker>
    <linearGradient
       id="linearGradient3199">
      <stop
         id="stop3201"
         offset="0"
         style="stop-color:#868686;stop-opacity:1;" />
      <stop
         id="stop3203"
         offset="1"
         style="stop-color:#ffffff;stop-opacity:1;" />
    </linearGradient>
    <inkscape:perspective
       id="perspective2712"
       inkscape:persp3d-origin="372.04724 : 350.78739 : 1"
       inkscape:vp_z="744.09448 : 526.18109 : 1"
       inkscape:vp_y="6.1230318e-14 : 1000 : 0"
       inkscape:vp_x="0 : 526.18109 : 1"
       sodipodi:type="inkscape:persp3d" />
    <inkscape:path-effect
       teeth="10"
       id="path-effect2710"
       effect="gears" />
    <inkscape:path-effect
       teeth="10"
       id="path-effect2708"
       effect="gears" />
    <inkscape:path-effect
       prop_scale="1"
       id="path-effect2706"
       effect="skeletal" />
    <inkscape:path-effect
       prop_scale="1.04"
       id="path-effect2704"
       effect="bend_path" />
    <marker
       style="overflow:visible"
       id="marker2700"
       refX="0"
       refY="0"
       orient="auto"
       inkscape:stockid="Arrow2Sstart">
      <path
         transform="matrix(0.3,0,0,0.3,-0.69,0)"
         d="M 8.7185878,4.0337352 L -2.2072895,0.016013256 L 8.7185884,-4.0017078 C 6.97309,-1.6296469 6.9831476,1.6157441 8.7185878,4.0337352 z"
         style="font-size:12px;fill-rule:evenodd;stroke-width:0.625;stroke-linejoin:round"
         id="path2702" />
    </marker>
    <marker
       orient="auto"
       refY="0"
       refX="0"
       id="marker2696"
       inkscape:stockid="RazorWire">
       style=&quot;overflow:visible&quot;&gt;
      <path
   d="M 0.022727273,-0.74009011 L 0.022727273,0.69740989 L -7.7585227,3.0099099 L 10.678977,3.0099099 L 3.4914773,0.69740989 L 3.4914773,-0.74009011 L 10.741477,-2.8963401 L -7.7272727,-2.8963401 L 0.022727273,-0.74009011 z"
   style="fill:#808080;fill-opacity:1;fill-rule:evenodd;stroke:#000000;stroke-width:0.1pt"
   transform="scale(0.8,0.8)"
   id="path2698" />
</marker>
    <marker
       style="overflow:visible"
       id="marker2692"
       refX="0"
       refY="0"
       orient="auto"
       inkscape:stockid="Arrow1Send">
      <path
         transform="matrix(-0.2,0,0,-0.2,-1.2,0)"
         style="fill-rule:evenodd;stroke:#000000;stroke-width:1pt;marker-start:none"
         d="M 0,0 L 5,-5 L -12.5,0 L 5,5 L 0,0 z"
         id="path2694" />
    </marker>
    <linearGradient
       id="linearGradient3198">
      <stop
         id="stop3200"
         offset="0"
         style="stop-color:#868686;stop-opacity:1;" />
      <stop
         id="stop3202"
         offset="1"
         style="stop-color:#ffffff;stop-opacity:1;" />
    </linearGradient>
    <inkscape:perspective
       id="perspective2672"
       inkscape:persp3d-origin="372.04724 : 350.78739 : 1"
       inkscape:vp_z="744.09448 : 526.18109 : 1"
       inkscape:vp_y="6.1230318e-14 : 1000 : 0"
       inkscape:vp_x="0 : 526.18109 : 1"
       sodipodi:type="inkscape:persp3d" />
    <inkscape:path-effect
       teeth="10"
       id="path-effect2670"
       effect="gears" />
    <inkscape:path-effect
       teeth="10"
       id="path-effect2668"
       effect="gears" />
    <inkscape:path-effect
       prop_scale="1"
       id="path-effect2666"
       effect="skeletal" />
    <inkscape:path-effect
       prop_scale="1.04"
       id="path-effect2664"
       effect="bend_path" />
    <marker
       style="overflow:visible"
       id="marker2660"
       refX="0"
       refY="0"
       orient="auto"
       inkscape:stockid="Arrow2Sstart">
      <path
         transform="matrix(0.3,0,0,0.3,-0.69,0)"
         d="M 8.7185878,4.0337352 L -2.2072895,0.016013256 L 8.7185884,-4.0017078 C 6.97309,-1.6296469 6.9831476,1.6157441 8.7185878,4.0337352 z"
         style="font-size:12px;fill-rule:evenodd;stroke-width:0.625;stroke-linejoin:round"
         id="path2662" />
    </marker>
    <marker
       orient="auto"
       refY="0"
       refX="0"
       id="marker2656"
       inkscape:stockid="RazorWire">
       style=&quot;overflow:visible&quot;&gt;
      <path
   d="M 0.022727273,-0.74009011 L 0.022727273,0.69740989 L -7.7585227,3.0099099 L 10.678977,3.0099099 L 3.4914773,0.69740989 L 3.4914773,-0.74009011 L 10.741477,-2.8963401 L -7.7272727,-2.8963401 L 0.022727273,-0.74009011 z"
   style="fill:#808080;fill-opacity:1;fill-rule:evenodd;stroke:#000000;stroke-width:0.1pt"
   transform="scale(0.8,0.8)"
   id="path2658" />
</marker>
    <marker
       style="overflow:visible"
       id="marker2652"
       refX="0"
       refY="0"
       orient="auto"
       inkscape:stockid="Arrow1Send">
      <path
         transform="matrix(-0.2,0,0,-0.2,-1.2,0)"
         style="fill-rule:evenodd;stroke:#000000;stroke-width:1pt;marker-start:none"
         d="M 0,0 L 5,-5 L -12.5,0 L 5,5 L 0,0 z"
         id="path2654" />
    </marker>
    <linearGradient
       id="linearGradient2646">
      <stop
         id="stop2648"
         offset="0"
         style="stop-color:#41d000;stop-opacity:1;" />
      <stop
         id="stop2650"
         offset="1"
         style="stop-color:#a7fd00;stop-opacity:1;" />
    </linearGradient>
    <linearGradient
       inkscape:collect="always"
       xlink:href="#linearGradient3199"
       id="linearGradient2707"
       gradientUnits="userSpaceOnUse"
       x1="-482.45612"
       y1="473.16379"
       x2="-361.58667"
       y2="473.16379" />
    <linearGradient
       inkscape:collect="always"
       xlink:href="#linearGradient3199"
       id="linearGradient2709"
       gradientUnits="userSpaceOnUse"
       x1="313.02472"
       y1="84.767693"
       x2="446.75058"
       y2="84.767693" />
    <linearGradient
       inkscape:collect="always"
       xlink:href="#linearGradient3199"
       id="linearGradient2711"
       gradientUnits="userSpaceOnUse"
       x1="-364.76328"
       y1="471.94717"
       x2="-243.89383"
       y2="471.94717" />
    <linearGradient
       inkscape:collect="always"
       xlink:href="#linearGradient3199"
       id="linearGradient2713"
       gradientUnits="userSpaceOnUse"
       x1="-196.22874"
       y1="441.06339"
       x2="46.90115"
       y2="441.06339" />
    <linearGradient
       inkscape:collect="always"
       xlink:href="#linearGradient3199"
       id="linearGradient2715"
       gradientUnits="userSpaceOnUse"
       x1="-482.46341"
       y1="403.97192"
       x2="-361.59396"
       y2="403.97192" />
    <linearGradient
       inkscape:collect="always"
       xlink:href="#linearGradient3199"
       id="linearGradient2717"
       gradientUnits="userSpaceOnUse"
       x1="312.86624"
       y1="11.616987"
       x2="446.5921"
       y2="11.616987" />
    <linearGradient
       inkscape:collect="always"
       xlink:href="#linearGradient3199"
       id="linearGradient2719"
       gradientUnits="userSpaceOnUse"
       x1="-367.11237"
       y1="404.1579"
       x2="-246.24292"
       y2="404.1579" />
    <linearGradient
       inkscape:collect="always"
       id="linearGradient3529">
      <stop
         style="stop-color:#ffffff;stop-opacity:1;"
         offset="0"
         id="stop3531" />
      <stop
         style="stop-color:#ffffff;stop-opacity:0;"
         offset="1"
         id="stop3533" />
    </linearGradient>
    <linearGradient
       id="linearGradient3513">
      <stop
         style="stop-color:#2a5d90;stop-opacity:1;"
         offset="0"
         id="stop3515" />
      <stop
         style="stop-color:#4997ca;stop-opacity:1;"
         offset="1"
         id="stop3517" />
    </linearGradient>
    <radialGradient
       inkscape:collect="always"
       xlink:href="#linearGradient3513"
       id="radialGradient4419"
       gradientUnits="userSpaceOnUse"
       gradientTransform="matrix(1,0,0,0.860922,-14.673244,-1.1393566)"
       cx="25.748859"
       cy="24.745079"
       fx="25.748859"
       fy="24.745079"
       r="12.047049" />
    <radialGradient
       inkscape:collect="always"
       xlink:href="#linearGradient3529"
       id="radialGradient4421"
       gradientUnits="userSpaceOnUse"
       cx="375.65048"
       cy="523.67358"
       fx="375.65048"
       fy="523.67358"
       r="9.2176418" />
    <linearGradient
       inkscape:collect="always"
       xlink:href="#linearGradient3513"
       id="linearGradient4431"
       x1="15.553616"
       y1="22.643306"
       x2="34.127601"
       y2="22.643306"
       gradientUnits="userSpaceOnUse" />
    <linearGradient
       inkscape:collect="always"
       xlink:href="#linearGradient2646"
       id="linearGradient3343"
       x1="29.013554"
       y1="36.469256"
       x2="47.842775"
       y2="36.469256"
       gradientUnits="userSpaceOnUse" />
  </defs>
  <sodipodi:namedview
     id="base"
     pagecolor="#ffffff"
     bordercolor="#666666"
     borderopacity="1.0"
     inkscape:pageopacity="0.0"
     inkscape:pageshadow="2"
     inkscape:zoom="11.313708"
     inkscape:cx="27.930719"
     inkscape:cy="20.329321"
     inkscape:document-units="px"
     inkscape:current-layer="layer2"
     showgrid="false"
     inkscape:window-width="1863"
     inkscape:window-height="1059"
     inkscape:window-x="57"
     inkscape:window-y="21"
     inkscape:window-maximized="1" />
  <metadata
     id="metadata7">
    <rdf:RDF>
      <cc:Work
         rdf:about="">
        <dc:format>image/svg+xml</dc:format>
        <dc:type
           rdf:resource="http://purl.org/dc/dcmitype/StillImage" />
        <dc:title></dc:title>
      </cc:Work>
    </rdf:RDF>
  </metadata>
  <g
     inkscape:groupmode="layer"
     id="layer2"
     inkscape:label="icono"
     style="display:inline">
    <path
       sodipodi:type="arc"
       style="opacity:0.40909088999999998;fill:url(#radialGradient3385);fill-opacity:1;fill-rule:nonzero;stroke:none;stroke-width:1.01758971;stroke-linecap:butt;stroke-linejoin:miter;marker:none;marker-start:none;marker-mid:none;marker-end:none;stroke-miterlimit:4;stroke-dasharray:none;stroke-dashoffset:0;stroke-opacity:1;visibility:visible;display:inline;overflow:visible"
       id="path3374"
       sodipodi:cx="25.455845"
       sodipodi:cy="39.161163"
       sodipodi:rx="19.622213"
       sodipodi:ry="6.1871843"
       d="M 45.078058,39.161163 A 19.622213,6.1871843 0 1 1 5.8336315,39.161163 A 19.622213,6.1871843 0 1 1 45.078058,39.161163 z"
       transform="matrix(0.9325851,0,0,1.0248018,0.1236022,1.5126258)" />
    <path
       style="fill:url(#linearGradient4431)"
       d="m 15.553616,1.9456213 0,41.3953687 9.657868,-10.635583 8.916117,10.533791 0,-41.2935767 z"
       id="rect3227"
       inkscape:connector-curvature="0"
       sodipodi:nodetypes="cccccc" />
    <g
       id="g4404"
       transform="matrix(0.58170593,0,0,0.57451236,10.829528,2.2726632)">
      <path
         style="fill:#ffffff;fill-opacity:1;stroke:#000000;stroke-width:1.21652853;stroke-miterlimit:4;stroke-opacity:1;stroke-dasharray:none;display:inline"
         d="m 20.201187,10.70853 c 1.780093,2.091911 2.862852,4.797945 2.862852,7.75788 0,6.616939 -5.368465,11.985404 -11.985407,11.985404 -6.6169386,1.5e-5 -11.98540358,-5.368465 -11.98540358,-11.985404 0,-2.834774 0.978468,-5.437958 2.62551398,-7.490879 -10.5392152,1.47253 -12.6395274,3.59446 -11.8201194,7.115804 1.0324526,4.436869 6.6835609,12.153738 22.129349,12.40498 9.362766,-0.683582 11.436949,-3.649488 16.465098,-9.523053 4.491357,-5.246518 0.143788,-8.58876 -8.291883,-10.264732 z"
         id="path2574"
         sodipodi:nodetypes="cscscscsc"
         inkscape:connector-curvature="0" />
      <path
         style="fill:none;stroke:#000000;stroke-width:2.80055022;stroke-linecap:round;stroke-linejoin:miter;stroke-miterlimit:4.69999981;stroke-opacity:1;stroke-dasharray:none;marker-start:none;marker-end:none;display:inline"
         d="M -9.7391343,16.442114 C -4.7203338,8.6617908 20.985361,4.9250657 29.380323,13.928331"
         id="path2576"
         sodipodi:nodetypes="cc"
         inkscape:connector-curvature="0" />
      <path
         style="fill:#000000;fill-opacity:1;fill-rule:evenodd;stroke:#000000;stroke-width:0.49182865px;stroke-linecap:butt;stroke-linejoin:miter;stroke-opacity:1;display:inline"
         d="m -8.4327238,13.321044 c -0.6829128,-0.214651 -1.2794497,-0.665234 -1.7822092,-1.195536 -3.20419,-3.9825812 -0.373528,1.517281 0.9349142,3.016273"
         id="path2578"
         inkscape:connector-curvature="0" />
      <path
         style="fill:#000000;fill-opacity:1;fill-rule:evenodd;stroke:#000000;stroke-width:0.49182865px;stroke-linecap:butt;stroke-linejoin:miter;stroke-opacity:1;display:inline"
         d="M -4.5351801,12.228587 C -4.8366193,11.434109 -5.2591221,10.703455 -5.6783159,9.9769538 -7.780319,5.3006202 -6.8758325,11.610481 -6.5686785,13.503103"
         id="path2580"
         inkscape:connector-curvature="0" />
      <path
         style="fill:#000000;fill-opacity:1;fill-rule:evenodd;stroke:#000000;stroke-width:0.49182865px;stroke-linecap:butt;stroke-linejoin:miter;stroke-opacity:1;display:inline"
         d="m 0.37911542,10.225773 c -0.618731,-0.9575572 -1.041698,-2.0464712 -1.334636,-3.1646802 -1.03105452,-5.084043 -0.41062202,1.736821 -0.86831902,3.3467482"
         id="path2582"
         inkscape:connector-curvature="0" />
      <path
         style="fill:#000000;fill-opacity:1;fill-rule:evenodd;stroke:#000000;stroke-width:0.49182865px;stroke-linecap:butt;stroke-linejoin:miter;stroke-opacity:1;display:inline"
         d="m 7.3269214,8.7691858 c -0.529703,-0.708747 -0.592707,-1.614849 -0.669085,-2.503844 -0.903998,-5.38363475 -0.558343,-1.9033341 -1.8728,2.139691"
         id="path2584"
         sodipodi:nodetypes="ccc"
         inkscape:connector-curvature="0" />
      <path
         style="fill:#000000;fill-opacity:1;fill-rule:evenodd;stroke:#000000;stroke-width:0.49182865px;stroke-linecap:butt;stroke-linejoin:miter;stroke-opacity:1;display:inline"
         d="M 13.088507,8.4050328 C 12.685114,7.3463318 12.472202,6.2183938 12.315129,5.0912143 11.635026,0.33464145 11.552978,5.3011944 11.224469,7.3125908"
         id="path2586"
         inkscape:connector-curvature="0" />
      <path
         style="fill:#000000;fill-opacity:1;fill-rule:evenodd;stroke:#000000;stroke-width:0.49182865px;stroke-linecap:butt;stroke-linejoin:miter;stroke-opacity:1;display:inline"
         d="M 18.17227,8.0408868 C 18.012239,7.2257688 18.000592,6.3901938 17.982164,5.5613928 17.434329,0.42701735 17.762938,6.8185848 16.13877,7.8588048"
         id="path2588"
         inkscape:connector-curvature="0" />
      <path
         style="fill:#000000;fill-opacity:1;fill-rule:evenodd;stroke:#000000;stroke-width:0.49182865px;stroke-linecap:butt;stroke-linejoin:miter;stroke-opacity:1;display:inline"
         d="m 23.256029,10.043697 c -0.04032,-1.2939872 -0.01836,-2.5892232 -0.06273,-3.8831052 -0.256483,-4.6353899 -0.834042,1.073567 -1.801323,2.426522"
         id="path2590"
         inkscape:connector-curvature="0" />
      <path
         style="fill:#000000;fill-opacity:1;fill-rule:evenodd;stroke:#000000;stroke-width:0.49182865px;stroke-linecap:butt;stroke-linejoin:miter;stroke-opacity:1;display:inline"
         d="m 27.323029,12.228587 c 0.304938,-1.380928 0.360222,-2.8073702 0.354166,-4.2210032 0.302463,-5.1272811 -0.89611,0.783546 -2.726583,1.854045"
         id="path2592"
         inkscape:connector-curvature="0" />
      <path
         style="fill:#000000;fill-opacity:1;fill-rule:evenodd;stroke:#000000;stroke-width:0.49182865px;stroke-linecap:butt;stroke-linejoin:miter;stroke-opacity:1;display:inline"
         d="m 28.33978,12.774799 c 1.129026,-1.648065 1.982454,-3.5098162 3.268547,-5.0336332 2.071774,-0.35118 -2.074914,4.7115082 -1.4045,6.8543992"
         id="path2594"
         inkscape:connector-curvature="0" />
      <path
         style="fill:url(#radialGradient4419);fill-opacity:1;stroke:#234c73;stroke-width:0.70724571;stroke-linecap:round;stroke-linejoin:miter;stroke-miterlimit:4.69999981;stroke-opacity:1;stroke-dasharray:none;display:inline"
         d="M 10.018155,30.121697 C 5.5341144,29.742982 1.4682514,26.573779 0.02061742,22.328961 -1.0846866,19.087937 -0.73928958,15.417284 0.93640242,12.59668 1.5157984,11.621401 1.5982304,11.577555 3.6821754,11.136125 c 3.79243,-0.80333 8.1519646,-1.1531762 11.4353116,-0.917669 2.213335,0.158765 4.44267,0.452123 4.771748,0.627926 0.334628,0.178767 1.264467,1.569354 1.768309,2.644521 1.727366,3.686109 1.424176,8.059747 -0.789561,11.389683 -1.90865,2.871014 -5.232712,4.931896 -8.375923,5.192966 -0.461507,0.03833 -0.97396,0.08452 -1.138785,0.102646 -0.164822,0.01813 -0.765632,-0.0064 -1.335125,-0.0545 l 5e-6,0 z"
         id="path9357"
         inkscape:connector-curvature="0" />
      <path
         sodipodi:type="arc"
         style="fill:url(#radialGradient4421);fill-opacity:1;stroke:none;display:inline"
         id="path9361"
         sodipodi:cx="375.65048"
         sodipodi:cy="523.67358"
         sodipodi:rx="9.2176418"
         sodipodi:ry="9.2176418"
         d="m 384.86812,523.67358 c 0,5.09077 -4.12687,9.21765 -9.21764,9.21765 -5.09076,0 -9.21764,-4.12688 -9.21764,-9.21765 0,-5.09076 4.12688,-9.21764 9.21764,-9.21764 5.09077,0 9.21764,4.12688 9.21764,9.21764 z"
         transform="matrix(0.4746695,0,0,0.4746695,-172.68902,-232.80258)" />
    </g>
    <path
       style="fill:url(#linearGradient3343);fill-opacity:1"
       id="path3341"
       d="m 33.388642,36.162727 c 0.01656,0.760501 0.351547,1.480831 0.64423,2.168757 0.447246,1.06843 0.90489,2.132613 1.38515,3.186642 0.294922,0.643175 0.593251,1.282945 0.945259,1.897119 0.182862,0.32802 0.352779,0.665035 0.550553,0.98443 0.07386,0.167717 0.204131,0.300149 0.294243,0.457576 0.09363,0.185261 0.04627,0.09998 0.139821,0.257075 1.177318,-0.959272 -0.05066,0.05877 -4.303177,-0.0069 -0.03581,-5.53e-4 0.02913,-0.06592 0.03706,-0.100842 0.0194,-0.08546 0.02831,-0.172995 0.04463,-0.259101 0.06776,-0.357556 0.100644,-0.488256 0.184102,-0.86111 0.358777,-1.624954 1.00346,-3.162663 1.680247,-4.67599 0.925993,-1.957114 1.95352,-3.863308 2.985081,-5.76609 0.768912,-1.399249 1.682356,-2.712464 2.663854,-3.969522 0.37136,-0.467893 0.761288,-0.920915 1.178204,-1.348761 0.212096,-0.21015 0.464401,-0.372353 0.699022,-0.555436 0.196488,-0.155731 0.366476,-0.341418 0.57892,-0.476005 0.139584,-0.07926 0.273052,-0.167431 0.414022,-0.244364 0,0 4.332912,0.543665 4.332912,0.543665 l 0,0 c -0.150742,0.01615 -0.284719,0.06245 -0.40695,0.156161 -0.0645,0.03381 -0.135715,0.05401 -0.199282,0.08955 -0.143485,0.08021 -0.255259,0.209849 -0.379071,0.314848 -0.223996,0.193723 -0.460794,0.370712 -0.714772,0.523744 -0.471759,0.413836 -0.944096,0.828144 -1.373233,1.287208 -1.086452,1.187113 -2.036503,2.495747 -2.854715,3.88141 -1.088513,1.856367 -2.086011,3.765034 -2.972526,5.726554 -0.630401,1.476142 -1.224506,2.982855 -1.436211,4.585405 -0.03577,0.290339 -0.07324,0.533636 -0.08419,0.822394 -0.0034,0.09037 0.002,0.180866 0.003,0.271298 8.42e-4,0.0748 0.0771,0.217763 0.0026,0.224388 -4.387279,0.390122 -4.028896,1.581718 -4.437896,0.05476 -0.119976,-0.246287 -0.306466,-0.455273 -0.420164,-0.7062 -0.175006,-0.329648 -0.32692,-0.671113 -0.50249,-1.000573 -0.308262,-0.630272 -0.553023,-1.28845 -0.82532,-1.934639 -0.444759,-1.064096 -0.876081,-2.134028 -1.353435,-3.184189 -0.353991,-0.754501 -0.712143,-1.520225 -0.874566,-2.34328 0,0 4.375108,0 4.375108,0 z"
       inkscape:connector-curvature="0" />
  </g>
  <g
     inkscape:label="rueda"
     inkscape:groupmode="layer"
     id="layer1"
     style="display:inline" />
</svg>
